<?xml version="1.0" encoding="utf-8" standalone="no"?>
<!DOCTYPE svg PUBLIC "-//W3C//DTD SVG 1.1//EN"
  "http://www.w3.org/Graphics/SVG/1.1/DTD/svg11.dtd">
<!-- Created with matplotlib (http://matplotlib.org/) -->
<svg height="499.2pt" version="1.1" viewBox="0 0 790.8 499.2" width="790.8pt" xmlns="http://www.w3.org/2000/svg" xmlns:xlink="http://www.w3.org/1999/xlink">
 <defs>
  <style type="text/css">
*{stroke-linecap:butt;stroke-linejoin:round;}
  </style>
 </defs>
 <g id="figure_1">
  <g id="patch_1">
   <path d="M 0 499.2 
L 790.8 499.2 
L 790.8 0 
L 0 0 
z
" style="fill:#ffffff;"/>
  </g>
  <g id="axes_1">
   <g id="patch_2">
    <path d="M 602.718338 261.803787 
C 602.718338 234.578993 597.355647 207.618925 586.937169 182.466495 
C 576.518691 157.314064 561.247039 134.458422 541.996202 115.207585 
C 522.745365 95.956748 499.889724 80.685097 474.737293 70.266619 
C 449.584862 59.848141 422.624795 54.48545 395.4 54.48545 
C 368.175205 54.48545 341.215138 59.848141 316.062707 70.266619 
C 290.910276 80.685097 268.054635 95.956748 248.803798 115.207585 
C 229.552961 134.458422 214.281309 157.314064 203.862831 182.466495 
C 193.444353 207.618925 188.081662 234.578993 188.081662 261.803787 
C 188.081662 289.028582 193.444353 315.98865 203.862831 341.14108 
C 214.281309 366.293511 229.552961 389.149153 248.803798 408.39999 
C 268.054635 427.650827 290.910276 442.922478 316.062707 453.340956 
C 341.215138 463.759434 368.175205 469.122125 395.4 469.122125 
C 422.624795 469.122125 449.584862 463.759434 474.737293 453.340956 
C 499.889724 442.922478 522.745365 427.650827 541.996202 408.39999 
C 561.247039 389.149153 576.518691 366.293511 586.937169 341.14108 
C 597.355647 315.98865 602.718338 289.028582 602.718338 261.803787 
M 395.4 261.803787 
C 395.4 261.803787 395.4 261.803787 395.4 261.803787 
C 395.4 261.803787 395.4 261.803787 395.4 261.803787 
C 395.4 261.803787 395.4 261.803787 395.4 261.803787 
C 395.4 261.803787 395.4 261.803787 395.4 261.803787 
C 395.4 261.803787 395.4 261.803787 395.4 261.803787 
C 395.4 261.803787 395.4 261.803787 395.4 261.803787 
C 395.4 261.803787 395.4 261.803787 395.4 261.803787 
C 395.4 261.803787 395.4 261.803787 395.4 261.803787 
C 395.4 261.803787 395.4 261.803787 395.4 261.803787 
C 395.4 261.803787 395.4 261.803787 395.4 261.803787 
C 395.4 261.803787 395.4 261.803787 395.4 261.803787 
C 395.4 261.803787 395.4 261.803787 395.4 261.803787 
C 395.4 261.803787 395.4 261.803787 395.4 261.803787 
C 395.4 261.803787 395.4 261.803787 395.4 261.803787 
C 395.4 261.803787 395.4 261.803787 395.4 261.803787 
C 395.4 261.803787 395.4 261.803787 395.4 261.803787 
M 602.718338 261.803787 
z
" style="fill:none;"/>
   </g>
   <g id="PolyCollection_1">
    <path clip-path="url(#p0270cf071f)" d="M 395.4 261.803787 
L 395.4 261.803787 
L 395.4 261.803787 
L 395.4 261.803787 
L 395.4 261.803787 
L 395.4 261.803787 
L 395.4 261.803787 
L 395.4 261.803787 
L 395.4 261.803787 
L 395.4 261.803787 
L 395.4 261.803787 
L 395.4 261.803787 
L 395.4 158.144619 
L 462.030829 182.396257 
L 497.484353 243.803562 
L 485.171473 313.633372 
L 430.853524 359.211543 
L 359.946476 359.211543 
L 305.628527 313.633372 
L 293.315647 243.803562 
L 328.769171 182.396257 
L 395.4 158.144619 
z
" style="fill:#008000;fill-opacity:0.1;"/>
   </g>
   <g id="patch_3">
    <path clip-path="url(#p0270cf071f)" d="M 271.630434 274.222166 
L 272.654422 281.969217 
L 274.16283 289.636684 
L 276.149706 297.194307 
L 278.607208 304.612259 
L 281.525638 311.861267 
L 284.893478 318.91272 
L 288.697437 325.738791 
L 292.922502 332.312539 
L 297.552 338.608021 
L 302.567658 344.600392 
L 307.949683 350.266003 
L 313.676835 355.582494 
L 319.726511 360.528883 
L 326.074835 365.085649 
L 332.696754 369.234809 
L 339.566134 372.959988 
L 346.655865 376.246484 
L 353.937967 379.081327 
L 361.383701 381.453329 
L 368.963681 383.353129 
L 376.647993 384.77323 
L 384.406311 385.708026 
L 392.208016 386.153829 
L 400.022319 386.108879 
L 407.818379 385.573353 
L 415.565429 384.549366 
L 423.232896 383.040958 
L 430.790519 381.054082 
L 438.208472 378.596579 
L 445.457479 375.678149 
L 452.508933 372.310309 
L 459.335003 368.50635 
L 465.908751 364.281285 
L 472.204234 359.651788 
L 478.196605 354.63613 
L 483.862216 349.254104 
L 489.178706 343.526953 
L 494.125096 337.477277 
L 498.681862 331.128953 
L 502.831022 324.507033 
L 506.556201 317.637653 
L 509.842697 310.547922 
L 512.67754 303.26582 
L 515.049542 295.820087 
L 516.949342 288.240107 
L 518.369442 280.555794 
L 519.304238 272.797476 
L 519.750041 264.995771 
L 519.705091 257.181469 
L 519.169566 249.385409 
L 518.145578 241.638358 
L 516.63717 233.970891 
L 514.650294 226.413268 
L 512.192792 218.995316 
L 509.274362 211.746308 
L 505.906522 204.694855 
L 502.102563 197.868784 
L 497.877498 191.295036 
L 493.248 184.999554 
L 488.232342 179.007183 
L 482.850317 173.341572 
L 477.123165 168.025081 
L 471.073489 163.078692 
L 464.725165 158.521926 
L 458.103246 154.372766 
L 451.233866 150.647587 
L 444.144135 147.361091 
L 436.862033 144.526248 
L 429.416299 142.154246 
L 421.836319 140.254446 
L 414.152007 138.834345 
L 406.393689 137.899549 
L 398.591984 137.453746 
L 390.777681 137.498696 
L 382.981621 138.034222 
L 375.234571 139.058209 
L 367.567104 140.566617 
L 360.009481 142.553493 
L 352.591528 145.010996 
L 345.342521 147.929426 
L 338.291067 151.297266 
L 331.464997 155.101225 
L 324.891249 159.32629 
L 318.595766 163.955787 
L 312.603395 168.971445 
L 306.937784 174.353471 
L 301.621294 180.080622 
L 296.674904 186.130298 
L 292.118138 192.478622 
L 287.968978 199.100542 
L 284.243799 205.969922 
L 280.957303 213.059653 
L 278.12246 220.341755 
L 275.750458 227.787488 
L 273.850658 235.367468 
L 272.430558 243.051781 
L 271.495762 250.810099 
L 271.049959 258.611804 
L 271.094909 266.426106 
L 271.630434 274.222166 
L 271.424152 274.242864 
L 271.217869 274.263561 
L 271.011587 274.284258 
L 270.805304 274.304955 
L 270.599021 274.325653 
L 270.392739 274.34635 
L 270.186456 274.367047 
L 269.980174 274.387745 
L 269.773891 274.408442 
L 269.567608 274.429139 
L 269.361326 274.449837 
L 269.155043 274.470534 
L 268.94876 274.491231 
L 268.742478 274.511928 
L 268.536195 274.532626 
L 268.329913 274.553323 
L 268.12363 274.57402 
L 267.917347 274.594718 
L 267.711065 274.615415 
L 267.504782 274.636112 
L 267.2985 274.65681 
L 267.092217 274.677507 
L 266.885934 274.698204 
L 266.679652 274.718901 
L 266.473369 274.739599 
L 266.267087 274.760296 
L 266.060804 274.780993 
L 265.854521 274.801691 
L 265.648239 274.822388 
L 265.441956 274.843085 
L 265.235673 274.863783 
L 265.029391 274.88448 
L 264.823108 274.905177 
L 264.616826 274.925874 
L 264.410543 274.946572 
L 264.20426 274.967269 
L 263.997978 274.987966 
L 263.791695 275.008664 
L 263.585413 275.029361 
L 263.37913 275.050058 
L 263.172847 275.070755 
L 262.966565 275.091453 
L 262.760282 275.11215 
L 262.554 275.132847 
L 262.347717 275.153545 
L 262.141434 275.174242 
L 261.935152 275.194939 
L 261.728869 275.215637 
L 261.522587 275.236334 
L 261.316304 275.257031 
L 261.110021 275.277728 
L 260.903739 275.298426 
L 260.697456 275.319123 
L 260.491173 275.33982 
L 260.284891 275.360518 
L 260.078608 275.381215 
L 259.872326 275.401912 
L 259.666043 275.42261 
L 259.45976 275.443307 
L 259.253478 275.464004 
L 259.047195 275.484701 
L 258.840913 275.505399 
L 258.63463 275.526096 
L 258.428347 275.546793 
L 258.222065 275.567491 
L 258.015782 275.588188 
L 257.8095 275.608885 
L 257.603217 275.629583 
L 257.396934 275.65028 
L 257.190652 275.670977 
L 256.984369 275.691674 
L 256.778087 275.712372 
L 256.571804 275.733069 
L 256.365521 275.753766 
L 256.159239 275.774464 
L 255.952956 275.795161 
L 255.746673 275.815858 
L 255.540391 275.836556 
L 255.334108 275.857253 
L 255.127826 275.87795 
L 254.921543 275.898647 
L 254.71526 275.919345 
L 254.508978 275.940042 
L 254.302695 275.960739 
L 254.096413 275.981437 
L 253.89013 276.002134 
L 253.683847 276.022831 
L 253.477565 276.043529 
L 253.271282 276.064226 
L 253.065 276.084923 
L 252.858717 276.10562 
L 252.652434 276.126318 
L 252.446152 276.147015 
L 252.239869 276.167712 
L 252.033587 276.18841 
L 251.827304 276.209107 
L 251.621021 276.229804 
L 251.414739 276.250501 
L 251.208456 276.271199 
L 251.002173 276.291896 
L 250.377394 267.196493 
L 250.324952 258.079806 
L 250.845055 248.977817 
L 251.935651 239.926446 
L 253.592434 230.961415 
L 255.808868 222.118105 
L 258.576204 213.431416 
L 261.88352 204.93563 
L 265.717766 196.664278 
L 270.063808 188.650001 
L 274.904494 180.924428 
L 280.220722 173.51805 
L 285.991509 166.460095 
L 292.194082 159.778418 
L 298.803961 153.499388 
L 305.795061 147.647787 
L 313.13979 142.246707 
L 320.809163 137.317464 
L 328.772912 132.879512 
L 336.999608 128.950365 
L 345.456783 125.54553 
L 354.111061 122.678444 
L 362.928288 120.360422 
L 371.873666 118.600613 
L 380.911891 117.405961 
L 390.007295 116.781181 
L 399.123981 116.728739 
L 408.22597 117.248843 
L 417.277341 118.339438 
L 426.242372 119.996222 
L 435.085683 122.212655 
L 443.772372 124.979991 
L 452.268157 128.287308 
L 460.53951 132.121553 
L 468.553787 136.467595 
L 476.279359 141.308282 
L 483.685738 146.624509 
L 490.743693 152.395297 
L 497.42537 158.597869 
L 503.704399 165.207749 
L 509.556001 172.198848 
L 514.95708 179.543578 
L 519.886323 187.212951 
L 524.324275 195.1767 
L 528.253422 203.403395 
L 531.658257 211.86057 
L 534.525343 220.514849 
L 536.843365 229.332075 
L 538.603175 238.277453 
L 539.797827 247.315679 
L 540.422606 256.411082 
L 540.475048 265.527769 
L 539.954945 274.629758 
L 538.864349 283.681129 
L 537.207566 292.64616 
L 534.991132 301.48947 
L 532.223796 310.176159 
L 528.91648 318.671945 
L 525.082234 326.943297 
L 520.736192 334.957574 
L 515.895506 342.683147 
L 510.579278 350.089525 
L 504.808491 357.14748 
L 498.605918 363.829157 
L 491.996039 370.108187 
L 485.004939 375.959788 
L 477.66021 381.360868 
L 469.990837 386.290111 
L 462.027088 390.728063 
L 453.800392 394.65721 
L 445.343217 398.062045 
L 436.688939 400.929131 
L 427.871712 403.247153 
L 418.926334 405.006962 
L 409.888109 406.201614 
L 400.792705 406.826394 
L 391.676019 406.878836 
L 382.57403 406.358732 
L 373.522659 405.268137 
L 364.557628 403.611353 
L 355.714317 401.39492 
L 347.027628 398.627584 
L 338.531843 395.320267 
L 330.26049 391.486022 
L 322.246213 387.13998 
L 314.520641 382.299293 
L 307.114262 376.983066 
L 300.056307 371.212278 
L 293.37463 365.009706 
L 287.095601 358.399826 
L 281.243999 351.408727 
L 275.84292 344.063997 
L 270.913677 336.394624 
L 266.475725 328.430875 
L 262.546578 320.20418 
L 259.141743 311.747005 
L 256.274657 303.092726 
L 253.956635 294.2755 
L 252.196825 285.330122 
L 251.002173 276.291896 
L 251.208456 276.271199 
L 251.414739 276.250501 
L 251.621021 276.229804 
L 251.827304 276.209107 
L 252.033587 276.18841 
L 252.239869 276.167712 
L 252.446152 276.147015 
L 252.652434 276.126318 
L 252.858717 276.10562 
L 253.065 276.084923 
L 253.271282 276.064226 
L 253.477565 276.043529 
L 253.683847 276.022831 
L 253.89013 276.002134 
L 254.096413 275.981437 
L 254.302695 275.960739 
L 254.508978 275.940042 
L 254.71526 275.919345 
L 254.921543 275.898647 
L 255.127826 275.87795 
L 255.334108 275.857253 
L 255.540391 275.836556 
L 255.746673 275.815858 
L 255.952956 275.795161 
L 256.159239 275.774464 
L 256.365521 275.753766 
L 256.571804 275.733069 
L 256.778087 275.712372 
L 256.984369 275.691674 
L 257.190652 275.670977 
L 257.396934 275.65028 
L 257.603217 275.629583 
L 257.8095 275.608885 
L 258.015782 275.588188 
L 258.222065 275.567491 
L 258.428347 275.546793 
L 258.63463 275.526096 
L 258.840913 275.505399 
L 259.047195 275.484701 
L 259.253478 275.464004 
L 259.45976 275.443307 
L 259.666043 275.42261 
L 259.872326 275.401912 
L 260.078608 275.381215 
L 260.284891 275.360518 
L 260.491173 275.33982 
L 260.697456 275.319123 
L 260.903739 275.298426 
L 261.110021 275.277728 
L 261.316304 275.257031 
L 261.522587 275.236334 
L 261.728869 275.215637 
L 261.935152 275.194939 
L 262.141434 275.174242 
L 262.347717 275.153545 
L 262.554 275.132847 
L 262.760282 275.11215 
L 262.966565 275.091453 
L 263.172847 275.070755 
L 263.37913 275.050058 
L 263.585413 275.029361 
L 263.791695 275.008664 
L 263.997978 274.987966 
L 264.20426 274.967269 
L 264.410543 274.946572 
L 264.616826 274.925874 
L 264.823108 274.905177 
L 265.029391 274.88448 
L 265.235673 274.863783 
L 265.441956 274.843085 
L 265.648239 274.822388 
L 265.854521 274.801691 
L 266.060804 274.780993 
L 266.267087 274.760296 
L 266.473369 274.739599 
L 266.679652 274.718901 
L 266.885934 274.698204 
L 267.092217 274.677507 
L 267.2985 274.65681 
L 267.504782 274.636112 
L 267.711065 274.615415 
L 267.917347 274.594718 
L 268.12363 274.57402 
L 268.329913 274.553323 
L 268.536195 274.532626 
L 268.742478 274.511928 
L 268.94876 274.491231 
L 269.155043 274.470534 
L 269.361326 274.449837 
L 269.567608 274.429139 
L 269.773891 274.408442 
L 269.980174 274.387745 
L 270.186456 274.367047 
L 270.392739 274.34635 
L 270.599021 274.325653 
L 270.805304 274.304955 
L 271.011587 274.284258 
L 271.217869 274.263561 
L 271.424152 274.242864 
z
" style="fill:#008000;opacity:0.1;"/>
   </g>
   <g id="patch_4">
    <path clip-path="url(#p0270cf071f)" d="M 230.373913 278.361626 
L 231.739229 288.691027 
L 233.75044 298.914316 
L 236.399608 308.991146 
L 239.676277 318.88175 
L 243.567518 328.547093 
L 248.057971 337.949031 
L 253.129916 347.050458 
L 258.763337 355.815456 
L 264.935999 364.209432 
L 271.623544 372.199261 
L 278.799578 379.753408 
L 286.43578 386.842063 
L 294.502014 393.437248 
L 302.966447 399.512937 
L 311.795672 405.04515 
L 320.954846 410.012055 
L 330.40782 414.39405 
L 340.117289 418.173841 
L 350.044934 421.33651 
L 360.151575 423.869577 
L 370.397324 425.763044 
L 380.741748 427.009439 
L 391.144022 427.603842 
L 401.563091 427.543909 
L 411.957838 426.829875 
L 422.287239 425.464558 
L 432.510528 423.453348 
L 442.587359 420.80418 
L 452.477963 417.52751 
L 462.143306 413.63627 
L 471.545243 409.145816 
L 480.646671 404.073871 
L 489.411668 398.440451 
L 497.805645 392.267788 
L 505.795473 385.580244 
L 513.349621 378.40421 
L 520.438275 370.768008 
L 527.033461 362.701773 
L 533.109149 354.237341 
L 538.641362 345.408115 
L 543.608268 336.248942 
L 547.990262 326.795967 
L 551.770053 317.086498 
L 554.932723 307.158853 
L 557.465789 297.052213 
L 559.359256 286.806463 
L 560.605651 276.462039 
L 561.200055 266.059766 
L 561.140121 255.640696 
L 560.426087 245.245949 
L 559.060771 234.916548 
L 557.04956 224.693259 
L 554.400392 214.616429 
L 551.123723 204.725825 
L 547.232482 195.060482 
L 542.742029 185.658544 
L 537.670084 176.557117 
L 532.036663 167.792119 
L 525.864001 159.398143 
L 519.176456 151.408314 
L 512.000422 143.854167 
L 504.36422 136.765512 
L 496.297986 130.170327 
L 487.833553 124.094638 
L 479.004328 118.562425 
L 469.845154 113.59552 
L 460.39218 109.213525 
L 450.682711 105.433734 
L 440.755066 102.271065 
L 430.648425 99.737998 
L 420.402676 97.844531 
L 410.058252 96.598136 
L 399.655978 96.003733 
L 389.236909 96.063666 
L 378.842162 96.7777 
L 368.512761 98.143017 
L 358.289472 100.154227 
L 348.212641 102.803395 
L 338.322037 106.080065 
L 328.656694 109.971305 
L 319.254757 114.461759 
L 310.153329 119.533704 
L 301.388332 125.167124 
L 292.994355 131.339787 
L 285.004527 138.027331 
L 277.450379 145.203365 
L 270.361725 152.839567 
L 263.766539 160.905802 
L 257.690851 169.370234 
L 252.158638 178.19946 
L 247.191732 187.358633 
L 242.809738 196.811608 
L 239.029947 206.521077 
L 235.867277 216.448722 
L 233.334211 226.555362 
L 231.440744 236.801112 
L 230.194349 247.145536 
L 229.599945 257.547809 
L 229.659879 267.966879 
L 230.373913 278.361626 
L 230.16763 278.382323 
L 229.961347 278.40302 
L 229.755065 278.423718 
L 229.548782 278.444415 
L 229.342499 278.465112 
L 229.136217 278.48581 
L 228.929934 278.506507 
L 228.723652 278.527204 
L 228.517369 278.547902 
L 228.311086 278.568599 
L 228.104804 278.589296 
L 227.898521 278.609993 
L 227.692239 278.630691 
L 227.485956 278.651388 
L 227.279673 278.672085 
L 227.073391 278.692783 
L 226.867108 278.71348 
L 226.660826 278.734177 
L 226.454543 278.754875 
L 226.24826 278.775572 
L 226.041978 278.796269 
L 225.835695 278.816966 
L 225.629413 278.837664 
L 225.42313 278.858361 
L 225.216847 278.879058 
L 225.010565 278.899756 
L 224.804282 278.920453 
L 224.597999 278.94115 
L 224.391717 278.961848 
L 224.185434 278.982545 
L 223.979152 279.003242 
L 223.772869 279.023939 
L 223.566586 279.044637 
L 223.360304 279.065334 
L 223.154021 279.086031 
L 222.947739 279.106729 
L 222.741456 279.127426 
L 222.535173 279.148123 
L 222.328891 279.16882 
L 222.122608 279.189518 
L 221.916326 279.210215 
L 221.710043 279.230912 
L 221.50376 279.25161 
L 221.297478 279.272307 
L 221.091195 279.293004 
L 220.884912 279.313702 
L 220.67863 279.334399 
L 220.472347 279.355096 
L 220.266065 279.375793 
L 220.059782 279.396491 
L 219.853499 279.417188 
L 219.647217 279.437885 
L 219.440934 279.458583 
L 219.234652 279.47928 
L 219.028369 279.499977 
L 218.822086 279.520675 
L 218.615804 279.541372 
L 218.409521 279.562069 
L 218.203239 279.582766 
L 217.996956 279.603464 
L 217.790673 279.624161 
L 217.584391 279.644858 
L 217.378108 279.665556 
L 217.171826 279.686253 
L 216.965543 279.70695 
L 216.75926 279.727648 
L 216.552978 279.748345 
L 216.346695 279.769042 
L 216.140412 279.789739 
L 215.93413 279.810437 
L 215.727847 279.831134 
L 215.521565 279.851831 
L 215.315282 279.872529 
L 215.108999 279.893226 
L 214.902717 279.913923 
L 214.696434 279.934621 
L 214.490152 279.955318 
L 214.283869 279.976015 
L 214.077586 279.996712 
L 213.871304 280.01741 
L 213.665021 280.038107 
L 213.458739 280.058804 
L 213.252456 280.079502 
L 213.046173 280.100199 
L 212.839891 280.120896 
L 212.633608 280.141593 
L 212.427326 280.162291 
L 212.221043 280.182988 
L 212.01476 280.203685 
L 211.808478 280.224383 
L 211.602195 280.24508 
L 211.395912 280.265777 
L 211.18963 280.286475 
L 210.983347 280.307172 
L 210.777065 280.327869 
L 210.570782 280.348566 
L 210.364499 280.369264 
L 210.158217 280.389961 
L 209.951934 280.410658 
L 209.745652 280.431356 
L 208.942363 268.737265 
L 208.874938 257.015812 
L 209.543642 245.313254 
L 210.945837 233.675777 
L 213.075987 222.149309 
L 215.925687 210.779338 
L 219.48369 199.610738 
L 223.735955 188.687585 
L 228.665699 178.052989 
L 234.253467 167.748919 
L 240.477207 157.81604 
L 247.312357 148.293553 
L 254.73194 139.21904 
L 262.706677 130.628312 
L 271.205093 122.555274 
L 280.19365 115.031787 
L 289.636873 108.087541 
L 299.497495 101.749943 
L 309.736601 96.044005 
L 320.313781 90.992245 
L 331.187292 86.6146 
L 342.314221 82.928346 
L 353.650656 79.948032 
L 365.151856 77.68542 
L 376.772432 76.149439 
L 388.466522 75.346151 
L 400.187976 75.278726 
L 411.890533 75.94743 
L 423.52801 77.349624 
L 435.054479 79.479775 
L 446.424449 82.329475 
L 457.593049 85.887478 
L 468.516202 90.139742 
L 479.150798 95.069486 
L 489.454869 100.657255 
L 499.387748 106.880995 
L 508.910234 113.716144 
L 517.984748 121.135728 
L 526.575475 129.110464 
L 534.648513 137.60888 
L 542.172001 146.597437 
L 549.116246 156.040661 
L 555.453844 165.901283 
L 561.159782 176.140389 
L 566.211543 186.717569 
L 570.589188 197.59108 
L 574.275441 208.718009 
L 577.255755 220.054443 
L 579.518367 231.555644 
L 581.054348 243.176219 
L 581.857637 254.87031 
L 581.925062 266.591763 
L 581.256358 278.294321 
L 579.854163 289.931798 
L 577.724013 301.458266 
L 574.874313 312.828237 
L 571.31631 323.996837 
L 567.064045 334.91999 
L 562.134301 345.554586 
L 556.546533 355.858656 
L 550.322793 365.791535 
L 543.487643 375.314022 
L 536.06806 384.388535 
L 528.093323 392.979263 
L 519.594907 401.052301 
L 510.60635 408.575788 
L 501.163127 415.520034 
L 491.302505 421.857632 
L 481.063399 427.56357 
L 470.486219 432.61533 
L 459.612708 436.992975 
L 448.485779 440.679229 
L 437.149344 443.659543 
L 425.648144 445.922155 
L 414.027568 447.458136 
L 402.333478 448.261424 
L 390.612024 448.328849 
L 378.909467 447.660145 
L 367.27199 446.257951 
L 355.745521 444.1278 
L 344.375551 441.2781 
L 333.206951 437.720097 
L 322.283798 433.467833 
L 311.649202 428.538089 
L 301.345131 422.95032 
L 291.412252 416.72658 
L 281.889766 409.891431 
L 272.815252 402.471847 
L 264.224525 394.497111 
L 256.151487 385.998695 
L 248.627999 377.010138 
L 241.683754 367.566914 
L 235.346156 357.706292 
L 229.640218 347.467186 
L 224.588457 336.890006 
L 220.210812 326.016495 
L 216.524559 314.889566 
L 213.544245 303.553132 
L 211.281633 292.051931 
L 209.745652 280.431356 
L 209.951934 280.410658 
L 210.158217 280.389961 
L 210.364499 280.369264 
L 210.570782 280.348566 
L 210.777065 280.327869 
L 210.983347 280.307172 
L 211.18963 280.286475 
L 211.395912 280.265777 
L 211.602195 280.24508 
L 211.808478 280.224383 
L 212.01476 280.203685 
L 212.221043 280.182988 
L 212.427326 280.162291 
L 212.633608 280.141593 
L 212.839891 280.120896 
L 213.046173 280.100199 
L 213.252456 280.079502 
L 213.458739 280.058804 
L 213.665021 280.038107 
L 213.871304 280.01741 
L 214.077586 279.996712 
L 214.283869 279.976015 
L 214.490152 279.955318 
L 214.696434 279.934621 
L 214.902717 279.913923 
L 215.108999 279.893226 
L 215.315282 279.872529 
L 215.521565 279.851831 
L 215.727847 279.831134 
L 215.93413 279.810437 
L 216.140412 279.789739 
L 216.346695 279.769042 
L 216.552978 279.748345 
L 216.75926 279.727648 
L 216.965543 279.70695 
L 217.171826 279.686253 
L 217.378108 279.665556 
L 217.584391 279.644858 
L 217.790673 279.624161 
L 217.996956 279.603464 
L 218.203239 279.582766 
L 218.409521 279.562069 
L 218.615804 279.541372 
L 218.822086 279.520675 
L 219.028369 279.499977 
L 219.234652 279.47928 
L 219.440934 279.458583 
L 219.647217 279.437885 
L 219.853499 279.417188 
L 220.059782 279.396491 
L 220.266065 279.375793 
L 220.472347 279.355096 
L 220.67863 279.334399 
L 220.884912 279.313702 
L 221.091195 279.293004 
L 221.297478 279.272307 
L 221.50376 279.25161 
L 221.710043 279.230912 
L 221.916326 279.210215 
L 222.122608 279.189518 
L 222.328891 279.16882 
L 222.535173 279.148123 
L 222.741456 279.127426 
L 222.947739 279.106729 
L 223.154021 279.086031 
L 223.360304 279.065334 
L 223.566586 279.044637 
L 223.772869 279.023939 
L 223.979152 279.003242 
L 224.185434 278.982545 
L 224.391717 278.961848 
L 224.597999 278.94115 
L 224.804282 278.920453 
L 225.010565 278.899756 
L 225.216847 278.879058 
L 225.42313 278.858361 
L 225.629413 278.837664 
L 225.835695 278.816966 
L 226.041978 278.796269 
L 226.24826 278.775572 
L 226.454543 278.754875 
L 226.660826 278.734177 
L 226.867108 278.71348 
L 227.073391 278.692783 
L 227.279673 278.672085 
L 227.485956 278.651388 
L 227.692239 278.630691 
L 227.898521 278.609993 
L 228.104804 278.589296 
L 228.311086 278.568599 
L 228.517369 278.547902 
L 228.723652 278.527204 
L 228.929934 278.506507 
L 229.136217 278.48581 
L 229.342499 278.465112 
L 229.548782 278.444415 
L 229.755065 278.423718 
L 229.961347 278.40302 
L 230.16763 278.382323 
z
" style="fill:#008000;opacity:0.1;"/>
   </g>
   <g id="matplotlib.axis_1">
    <g id="xtick_1">
     <g id="line2d_1">
      <path clip-path="url(#p0270cf071f)" d="M 395.4 261.803787 
L 599.568706 225.803336 
" style="fill:none;stroke:#008000;stroke-linecap:square;stroke-opacity:0.3;"/>
     </g>
    </g>
    <g id="xtick_2">
     <g id="line2d_2">
      <path clip-path="url(#p0270cf071f)" d="M 395.4 261.803787 
L 528.661659 102.988727 
" style="fill:none;stroke:#008000;stroke-linecap:square;stroke-opacity:0.3;"/>
     </g>
    </g>
    <g id="xtick_3">
     <g id="line2d_3">
      <path clip-path="url(#p0270cf071f)" d="M 395.4 261.803787 
L 395.4 54.48545 
" style="fill:none;stroke:#008000;stroke-linecap:square;stroke-opacity:0.3;"/>
     </g>
    </g>
    <g id="xtick_4">
     <g id="line2d_4">
      <path clip-path="url(#p0270cf071f)" d="M 395.4 261.803787 
L 262.138341 102.988727 
" style="fill:none;stroke:#008000;stroke-linecap:square;stroke-opacity:0.3;"/>
     </g>
    </g>
    <g id="xtick_5">
     <g id="line2d_5">
      <path clip-path="url(#p0270cf071f)" d="M 395.4 261.803787 
L 191.231294 225.803336 
" style="fill:none;stroke:#008000;stroke-linecap:square;stroke-opacity:0.3;"/>
     </g>
    </g>
    <g id="xtick_6">
     <g id="line2d_6">
      <path clip-path="url(#p0270cf071f)" d="M 395.4 261.803787 
L 215.857053 365.462956 
" style="fill:none;stroke:#008000;stroke-linecap:square;stroke-opacity:0.3;"/>
     </g>
    </g>
    <g id="xtick_7">
     <g id="line2d_7">
      <path clip-path="url(#p0270cf071f)" d="M 395.4 261.803787 
L 324.492952 456.619299 
" style="fill:none;stroke:#008000;stroke-linecap:square;stroke-opacity:0.3;"/>
     </g>
    </g>
    <g id="xtick_8">
     <g id="line2d_8">
      <path clip-path="url(#p0270cf071f)" d="M 395.4 261.803787 
L 466.307048 456.619299 
" style="fill:none;stroke:#008000;stroke-linecap:square;stroke-opacity:0.3;"/>
     </g>
    </g>
    <g id="xtick_9">
     <g id="line2d_9">
      <path clip-path="url(#p0270cf071f)" d="M 395.4 261.803787 
L 574.942947 365.462956 
" style="fill:none;stroke:#008000;stroke-linecap:square;stroke-opacity:0.3;"/>
     </g>
    </g>
    <g id="text_1">
     <!--  - -->
     <defs>
      <path d="M 0 0 
z
" id="MicrosoftSansSerif-20"/>
      <path d="M 30.078125 21.484375 
L 3.21875 21.484375 
L 3.21875 30.328125 
L 30.078125 30.328125 
z
" id="MicrosoftSansSerif-2d"/>
     </defs>
     <g style="opacity:0;" transform="translate(391.808437 481.7115)scale(0.12 -0.12)">
      <use xlink:href="#MicrosoftSansSerif-20"/>
      <use x="26.5625" xlink:href="#MicrosoftSansSerif-2d"/>
     </g>
     <!--   -->
     <g style="opacity:0;" transform="translate(393.80625 494.409375)scale(0.12 -0.12)">
      <use xlink:href="#MicrosoftSansSerif-20"/>
     </g>
    </g>
   </g>
   <g id="matplotlib.axis_2">
    <g id="ytick_1">
     <g id="line2d_10">
      <path clip-path="url(#p0270cf071f)" d="M 436.863668 261.803787 
L 436.762664 258.911428 
L 436.460146 256.03316 
L 435.957587 253.183006 
L 435.257435 250.374852 
L 434.363102 247.622378 
L 433.278945 244.938995 
L 432.010245 242.337775 
L 430.563184 239.831391 
L 428.944812 237.432055 
L 427.163012 235.151456 
L 425.226466 233.000704 
L 423.144609 230.990278 
L 420.927583 229.129972 
L 418.586189 227.428849 
L 416.131834 225.895198 
L 413.576475 224.53649 
L 410.932563 223.359344 
L 408.212978 222.369496 
L 405.430969 221.571768 
L 402.60009 220.970046 
L 399.734133 220.567262 
L 396.847061 220.365379 
L 393.952939 220.365379 
L 391.065867 220.567262 
L 388.19991 220.970046 
L 385.369031 221.571768 
L 382.587022 222.369496 
L 379.867437 223.359344 
L 377.223525 224.53649 
L 374.668166 225.895198 
L 372.213811 227.428849 
L 369.872417 229.129972 
L 367.655391 230.990278 
L 365.573534 233.000704 
L 363.636988 235.151456 
L 361.855188 237.432055 
L 360.236816 239.831391 
L 358.789755 242.337775 
L 357.521055 244.938995 
L 356.436898 247.622378 
L 355.542565 250.374852 
L 354.842413 253.183006 
L 354.339854 256.03316 
L 354.037336 258.911428 
L 353.936332 261.803787 
L 354.037336 264.696147 
L 354.339854 267.574415 
L 354.842413 270.424569 
L 355.542565 273.232723 
L 356.436898 275.985197 
L 357.521055 278.66858 
L 358.789755 281.2698 
L 360.236816 283.776184 
L 361.855188 286.17552 
L 363.636988 288.456119 
L 365.573534 290.606871 
L 367.655391 292.617297 
L 369.872417 294.477603 
L 372.213811 296.178726 
L 374.668166 297.712377 
L 377.223525 299.071085 
L 379.867437 300.248231 
L 382.587022 301.238079 
L 385.369031 302.035807 
L 388.19991 302.637529 
L 391.065867 303.040313 
L 393.952939 303.242196 
L 396.847061 303.242196 
L 399.734133 303.040313 
L 402.60009 302.637529 
L 405.430969 302.035807 
L 408.212978 301.238079 
L 410.932563 300.248231 
L 413.576475 299.071085 
L 416.131834 297.712377 
L 418.586189 296.178726 
L 420.927583 294.477603 
L 423.144609 292.617297 
L 425.226466 290.606871 
L 427.163012 288.456119 
L 428.944812 286.17552 
L 430.563184 283.776184 
L 432.010245 281.2698 
L 433.278945 278.66858 
L 434.363102 275.985197 
L 435.257435 273.232723 
L 435.957587 270.424569 
L 436.460146 267.574415 
L 436.762664 264.696147 
L 436.863668 261.803787 
L 436.863668 261.803787 
" style="fill:none;stroke:#008000;stroke-linecap:square;stroke-opacity:0.3;"/>
     </g>
     <g id="text_2">
      <!-- 2 -->
      <defs>
       <path d="M 50.484375 0 
L 3.078125 0 
Q 3.078125 6.546875 7.125 12.5 
Q 11.1875 18.453125 22 27.171875 
Q 32.8125 35.890625 36.8125 41.09375 
Q 40.828125 46.296875 40.828125 52.875 
Q 40.828125 58.796875 37.40625 62.1875 
Q 33.984375 65.578125 27.78125 65.578125 
Q 22.40625 65.578125 18.59375 62.15625 
Q 14.796875 58.734375 14.3125 52.09375 
L 4.78125 52.09375 
Q 5.5625 61.53125 11.734375 67.15625 
Q 17.921875 72.796875 27.984375 72.796875 
Q 38.671875 72.796875 44.484375 67.0625 
Q 50.296875 61.328125 50.296875 52.6875 
Q 50.296875 44.875 46 38.890625 
Q 41.703125 32.90625 28.921875 22.265625 
Q 16.15625 11.625 15.921875 8.5 
L 50.484375 8.5 
z
" id="MicrosoftSansSerif-32"/>
      </defs>
      <g style="fill:#333333;" transform="translate(433.707434 244.277235)scale(0.08328 -0.08328)">
       <use xlink:href="#MicrosoftSansSerif-32"/>
      </g>
     </g>
    </g>
    <g id="ytick_2">
     <g id="line2d_11">
      <path clip-path="url(#p0270cf071f)" d="M 478.327335 261.803787 
L 478.125328 256.019069 
L 477.520292 250.262533 
L 476.515174 244.562225 
L 475.114871 238.945916 
L 473.326205 233.440968 
L 471.15789 228.074202 
L 468.620491 222.871762 
L 465.726369 217.858995 
L 462.489623 213.060323 
L 458.926024 208.499124 
L 455.052933 204.19762 
L 450.889218 200.176768 
L 446.455165 196.456156 
L 441.772377 193.053911 
L 436.863668 189.986609 
L 431.752951 187.269193 
L 426.465126 184.914901 
L 421.025956 182.935205 
L 415.461938 181.339749 
L 409.800181 180.136305 
L 404.068267 179.330737 
L 398.294122 178.92697 
L 392.505878 178.92697 
L 386.731733 179.330737 
L 380.999819 180.136305 
L 375.338062 181.339749 
L 369.774044 182.935205 
L 364.334874 184.914901 
L 359.047049 187.269193 
L 353.936332 189.986609 
L 349.027623 193.053911 
L 344.344835 196.456156 
L 339.910782 200.176768 
L 335.747067 204.19762 
L 331.873976 208.499124 
L 328.310377 213.060323 
L 325.073631 217.858995 
L 322.179509 222.871762 
L 319.64211 228.074202 
L 317.473795 233.440968 
L 315.685129 238.945916 
L 314.284826 244.562225 
L 313.279708 250.262533 
L 312.674672 256.019069 
L 312.472665 261.803787 
L 312.674672 267.588506 
L 313.279708 273.345042 
L 314.284826 279.04535 
L 315.685129 284.661659 
L 317.473795 290.166607 
L 319.64211 295.533373 
L 322.179509 300.735813 
L 325.073631 305.74858 
L 328.310377 310.547252 
L 331.873976 315.108451 
L 335.747067 319.409955 
L 339.910782 323.430807 
L 344.344835 327.151419 
L 349.027623 330.553664 
L 353.936332 333.620966 
L 359.047049 336.338382 
L 364.334874 338.692674 
L 369.774044 340.67237 
L 375.338062 342.267826 
L 380.999819 343.47127 
L 386.731733 344.276838 
L 392.505878 344.680605 
L 398.294122 344.680605 
L 404.068267 344.276838 
L 409.800181 343.47127 
L 415.461938 342.267826 
L 421.025956 340.67237 
L 426.465126 338.692674 
L 431.752951 336.338382 
L 436.863668 333.620966 
L 441.772377 330.553664 
L 446.455165 327.151419 
L 450.889218 323.430807 
L 455.052933 319.409955 
L 458.926024 315.108451 
L 462.489623 310.547252 
L 465.726369 305.74858 
L 468.620491 300.735813 
L 471.15789 295.533373 
L 473.326205 290.166607 
L 475.114871 284.661659 
L 476.515174 279.04535 
L 477.520292 273.345042 
L 478.125328 267.588506 
L 478.327335 261.803787 
L 478.327335 261.803787 
" style="fill:none;stroke:#008000;stroke-linecap:square;stroke-opacity:0.3;"/>
     </g>
     <g id="text_3">
      <!-- 4 -->
      <defs>
       <path d="M 50.984375 17.09375 
L 41.3125 17.09375 
L 41.3125 0 
L 32.078125 0 
L 32.078125 17.09375 
L 1.515625 17.09375 
L 1.515625 25.203125 
L 34.078125 72.515625 
L 41.3125 72.515625 
L 41.3125 25.203125 
L 50.984375 25.203125 
z
M 32.078125 25.203125 
L 32.078125 58.015625 
L 10.109375 25.203125 
z
" id="MicrosoftSansSerif-34"/>
      </defs>
      <g style="fill:#333333;" transform="translate(472.014867 228.409777)scale(0.08328 -0.08328)">
       <use xlink:href="#MicrosoftSansSerif-34"/>
      </g>
     </g>
    </g>
    <g id="ytick_3">
     <g id="line2d_12">
      <path clip-path="url(#p0270cf071f)" d="M 519.791003 261.803787 
L 519.715227 257.462604 
L 519.487992 253.12671 
L 519.109576 248.801387 
L 518.580438 244.491906 
L 517.901224 240.203517 
L 517.072761 235.941444 
L 516.096058 231.71088 
L 514.972306 227.51698 
L 513.702873 223.364854 
L 512.289307 219.259559 
L 510.733329 215.206098 
L 509.036835 211.209409 
L 507.201892 207.274361 
L 505.230736 203.405749 
L 503.125768 199.608286 
L 500.889553 195.886599 
L 498.524815 192.245222 
L 496.034435 188.688591 
L 493.421448 185.221039 
L 490.689036 181.846792 
L 487.84053 178.569961 
L 484.879399 175.394536 
L 481.809251 172.324389 
L 478.633827 169.363258 
L 475.356995 166.514751 
L 471.982748 163.78234 
L 468.515197 161.169353 
L 464.958566 158.678973 
L 461.317189 156.314235 
L 457.595501 154.078019 
L 453.798038 151.973051 
L 449.929426 150.001895 
L 445.994379 148.166952 
L 441.99769 146.470458 
L 437.944229 144.91448 
L 433.838934 143.500914 
L 429.686807 142.231481 
L 425.492907 141.107729 
L 421.262344 140.131027 
L 417.000271 139.302564 
L 412.711882 138.62335 
L 408.4024 138.094212 
L 404.077078 137.715795 
L 399.741183 137.488561 
L 395.4 137.412785 
L 391.058817 137.488561 
L 386.722922 137.715795 
L 382.3976 138.094212 
L 378.088118 138.62335 
L 373.799729 139.302564 
L 369.537656 140.131027 
L 365.307093 141.107729 
L 361.113193 142.231481 
L 356.961066 143.500914 
L 352.855771 144.91448 
L 348.80231 146.470458 
L 344.805621 148.166952 
L 340.870574 150.001895 
L 337.001962 151.973051 
L 333.204499 154.078019 
L 329.482811 156.314235 
L 325.841434 158.678973 
L 322.284803 161.169353 
L 318.817252 163.78234 
L 315.443005 166.514751 
L 312.166173 169.363258 
L 308.990749 172.324389 
L 305.920601 175.394536 
L 302.95947 178.569961 
L 300.110964 181.846792 
L 297.378552 185.221039 
L 294.765565 188.688591 
L 292.275185 192.245222 
L 289.910447 195.886599 
L 287.674232 199.608286 
L 285.569264 203.405749 
L 283.598108 207.274361 
L 281.763165 211.209409 
L 280.066671 215.206098 
L 278.510693 219.259559 
L 277.097127 223.364854 
L 275.827694 227.51698 
L 274.703942 231.71088 
L 273.727239 235.941444 
L 272.898776 240.203517 
L 272.219562 244.491906 
L 271.690424 248.801387 
L 271.312008 253.12671 
L 271.084773 257.462604 
L 271.008997 261.803787 
L 271.084773 266.144971 
L 271.312008 270.480865 
L 271.690424 274.806188 
L 272.219562 279.115669 
L 272.898776 283.404058 
L 273.727239 287.666131 
L 274.703942 291.896695 
L 275.827694 296.090595 
L 277.097127 300.242721 
L 278.510693 304.348016 
L 280.066671 308.401477 
L 281.763165 312.398166 
L 283.598108 316.333214 
L 285.569264 320.201826 
L 287.674232 323.999289 
L 289.910447 327.720976 
L 292.275185 331.362353 
L 294.765565 334.918984 
L 297.378552 338.386536 
L 300.110964 341.760783 
L 302.95947 345.037614 
L 305.920601 348.213039 
L 308.990749 351.283186 
L 312.166173 354.244317 
L 315.443005 357.092824 
L 318.817252 359.825235 
L 322.284803 362.438222 
L 325.841434 364.928602 
L 329.482811 367.29334 
L 333.204499 369.529556 
L 337.001962 371.634524 
L 340.870574 373.60568 
L 344.805621 375.440623 
L 348.80231 377.137117 
L 352.855771 378.693095 
L 356.961066 380.106661 
L 361.113193 381.376094 
L 365.307093 382.499846 
L 369.537656 383.476548 
L 373.799729 384.305011 
L 378.088118 384.984225 
L 382.3976 385.513363 
L 386.722922 385.89178 
L 391.058817 386.119014 
L 395.4 386.19479 
L 399.741183 386.119014 
L 404.077078 385.89178 
L 408.4024 385.513363 
L 412.711882 384.984225 
L 417.000271 384.305011 
L 421.262344 383.476548 
L 425.492907 382.499846 
L 429.686807 381.376094 
L 433.838934 380.106661 
L 437.944229 378.693095 
L 441.99769 377.137117 
L 445.994379 375.440623 
L 449.929426 373.60568 
L 453.798038 371.634524 
L 457.595501 369.529556 
L 461.317189 367.29334 
L 464.958566 364.928602 
L 468.515197 362.438222 
L 471.982748 359.825235 
L 475.356995 357.092824 
L 478.633827 354.244317 
L 481.809251 351.283186 
L 484.879399 348.213039 
L 487.84053 345.037614 
L 490.689036 341.760783 
L 493.421448 338.386536 
L 496.034435 334.918984 
L 498.524815 331.362353 
L 500.889553 327.720976 
L 503.125768 323.999289 
L 505.230736 320.201826 
L 507.201892 316.333214 
L 509.036835 312.398166 
L 510.733329 308.401477 
L 512.289307 304.348016 
L 513.702873 300.242721 
L 514.972306 296.090595 
L 516.096058 291.896695 
L 517.072761 287.666131 
L 517.901224 283.404058 
L 518.580438 279.115669 
L 519.109576 274.806188 
L 519.487992 270.480865 
L 519.715227 266.144971 
L 519.791003 261.803788 
L 519.791003 261.803788 
" style="fill:none;stroke:#008000;stroke-linecap:square;stroke-opacity:0.3;"/>
     </g>
     <g id="text_4">
      <!-- 6 -->
      <defs>
       <path d="M 13.8125 38.625 
Q 20.90625 46.390625 30.078125 46.390625 
Q 39.0625 46.390625 45.234375 39.859375 
Q 51.421875 33.34375 51.421875 23.296875 
Q 51.421875 13.09375 45.28125 5.9375 
Q 39.15625 -1.21875 29 -1.21875 
Q 17.390625 -1.21875 10.9375 7.734375 
Q 4.5 16.703125 4.5 33.5 
Q 4.5 72.796875 29.78125 72.796875 
Q 37.84375 72.796875 43.40625 68.296875 
Q 48.96875 63.8125 50.203125 54.984375 
L 40.71875 54.984375 
Q 39.5 65.578125 29.296875 65.578125 
Q 22.703125 65.578125 18.625 58.609375 
Q 14.546875 51.65625 13.8125 38.625 
z
M 13.71875 31.5 
Q 13.921875 19.1875 17.96875 12.59375 
Q 22.015625 6 28.8125 6 
Q 34.765625 6 38.328125 10.78125 
Q 41.890625 15.578125 41.890625 22.703125 
Q 41.890625 29.9375 38.25 34.5625 
Q 34.625 39.203125 28.515625 39.203125 
Q 20.953125 39.203125 13.71875 31.5 
z
" id="MicrosoftSansSerif-36"/>
      </defs>
      <g style="fill:#333333;" transform="translate(510.322301 212.542318)scale(0.08328 -0.08328)">
       <use xlink:href="#MicrosoftSansSerif-36"/>
      </g>
     </g>
    </g>
    <g id="ytick_4">
     <g id="line2d_13">
      <path clip-path="url(#p0270cf071f)" d="M 561.25467 261.803787 
L 561.153636 256.015543 
L 560.850656 250.234351 
L 560.346101 244.467254 
L 559.640584 238.721279 
L 558.734965 233.003426 
L 557.630348 227.320663 
L 556.328077 221.679911 
L 554.829741 216.088045 
L 553.137165 210.551876 
L 551.25241 205.078149 
L 549.177772 199.673535 
L 546.91578 194.344616 
L 544.46919 189.097886 
L 541.840982 183.939736 
L 539.034358 178.876452 
L 536.052737 173.914203 
L 532.899753 169.059033 
L 529.579247 164.316858 
L 526.095263 159.693457 
L 522.452048 155.194461 
L 518.65404 150.825352 
L 514.705865 146.591453 
L 510.612335 142.497922 
L 506.378436 138.549748 
L 502.009327 134.751739 
L 497.510331 131.108524 
L 492.886929 127.624541 
L 488.144754 124.304034 
L 483.289585 121.15105 
L 478.327335 118.16943 
L 473.264051 115.362806 
L 468.105902 112.734598 
L 462.859172 110.288007 
L 457.530253 108.026015 
L 452.125638 105.951378 
L 446.651912 104.066623 
L 441.115743 102.374046 
L 435.523876 100.87571 
L 429.883125 99.57344 
L 424.200361 98.468823 
L 418.482509 97.563204 
L 412.736534 96.857687 
L 406.969437 96.353131 
L 401.188245 96.050152 
L 395.4 95.949117 
L 389.611755 96.050152 
L 383.830563 96.353131 
L 378.063466 96.857687 
L 372.317491 97.563204 
L 366.599639 98.468823 
L 360.916875 99.57344 
L 355.276124 100.87571 
L 349.684257 102.374046 
L 344.148088 104.066623 
L 338.674362 105.951378 
L 333.269747 108.026015 
L 327.940828 110.288007 
L 322.694098 112.734598 
L 317.535949 115.362806 
L 312.472665 118.16943 
L 307.510415 121.15105 
L 302.655246 124.304034 
L 297.913071 127.624541 
L 293.289669 131.108524 
L 288.790673 134.751739 
L 284.421564 138.549748 
L 280.187665 142.497922 
L 276.094135 146.591453 
L 272.14596 150.825352 
L 268.347952 155.194461 
L 264.704737 159.693457 
L 261.220753 164.316858 
L 257.900247 169.059033 
L 254.747263 173.914203 
L 251.765642 178.876452 
L 248.959018 183.939736 
L 246.33081 189.097886 
L 243.88422 194.344616 
L 241.622228 199.673535 
L 239.54759 205.078149 
L 237.662835 210.551876 
L 235.970259 216.088045 
L 234.471923 221.679911 
L 233.169652 227.320663 
L 232.065035 233.003426 
L 231.159416 238.721279 
L 230.453899 244.467254 
L 229.949344 250.234351 
L 229.646364 256.015543 
L 229.54533 261.803787 
L 229.646364 267.592032 
L 229.949344 273.373224 
L 230.453899 279.140321 
L 231.159416 284.886296 
L 232.065035 290.604149 
L 233.169652 296.286912 
L 234.471923 301.927664 
L 235.970259 307.51953 
L 237.662835 313.055699 
L 239.54759 318.529426 
L 241.622228 323.93404 
L 243.88422 329.262959 
L 246.33081 334.509689 
L 248.959018 339.667839 
L 251.765642 344.731123 
L 254.747263 349.693372 
L 257.900247 354.548542 
L 261.220753 359.290717 
L 264.704737 363.914118 
L 268.347952 368.413114 
L 272.14596 372.782223 
L 276.094135 377.016122 
L 280.187665 381.109653 
L 284.421564 385.057827 
L 288.790673 388.855836 
L 293.289669 392.499051 
L 297.913071 395.983034 
L 302.655246 399.303541 
L 307.510415 402.456525 
L 312.472665 405.438145 
L 317.535949 408.244769 
L 322.694098 410.872977 
L 327.940828 413.319568 
L 333.269747 415.58156 
L 338.674362 417.656197 
L 344.148088 419.540952 
L 349.684257 421.233529 
L 355.276124 422.731865 
L 360.916875 424.034135 
L 366.599639 425.138752 
L 372.317491 426.044371 
L 378.063466 426.749888 
L 383.830563 427.254444 
L 389.611755 427.557423 
L 395.4 427.658458 
L 401.188245 427.557423 
L 406.969437 427.254444 
L 412.736534 426.749888 
L 418.482509 426.044371 
L 424.200361 425.138752 
L 429.883125 424.034135 
L 435.523876 422.731865 
L 441.115743 421.233529 
L 446.651912 419.540952 
L 452.125638 417.656197 
L 457.530253 415.58156 
L 462.859172 413.319568 
L 468.105902 410.872977 
L 473.264051 408.244769 
L 478.327335 405.438145 
L 483.289585 402.456525 
L 488.144754 399.303541 
L 492.886929 395.983034 
L 497.510331 392.499051 
L 502.009327 388.855836 
L 506.378436 385.057827 
L 510.612335 381.109653 
L 514.705865 377.016122 
L 518.65404 372.782223 
L 522.452048 368.413114 
L 526.095263 363.914118 
L 529.579247 359.290717 
L 532.899753 354.548542 
L 536.052737 349.693372 
L 539.034358 344.731123 
L 541.840982 339.667839 
L 544.46919 334.509689 
L 546.91578 329.262959 
L 549.177772 323.93404 
L 551.25241 318.529426 
L 553.137165 313.055699 
L 554.829741 307.51953 
L 556.328077 301.927664 
L 557.630348 296.286912 
L 558.734965 290.604149 
L 559.640584 284.886296 
L 560.346101 279.140321 
L 560.850656 273.373224 
L 561.153636 267.592032 
L 561.25467 261.803788 
L 561.25467 261.803788 
" style="fill:none;stroke:#008000;stroke-linecap:square;stroke-opacity:0.3;"/>
     </g>
     <g id="text_5">
      <!-- 8 -->
      <defs>
       <path d="M 36.53125 37.59375 
Q 51.421875 30.71875 51.421875 19 
Q 51.421875 9.96875 44.890625 4.375 
Q 38.375 -1.21875 27.78125 -1.21875 
Q 17.234375 -1.21875 10.71875 4.375 
Q 4.203125 9.96875 4.203125 19 
Q 4.203125 30.71875 19.09375 37.59375 
Q 6.984375 44.578125 6.984375 55.078125 
Q 6.984375 62.84375 12.71875 67.8125 
Q 18.453125 72.796875 27.78125 72.796875 
Q 37.15625 72.796875 42.859375 67.8125 
Q 48.578125 62.84375 48.578125 55.078125 
Q 48.578125 44.578125 36.53125 37.59375 
z
M 27.78125 41.40625 
Q 39.109375 46.484375 39.109375 55.078125 
Q 39.109375 60.015625 36.109375 62.796875 
Q 33.109375 65.578125 27.78125 65.578125 
Q 22.515625 65.578125 19.5 62.796875 
Q 16.5 60.015625 16.5 55.078125 
Q 16.5 46.484375 27.78125 41.40625 
z
M 41.890625 19 
Q 41.890625 23.640625 38.515625 26.984375 
Q 35.15625 30.328125 27.78125 33.59375 
Q 20.453125 30.328125 17.078125 26.984375 
Q 13.71875 23.640625 13.71875 19 
Q 13.71875 12.9375 17.578125 9.46875 
Q 21.4375 6 27.78125 6 
Q 34.125 6 38 9.46875 
Q 41.890625 12.9375 41.890625 19 
z
" id="MicrosoftSansSerif-38"/>
      </defs>
      <g style="fill:#333333;" transform="translate(548.629735 196.674859)scale(0.08328 -0.08328)">
       <use xlink:href="#MicrosoftSansSerif-38"/>
      </g>
     </g>
    </g>
    <g id="ytick_5">
     <g id="line2d_14">
      <path clip-path="url(#p0270cf071f)" d="M 602.718338 261.803787 
L 602.592045 254.568482 
L 602.21332 247.341991 
L 601.582626 240.13312 
L 600.70073 232.950652 
L 599.568706 225.803336 
L 598.187934 218.699881 
L 596.560097 211.648942 
L 594.687177 204.659109 
L 592.571456 197.738898 
L 590.215512 190.89674 
L 587.622215 184.140971 
L 584.794726 177.479823 
L 581.736487 170.92141 
L 578.451227 164.473724 
L 574.942947 158.144619 
L 571.215921 151.941807 
L 567.274691 145.872844 
L 563.124058 139.945126 
L 558.769079 134.165874 
L 554.21506 128.542129 
L 549.46755 123.080743 
L 544.532332 117.788369 
L 539.415418 112.671456 
L 534.123045 107.736238 
L 528.661659 102.988727 
L 523.037914 98.434708 
L 517.258661 94.079729 
L 511.330943 89.929096 
L 505.261981 85.987866 
L 499.059169 82.260841 
L 492.730064 78.75256 
L 486.282377 75.4673 
L 479.723965 72.409062 
L 473.062816 69.581572 
L 466.307048 66.988276 
L 459.46489 64.632332 
L 452.544678 62.516611 
L 445.554845 60.643691 
L 438.503906 59.015853 
L 431.400452 57.635081 
L 424.253136 56.503058 
L 417.070667 55.621162 
L 409.861796 54.990467 
L 402.635306 54.611743 
L 395.4 54.48545 
L 388.164694 54.611743 
L 380.938204 54.990467 
L 373.729333 55.621162 
L 366.546864 56.503058 
L 359.399548 57.635081 
L 352.296094 59.015853 
L 345.245155 60.643691 
L 338.255322 62.516611 
L 331.33511 64.632332 
L 324.492952 66.988276 
L 317.737184 69.581572 
L 311.076035 72.409062 
L 304.517623 75.4673 
L 298.069936 78.75256 
L 291.740831 82.260841 
L 285.538019 85.987866 
L 279.469057 89.929096 
L 273.541339 94.079729 
L 267.762086 98.434708 
L 262.138341 102.988727 
L 256.676955 107.736238 
L 251.384582 112.671456 
L 246.267668 117.788369 
L 241.33245 123.080743 
L 236.58494 128.542129 
L 232.030921 134.165874 
L 227.675942 139.945126 
L 223.525309 145.872844 
L 219.584079 151.941807 
L 215.857053 158.144619 
L 212.348773 164.473724 
L 209.063513 170.92141 
L 206.005274 177.479823 
L 203.177785 184.140971 
L 200.584488 190.89674 
L 198.228544 197.738898 
L 196.112823 204.659109 
L 194.239903 211.648942 
L 192.612066 218.699881 
L 191.231294 225.803336 
L 190.09927 232.950652 
L 189.217374 240.13312 
L 188.58668 247.341991 
L 188.207955 254.568482 
L 188.081662 261.803787 
L 188.207955 269.039093 
L 188.58668 276.265584 
L 189.217374 283.474455 
L 190.09927 290.656923 
L 191.231294 297.804239 
L 192.612066 304.907694 
L 194.239903 311.958633 
L 196.112823 318.948466 
L 198.228544 325.868677 
L 200.584488 332.710835 
L 203.177785 339.466604 
L 206.005274 346.127752 
L 209.063513 352.686165 
L 212.348773 359.133851 
L 215.857053 365.462956 
L 219.584079 371.665768 
L 223.525309 377.734731 
L 227.675942 383.662449 
L 232.030921 389.441701 
L 236.58494 395.065446 
L 241.33245 400.526832 
L 246.267668 405.819206 
L 251.384582 410.936119 
L 256.676955 415.871337 
L 262.138341 420.618848 
L 267.762086 425.172867 
L 273.541339 429.527846 
L 279.469057 433.678479 
L 285.538019 437.619709 
L 291.740831 441.346734 
L 298.069936 444.855015 
L 304.517623 448.140275 
L 311.076035 451.198513 
L 317.737184 454.026003 
L 324.492952 456.619299 
L 331.33511 458.975243 
L 338.255322 461.090964 
L 345.245155 462.963884 
L 352.296094 464.591722 
L 359.399548 465.972494 
L 366.546864 467.104517 
L 373.729333 467.986413 
L 380.938204 468.617108 
L 388.164694 468.995832 
L 395.4 469.122125 
L 402.635306 468.995832 
L 409.861796 468.617108 
L 417.070667 467.986413 
L 424.253136 467.104517 
L 431.400452 465.972494 
L 438.503906 464.591722 
L 445.554845 462.963884 
L 452.544678 461.090964 
L 459.46489 458.975243 
L 466.307048 456.619299 
L 473.062816 454.026003 
L 479.723965 451.198513 
L 486.282377 448.140275 
L 492.730064 444.855015 
L 499.059169 441.346734 
L 505.261981 437.619709 
L 511.330943 433.678479 
L 517.258661 429.527846 
L 523.037914 425.172867 
L 528.661659 420.618848 
L 534.123045 415.871337 
L 539.415418 410.936119 
L 544.532332 405.819206 
L 549.46755 400.526832 
L 554.21506 395.065446 
L 558.769079 389.441701 
L 563.124058 383.662449 
L 567.274691 377.734731 
L 571.215921 371.665768 
L 574.942947 365.462956 
L 578.451227 359.133851 
L 581.736487 352.686165 
L 584.794726 346.127752 
L 587.622215 339.466604 
L 590.215512 332.710835 
L 592.571456 325.868677 
L 594.687177 318.948466 
L 596.560097 311.958633 
L 598.187934 304.907694 
L 599.568706 297.804239 
L 600.70073 290.656923 
L 601.582626 283.474455 
L 602.21332 276.265584 
L 602.592045 269.039093 
L 602.718338 261.803788 
L 602.718338 261.803788 
" style="fill:none;stroke:#008000;stroke-linecap:square;stroke-opacity:0.3;"/>
     </g>
     <g id="text_6">
      <!-- 10 -->
      <defs>
       <path d="M 37.5 0 
L 28.328125 0 
L 28.328125 56.296875 
Q 22.75 52.59375 11.078125 52.59375 
L 11.078125 59.8125 
Q 27.9375 59.8125 30.421875 72.796875 
L 37.5 72.796875 
z
" id="MicrosoftSansSerif-31"/>
       <path d="M 27.78125 72.796875 
Q 51.125 72.796875 51.125 35.6875 
Q 51.125 -1.21875 27.78125 -1.21875 
Q 4.5 -1.21875 4.5 35.6875 
Q 4.5 72.796875 27.78125 72.796875 
z
M 27.78125 6 
Q 34.578125 6 38.09375 12.546875 
Q 41.609375 19.09375 41.609375 35.6875 
Q 41.609375 52.34375 38.09375 58.953125 
Q 34.578125 65.578125 27.78125 65.578125 
Q 21.046875 65.578125 17.53125 58.953125 
Q 14.015625 52.34375 14.015625 35.6875 
Q 14.015625 19.09375 17.53125 12.546875 
Q 21.046875 6 27.78125 6 
z
" id="MicrosoftSansSerif-30"/>
      </defs>
      <g style="fill:#333333;" transform="translate(586.937169 180.807401)scale(0.08328 -0.08328)">
       <use xlink:href="#MicrosoftSansSerif-31"/>
       <use x="55.615234" xlink:href="#MicrosoftSansSerif-30"/>
      </g>
     </g>
    </g>
   </g>
   <g id="line2d_15">
    <path clip-path="url(#p0270cf071f)" d="M 395.4 158.144619 
L 328.769171 182.396257 
L 293.315647 243.803562 
L 305.628527 313.633372 
L 359.946476 359.211543 
L 430.853524 359.211543 
L 485.171473 313.633372 
L 497.484353 243.803562 
L 462.030829 182.396257 
L 395.4 158.144619 
" style="fill:none;stroke:#0000ff;stroke-linecap:square;stroke-width:1.5;"/>
    <defs>
     <path d="M 0 3 
C 0.795609 3 1.55874 2.683901 2.12132 2.12132 
C 2.683901 1.55874 3 0.795609 3 0 
C 3 -0.795609 2.683901 -1.55874 2.12132 -2.12132 
C 1.55874 -2.683901 0.795609 -3 0 -3 
C -0.795609 -3 -1.55874 -2.683901 -2.12132 -2.12132 
C -2.683901 -1.55874 -3 -0.795609 -3 0 
C -3 0.795609 -2.683901 1.55874 -2.12132 2.12132 
C -1.55874 2.683901 -0.795609 3 0 3 
z
" id="m7f722d5f7b" style="stroke:#0000ff;"/>
    </defs>
    <g clip-path="url(#p0270cf071f)">
     <use style="fill:#0000ff;stroke:#0000ff;" x="395.4" xlink:href="#m7f722d5f7b" y="158.144619"/>
     <use style="fill:#0000ff;stroke:#0000ff;" x="328.769171" xlink:href="#m7f722d5f7b" y="182.396257"/>
     <use style="fill:#0000ff;stroke:#0000ff;" x="293.315647" xlink:href="#m7f722d5f7b" y="243.803562"/>
     <use style="fill:#0000ff;stroke:#0000ff;" x="305.628527" xlink:href="#m7f722d5f7b" y="313.633372"/>
     <use style="fill:#0000ff;stroke:#0000ff;" x="359.946476" xlink:href="#m7f722d5f7b" y="359.211543"/>
     <use style="fill:#0000ff;stroke:#0000ff;" x="430.853524" xlink:href="#m7f722d5f7b" y="359.211543"/>
     <use style="fill:#0000ff;stroke:#0000ff;" x="485.171473" xlink:href="#m7f722d5f7b" y="313.633372"/>
     <use style="fill:#0000ff;stroke:#0000ff;" x="497.484353" xlink:href="#m7f722d5f7b" y="243.803562"/>
     <use style="fill:#0000ff;stroke:#0000ff;" x="462.030829" xlink:href="#m7f722d5f7b" y="182.396257"/>
     <use style="fill:#0000ff;stroke:#0000ff;" x="395.4" xlink:href="#m7f722d5f7b" y="158.144619"/>
    </g>
   </g>
   <g id="patch_5">
    <path d="M 602.718338 261.803787 
C 602.718338 234.578993 597.355647 207.618925 586.937169 182.466495 
C 576.518691 157.314064 561.247039 134.458422 541.996202 115.207585 
C 522.745365 95.956748 499.889724 80.685097 474.737293 70.266619 
C 449.584862 59.848141 422.624795 54.48545 395.4 54.48545 
C 368.175205 54.48545 341.215138 59.848141 316.062707 70.266619 
C 290.910276 80.685097 268.054635 95.956748 248.803798 115.207585 
C 229.552961 134.458422 214.281309 157.314064 203.862831 182.466495 
C 193.444353 207.618925 188.081662 234.578993 188.081662 261.803787 
C 188.081662 289.028582 193.444353 315.98865 203.862831 341.14108 
C 214.281309 366.293511 229.552961 389.149153 248.803798 408.39999 
C 268.054635 427.650827 290.910276 442.922478 316.062707 453.340956 
C 341.215138 463.759434 368.175205 469.122125 395.4 469.122125 
C 422.624795 469.122125 449.584862 463.759434 474.737293 453.340956 
C 499.889724 442.922478 522.745365 427.650827 541.996202 408.39999 
C 561.247039 389.149153 576.518691 366.293511 586.937169 341.14108 
C 597.355647 315.98865 602.718338 289.028582 602.718338 261.803788 
" style="fill:none;stroke:#000000;stroke-linecap:square;stroke-linejoin:miter;stroke-width:1.5;"/>
   </g>
   <g id="text_7">
    <!-- Acidity -->
    <defs>
     <path d="M 45.015625 29.296875 
L 32.421875 62.5 
L 20.40625 29.296875 
z
M 66.796875 0 
L 56.109375 0 
L 47.796875 21.78125 
L 17.828125 21.78125 
L 9.90625 0 
L -0.09375 0 
L 27.390625 71.578125 
L 37.59375 71.578125 
z
" id="MicrosoftSansSerif-41"/>
     <path d="M 27.78125 -1.21875 
Q 16.75 -1.21875 10.125 5.875 
Q 3.515625 12.984375 3.515625 25.875 
Q 3.515625 38.8125 10.125 45.890625 
Q 16.75 52.984375 27.78125 52.984375 
Q 36.28125 52.984375 41.96875 48.6875 
Q 47.65625 44.390625 48.6875 36.28125 
L 39.203125 36.28125 
Q 39.015625 40.921875 35.71875 43.359375 
Q 32.421875 45.796875 27.78125 45.796875 
Q 21.1875 45.796875 17.078125 40.796875 
Q 12.984375 35.796875 12.984375 25.875 
Q 12.984375 16.015625 17.078125 11 
Q 21.1875 6 27.78125 6 
Q 32.421875 6 35.71875 8.4375 
Q 39.015625 10.890625 39.203125 15.484375 
L 48.6875 15.484375 
Q 47.65625 7.375 41.96875 3.078125 
Q 36.28125 -1.21875 27.78125 -1.21875 
z
" id="MicrosoftSansSerif-63"/>
     <path d="M 16.015625 0 
L 6.78125 0 
L 6.78125 51.8125 
L 16.015625 51.8125 
z
M 16.015625 61.625 
L 6.78125 61.625 
L 6.78125 71.578125 
L 16.015625 71.578125 
z
" id="MicrosoftSansSerif-69"/>
     <path d="M 39.59375 14.890625 
L 39.59375 39.5 
Q 33.640625 45.796875 25.984375 45.796875 
Q 20.0625 45.796875 16.515625 40.6875 
Q 12.984375 35.59375 12.984375 25.484375 
Q 12.984375 15.921875 16.328125 10.953125 
Q 19.671875 6 25.59375 6 
Q 33.296875 6 39.59375 14.890625 
z
M 39.59375 6.203125 
Q 33.453125 -1.21875 24.8125 -1.21875 
Q 14.65625 -1.21875 9.078125 6 
Q 3.515625 13.234375 3.515625 25.484375 
Q 3.515625 38.1875 9.734375 45.578125 
Q 15.96875 52.984375 25.390625 52.984375 
Q 33.796875 52.984375 39.59375 47.796875 
L 39.59375 71.578125 
L 48.78125 71.578125 
L 48.78125 0 
L 39.59375 0 
z
" id="MicrosoftSansSerif-64"/>
     <path d="M 26.90625 -0.09375 
Q 23.875 -0.6875 20.3125 -0.6875 
Q 14.65625 -0.6875 12.015625 1.34375 
Q 9.375 3.375 8.734375 6.546875 
Q 8.109375 9.71875 8.109375 15.1875 
L 8.109375 44.578125 
L 1.703125 44.578125 
L 1.703125 51.8125 
L 8.109375 51.8125 
L 8.109375 64.703125 
L 17.28125 64.703125 
L 17.28125 51.8125 
L 25.6875 51.8125 
L 25.6875 44.578125 
L 17.28125 44.578125 
L 17.28125 14.703125 
Q 17.28125 9.375 18.625 7.9375 
Q 19.96875 6.5 22.3125 6.5 
Q 24.703125 6.5 26.90625 6.890625 
z
" id="MicrosoftSansSerif-74"/>
     <path d="M 9.71875 -12.5 
Q 16.546875 -12.5 20.90625 0 
L 1.3125 51.8125 
L 11.28125 51.8125 
L 25 11.28125 
L 38.71875 51.8125 
L 48.6875 51.8125 
L 29.109375 0 
Q 26.265625 -7.421875 24.28125 -11.453125 
Q 22.3125 -15.484375 19.109375 -18.234375 
Q 15.921875 -21 11.28125 -21 
Q 7.8125 -21 5.328125 -20.3125 
L 5.328125 -11.8125 
Q 7.46875 -12.5 9.71875 -12.5 
z
" id="MicrosoftSansSerif-79"/>
    </defs>
    <g transform="translate(395.4 31.49842)scale(0.08328 -0.08328)">
     <use xlink:href="#MicrosoftSansSerif-41"/>
     <use x="66.699219" xlink:href="#MicrosoftSansSerif-63"/>
     <use x="116.699219" xlink:href="#MicrosoftSansSerif-69"/>
     <use x="139.501953" xlink:href="#MicrosoftSansSerif-64"/>
     <use x="195.117188" xlink:href="#MicrosoftSansSerif-69"/>
     <use x="217.919922" xlink:href="#MicrosoftSansSerif-74"/>
     <use x="245.703125" xlink:href="#MicrosoftSansSerif-79"/>
    </g>
    <!-- 5.00 -->
    <defs>
     <path d="M 16.109375 43.21875 
Q 21.4375 47.515625 29.390625 47.515625 
Q 38.328125 47.515625 44.96875 41.1875 
Q 51.609375 34.859375 51.609375 24.3125 
Q 51.609375 13.28125 44.9375 6.03125 
Q 38.28125 -1.21875 27.203125 -1.21875 
Q 18.109375 -1.21875 11.65625 3.8125 
Q 5.21875 8.84375 4.203125 18.796875 
L 13.71875 18.796875 
Q 14.5 12.3125 18.234375 9.15625 
Q 21.96875 6 27.203125 6 
Q 33.84375 6 37.96875 11.03125 
Q 42.09375 16.0625 42.09375 23.484375 
Q 42.09375 31 37.890625 35.34375 
Q 33.6875 39.703125 27 39.703125 
Q 19.34375 39.703125 14.015625 33.796875 
L 6.78125 33.796875 
L 9.8125 71.578125 
L 48.1875 71.578125 
L 48.1875 63.09375 
L 17.671875 63.09375 
z
" id="MicrosoftSansSerif-35"/>
     <path d="M 18.890625 0 
L 8.890625 0 
L 8.890625 10.015625 
L 18.890625 10.015625 
z
" id="MicrosoftSansSerif-2e"/>
    </defs>
    <g transform="translate(395.4 40.400531)scale(0.08328 -0.08328)">
     <use xlink:href="#MicrosoftSansSerif-35"/>
     <use x="55.615234" xlink:href="#MicrosoftSansSerif-2e"/>
     <use x="83.398438" xlink:href="#MicrosoftSansSerif-30"/>
     <use x="139.013672" xlink:href="#MicrosoftSansSerif-30"/>
    </g>
   </g>
   <g id="text_8">
    <!-- Aftertaste -->
    <defs>
     <path d="M 17.578125 44.578125 
L 17.578125 0 
L 8.40625 0 
L 8.40625 44.578125 
L 0.78125 44.578125 
L 0.78125 51.8125 
L 8.40625 51.8125 
L 8.40625 56.390625 
Q 8.40625 72.796875 22.90625 72.796875 
Q 27.34375 72.796875 29.78125 72.21875 
L 29.78125 64.203125 
Q 27.046875 64.703125 24.21875 64.703125 
Q 20.84375 64.703125 19.203125 62.8125 
Q 17.578125 60.9375 17.578125 56.296875 
L 17.578125 51.8125 
L 27.390625 51.8125 
L 27.390625 44.578125 
z
" id="MicrosoftSansSerif-66"/>
     <path d="M 28.8125 -1.21875 
Q 17.390625 -1.21875 10.453125 5.9375 
Q 3.515625 13.09375 3.515625 25.875 
Q 3.515625 38.578125 10.21875 45.78125 
Q 16.9375 52.984375 27.78125 52.984375 
Q 38.875 52.984375 45.484375 45.890625 
Q 52.09375 38.8125 52.09375 25.875 
L 52.09375 23.6875 
L 13.09375 23.6875 
Q 13.671875 14.703125 18.03125 10.34375 
Q 22.40625 6 28.8125 6 
Q 33.640625 6 37.515625 8.46875 
Q 41.40625 10.9375 41.609375 15.484375 
L 51.125 15.484375 
Q 50.046875 7.46875 43.875 3.125 
Q 37.703125 -1.21875 28.8125 -1.21875 
z
M 42.390625 30.90625 
Q 41.265625 38.375 37.359375 42.078125 
Q 33.453125 45.796875 27.78125 45.796875 
Q 22.265625 45.796875 18.3125 42.109375 
Q 14.359375 38.421875 13.28125 30.90625 
z
" id="MicrosoftSansSerif-65"/>
     <path d="M 33.6875 43.40625 
Q 31.734375 44 28.078125 44 
Q 21.046875 44 16.015625 36.625 
L 16.015625 0 
L 6.78125 0 
L 6.78125 51.8125 
L 16.015625 51.8125 
L 16.015625 44.578125 
Q 21.828125 52.984375 29.5 52.984375 
Q 31.453125 52.984375 33.6875 52.59375 
z
" id="MicrosoftSansSerif-72"/>
     <path d="M 39.59375 13.625 
L 39.59375 25.09375 
L 33.296875 25.09375 
Q 13.28125 25.09375 13.28125 14.203125 
Q 13.28125 10.25 16.203125 8.125 
Q 19.140625 6 24.125 6 
Q 28.65625 6 32.90625 8.046875 
Q 37.15625 10.109375 39.59375 13.625 
z
M 39.59375 5.328125 
Q 32.5625 -1.21875 21.484375 -1.21875 
Q 13.765625 -1.21875 8.78125 2.953125 
Q 3.8125 7.125 3.8125 13.71875 
Q 3.8125 31.890625 35.109375 31.890625 
L 39.59375 31.890625 
Q 39.59375 37.453125 39 39.96875 
Q 38.421875 42.484375 35.734375 44.140625 
Q 33.0625 45.796875 27.203125 45.796875 
Q 14.890625 45.796875 14.5 37.015625 
L 5.328125 37.015625 
Q 6.34375 52.984375 27.6875 52.984375 
Q 37.640625 52.984375 43.203125 49.015625 
Q 48.78125 45.0625 48.78125 33.5 
L 48.78125 0 
L 39.59375 0 
z
" id="MicrosoftSansSerif-61"/>
     <path d="M 25.296875 -1.21875 
Q 4.046875 -1.21875 3.078125 15.484375 
L 12.3125 15.484375 
Q 12.40625 6 25.203125 6 
Q 30.90625 6 33.90625 8.375 
Q 36.921875 10.75 36.921875 14.3125 
Q 36.921875 17.828125 33.984375 19.265625 
Q 31.0625 20.703125 21.90625 23 
Q 12.75 25.296875 8.515625 28.125 
Q 4.296875 30.953125 4.296875 38.09375 
Q 4.296875 44.53125 9.546875 48.75 
Q 14.796875 52.984375 23.578125 52.984375 
Q 43.953125 52.984375 44.390625 38.484375 
L 35.203125 38.484375 
Q 34.71875 45.796875 24.21875 45.796875 
Q 19.578125 45.796875 16.53125 44.03125 
Q 13.484375 42.28125 13.484375 38.921875 
Q 13.484375 35.890625 15.828125 34.546875 
Q 18.171875 33.203125 27.5625 30.921875 
Q 36.96875 28.65625 41.53125 25.625 
Q 46.09375 22.609375 46.09375 15.1875 
Q 46.09375 8.109375 40.453125 3.4375 
Q 34.8125 -1.21875 25.296875 -1.21875 
z
" id="MicrosoftSansSerif-73"/>
    </defs>
    <g transform="translate(213.172239 84.852025)scale(0.08328 -0.08328)">
     <use xlink:href="#MicrosoftSansSerif-41"/>
     <use x="66.699219" xlink:href="#MicrosoftSansSerif-66"/>
     <use x="94.482422" xlink:href="#MicrosoftSansSerif-74"/>
     <use x="122.265625" xlink:href="#MicrosoftSansSerif-65"/>
     <use x="177.880859" xlink:href="#MicrosoftSansSerif-72"/>
     <use x="211.181641" xlink:href="#MicrosoftSansSerif-74"/>
     <use x="238.964844" xlink:href="#MicrosoftSansSerif-61"/>
     <use x="294.580078" xlink:href="#MicrosoftSansSerif-73"/>
     <use x="344.580078" xlink:href="#MicrosoftSansSerif-74"/>
     <use x="372.363281" xlink:href="#MicrosoftSansSerif-65"/>
    </g>
    <!-- 5.00 -->
    <g transform="translate(232.605107 93.66435)scale(0.08328 -0.08328)">
     <use xlink:href="#MicrosoftSansSerif-35"/>
     <use x="55.615234" xlink:href="#MicrosoftSansSerif-2e"/>
     <use x="83.398438" xlink:href="#MicrosoftSansSerif-30"/>
     <use x="139.013672" xlink:href="#MicrosoftSansSerif-30"/>
    </g>
   </g>
   <g id="text_9">
    <!-- Clean Cup -->
    <defs>
     <path d="M 37.984375 -1.21875 
Q 22.796875 -1.21875 13.734375 8.765625 
Q 4.6875 18.75 4.6875 35.796875 
Q 4.6875 52.828125 13.734375 62.8125 
Q 22.796875 72.796875 37.984375 72.796875 
Q 49.65625 72.796875 57.859375 66.5 
Q 66.0625 60.203125 67.09375 49.90625 
L 57.328125 49.90625 
Q 56.734375 56.6875 51.4375 60.6875 
Q 46.140625 64.703125 38.09375 64.703125 
Q 27.203125 64.703125 20.84375 57.203125 
Q 14.5 49.703125 14.5 35.796875 
Q 14.5 21.921875 20.796875 14.40625 
Q 27.09375 6.890625 37.890625 6.890625 
Q 46.296875 6.890625 51.46875 10.984375 
Q 56.640625 15.09375 57.328125 22.703125 
L 67.09375 22.703125 
Q 66.0625 11.28125 58.09375 5.03125 
Q 50.140625 -1.21875 37.984375 -1.21875 
z
" id="MicrosoftSansSerif-43"/>
     <path d="M 16.015625 0 
L 6.78125 0 
L 6.78125 71.578125 
L 16.015625 71.578125 
z
" id="MicrosoftSansSerif-6c"/>
     <path d="M 16.015625 45.21875 
Q 22.90625 52.984375 31.5 52.984375 
Q 49.03125 52.984375 49.03125 33.890625 
L 49.03125 0 
L 39.796875 0 
L 39.796875 33.5 
Q 39.796875 39.84375 37.515625 42.625 
Q 35.25 45.40625 30.078125 45.40625 
Q 23.046875 45.40625 16.015625 37.109375 
L 16.015625 0 
L 6.78125 0 
L 6.78125 51.8125 
L 16.015625 51.8125 
z
" id="MicrosoftSansSerif-6e"/>
     <path d="M 39.59375 6.59375 
Q 32.71875 -1.21875 24.125 -1.21875 
Q 6.59375 -1.21875 6.59375 17.921875 
L 6.59375 51.8125 
L 15.828125 51.8125 
L 15.828125 18.3125 
Q 15.828125 11.96875 18.0625 9.171875 
Q 20.3125 6.390625 25.484375 6.390625 
Q 33.203125 6.390625 39.59375 14.703125 
L 39.59375 51.8125 
L 48.78125 51.8125 
L 48.78125 0 
L 39.59375 0 
z
" id="MicrosoftSansSerif-75"/>
     <path d="M 16.015625 45.609375 
Q 22.171875 52.984375 30.8125 52.984375 
Q 40.96875 52.984375 46.53125 45.78125 
Q 52.09375 38.578125 52.09375 26.3125 
Q 52.09375 13.578125 45.875 6.171875 
Q 39.65625 -1.21875 30.171875 -1.21875 
Q 21.78125 -1.21875 16.015625 4 
L 16.015625 -19.921875 
L 6.78125 -19.921875 
L 6.78125 51.8125 
L 16.015625 51.8125 
z
M 16.015625 12.3125 
Q 21.921875 6 29.59375 6 
Q 35.546875 6 39.0625 11.109375 
Q 42.578125 16.21875 42.578125 26.3125 
Q 42.578125 35.890625 39.25 40.84375 
Q 35.9375 45.796875 29.984375 45.796875 
Q 22.3125 45.796875 16.015625 36.921875 
z
" id="MicrosoftSansSerif-70"/>
    </defs>
    <g transform="translate(131.519276 219.998843)scale(0.08328 -0.08328)">
     <use xlink:href="#MicrosoftSansSerif-43"/>
     <use x="72.216797" xlink:href="#MicrosoftSansSerif-6c"/>
     <use x="95.019531" xlink:href="#MicrosoftSansSerif-65"/>
     <use x="150.634766" xlink:href="#MicrosoftSansSerif-61"/>
     <use x="206.25" xlink:href="#MicrosoftSansSerif-6e"/>
     <use x="261.865234" xlink:href="#MicrosoftSansSerif-20"/>
     <use x="288.427734" xlink:href="#MicrosoftSansSerif-43"/>
     <use x="360.644531" xlink:href="#MicrosoftSansSerif-75"/>
     <use x="416.259766" xlink:href="#MicrosoftSansSerif-70"/>
    </g>
    <!-- 5.00 -->
    <g transform="translate(154.607355 228.811168)scale(0.08328 -0.08328)">
     <use xlink:href="#MicrosoftSansSerif-35"/>
     <use x="55.615234" xlink:href="#MicrosoftSansSerif-2e"/>
     <use x="83.398438" xlink:href="#MicrosoftSansSerif-30"/>
     <use x="139.013672" xlink:href="#MicrosoftSansSerif-30"/>
    </g>
   </g>
   <g id="text_10">
    <!-- Head -->
    <defs>
     <path d="M 64.203125 0 
L 54.6875 0 
L 54.6875 33.6875 
L 17.484375 33.6875 
L 17.484375 0 
L 8.015625 0 
L 8.015625 71.578125 
L 17.484375 71.578125 
L 17.484375 42.1875 
L 54.6875 42.1875 
L 54.6875 71.578125 
L 64.203125 71.578125 
z
" id="MicrosoftSansSerif-48"/>
    </defs>
    <g transform="translate(177.994935 373.573677)scale(0.08328 -0.08328)">
     <use xlink:href="#MicrosoftSansSerif-48"/>
     <use x="72.216797" xlink:href="#MicrosoftSansSerif-65"/>
     <use x="127.832031" xlink:href="#MicrosoftSansSerif-61"/>
     <use x="183.447266" xlink:href="#MicrosoftSansSerif-64"/>
    </g>
    <!-- 5.00 -->
    <g transform="translate(181.69569 382.386002)scale(0.08328 -0.08328)">
     <use xlink:href="#MicrosoftSansSerif-35"/>
     <use x="55.615234" xlink:href="#MicrosoftSansSerif-2e"/>
     <use x="83.398438" xlink:href="#MicrosoftSansSerif-30"/>
     <use x="139.013672" xlink:href="#MicrosoftSansSerif-30"/>
    </g>
   </g>
   <g id="text_11">
    <!-- Fragrance -->
    <defs>
     <path d="M 56.296875 63.09375 
L 17.484375 63.09375 
L 17.484375 40.921875 
L 51.125 40.921875 
L 51.125 32.421875 
L 17.484375 32.421875 
L 17.484375 0 
L 8.015625 0 
L 8.015625 71.578125 
L 56.296875 71.578125 
z
" id="MicrosoftSansSerif-46"/>
     <path d="M 48.78125 4 
Q 48.78125 -21 26.21875 -21 
Q 16.453125 -21 10.8125 -16.75 
Q 5.171875 -12.5 5.171875 -5.328125 
L 14.703125 -5.328125 
Q 14.703125 -13.8125 26.125 -13.8125 
Q 32.5625 -13.8125 36.078125 -10.265625 
Q 39.59375 -6.734375 39.59375 3.609375 
L 39.59375 6.203125 
Q 33.453125 -1.21875 24.8125 -1.21875 
Q 14.65625 -1.21875 9.078125 6 
Q 3.515625 13.234375 3.515625 25.484375 
Q 3.515625 38.1875 9.734375 45.578125 
Q 15.96875 52.984375 25.390625 52.984375 
Q 33.796875 52.984375 39.59375 47.796875 
L 39.59375 51.8125 
L 48.78125 51.8125 
z
M 39.59375 14.890625 
L 39.59375 39.5 
Q 33.640625 45.796875 25.984375 45.796875 
Q 20.0625 45.796875 16.515625 40.6875 
Q 12.984375 35.59375 12.984375 25.484375 
Q 12.984375 15.921875 16.328125 10.953125 
Q 19.671875 6 25.59375 6 
Q 33.296875 6 39.59375 14.890625 
z
" id="MicrosoftSansSerif-67"/>
    </defs>
    <g transform="translate(279.44999 473.845654)scale(0.08328 -0.08328)">
     <use xlink:href="#MicrosoftSansSerif-46"/>
     <use x="61.083984" xlink:href="#MicrosoftSansSerif-72"/>
     <use x="94.384766" xlink:href="#MicrosoftSansSerif-61"/>
     <use x="150" xlink:href="#MicrosoftSansSerif-67"/>
     <use x="205.615234" xlink:href="#MicrosoftSansSerif-72"/>
     <use x="238.916016" xlink:href="#MicrosoftSansSerif-61"/>
     <use x="294.53125" xlink:href="#MicrosoftSansSerif-6e"/>
     <use x="350.146484" xlink:href="#MicrosoftSansSerif-63"/>
     <use x="400.146484" xlink:href="#MicrosoftSansSerif-65"/>
    </g>
    <!-- 5.00 -->
    <g transform="translate(301.195179 482.747766)scale(0.08328 -0.08328)">
     <use xlink:href="#MicrosoftSansSerif-35"/>
     <use x="55.615234" xlink:href="#MicrosoftSansSerif-2e"/>
     <use x="83.398438" xlink:href="#MicrosoftSansSerif-30"/>
     <use x="139.013672" xlink:href="#MicrosoftSansSerif-30"/>
    </g>
   </g>
   <g id="text_12">
    <!-- Sweetness -->
    <defs>
     <path d="M 35.015625 -1.21875 
Q 19.875 -1.21875 12.375 5.5625 
Q 4.890625 12.359375 4.5 23 
L 13.625 23 
Q 14.359375 14.984375 20.28125 11.15625 
Q 26.21875 7.328125 34.625 7.328125 
Q 42.578125 7.328125 47.4375 10.59375 
Q 52.296875 13.875 52.296875 19.484375 
Q 52.296875 25.390625 47.265625 28.078125 
Q 42.234375 30.765625 29.953125 33.375 
Q 17.671875 35.984375 12.328125 40.625 
Q 6.984375 45.265625 6.984375 52.984375 
Q 6.984375 61.671875 13.9375 67.234375 
Q 20.90625 72.796875 32.421875 72.796875 
Q 44.53125 72.796875 51.953125 67.1875 
Q 59.375 61.578125 59.8125 51.3125 
L 50.59375 51.3125 
Q 49.171875 64.3125 32.8125 64.3125 
Q 24.90625 64.3125 20.5625 61.328125 
Q 16.21875 58.34375 16.21875 53.421875 
Q 16.21875 48.921875 19.703125 46.671875 
Q 23.1875 44.4375 32.734375 42.328125 
Q 42.28125 40.234375 47.890625 38.1875 
Q 53.515625 36.140625 57.515625 31.8125 
Q 61.53125 27.484375 61.53125 20.21875 
Q 61.53125 10.984375 54.171875 4.875 
Q 46.828125 -1.21875 35.015625 -1.21875 
z
" id="MicrosoftSansSerif-53"/>
     <path d="M 71.6875 51.8125 
L 56.109375 0 
L 47.3125 0 
L 36.078125 38.09375 
L 24.90625 0 
L 16.109375 0 
L 0.484375 51.8125 
L 10.6875 51.8125 
L 20.21875 12.3125 
L 31.890625 51.8125 
L 40.28125 51.8125 
L 52 12.3125 
L 61.53125 51.8125 
z
" id="MicrosoftSansSerif-77"/>
    </defs>
    <g transform="translate(473.397752 473.845654)scale(0.08328 -0.08328)">
     <use xlink:href="#MicrosoftSansSerif-53"/>
     <use x="66.699219" xlink:href="#MicrosoftSansSerif-77"/>
     <use x="138.916016" xlink:href="#MicrosoftSansSerif-65"/>
     <use x="194.53125" xlink:href="#MicrosoftSansSerif-65"/>
     <use x="250.146484" xlink:href="#MicrosoftSansSerif-74"/>
     <use x="277.929688" xlink:href="#MicrosoftSansSerif-6e"/>
     <use x="333.544922" xlink:href="#MicrosoftSansSerif-65"/>
     <use x="389.160156" xlink:href="#MicrosoftSansSerif-73"/>
     <use x="439.160156" xlink:href="#MicrosoftSansSerif-73"/>
    </g>
    <!-- 5.00 -->
    <g transform="translate(473.397752 482.657979)scale(0.08328 -0.08328)">
     <use xlink:href="#MicrosoftSansSerif-35"/>
     <use x="55.615234" xlink:href="#MicrosoftSansSerif-2e"/>
     <use x="83.398438" xlink:href="#MicrosoftSansSerif-30"/>
     <use x="139.013672" xlink:href="#MicrosoftSansSerif-30"/>
    </g>
   </g>
   <g id="text_13">
    <!-- Aroma -->
    <defs>
     <path d="M 27.78125 52.984375 
Q 38.875 52.984375 45.484375 45.890625 
Q 52.09375 38.8125 52.09375 25.875 
Q 52.09375 12.984375 45.484375 5.875 
Q 38.875 -1.21875 27.78125 -1.21875 
Q 16.75 -1.21875 10.125 5.875 
Q 3.515625 12.984375 3.515625 25.875 
Q 3.515625 38.8125 10.125 45.890625 
Q 16.75 52.984375 27.78125 52.984375 
z
M 27.78125 6 
Q 34.375 6 38.46875 11 
Q 42.578125 16.015625 42.578125 25.875 
Q 42.578125 35.796875 38.46875 40.796875 
Q 34.375 45.796875 27.78125 45.796875 
Q 21.1875 45.796875 17.078125 40.796875 
Q 12.984375 35.796875 12.984375 25.875 
Q 12.984375 16.015625 17.078125 11 
Q 21.1875 6 27.78125 6 
z
" id="MicrosoftSansSerif-6f"/>
     <path d="M 76.8125 0 
L 67.578125 0 
L 67.578125 33.5 
Q 67.578125 39.9375 65.71875 42.671875 
Q 63.875 45.40625 59.515625 45.40625 
Q 52.828125 45.40625 46.390625 37.109375 
L 46.390625 0 
L 37.203125 0 
L 37.203125 33.5 
Q 37.203125 39.9375 35.34375 42.671875 
Q 33.5 45.40625 29.109375 45.40625 
Q 22.40625 45.40625 16.015625 37.109375 
L 16.015625 0 
L 6.78125 0 
L 6.78125 51.8125 
L 16.015625 51.8125 
L 16.015625 45.21875 
Q 22.5625 52.984375 30.515625 52.984375 
Q 41.890625 52.984375 45.015625 43.609375 
Q 50.203125 49.703125 53.8125 51.34375 
Q 57.421875 52.984375 60.890625 52.984375 
Q 76.8125 52.984375 76.8125 33.890625 
z
" id="MicrosoftSansSerif-6d"/>
    </defs>
    <g transform="translate(592.897242 373.573677)scale(0.08328 -0.08328)">
     <use xlink:href="#MicrosoftSansSerif-41"/>
     <use x="66.699219" xlink:href="#MicrosoftSansSerif-72"/>
     <use x="100" xlink:href="#MicrosoftSansSerif-6f"/>
     <use x="155.615234" xlink:href="#MicrosoftSansSerif-6d"/>
     <use x="238.916016" xlink:href="#MicrosoftSansSerif-61"/>
    </g>
    <!-- 5.00 -->
    <g transform="translate(592.897242 382.386002)scale(0.08328 -0.08328)">
     <use xlink:href="#MicrosoftSansSerif-35"/>
     <use x="55.615234" xlink:href="#MicrosoftSansSerif-2e"/>
     <use x="83.398438" xlink:href="#MicrosoftSansSerif-30"/>
     <use x="139.013672" xlink:href="#MicrosoftSansSerif-30"/>
    </g>
   </g>
   <g id="text_14">
    <!-- Balance -->
    <defs>
     <path d="M 61.53125 20.796875 
Q 61.53125 10.75 54.6875 5.375 
Q 47.859375 0 34.8125 0 
L 8.015625 0 
L 8.015625 71.578125 
L 33.5 71.578125 
Q 44.921875 71.578125 51.46875 66.6875 
Q 58.015625 61.8125 58.015625 53.328125 
Q 58.015625 42.96875 47.703125 37.984375 
Q 54.640625 36.234375 58.078125 31.515625 
Q 61.53125 26.8125 61.53125 20.796875 
z
M 17.484375 41.609375 
L 33.40625 41.609375 
Q 41.265625 41.609375 44.96875 44.109375 
Q 48.6875 46.625 48.6875 52.484375 
Q 48.6875 57.765625 45.0625 60.421875 
Q 41.453125 63.09375 32.515625 63.09375 
L 17.484375 63.09375 
z
M 17.484375 8.5 
L 34.71875 8.5 
Q 51.703125 8.5 51.703125 20.796875 
Q 51.703125 27.203125 47.765625 30.15625 
Q 43.84375 33.109375 33.5 33.109375 
L 17.484375 33.109375 
z
" id="MicrosoftSansSerif-42"/>
    </defs>
    <g transform="translate(619.985577 219.948094)scale(0.08328 -0.08328)">
     <use xlink:href="#MicrosoftSansSerif-42"/>
     <use x="66.699219" xlink:href="#MicrosoftSansSerif-61"/>
     <use x="122.314453" xlink:href="#MicrosoftSansSerif-6c"/>
     <use x="145.117188" xlink:href="#MicrosoftSansSerif-61"/>
     <use x="200.732422" xlink:href="#MicrosoftSansSerif-6e"/>
     <use x="256.347656" xlink:href="#MicrosoftSansSerif-63"/>
     <use x="306.347656" xlink:href="#MicrosoftSansSerif-65"/>
    </g>
    <!-- 5.00 -->
    <g transform="translate(619.985577 228.76042)scale(0.08328 -0.08328)">
     <use xlink:href="#MicrosoftSansSerif-35"/>
     <use x="55.615234" xlink:href="#MicrosoftSansSerif-2e"/>
     <use x="83.398438" xlink:href="#MicrosoftSansSerif-30"/>
     <use x="139.013672" xlink:href="#MicrosoftSansSerif-30"/>
    </g>
   </g>
   <g id="text_15">
    <!-- Body -->
    <g transform="translate(541.987824 84.852025)scale(0.08328 -0.08328)">
     <use xlink:href="#MicrosoftSansSerif-42"/>
     <use x="66.699219" xlink:href="#MicrosoftSansSerif-6f"/>
     <use x="122.314453" xlink:href="#MicrosoftSansSerif-64"/>
     <use x="177.929688" xlink:href="#MicrosoftSansSerif-79"/>
    </g>
    <!-- 5.00 -->
    <g transform="translate(541.987824 93.754136)scale(0.08328 -0.08328)">
     <use xlink:href="#MicrosoftSansSerif-35"/>
     <use x="55.615234" xlink:href="#MicrosoftSansSerif-2e"/>
     <use x="83.398438" xlink:href="#MicrosoftSansSerif-30"/>
     <use x="139.013672" xlink:href="#MicrosoftSansSerif-30"/>
    </g>
   </g>
   <g id="text_16">
    <g id="patch_6">
     <path d="M 370.426875 274.154412 
L 420.373125 274.154412 
L 420.373125 243.254413 
L 370.426875 243.254413 
z
" style="fill:#ffff00;opacity:0.3;stroke:#000000;stroke-linejoin:miter;"/>
    </g>
    <!-- 50.00 -->
    <g style="fill:#0000ff;" transform="translate(380.386875 261.803787)scale(0.12 -0.12)">
     <use xlink:href="#MicrosoftSansSerif-35"/>
     <use x="55.615234" xlink:href="#MicrosoftSansSerif-30"/>
     <use x="111.230469" xlink:href="#MicrosoftSansSerif-2e"/>
     <use x="139.013672" xlink:href="#MicrosoftSansSerif-30"/>
     <use x="194.628906" xlink:href="#MicrosoftSansSerif-30"/>
    </g>
   </g>
   <g id="text_17">
    <!--  - -->
    <g style="opacity:0;" transform="translate(391.090125 12.516166)scale(0.144 -0.144)">
     <use xlink:href="#MicrosoftSansSerif-20"/>
     <use x="26.5625" xlink:href="#MicrosoftSansSerif-2d"/>
    </g>
    <!--   -->
    <g style="opacity:0;" transform="translate(393.4875 27.753616)scale(0.144 -0.144)">
     <use xlink:href="#MicrosoftSansSerif-20"/>
    </g>
   </g>
  </g>
 </g>
 <defs>
  <clipPath id="p0270cf071f">
   <path d="M 602.718338 261.803787 
C 602.718338 234.578993 597.355647 207.618925 586.937169 182.466495 
C 576.518691 157.314064 561.247039 134.458422 541.996202 115.207585 
C 522.745365 95.956748 499.889724 80.685097 474.737293 70.266619 
C 449.584862 59.848141 422.624795 54.48545 395.4 54.48545 
C 368.175205 54.48545 341.215138 59.848141 316.062707 70.266619 
C 290.910276 80.685097 268.054635 95.956748 248.803798 115.207585 
C 229.552961 134.458422 214.281309 157.314064 203.862831 182.466495 
C 193.444353 207.618925 188.081662 234.578993 188.081662 261.803787 
C 188.081662 289.028582 193.444353 315.98865 203.862831 341.14108 
C 214.281309 366.293511 229.552961 389.149153 248.803798 408.39999 
C 268.054635 427.650827 290.910276 442.922478 316.062707 453.340956 
C 341.215138 463.759434 368.175205 469.122125 395.4 469.122125 
C 422.624795 469.122125 449.584862 463.759434 474.737293 453.340956 
C 499.889724 442.922478 522.745365 427.650827 541.996202 408.39999 
C 561.247039 389.149153 576.518691 366.293511 586.937169 341.14108 
C 597.355647 315.98865 602.718338 289.028582 602.718338 261.803787 
M 395.4 261.803787 
C 395.4 261.803787 395.4 261.803787 395.4 261.803787 
C 395.4 261.803787 395.4 261.803787 395.4 261.803787 
C 395.4 261.803787 395.4 261.803787 395.4 261.803787 
C 395.4 261.803787 395.4 261.803787 395.4 261.803787 
C 395.4 261.803787 395.4 261.803787 395.4 261.803787 
C 395.4 261.803787 395.4 261.803787 395.4 261.803787 
C 395.4 261.803787 395.4 261.803787 395.4 261.803787 
C 395.4 261.803787 395.4 261.803787 395.4 261.803787 
C 395.4 261.803787 395.4 261.803787 395.4 261.803787 
C 395.4 261.803787 395.4 261.803787 395.4 261.803787 
C 395.4 261.803787 395.4 261.803787 395.4 261.803787 
C 395.4 261.803787 395.4 261.803787 395.4 261.803787 
C 395.4 261.803787 395.4 261.803787 395.4 261.803787 
C 395.4 261.803787 395.4 261.803787 395.4 261.803787 
C 395.4 261.803787 395.4 261.803787 395.4 261.803787 
C 395.4 261.803787 395.4 261.803787 395.4 261.803787 
M 602.718338 261.803787 
z
"/>
  </clipPath>
 </defs>
</svg>
