<?xml version="1.0" encoding="utf-8" standalone="no"?>
<!DOCTYPE svg PUBLIC "-//W3C//DTD SVG 1.1//EN"
  "http://www.w3.org/Graphics/SVG/1.1/DTD/svg11.dtd">
<!-- Created with matplotlib (http://matplotlib.org/) -->
<svg height="450.6pt" version="1.1" viewBox="0 0 864 450.6" width="864pt" xmlns="http://www.w3.org/2000/svg" xmlns:xlink="http://www.w3.org/1999/xlink">
 <defs>
  <style type="text/css">
*{stroke-linecap:butt;stroke-linejoin:round;}
  </style>
 </defs>
 <g id="figure_1">
  <g id="patch_1">
   <path d="M 0 450.6 
L 864 450.6 
L 864 0 
L 0 0 
z
" style="fill:#ffffff;"/>
  </g>
  <g id="axes_1">
   <g id="patch_2">
    <path d="M 616.172587 236.349538 
C 616.172587 212.164215 611.408606 188.214064 602.153284 165.86974 
C 592.897962 143.525415 579.331291 123.221458 562.229686 106.119852 
C 545.12808 89.018246 524.824122 75.451576 502.479798 66.196253 
C 480.135473 56.940931 456.185323 52.17695 432 52.17695 
C 407.814677 52.17695 383.864527 56.940931 361.520202 66.196253 
C 339.175878 75.451576 318.87192 89.018246 301.770314 106.119852 
C 284.668709 123.221458 271.102038 143.525415 261.846716 165.86974 
C 252.591394 188.214064 247.827413 212.164215 247.827413 236.349538 
C 247.827413 260.53486 252.591394 284.485011 261.846716 306.829335 
C 271.102038 329.17366 284.668709 349.477617 301.770314 366.579223 
C 318.87192 383.680829 339.175878 397.247499 361.520202 406.502822 
C 383.864527 415.758144 407.814677 420.522125 432 420.522125 
C 456.185323 420.522125 480.135473 415.758144 502.479798 406.502822 
C 524.824122 397.247499 545.12808 383.680829 562.229686 366.579223 
C 579.331291 349.477617 592.897962 329.17366 602.153284 306.829335 
C 611.408606 284.485011 616.172587 260.53486 616.172587 236.349538 
M 432 236.349538 
C 432 236.349538 432 236.349538 432 236.349538 
C 432 236.349538 432 236.349538 432 236.349538 
C 432 236.349538 432 236.349538 432 236.349538 
C 432 236.349538 432 236.349538 432 236.349538 
C 432 236.349538 432 236.349538 432 236.349538 
C 432 236.349538 432 236.349538 432 236.349538 
C 432 236.349538 432 236.349538 432 236.349538 
C 432 236.349538 432 236.349538 432 236.349538 
C 432 236.349538 432 236.349538 432 236.349538 
C 432 236.349538 432 236.349538 432 236.349538 
C 432 236.349538 432 236.349538 432 236.349538 
C 432 236.349538 432 236.349538 432 236.349538 
C 432 236.349538 432 236.349538 432 236.349538 
C 432 236.349538 432 236.349538 432 236.349538 
C 432 236.349538 432 236.349538 432 236.349538 
C 432 236.349538 432 236.349538 432 236.349538 
M 616.172587 236.349538 
z
" style="fill:none;"/>
   </g>
   <g id="PolyCollection_1">
    <path clip-path="url(#p9e3bc3b95c)" d="M 432 236.349538 
L 432 236.349538 
L 432 236.349538 
L 432 236.349538 
L 432 236.349538 
L 432 236.349538 
L 432 236.349538 
L 432 236.349538 
L 432 236.349538 
L 432 236.349538 
L 432 236.349538 
L 432 236.349538 
L 432 144.263244 
L 491.191929 165.807344 
L 522.687296 220.35892 
L 511.74907 282.392684 
L 463.495367 322.882348 
L 400.504633 322.882348 
L 352.25093 282.392684 
L 341.312704 220.35892 
L 372.808071 165.807344 
L 432 144.263244 
z
" style="fill:#008000;fill-opacity:0.1;"/>
   </g>
   <g id="patch_3">
    <path clip-path="url(#p9e3bc3b95c)" d="M 322.048505 247.381485 
L 322.958171 254.263627 
L 324.298175 261.075071 
L 326.063229 267.788934 
L 328.246367 274.378721 
L 330.838973 280.818423 
L 333.830816 287.082628 
L 337.210088 293.146611 
L 340.963452 298.986443 
L 345.076095 304.579076 
L 349.531788 309.902438 
L 354.312945 314.93552 
L 359.400697 319.658459 
L 364.774966 324.052615 
L 370.414541 328.100648 
L 376.297166 331.786581 
L 382.399624 335.095868 
L 388.697832 338.015448 
L 395.166935 340.533799 
L 401.7814 342.640983 
L 408.515125 344.328682 
L 415.341533 345.590238 
L 422.233685 346.42067 
L 429.164381 346.816702 
L 436.106267 346.77677 
L 443.031947 346.301033 
L 449.91409 345.391367 
L 456.725533 344.051363 
L 463.439397 342.286308 
L 470.029183 340.10317 
L 476.468886 337.510564 
L 482.73309 334.518722 
L 488.797074 331.13945 
L 494.636906 327.386086 
L 500.229538 323.273442 
L 505.5529 318.81775 
L 510.585982 314.036593 
L 515.308921 308.94884 
L 519.703078 303.574572 
L 523.751111 297.934997 
L 527.437044 292.052372 
L 530.746331 285.949914 
L 533.665911 279.651705 
L 536.184262 273.182603 
L 538.291445 266.568137 
L 539.979145 259.834413 
L 541.2407 253.008004 
L 542.071133 246.115852 
L 542.467164 239.185157 
L 542.427233 232.243271 
L 541.951495 225.31759 
L 541.041829 218.435448 
L 539.701825 211.624004 
L 537.936771 204.910141 
L 535.753633 198.320354 
L 533.161027 191.880652 
L 530.169184 185.616447 
L 526.789912 179.552464 
L 523.036548 173.712632 
L 518.923905 168.119999 
L 514.468212 162.796637 
L 509.687055 157.763555 
L 504.599303 153.040616 
L 499.225034 148.64646 
L 493.585459 144.598427 
L 487.702834 140.912494 
L 481.600376 137.603207 
L 475.302168 134.683627 
L 468.833065 132.165276 
L 462.2186 130.058092 
L 455.484875 128.370393 
L 448.658467 127.108837 
L 441.766315 126.278405 
L 434.835619 125.882373 
L 427.893733 125.922305 
L 420.968053 126.398042 
L 414.08591 127.307708 
L 407.274467 128.647712 
L 400.560603 130.412767 
L 393.970817 132.595905 
L 387.531114 135.188511 
L 381.26691 138.180353 
L 375.202926 141.559625 
L 369.363094 145.312989 
L 363.770462 149.425633 
L 358.4471 153.881325 
L 353.414018 158.662482 
L 348.691079 163.750235 
L 344.296922 169.124503 
L 340.248889 174.764078 
L 336.562956 180.646703 
L 333.253669 186.749161 
L 330.334089 193.04737 
L 327.815738 199.516472 
L 325.708555 206.130938 
L 324.020855 212.864662 
L 322.7593 219.691071 
L 321.928867 226.583223 
L 321.532836 233.513918 
L 321.572767 240.455804 
L 322.048505 247.381485 
L 321.865252 247.399871 
L 321.682 247.418258 
L 321.498748 247.436644 
L 321.315495 247.455031 
L 321.132243 247.473418 
L 320.94899 247.491804 
L 320.765738 247.510191 
L 320.582485 247.528577 
L 320.399233 247.546964 
L 320.21598 247.56535 
L 320.032728 247.583737 
L 319.849475 247.602124 
L 319.666223 247.62051 
L 319.48297 247.638897 
L 319.299718 247.657283 
L 319.116465 247.67567 
L 318.933213 247.694057 
L 318.74996 247.712443 
L 318.566708 247.73083 
L 318.383455 247.749216 
L 318.200203 247.767603 
L 318.01695 247.785989 
L 317.833698 247.804376 
L 317.650445 247.822763 
L 317.467193 247.841149 
L 317.28394 247.859536 
L 317.100688 247.877922 
L 316.917435 247.896309 
L 316.734183 247.914695 
L 316.55093 247.933082 
L 316.367678 247.951469 
L 316.184425 247.969855 
L 316.001173 247.988242 
L 315.81792 248.006628 
L 315.634668 248.025015 
L 315.451415 248.043402 
L 315.268163 248.061788 
L 315.08491 248.080175 
L 314.901658 248.098561 
L 314.718405 248.116948 
L 314.535153 248.135334 
L 314.3519 248.153721 
L 314.168648 248.172108 
L 313.985395 248.190494 
L 313.802143 248.208881 
L 313.61889 248.227267 
L 313.435638 248.245654 
L 313.252385 248.26404 
L 313.069133 248.282427 
L 312.88588 248.300814 
L 312.702628 248.3192 
L 312.519375 248.337587 
L 312.336123 248.355973 
L 312.15287 248.37436 
L 311.969618 248.392747 
L 311.786365 248.411133 
L 311.603113 248.42952 
L 311.41986 248.447906 
L 311.236608 248.466293 
L 311.053355 248.484679 
L 310.870103 248.503066 
L 310.68685 248.521453 
L 310.503598 248.539839 
L 310.320346 248.558226 
L 310.137093 248.576612 
L 309.953841 248.594999 
L 309.770588 248.613385 
L 309.587336 248.631772 
L 309.404083 248.650159 
L 309.220831 248.668545 
L 309.037578 248.686932 
L 308.854326 248.705318 
L 308.671073 248.723705 
L 308.487821 248.742092 
L 308.304568 248.760478 
L 308.121316 248.778865 
L 307.938063 248.797251 
L 307.754811 248.815638 
L 307.571558 248.834024 
L 307.388306 248.852411 
L 307.205053 248.870798 
L 307.021801 248.889184 
L 306.838548 248.907571 
L 306.655296 248.925957 
L 306.472043 248.944344 
L 306.288791 248.96273 
L 306.105538 248.981117 
L 305.922286 248.999504 
L 305.739033 249.01789 
L 305.555781 249.036277 
L 305.372528 249.054663 
L 305.189276 249.07305 
L 305.006023 249.091437 
L 304.822771 249.109823 
L 304.639518 249.12821 
L 304.456266 249.146596 
L 304.273013 249.164983 
L 304.089761 249.183369 
L 303.906508 249.201756 
L 303.723256 249.220143 
L 303.168229 241.140182 
L 303.121642 233.041315 
L 303.583679 224.955504 
L 304.552516 216.91466 
L 306.024331 208.950516 
L 307.993314 201.094504 
L 310.451695 193.377628 
L 313.389771 185.830342 
L 316.795948 178.482432 
L 320.656782 171.362897 
L 324.957037 164.499835 
L 329.679742 157.920331 
L 334.806259 151.650351 
L 340.316354 145.71464 
L 346.188283 140.136623 
L 352.398872 134.938315 
L 358.92361 130.140231 
L 365.736747 125.761306 
L 372.811395 121.818823 
L 380.119633 118.32834 
L 387.63262 115.303632 
L 395.320704 112.756638 
L 403.153544 110.697408 
L 411.100229 109.13407 
L 419.129395 108.072793 
L 427.209356 107.517766 
L 435.308223 107.471179 
L 443.394034 107.933216 
L 451.434878 108.902054 
L 459.399021 110.373868 
L 467.255033 112.342851 
L 474.97191 114.801232 
L 482.519196 117.739308 
L 489.867105 121.145485 
L 496.98664 125.00632 
L 503.849702 129.306575 
L 510.429207 134.02928 
L 516.699187 139.155796 
L 522.634898 144.665892 
L 528.212914 150.537821 
L 533.411222 156.74841 
L 538.209307 163.273147 
L 542.588231 170.086285 
L 546.530715 177.160932 
L 550.021198 184.469171 
L 553.045905 191.982157 
L 555.592899 199.670241 
L 557.652129 207.503082 
L 559.215467 215.449766 
L 560.276744 223.478932 
L 560.831771 231.558893 
L 560.878358 239.65776 
L 560.416321 247.743571 
L 559.447484 255.784415 
L 557.975669 263.748559 
L 556.006686 271.604571 
L 553.548305 279.321447 
L 550.610229 286.868733 
L 547.204052 294.216643 
L 543.343218 301.336178 
L 539.042963 308.19924 
L 534.320258 314.778744 
L 529.193741 321.048724 
L 523.683646 326.984435 
L 517.811717 332.562452 
L 511.601128 337.76076 
L 505.07639 342.558844 
L 498.263253 346.937769 
L 491.188605 350.880252 
L 483.880367 354.370735 
L 476.36738 357.395443 
L 468.679296 359.942437 
L 460.846456 362.001667 
L 452.899771 363.565005 
L 444.870605 364.626282 
L 436.790644 365.181309 
L 428.691777 365.227896 
L 420.605966 364.765859 
L 412.565122 363.797021 
L 404.600979 362.325207 
L 396.744967 360.356224 
L 389.02809 357.897843 
L 381.480804 354.959767 
L 374.132895 351.55359 
L 367.01336 347.692755 
L 360.150298 343.3925 
L 353.570793 338.669795 
L 347.300813 333.543279 
L 341.365102 328.033183 
L 335.787086 322.161254 
L 330.588778 315.950665 
L 325.790693 309.425928 
L 321.411769 302.61279 
L 317.469285 295.538143 
L 313.978802 288.229904 
L 310.954095 280.716918 
L 308.407101 273.028834 
L 306.347871 265.195993 
L 304.784533 257.249309 
L 303.723256 249.220143 
L 303.906508 249.201756 
L 304.089761 249.183369 
L 304.273013 249.164983 
L 304.456266 249.146596 
L 304.639518 249.12821 
L 304.822771 249.109823 
L 305.006023 249.091437 
L 305.189276 249.07305 
L 305.372528 249.054663 
L 305.555781 249.036277 
L 305.739033 249.01789 
L 305.922286 248.999504 
L 306.105538 248.981117 
L 306.288791 248.96273 
L 306.472043 248.944344 
L 306.655296 248.925957 
L 306.838548 248.907571 
L 307.021801 248.889184 
L 307.205053 248.870798 
L 307.388306 248.852411 
L 307.571558 248.834024 
L 307.754811 248.815638 
L 307.938063 248.797251 
L 308.121316 248.778865 
L 308.304568 248.760478 
L 308.487821 248.742092 
L 308.671073 248.723705 
L 308.854326 248.705318 
L 309.037578 248.686932 
L 309.220831 248.668545 
L 309.404083 248.650159 
L 309.587336 248.631772 
L 309.770588 248.613385 
L 309.953841 248.594999 
L 310.137093 248.576612 
L 310.320346 248.558226 
L 310.503598 248.539839 
L 310.68685 248.521453 
L 310.870103 248.503066 
L 311.053355 248.484679 
L 311.236608 248.466293 
L 311.41986 248.447906 
L 311.603113 248.42952 
L 311.786365 248.411133 
L 311.969618 248.392747 
L 312.15287 248.37436 
L 312.336123 248.355973 
L 312.519375 248.337587 
L 312.702628 248.3192 
L 312.88588 248.300814 
L 313.069133 248.282427 
L 313.252385 248.26404 
L 313.435638 248.245654 
L 313.61889 248.227267 
L 313.802143 248.208881 
L 313.985395 248.190494 
L 314.168648 248.172108 
L 314.3519 248.153721 
L 314.535153 248.135334 
L 314.718405 248.116948 
L 314.901658 248.098561 
L 315.08491 248.080175 
L 315.268163 248.061788 
L 315.451415 248.043402 
L 315.634668 248.025015 
L 315.81792 248.006628 
L 316.001173 247.988242 
L 316.184425 247.969855 
L 316.367678 247.951469 
L 316.55093 247.933082 
L 316.734183 247.914695 
L 316.917435 247.896309 
L 317.100688 247.877922 
L 317.28394 247.859536 
L 317.467193 247.841149 
L 317.650445 247.822763 
L 317.833698 247.804376 
L 318.01695 247.785989 
L 318.200203 247.767603 
L 318.383455 247.749216 
L 318.566708 247.73083 
L 318.74996 247.712443 
L 318.933213 247.694057 
L 319.116465 247.67567 
L 319.299718 247.657283 
L 319.48297 247.638897 
L 319.666223 247.62051 
L 319.849475 247.602124 
L 320.032728 247.583737 
L 320.21598 247.56535 
L 320.399233 247.546964 
L 320.582485 247.528577 
L 320.765738 247.510191 
L 320.94899 247.491804 
L 321.132243 247.473418 
L 321.315495 247.455031 
L 321.498748 247.436644 
L 321.682 247.418258 
L 321.865252 247.399871 
z
" style="fill:#008000;opacity:0.1;"/>
   </g>
   <g id="patch_4">
    <path clip-path="url(#p9e3bc3b95c)" d="M 285.398007 251.0588 
L 286.610894 260.23499 
L 288.397567 269.316915 
L 290.750972 278.268733 
L 293.661823 287.055115 
L 297.118631 295.641385 
L 301.107755 303.993658 
L 305.61345 312.078969 
L 310.617935 319.865412 
L 316.10146 327.322255 
L 322.042384 334.420071 
L 328.41726 341.130847 
L 335.200929 347.428099 
L 342.366621 353.286975 
L 349.886054 358.684352 
L 357.729554 363.598929 
L 365.866165 368.011312 
L 374.263776 371.904085 
L 382.889246 375.261887 
L 391.708534 378.071465 
L 400.686833 380.321731 
L 409.788711 382.003805 
L 418.978247 383.111048 
L 428.219174 383.63909 
L 437.475022 383.585848 
L 446.709263 382.951531 
L 455.885453 381.738643 
L 464.967378 379.951971 
L 473.919196 377.598565 
L 482.705578 374.687715 
L 491.291848 371.230906 
L 499.64412 367.241783 
L 507.729432 362.736087 
L 515.515874 357.731602 
L 522.972718 352.248077 
L 530.070533 346.307154 
L 536.781309 339.932278 
L 543.078561 333.148608 
L 548.937437 325.982917 
L 554.334814 318.463483 
L 559.249392 310.619983 
L 563.661774 302.483372 
L 567.554548 294.085761 
L 570.912349 285.460291 
L 573.721927 276.641004 
L 575.972193 267.662704 
L 577.654267 258.560826 
L 578.76151 249.37129 
L 579.289552 240.130363 
L 579.23631 230.874515 
L 578.601993 221.640275 
L 577.389106 212.464085 
L 575.602433 203.38216 
L 573.249028 194.430342 
L 570.338177 185.64396 
L 566.881369 177.05769 
L 562.892245 168.705417 
L 558.38655 160.620106 
L 553.382065 152.833663 
L 547.89854 145.37682 
L 541.957616 138.279004 
L 535.58274 131.568228 
L 528.799071 125.270976 
L 521.633379 119.4121 
L 514.113946 114.014723 
L 506.270446 109.100146 
L 498.133835 104.687763 
L 489.736224 100.79499 
L 481.110754 97.437188 
L 472.291466 94.62761 
L 463.313167 92.377344 
L 454.211289 90.69527 
L 445.021753 89.588027 
L 435.780826 89.059985 
L 426.524978 89.113227 
L 417.290737 89.747544 
L 408.114547 90.960432 
L 399.032622 92.747104 
L 390.080804 95.10051 
L 381.294422 98.01136 
L 372.708152 101.468169 
L 364.35588 105.457292 
L 356.270568 109.962988 
L 348.484126 114.967473 
L 341.027282 120.450998 
L 333.929467 126.391921 
L 327.218691 132.766797 
L 320.921439 139.550467 
L 315.062563 146.716158 
L 309.665186 154.235592 
L 304.750608 162.079092 
L 300.338226 170.215703 
L 296.445452 178.613314 
L 293.087651 187.238784 
L 290.278073 196.058071 
L 288.027807 205.036371 
L 286.345733 214.138249 
L 285.23849 223.327785 
L 284.710448 232.568712 
L 284.76369 241.82456 
L 285.398007 251.0588 
L 285.214754 251.077187 
L 285.031502 251.095574 
L 284.848249 251.11396 
L 284.664997 251.132347 
L 284.481744 251.150733 
L 284.298492 251.16912 
L 284.115239 251.187506 
L 283.931987 251.205893 
L 283.748734 251.22428 
L 283.565482 251.242666 
L 283.382229 251.261053 
L 283.198977 251.279439 
L 283.015724 251.297826 
L 282.832472 251.316213 
L 282.649219 251.334599 
L 282.465967 251.352986 
L 282.282714 251.371372 
L 282.099462 251.389759 
L 281.916209 251.408145 
L 281.732957 251.426532 
L 281.549704 251.444919 
L 281.366452 251.463305 
L 281.183199 251.481692 
L 280.999947 251.500078 
L 280.816694 251.518465 
L 280.633442 251.536851 
L 280.450189 251.555238 
L 280.266937 251.573625 
L 280.083684 251.592011 
L 279.900432 251.610398 
L 279.717179 251.628784 
L 279.533927 251.647171 
L 279.350674 251.665558 
L 279.167422 251.683944 
L 278.984169 251.702331 
L 278.800917 251.720717 
L 278.617664 251.739104 
L 278.434412 251.75749 
L 278.251159 251.775877 
L 278.067907 251.794264 
L 277.884654 251.81265 
L 277.701402 251.831037 
L 277.51815 251.849423 
L 277.334897 251.86781 
L 277.151645 251.886196 
L 276.968392 251.904583 
L 276.78514 251.92297 
L 276.601887 251.941356 
L 276.418635 251.959743 
L 276.235382 251.978129 
L 276.05213 251.996516 
L 275.868877 252.014903 
L 275.685625 252.033289 
L 275.502372 252.051676 
L 275.31912 252.070062 
L 275.135867 252.088449 
L 274.952615 252.106835 
L 274.769362 252.125222 
L 274.58611 252.143609 
L 274.402857 252.161995 
L 274.219605 252.180382 
L 274.036352 252.198768 
L 273.8531 252.217155 
L 273.669847 252.235541 
L 273.486595 252.253928 
L 273.303342 252.272315 
L 273.12009 252.290701 
L 272.936837 252.309088 
L 272.753585 252.327474 
L 272.570332 252.345861 
L 272.38708 252.364248 
L 272.203827 252.382634 
L 272.020575 252.401021 
L 271.837322 252.419407 
L 271.65407 252.437794 
L 271.470817 252.45618 
L 271.287565 252.474567 
L 271.104312 252.492954 
L 270.92106 252.51134 
L 270.737807 252.529727 
L 270.554555 252.548113 
L 270.371302 252.5665 
L 270.18805 252.584886 
L 270.004797 252.603273 
L 269.821545 252.62166 
L 269.638292 252.640046 
L 269.45504 252.658433 
L 269.271787 252.676819 
L 269.088535 252.695206 
L 268.905282 252.713593 
L 268.72203 252.731979 
L 268.538777 252.750366 
L 268.355525 252.768752 
L 268.172272 252.787139 
L 267.98902 252.805525 
L 267.805767 252.823912 
L 267.622515 252.842299 
L 267.439262 252.860685 
L 267.25601 252.879072 
L 267.072757 252.897458 
L 266.359151 242.508938 
L 266.299254 232.096108 
L 266.893301 221.700066 
L 268.13895 211.361838 
L 270.031283 201.122225 
L 272.562832 191.021638 
L 275.723607 181.099939 
L 279.501134 171.396286 
L 283.880504 161.948973 
L 288.844434 152.795286 
L 294.373334 143.971349 
L 300.445383 135.511986 
L 307.036618 127.450583 
L 314.121027 119.818955 
L 321.67065 112.647219 
L 329.655693 105.96368 
L 338.044641 99.794715 
L 346.804389 94.164669 
L 355.900365 89.095761 
L 365.296671 84.607998 
L 374.956225 80.719088 
L 384.840905 77.444381 
L 394.9117 74.7968 
L 405.128866 72.786794 
L 415.452079 71.422295 
L 425.8406 70.708689 
L 436.253429 70.648791 
L 446.649472 71.242839 
L 456.9877 72.488487 
L 467.227313 74.38082 
L 477.3279 76.91237 
L 487.249598 80.073145 
L 496.953252 83.850672 
L 506.400564 88.230042 
L 515.554252 93.193972 
L 524.378189 98.722871 
L 532.837551 104.794921 
L 540.898954 111.386156 
L 548.530583 118.470564 
L 555.702318 126.020187 
L 562.385857 134.00523 
L 568.554823 142.394179 
L 574.184869 151.153927 
L 579.253776 160.249902 
L 583.74154 169.646209 
L 587.630449 179.305763 
L 590.905156 189.190442 
L 593.552738 199.261237 
L 595.562744 209.478403 
L 596.927243 219.801617 
L 597.640849 230.190137 
L 597.700746 240.602967 
L 597.106699 250.999009 
L 595.86105 261.337237 
L 593.968717 271.57685 
L 591.437168 281.677437 
L 588.276393 291.599136 
L 584.498866 301.302789 
L 580.119496 310.750102 
L 575.155566 319.903789 
L 569.626666 328.727726 
L 563.554617 337.187089 
L 556.963382 345.248492 
L 549.878973 352.88012 
L 542.32935 360.051856 
L 534.344307 366.735395 
L 525.955359 372.90436 
L 517.195611 378.534406 
L 508.099635 383.603314 
L 498.703329 388.091077 
L 489.043775 391.979987 
L 479.159095 395.254694 
L 469.0883 397.902275 
L 458.871134 399.912281 
L 448.547921 401.27678 
L 438.1594 401.990386 
L 427.746571 402.050284 
L 417.350528 401.456236 
L 407.0123 400.210588 
L 396.772687 398.318255 
L 386.6721 395.786705 
L 376.750402 392.62593 
L 367.046748 388.848403 
L 357.599436 384.469033 
L 348.445748 379.505103 
L 339.621811 373.976204 
L 331.162449 367.904154 
L 323.101046 361.312919 
L 315.469417 354.228511 
L 308.297682 346.678888 
L 301.614143 338.693845 
L 295.445177 330.304896 
L 289.815131 321.545148 
L 284.746224 312.449173 
L 280.25846 303.052866 
L 276.369551 293.393312 
L 273.094844 283.508633 
L 270.447262 273.437838 
L 268.437256 263.220672 
L 267.072757 252.897458 
L 267.25601 252.879072 
L 267.439262 252.860685 
L 267.622515 252.842299 
L 267.805767 252.823912 
L 267.98902 252.805525 
L 268.172272 252.787139 
L 268.355525 252.768752 
L 268.538777 252.750366 
L 268.72203 252.731979 
L 268.905282 252.713593 
L 269.088535 252.695206 
L 269.271787 252.676819 
L 269.45504 252.658433 
L 269.638292 252.640046 
L 269.821545 252.62166 
L 270.004797 252.603273 
L 270.18805 252.584886 
L 270.371302 252.5665 
L 270.554555 252.548113 
L 270.737807 252.529727 
L 270.92106 252.51134 
L 271.104312 252.492954 
L 271.287565 252.474567 
L 271.470817 252.45618 
L 271.65407 252.437794 
L 271.837322 252.419407 
L 272.020575 252.401021 
L 272.203827 252.382634 
L 272.38708 252.364248 
L 272.570332 252.345861 
L 272.753585 252.327474 
L 272.936837 252.309088 
L 273.12009 252.290701 
L 273.303342 252.272315 
L 273.486595 252.253928 
L 273.669847 252.235541 
L 273.8531 252.217155 
L 274.036352 252.198768 
L 274.219605 252.180382 
L 274.402857 252.161995 
L 274.58611 252.143609 
L 274.769362 252.125222 
L 274.952615 252.106835 
L 275.135867 252.088449 
L 275.31912 252.070062 
L 275.502372 252.051676 
L 275.685625 252.033289 
L 275.868877 252.014903 
L 276.05213 251.996516 
L 276.235382 251.978129 
L 276.418635 251.959743 
L 276.601887 251.941356 
L 276.78514 251.92297 
L 276.968392 251.904583 
L 277.151645 251.886196 
L 277.334897 251.86781 
L 277.51815 251.849423 
L 277.701402 251.831037 
L 277.884654 251.81265 
L 278.067907 251.794264 
L 278.251159 251.775877 
L 278.434412 251.75749 
L 278.617664 251.739104 
L 278.800917 251.720717 
L 278.984169 251.702331 
L 279.167422 251.683944 
L 279.350674 251.665558 
L 279.533927 251.647171 
L 279.717179 251.628784 
L 279.900432 251.610398 
L 280.083684 251.592011 
L 280.266937 251.573625 
L 280.450189 251.555238 
L 280.633442 251.536851 
L 280.816694 251.518465 
L 280.999947 251.500078 
L 281.183199 251.481692 
L 281.366452 251.463305 
L 281.549704 251.444919 
L 281.732957 251.426532 
L 281.916209 251.408145 
L 282.099462 251.389759 
L 282.282714 251.371372 
L 282.465967 251.352986 
L 282.649219 251.334599 
L 282.832472 251.316213 
L 283.015724 251.297826 
L 283.198977 251.279439 
L 283.382229 251.261053 
L 283.565482 251.242666 
L 283.748734 251.22428 
L 283.931987 251.205893 
L 284.115239 251.187506 
L 284.298492 251.16912 
L 284.481744 251.150733 
L 284.664997 251.132347 
L 284.848249 251.11396 
L 285.031502 251.095574 
L 285.214754 251.077187 
z
" style="fill:#008000;opacity:0.1;"/>
   </g>
   <g id="matplotlib.axis_1">
    <g id="xtick_1">
     <g id="line2d_1">
      <path clip-path="url(#p9e3bc3b95c)" d="M 432 236.349538 
L 613.374592 204.368303 
" style="fill:none;stroke:#008000;stroke-linecap:square;stroke-opacity:0.3;"/>
     </g>
    </g>
    <g id="xtick_2">
     <g id="line2d_2">
      <path clip-path="url(#p9e3bc3b95c)" d="M 432 236.349538 
L 550.383857 95.26515 
" style="fill:none;stroke:#008000;stroke-linecap:square;stroke-opacity:0.3;"/>
     </g>
    </g>
    <g id="xtick_3">
     <g id="line2d_3">
      <path clip-path="url(#p9e3bc3b95c)" d="M 432 236.349538 
L 432 52.17695 
" style="fill:none;stroke:#008000;stroke-linecap:square;stroke-opacity:0.3;"/>
     </g>
    </g>
    <g id="xtick_4">
     <g id="line2d_4">
      <path clip-path="url(#p9e3bc3b95c)" d="M 432 236.349538 
L 313.616143 95.26515 
" style="fill:none;stroke:#008000;stroke-linecap:square;stroke-opacity:0.3;"/>
     </g>
    </g>
    <g id="xtick_5">
     <g id="line2d_5">
      <path clip-path="url(#p9e3bc3b95c)" d="M 432 236.349538 
L 250.625408 204.368303 
" style="fill:none;stroke:#008000;stroke-linecap:square;stroke-opacity:0.3;"/>
     </g>
    </g>
    <g id="xtick_6">
     <g id="line2d_6">
      <path clip-path="url(#p9e3bc3b95c)" d="M 432 236.349538 
L 272.501861 328.435831 
" style="fill:none;stroke:#008000;stroke-linecap:square;stroke-opacity:0.3;"/>
     </g>
    </g>
    <g id="xtick_7">
     <g id="line2d_7">
      <path clip-path="url(#p9e3bc3b95c)" d="M 432 236.349538 
L 369.009265 409.415159 
" style="fill:none;stroke:#008000;stroke-linecap:square;stroke-opacity:0.3;"/>
     </g>
    </g>
    <g id="xtick_8">
     <g id="line2d_8">
      <path clip-path="url(#p9e3bc3b95c)" d="M 432 236.349538 
L 494.990735 409.415159 
" style="fill:none;stroke:#008000;stroke-linecap:square;stroke-opacity:0.3;"/>
     </g>
    </g>
    <g id="xtick_9">
     <g id="line2d_9">
      <path clip-path="url(#p9e3bc3b95c)" d="M 432 236.349538 
L 591.498139 328.435831 
" style="fill:none;stroke:#008000;stroke-linecap:square;stroke-opacity:0.3;"/>
     </g>
    </g>
    <g id="text_1">
     <!--  - -->
     <defs>
      <path d="M 0 0 
z
" id="MicrosoftSansSerif-20"/>
      <path d="M 30.078125 21.484375 
L 3.21875 21.484375 
L 3.21875 30.328125 
L 30.078125 30.328125 
z
" id="MicrosoftSansSerif-2d"/>
     </defs>
     <g style="opacity:0;" transform="translate(428.408437 433.1115)scale(0.12 -0.12)">
      <use xlink:href="#MicrosoftSansSerif-20"/>
      <use x="26.5625" xlink:href="#MicrosoftSansSerif-2d"/>
     </g>
     <!--   -->
     <g style="opacity:0;" transform="translate(430.40625 445.809375)scale(0.12 -0.12)">
      <use xlink:href="#MicrosoftSansSerif-20"/>
     </g>
    </g>
   </g>
   <g id="matplotlib.axis_2">
    <g id="ytick_1">
     <g id="line2d_10">
      <path clip-path="url(#p9e3bc3b95c)" d="M 468.834518 236.349538 
L 468.74479 233.780091 
L 468.476047 231.223163 
L 468.029595 228.691211 
L 467.407611 226.196568 
L 466.613124 223.751391 
L 465.650006 221.36759 
L 464.522949 219.056779 
L 463.237442 216.830217 
L 461.799751 214.698751 
L 460.216877 212.672766 
L 458.496534 210.762132 
L 456.647103 208.976156 
L 454.677593 207.323542 
L 452.597601 205.812339 
L 450.417259 204.44991 
L 448.14719 203.242892 
L 445.798453 202.197168 
L 443.382492 201.31783 
L 440.911076 200.609163 
L 438.396247 200.074619 
L 435.850256 199.716803 
L 433.285506 199.537459 
L 430.714494 199.537459 
L 428.149744 199.716803 
L 425.603753 200.074619 
L 423.088924 200.609163 
L 420.617508 201.31783 
L 418.201547 202.197168 
L 415.85281 203.242892 
L 413.582741 204.44991 
L 411.402399 205.812339 
L 409.322407 207.323542 
L 407.352897 208.976156 
L 405.503466 210.762132 
L 403.783123 212.672766 
L 402.200249 214.698751 
L 400.762558 216.830217 
L 399.477051 219.056779 
L 398.349994 221.36759 
L 397.386876 223.751391 
L 396.592389 226.196568 
L 395.970405 228.691211 
L 395.523953 231.223163 
L 395.25521 233.780091 
L 395.165482 236.349538 
L 395.25521 238.918984 
L 395.523953 241.475912 
L 395.970405 244.007864 
L 396.592389 246.502507 
L 397.386876 248.947684 
L 398.349994 251.331485 
L 399.477051 253.642296 
L 400.762558 255.868858 
L 402.200249 258.000324 
L 403.783123 260.026309 
L 405.503466 261.936943 
L 407.352897 263.722919 
L 409.322407 265.375533 
L 411.402399 266.886736 
L 413.582741 268.249165 
L 415.85281 269.456183 
L 418.201547 270.501907 
L 420.617508 271.381245 
L 423.088924 272.089912 
L 425.603753 272.624456 
L 428.149744 272.982272 
L 430.714494 273.161616 
L 433.285506 273.161616 
L 435.850256 272.982272 
L 438.396247 272.624456 
L 440.911076 272.089912 
L 443.382492 271.381245 
L 445.798453 270.501907 
L 448.14719 269.456183 
L 450.417259 268.249165 
L 452.597601 266.886736 
L 454.677593 265.375533 
L 456.647103 263.722919 
L 458.496534 261.936943 
L 460.216877 260.026309 
L 461.799751 258.000324 
L 463.237442 255.868858 
L 464.522949 253.642296 
L 465.650006 251.331485 
L 466.613124 248.947684 
L 467.407611 246.502507 
L 468.029595 244.007864 
L 468.476047 241.475912 
L 468.74479 238.918984 
L 468.834518 236.349538 
L 468.834518 236.349538 
" style="fill:none;stroke:#008000;stroke-linecap:square;stroke-opacity:0.3;"/>
     </g>
     <g id="text_2">
      <!-- 2 -->
      <defs>
       <path d="M 50.484375 0 
L 3.078125 0 
Q 3.078125 6.546875 7.125 12.5 
Q 11.1875 18.453125 22 27.171875 
Q 32.8125 35.890625 36.8125 41.09375 
Q 40.828125 46.296875 40.828125 52.875 
Q 40.828125 58.796875 37.40625 62.1875 
Q 33.984375 65.578125 27.78125 65.578125 
Q 22.40625 65.578125 18.59375 62.15625 
Q 14.796875 58.734375 14.3125 52.09375 
L 4.78125 52.09375 
Q 5.5625 61.53125 11.734375 67.15625 
Q 17.921875 72.796875 27.984375 72.796875 
Q 38.671875 72.796875 44.484375 67.0625 
Q 50.296875 61.328125 50.296875 52.6875 
Q 50.296875 44.875 46 38.890625 
Q 41.703125 32.90625 28.921875 22.265625 
Q 16.15625 11.625 15.921875 8.5 
L 50.484375 8.5 
z
" id="MicrosoftSansSerif-32"/>
      </defs>
      <g style="fill:#333333;" transform="translate(466.030657 220.594484)scale(0.08328 -0.08328)">
       <use xlink:href="#MicrosoftSansSerif-32"/>
      </g>
     </g>
    </g>
    <g id="ytick_2">
     <g id="line2d_11">
      <path clip-path="url(#p9e3bc3b95c)" d="M 505.669035 236.349538 
L 505.489581 231.210645 
L 504.952093 226.096789 
L 504.05919 221.032884 
L 502.815222 216.043599 
L 501.226249 211.153244 
L 499.300012 206.385642 
L 497.045897 201.764021 
L 494.474885 197.310897 
L 491.599501 193.047965 
L 488.433755 188.995995 
L 484.993069 185.174726 
L 481.294206 181.602775 
L 477.355187 178.297546 
L 473.195202 175.27514 
L 468.834518 172.550282 
L 464.294379 170.136247 
L 459.596906 168.044798 
L 454.764984 166.286122 
L 449.822153 164.868788 
L 444.792494 163.799701 
L 439.700511 163.084069 
L 434.571012 162.72538 
L 429.428988 162.72538 
L 424.299489 163.084069 
L 419.207506 163.799701 
L 414.177847 164.868788 
L 409.235016 166.286122 
L 404.403094 168.044798 
L 399.705621 170.136247 
L 395.165482 172.550282 
L 390.804798 175.27514 
L 386.644813 178.297546 
L 382.705794 181.602775 
L 379.006931 185.174726 
L 375.566245 188.995995 
L 372.400499 193.047965 
L 369.525115 197.310897 
L 366.954103 201.764021 
L 364.699988 206.385642 
L 362.773751 211.153244 
L 361.184778 216.043599 
L 359.94081 221.032884 
L 359.047907 226.096789 
L 358.510419 231.210645 
L 358.330965 236.349538 
L 358.510419 241.48843 
L 359.047907 246.602286 
L 359.94081 251.666191 
L 361.184778 256.655476 
L 362.773751 261.545831 
L 364.699988 266.313433 
L 366.954103 270.935054 
L 369.525115 275.388178 
L 372.400499 279.65111 
L 375.566245 283.70308 
L 379.006931 287.524349 
L 382.705794 291.0963 
L 386.644813 294.401529 
L 390.804798 297.423935 
L 395.165482 300.148793 
L 399.705621 302.562828 
L 404.403094 304.654277 
L 409.235016 306.412953 
L 414.177847 307.830287 
L 419.207506 308.899374 
L 424.299489 309.615006 
L 429.428988 309.973695 
L 434.571012 309.973695 
L 439.700511 309.615006 
L 444.792494 308.899374 
L 449.822153 307.830287 
L 454.764984 306.412953 
L 459.596906 304.654277 
L 464.294379 302.562828 
L 468.834518 300.148793 
L 473.195202 297.423935 
L 477.355187 294.401529 
L 481.294206 291.0963 
L 484.993069 287.524349 
L 488.433755 283.70308 
L 491.599501 279.65111 
L 494.474885 275.388178 
L 497.045897 270.935054 
L 499.300012 266.313433 
L 501.226249 261.545831 
L 502.815222 256.655476 
L 504.05919 251.666191 
L 504.952093 246.602286 
L 505.489581 241.48843 
L 505.669035 236.349538 
L 505.669035 236.349538 
" style="fill:none;stroke:#008000;stroke-linecap:square;stroke-opacity:0.3;"/>
     </g>
     <g id="text_3">
      <!-- 4 -->
      <defs>
       <path d="M 50.984375 17.09375 
L 41.3125 17.09375 
L 41.3125 0 
L 32.078125 0 
L 32.078125 17.09375 
L 1.515625 17.09375 
L 1.515625 25.203125 
L 34.078125 72.515625 
L 41.3125 72.515625 
L 41.3125 25.203125 
L 50.984375 25.203125 
z
M 32.078125 25.203125 
L 32.078125 58.015625 
L 10.109375 25.203125 
z
" id="MicrosoftSansSerif-34"/>
      </defs>
      <g style="fill:#333333;" transform="translate(500.061314 206.498525)scale(0.08328 -0.08328)">
       <use xlink:href="#MicrosoftSansSerif-34"/>
      </g>
     </g>
    </g>
    <g id="ytick_3">
     <g id="line2d_12">
      <path clip-path="url(#p9e3bc3b95c)" d="M 542.503552 236.349538 
L 542.436237 232.493019 
L 542.234371 228.641199 
L 541.898202 224.798771 
L 541.42814 220.970415 
L 540.824755 217.160797 
L 540.088785 213.374557 
L 539.221125 209.616309 
L 538.222832 205.89063 
L 537.095124 202.202062 
L 535.839373 198.555097 
L 534.45711 194.954178 
L 532.950018 191.403694 
L 531.319935 187.907968 
L 529.568846 184.471262 
L 527.698884 181.097761 
L 525.712327 177.791576 
L 523.611597 174.556735 
L 521.399252 171.397179 
L 519.077988 168.316757 
L 516.650632 165.319223 
L 514.120143 162.408228 
L 511.489603 159.58732 
L 508.762218 156.859934 
L 505.941309 154.229394 
L 503.030314 151.698905 
L 500.03278 149.27155 
L 496.952358 146.950286 
L 493.792802 144.737941 
L 490.557961 142.63721 
L 487.251776 140.650654 
L 483.878275 138.780692 
L 480.441569 137.029602 
L 476.945844 135.399519 
L 473.395359 133.892428 
L 469.794441 132.510165 
L 466.147476 131.254414 
L 462.458907 130.126705 
L 458.733229 129.128413 
L 454.97498 128.260753 
L 451.188741 127.524782 
L 447.379122 126.921398 
L 443.550767 126.451335 
L 439.708338 126.115166 
L 435.856518 125.913301 
L 432 125.845985 
L 428.143482 125.913301 
L 424.291662 126.115166 
L 420.449233 126.451335 
L 416.620878 126.921398 
L 412.811259 127.524782 
L 409.02502 128.260753 
L 405.266771 129.128413 
L 401.541093 130.126705 
L 397.852524 131.254414 
L 394.205559 132.510165 
L 390.604641 133.892428 
L 387.054156 135.399519 
L 383.558431 137.029602 
L 380.121725 138.780692 
L 376.748224 140.650654 
L 373.442039 142.63721 
L 370.207198 144.737941 
L 367.047642 146.950286 
L 363.96722 149.27155 
L 360.969686 151.698905 
L 358.058691 154.229394 
L 355.237782 156.859934 
L 352.510397 159.58732 
L 349.879857 162.408228 
L 347.349368 165.319223 
L 344.922012 168.316757 
L 342.600748 171.397179 
L 340.388403 174.556735 
L 338.287673 177.791576 
L 336.301116 181.097761 
L 334.431154 184.471262 
L 332.680065 187.907968 
L 331.049982 191.403694 
L 329.54289 194.954178 
L 328.160627 198.555097 
L 326.904876 202.202062 
L 325.777168 205.89063 
L 324.778875 209.616309 
L 323.911215 213.374557 
L 323.175245 217.160797 
L 322.57186 220.970415 
L 322.101798 224.798771 
L 321.765629 228.641199 
L 321.563763 232.493019 
L 321.496447 236.349538 
L 321.563763 240.206056 
L 321.765629 244.057876 
L 322.101798 247.900304 
L 322.57186 251.72866 
L 323.175245 255.538278 
L 323.911215 259.324518 
L 324.778875 263.082766 
L 325.777168 266.808445 
L 326.904876 270.497013 
L 328.160627 274.143978 
L 329.54289 277.744897 
L 331.049982 281.295381 
L 332.680065 284.791107 
L 334.431154 288.227813 
L 336.301116 291.601314 
L 338.287673 294.907499 
L 340.388403 298.14234 
L 342.600748 301.301896 
L 344.922012 304.382318 
L 347.349368 307.379852 
L 349.879857 310.290847 
L 352.510397 313.111755 
L 355.237782 315.839141 
L 358.058691 318.469681 
L 360.969686 321.00017 
L 363.96722 323.427525 
L 367.047642 325.748789 
L 370.207198 327.961134 
L 373.442039 330.061865 
L 376.748224 332.048421 
L 380.121725 333.918383 
L 383.558431 335.669473 
L 387.054156 337.299556 
L 390.604641 338.806647 
L 394.205559 340.18891 
L 397.852524 341.444661 
L 401.541093 342.57237 
L 405.266771 343.570662 
L 409.02502 344.438322 
L 412.811259 345.174293 
L 416.620878 345.777677 
L 420.449233 346.24774 
L 424.291662 346.583909 
L 428.143482 346.785774 
L 432 346.85309 
L 435.856518 346.785774 
L 439.708338 346.583909 
L 443.550767 346.24774 
L 447.379122 345.777677 
L 451.188741 345.174293 
L 454.97498 344.438322 
L 458.733229 343.570662 
L 462.458907 342.57237 
L 466.147476 341.444661 
L 469.794441 340.18891 
L 473.395359 338.806647 
L 476.945844 337.299556 
L 480.441569 335.669473 
L 483.878275 333.918383 
L 487.251776 332.048421 
L 490.557961 330.061865 
L 493.792802 327.961134 
L 496.952358 325.748789 
L 500.03278 323.427525 
L 503.030314 321.00017 
L 505.941309 318.469681 
L 508.762218 315.839141 
L 511.489603 313.111755 
L 514.120143 310.290847 
L 516.650632 307.379852 
L 519.077988 304.382318 
L 521.399252 301.301896 
L 523.611597 298.14234 
L 525.712327 294.907499 
L 527.698884 291.601314 
L 529.568846 288.227813 
L 531.319935 284.791107 
L 532.950018 281.295381 
L 534.45711 277.744897 
L 535.839373 274.143978 
L 537.095124 270.497013 
L 538.222832 266.808445 
L 539.221125 263.082766 
L 540.088785 259.324518 
L 540.824755 255.538278 
L 541.42814 251.72866 
L 541.898202 247.900304 
L 542.234371 244.057876 
L 542.436237 240.206056 
L 542.503552 236.349538 
L 542.503552 236.349538 
" style="fill:none;stroke:#008000;stroke-linecap:square;stroke-opacity:0.3;"/>
     </g>
     <g id="text_4">
      <!-- 6 -->
      <defs>
       <path d="M 13.8125 38.625 
Q 20.90625 46.390625 30.078125 46.390625 
Q 39.0625 46.390625 45.234375 39.859375 
Q 51.421875 33.34375 51.421875 23.296875 
Q 51.421875 13.09375 45.28125 5.9375 
Q 39.15625 -1.21875 29 -1.21875 
Q 17.390625 -1.21875 10.9375 7.734375 
Q 4.5 16.703125 4.5 33.5 
Q 4.5 72.796875 29.78125 72.796875 
Q 37.84375 72.796875 43.40625 68.296875 
Q 48.96875 63.8125 50.203125 54.984375 
L 40.71875 54.984375 
Q 39.5 65.578125 29.296875 65.578125 
Q 22.703125 65.578125 18.625 58.609375 
Q 14.546875 51.65625 13.8125 38.625 
z
M 13.71875 31.5 
Q 13.921875 19.1875 17.96875 12.59375 
Q 22.015625 6 28.8125 6 
Q 34.765625 6 38.328125 10.78125 
Q 41.890625 15.578125 41.890625 22.703125 
Q 41.890625 29.9375 38.25 34.5625 
Q 34.625 39.203125 28.515625 39.203125 
Q 20.953125 39.203125 13.71875 31.5 
z
" id="MicrosoftSansSerif-36"/>
      </defs>
      <g style="fill:#333333;" transform="translate(534.09197 192.402565)scale(0.08328 -0.08328)">
       <use xlink:href="#MicrosoftSansSerif-36"/>
      </g>
     </g>
    </g>
    <g id="ytick_4">
     <g id="line2d_13">
      <path clip-path="url(#p9e3bc3b95c)" d="M 579.33807 236.349538 
L 579.248316 231.207513 
L 578.979162 226.071753 
L 578.530937 220.948515 
L 577.904186 215.844041 
L 577.099674 210.76455 
L 576.11838 205.71623 
L 574.9615 200.705232 
L 573.630443 195.737661 
L 572.126832 190.81957 
L 570.452497 185.95695 
L 568.60948 181.155725 
L 566.600025 176.421746 
L 564.42658 171.760779 
L 562.091794 167.178504 
L 559.598512 162.680503 
L 556.94977 158.272256 
L 554.148796 153.959134 
L 551.199003 149.746393 
L 548.103984 145.639164 
L 544.86751 141.642452 
L 541.493524 137.761125 
L 537.986138 133.999914 
L 534.349624 130.3634 
L 530.588412 126.856013 
L 526.707086 123.482028 
L 522.710374 120.245554 
L 518.603145 117.150535 
L 514.390403 114.200742 
L 510.077282 111.399768 
L 505.669035 108.751026 
L 501.171034 106.257743 
L 496.588759 103.922957 
L 491.927792 101.749513 
L 487.193812 99.740058 
L 482.392588 97.89704 
L 477.529968 96.222706 
L 472.611876 94.719094 
L 467.644305 93.388038 
L 462.633307 92.231158 
L 457.584987 91.249864 
L 452.505496 90.445351 
L 447.401022 89.818601 
L 442.277784 89.370376 
L 437.142024 89.101222 
L 432 89.011468 
L 426.857976 89.101222 
L 421.722216 89.370376 
L 416.598978 89.818601 
L 411.494504 90.445351 
L 406.415013 91.249864 
L 401.366693 92.231158 
L 396.355695 93.388038 
L 391.388124 94.719094 
L 386.470032 96.222706 
L 381.607412 97.89704 
L 376.806188 99.740058 
L 372.072208 101.749513 
L 367.411241 103.922957 
L 362.828966 106.257743 
L 358.330965 108.751026 
L 353.922718 111.399768 
L 349.609597 114.200742 
L 345.396855 117.150535 
L 341.289626 120.245554 
L 337.292914 123.482028 
L 333.411588 126.856013 
L 329.650376 130.3634 
L 326.013862 133.999914 
L 322.506476 137.761125 
L 319.13249 141.642452 
L 315.896016 145.639164 
L 312.800997 149.746393 
L 309.851204 153.959134 
L 307.05023 158.272256 
L 304.401488 162.680503 
L 301.908206 167.178504 
L 299.57342 171.760779 
L 297.399975 176.421746 
L 295.39052 181.155725 
L 293.547503 185.95695 
L 291.873168 190.81957 
L 290.369557 195.737661 
L 289.0385 200.705232 
L 287.88162 205.71623 
L 286.900326 210.76455 
L 286.095814 215.844041 
L 285.469063 220.948515 
L 285.020838 226.071753 
L 284.751684 231.207513 
L 284.66193 236.349538 
L 284.751684 241.491562 
L 285.020838 246.627322 
L 285.469063 251.75056 
L 286.095814 256.855034 
L 286.900326 261.934525 
L 287.88162 266.982845 
L 289.0385 271.993843 
L 290.369557 276.961414 
L 291.873168 281.879505 
L 293.547503 286.742125 
L 295.39052 291.54335 
L 297.399975 296.277329 
L 299.57342 300.938296 
L 301.908206 305.520571 
L 304.401488 310.018573 
L 307.05023 314.426819 
L 309.851204 318.739941 
L 312.800997 322.952682 
L 315.896016 327.059911 
L 319.13249 331.056623 
L 322.506476 334.93795 
L 326.013862 338.699161 
L 329.650376 342.335675 
L 333.411588 345.843062 
L 337.292914 349.217047 
L 341.289626 352.453521 
L 345.396855 355.54854 
L 349.609597 358.498333 
L 353.922718 361.299307 
L 358.330965 363.948049 
L 362.828966 366.441332 
L 367.411241 368.776118 
L 372.072208 370.949562 
L 376.806188 372.959017 
L 381.607412 374.802035 
L 386.470032 376.476369 
L 391.388124 377.979981 
L 396.355695 379.311037 
L 401.366693 380.467917 
L 406.415013 381.449211 
L 411.494504 382.253724 
L 416.598978 382.880474 
L 421.722216 383.328699 
L 426.857976 383.597853 
L 432 383.687608 
L 437.142024 383.597853 
L 442.277784 383.328699 
L 447.401022 382.880474 
L 452.505496 382.253724 
L 457.584987 381.449211 
L 462.633307 380.467917 
L 467.644305 379.311037 
L 472.611876 377.979981 
L 477.529968 376.476369 
L 482.392588 374.802035 
L 487.193812 372.959017 
L 491.927792 370.949562 
L 496.588759 368.776118 
L 501.171034 366.441332 
L 505.669035 363.948049 
L 510.077282 361.299307 
L 514.390403 358.498333 
L 518.603145 355.54854 
L 522.710374 352.453521 
L 526.707086 349.217047 
L 530.588412 345.843062 
L 534.349624 342.335675 
L 537.986138 338.699161 
L 541.493524 334.93795 
L 544.86751 331.056623 
L 548.103984 327.059911 
L 551.199003 322.952682 
L 554.148796 318.739941 
L 556.94977 314.426819 
L 559.598512 310.018573 
L 562.091794 305.520571 
L 564.42658 300.938296 
L 566.600025 296.277329 
L 568.60948 291.54335 
L 570.452497 286.742125 
L 572.126832 281.879505 
L 573.630443 276.961414 
L 574.9615 271.993843 
L 576.11838 266.982845 
L 577.099674 261.934525 
L 577.904186 256.855034 
L 578.530937 251.75056 
L 578.979162 246.627322 
L 579.248316 241.491562 
L 579.33807 236.349538 
L 579.33807 236.349538 
" style="fill:none;stroke:#008000;stroke-linecap:square;stroke-opacity:0.3;"/>
     </g>
     <g id="text_5">
      <!-- 8 -->
      <defs>
       <path d="M 36.53125 37.59375 
Q 51.421875 30.71875 51.421875 19 
Q 51.421875 9.96875 44.890625 4.375 
Q 38.375 -1.21875 27.78125 -1.21875 
Q 17.234375 -1.21875 10.71875 4.375 
Q 4.203125 9.96875 4.203125 19 
Q 4.203125 30.71875 19.09375 37.59375 
Q 6.984375 44.578125 6.984375 55.078125 
Q 6.984375 62.84375 12.71875 67.8125 
Q 18.453125 72.796875 27.78125 72.796875 
Q 37.15625 72.796875 42.859375 67.8125 
Q 48.578125 62.84375 48.578125 55.078125 
Q 48.578125 44.578125 36.53125 37.59375 
z
M 27.78125 41.40625 
Q 39.109375 46.484375 39.109375 55.078125 
Q 39.109375 60.015625 36.109375 62.796875 
Q 33.109375 65.578125 27.78125 65.578125 
Q 22.515625 65.578125 19.5 62.796875 
Q 16.5 60.015625 16.5 55.078125 
Q 16.5 46.484375 27.78125 41.40625 
z
M 41.890625 19 
Q 41.890625 23.640625 38.515625 26.984375 
Q 35.15625 30.328125 27.78125 33.59375 
Q 20.453125 30.328125 17.078125 26.984375 
Q 13.71875 23.640625 13.71875 19 
Q 13.71875 12.9375 17.578125 9.46875 
Q 21.4375 6 27.78125 6 
Q 34.125 6 38 9.46875 
Q 41.890625 12.9375 41.890625 19 
z
" id="MicrosoftSansSerif-38"/>
      </defs>
      <g style="fill:#333333;" transform="translate(568.122627 178.306605)scale(0.08328 -0.08328)">
       <use xlink:href="#MicrosoftSansSerif-38"/>
      </g>
     </g>
    </g>
    <g id="ytick_5">
     <g id="line2d_14">
      <path clip-path="url(#p9e3bc3b95c)" d="M 616.172587 236.349538 
L 616.060395 229.922007 
L 615.723952 223.502307 
L 615.163671 217.09826 
L 614.380233 210.717667 
L 613.374592 204.368303 
L 612.147975 198.057903 
L 610.701875 191.794156 
L 609.038054 185.584692 
L 607.158539 179.437078 
L 605.065621 173.358803 
L 602.76185 167.357272 
L 600.250031 161.439798 
L 597.533225 155.613589 
L 594.614743 149.885745 
L 591.498139 144.263244 
L 588.187212 138.752935 
L 584.685995 133.361534 
L 580.998753 128.095607 
L 577.129979 122.961571 
L 573.084387 117.96568 
L 568.866905 113.114022 
L 564.482672 108.412508 
L 559.93703 103.866865 
L 555.235515 99.482632 
L 550.383857 95.26515 
L 545.387967 91.219558 
L 540.253931 87.350784 
L 534.988004 83.663543 
L 529.596602 80.162325 
L 524.086294 76.851398 
L 518.463792 73.734795 
L 512.735948 70.816312 
L 506.90974 68.099507 
L 500.992266 65.587688 
L 494.990735 63.283916 
L 488.912459 61.190998 
L 482.764845 59.311484 
L 476.555381 57.647663 
L 470.291634 56.201563 
L 463.981234 54.974945 
L 457.63187 53.969305 
L 451.251278 53.185867 
L 444.84723 52.625585 
L 438.427531 52.289143 
L 432 52.17695 
L 425.572469 52.289143 
L 419.15277 52.625585 
L 412.748722 53.185867 
L 406.36813 53.969305 
L 400.018766 54.974945 
L 393.708366 56.201563 
L 387.444619 57.647663 
L 381.235155 59.311484 
L 375.087541 61.190998 
L 369.009265 63.283916 
L 363.007734 65.587688 
L 357.09026 68.099507 
L 351.264052 70.816312 
L 345.536208 73.734795 
L 339.913706 76.851398 
L 334.403398 80.162325 
L 329.011996 83.663543 
L 323.746069 87.350784 
L 318.612033 91.219558 
L 313.616143 95.26515 
L 308.764485 99.482632 
L 304.06297 103.866865 
L 299.517328 108.412508 
L 295.133095 113.114022 
L 290.915613 117.96568 
L 286.870021 122.961571 
L 283.001247 128.095607 
L 279.314005 133.361534 
L 275.812788 138.752935 
L 272.501861 144.263244 
L 269.385257 149.885745 
L 266.466775 155.613589 
L 263.749969 161.439798 
L 261.23815 167.357272 
L 258.934379 173.358803 
L 256.841461 179.437078 
L 254.961946 185.584692 
L 253.298125 191.794156 
L 251.852025 198.057903 
L 250.625408 204.368303 
L 249.619767 210.717667 
L 248.836329 217.09826 
L 248.276048 223.502307 
L 247.939605 229.922007 
L 247.827413 236.349538 
L 247.939605 242.777068 
L 248.276048 249.196768 
L 248.836329 255.600815 
L 249.619767 261.981408 
L 250.625408 268.330772 
L 251.852025 274.641172 
L 253.298125 280.904919 
L 254.961946 287.114383 
L 256.841461 293.261997 
L 258.934379 299.340272 
L 261.23815 305.341803 
L 263.749969 311.259277 
L 266.466775 317.085486 
L 269.385257 322.81333 
L 272.501861 328.435831 
L 275.812788 333.94614 
L 279.314005 339.337541 
L 283.001247 344.603468 
L 286.870021 349.737504 
L 290.915613 354.733395 
L 295.133095 359.585053 
L 299.517328 364.286567 
L 304.06297 368.83221 
L 308.764485 373.216443 
L 313.616143 377.433925 
L 318.612033 381.479517 
L 323.746069 385.348291 
L 329.011996 389.035532 
L 334.403398 392.53675 
L 339.913706 395.847677 
L 345.536208 398.96428 
L 351.264052 401.882763 
L 357.09026 404.599568 
L 363.007734 407.111387 
L 369.009265 409.415159 
L 375.087541 411.508077 
L 381.235155 413.387591 
L 387.444619 415.051412 
L 393.708366 416.497512 
L 400.018766 417.72413 
L 406.36813 418.72977 
L 412.748722 419.513208 
L 419.15277 420.07349 
L 425.572469 420.409932 
L 432 420.522125 
L 438.427531 420.409932 
L 444.84723 420.07349 
L 451.251278 419.513208 
L 457.63187 418.72977 
L 463.981234 417.72413 
L 470.291634 416.497512 
L 476.555381 415.051412 
L 482.764845 413.387591 
L 488.912459 411.508077 
L 494.990735 409.415159 
L 500.992266 407.111387 
L 506.90974 404.599568 
L 512.735948 401.882763 
L 518.463792 398.96428 
L 524.086294 395.847677 
L 529.596602 392.53675 
L 534.988004 389.035532 
L 540.253931 385.348291 
L 545.387967 381.479517 
L 550.383857 377.433925 
L 555.235515 373.216443 
L 559.93703 368.83221 
L 564.482672 364.286567 
L 568.866905 359.585053 
L 573.084387 354.733395 
L 577.129979 349.737504 
L 580.998753 344.603468 
L 584.685995 339.337541 
L 588.187212 333.94614 
L 591.498139 328.435831 
L 594.614743 322.81333 
L 597.533225 317.085486 
L 600.250031 311.259277 
L 602.76185 305.341803 
L 605.065621 299.340272 
L 607.158539 293.261997 
L 609.038054 287.114383 
L 610.701875 280.904919 
L 612.147975 274.641172 
L 613.374592 268.330772 
L 614.380233 261.981408 
L 615.163671 255.600815 
L 615.723952 249.196768 
L 616.060395 242.777068 
L 616.172587 236.349538 
L 616.172587 236.349538 
" style="fill:none;stroke:#008000;stroke-linecap:square;stroke-opacity:0.3;"/>
     </g>
     <g id="text_6">
      <!-- 10 -->
      <defs>
       <path d="M 37.5 0 
L 28.328125 0 
L 28.328125 56.296875 
Q 22.75 52.59375 11.078125 52.59375 
L 11.078125 59.8125 
Q 27.9375 59.8125 30.421875 72.796875 
L 37.5 72.796875 
z
" id="MicrosoftSansSerif-31"/>
       <path d="M 27.78125 72.796875 
Q 51.125 72.796875 51.125 35.6875 
Q 51.125 -1.21875 27.78125 -1.21875 
Q 4.5 -1.21875 4.5 35.6875 
Q 4.5 72.796875 27.78125 72.796875 
z
M 27.78125 6 
Q 34.578125 6 38.09375 12.546875 
Q 41.609375 19.09375 41.609375 35.6875 
Q 41.609375 52.34375 38.09375 58.953125 
Q 34.578125 65.578125 27.78125 65.578125 
Q 21.046875 65.578125 17.53125 58.953125 
Q 14.015625 52.34375 14.015625 35.6875 
Q 14.015625 19.09375 17.53125 12.546875 
Q 21.046875 6 27.78125 6 
z
" id="MicrosoftSansSerif-30"/>
      </defs>
      <g style="fill:#333333;" transform="translate(602.153284 164.210646)scale(0.08328 -0.08328)">
       <use xlink:href="#MicrosoftSansSerif-31"/>
       <use x="55.615234" xlink:href="#MicrosoftSansSerif-30"/>
      </g>
     </g>
    </g>
   </g>
   <g id="line2d_15">
    <path clip-path="url(#p9e3bc3b95c)" d="M 432 144.263244 
L 372.808071 165.807344 
L 341.312704 220.35892 
L 352.25093 282.392684 
L 400.504633 322.882348 
L 463.495367 322.882348 
L 511.74907 282.392684 
L 522.687296 220.35892 
L 491.191929 165.807344 
L 432 144.263244 
" style="fill:none;stroke:#0000ff;stroke-linecap:square;stroke-width:1.5;"/>
    <defs>
     <path d="M 0 3 
C 0.795609 3 1.55874 2.683901 2.12132 2.12132 
C 2.683901 1.55874 3 0.795609 3 0 
C 3 -0.795609 2.683901 -1.55874 2.12132 -2.12132 
C 1.55874 -2.683901 0.795609 -3 0 -3 
C -0.795609 -3 -1.55874 -2.683901 -2.12132 -2.12132 
C -2.683901 -1.55874 -3 -0.795609 -3 0 
C -3 0.795609 -2.683901 1.55874 -2.12132 2.12132 
C -1.55874 2.683901 -0.795609 3 0 3 
z
" id="md9206a4537" style="stroke:#0000ff;"/>
    </defs>
    <g clip-path="url(#p9e3bc3b95c)">
     <use style="fill:#0000ff;stroke:#0000ff;" x="432" xlink:href="#md9206a4537" y="144.263244"/>
     <use style="fill:#0000ff;stroke:#0000ff;" x="372.808071" xlink:href="#md9206a4537" y="165.807344"/>
     <use style="fill:#0000ff;stroke:#0000ff;" x="341.312704" xlink:href="#md9206a4537" y="220.35892"/>
     <use style="fill:#0000ff;stroke:#0000ff;" x="352.25093" xlink:href="#md9206a4537" y="282.392684"/>
     <use style="fill:#0000ff;stroke:#0000ff;" x="400.504633" xlink:href="#md9206a4537" y="322.882348"/>
     <use style="fill:#0000ff;stroke:#0000ff;" x="463.495367" xlink:href="#md9206a4537" y="322.882348"/>
     <use style="fill:#0000ff;stroke:#0000ff;" x="511.74907" xlink:href="#md9206a4537" y="282.392684"/>
     <use style="fill:#0000ff;stroke:#0000ff;" x="522.687296" xlink:href="#md9206a4537" y="220.35892"/>
     <use style="fill:#0000ff;stroke:#0000ff;" x="491.191929" xlink:href="#md9206a4537" y="165.807344"/>
     <use style="fill:#0000ff;stroke:#0000ff;" x="432" xlink:href="#md9206a4537" y="144.263244"/>
    </g>
   </g>
   <g id="patch_5">
    <path d="M 616.172587 236.349538 
C 616.172587 212.164215 611.408606 188.214064 602.153284 165.86974 
C 592.897962 143.525415 579.331291 123.221458 562.229686 106.119852 
C 545.12808 89.018246 524.824122 75.451576 502.479798 66.196253 
C 480.135473 56.940931 456.185323 52.17695 432 52.17695 
C 407.814677 52.17695 383.864527 56.940931 361.520202 66.196253 
C 339.175878 75.451576 318.87192 89.018246 301.770314 106.119852 
C 284.668709 123.221458 271.102038 143.525415 261.846716 165.86974 
C 252.591394 188.214064 247.827413 212.164215 247.827413 236.349538 
C 247.827413 260.53486 252.591394 284.485011 261.846716 306.829335 
C 271.102038 329.17366 284.668709 349.477617 301.770314 366.579223 
C 318.87192 383.680829 339.175878 397.247499 361.520202 406.502822 
C 383.864527 415.758144 407.814677 420.522125 432 420.522125 
C 456.185323 420.522125 480.135473 415.758144 502.479798 406.502822 
C 524.824122 397.247499 545.12808 383.680829 562.229686 366.579223 
C 579.331291 349.477617 592.897962 329.17366 602.153284 306.829335 
C 611.408606 284.485011 616.172587 260.53486 616.172587 236.349538 
" style="fill:none;stroke:#000000;stroke-linecap:square;stroke-linejoin:miter;stroke-width:1.5;"/>
   </g>
   <g id="text_7">
    <!-- Acidity -->
    <defs>
     <path d="M 45.015625 29.296875 
L 32.421875 62.5 
L 20.40625 29.296875 
z
M 66.796875 0 
L 56.109375 0 
L 47.796875 21.78125 
L 17.828125 21.78125 
L 9.90625 0 
L -0.09375 0 
L 27.390625 71.578125 
L 37.59375 71.578125 
z
" id="MicrosoftSansSerif-41"/>
     <path d="M 27.78125 -1.21875 
Q 16.75 -1.21875 10.125 5.875 
Q 3.515625 12.984375 3.515625 25.875 
Q 3.515625 38.8125 10.125 45.890625 
Q 16.75 52.984375 27.78125 52.984375 
Q 36.28125 52.984375 41.96875 48.6875 
Q 47.65625 44.390625 48.6875 36.28125 
L 39.203125 36.28125 
Q 39.015625 40.921875 35.71875 43.359375 
Q 32.421875 45.796875 27.78125 45.796875 
Q 21.1875 45.796875 17.078125 40.796875 
Q 12.984375 35.796875 12.984375 25.875 
Q 12.984375 16.015625 17.078125 11 
Q 21.1875 6 27.78125 6 
Q 32.421875 6 35.71875 8.4375 
Q 39.015625 10.890625 39.203125 15.484375 
L 48.6875 15.484375 
Q 47.65625 7.375 41.96875 3.078125 
Q 36.28125 -1.21875 27.78125 -1.21875 
z
" id="MicrosoftSansSerif-63"/>
     <path d="M 16.015625 0 
L 6.78125 0 
L 6.78125 51.8125 
L 16.015625 51.8125 
z
M 16.015625 61.625 
L 6.78125 61.625 
L 6.78125 71.578125 
L 16.015625 71.578125 
z
" id="MicrosoftSansSerif-69"/>
     <path d="M 39.59375 14.890625 
L 39.59375 39.5 
Q 33.640625 45.796875 25.984375 45.796875 
Q 20.0625 45.796875 16.515625 40.6875 
Q 12.984375 35.59375 12.984375 25.484375 
Q 12.984375 15.921875 16.328125 10.953125 
Q 19.671875 6 25.59375 6 
Q 33.296875 6 39.59375 14.890625 
z
M 39.59375 6.203125 
Q 33.453125 -1.21875 24.8125 -1.21875 
Q 14.65625 -1.21875 9.078125 6 
Q 3.515625 13.234375 3.515625 25.484375 
Q 3.515625 38.1875 9.734375 45.578125 
Q 15.96875 52.984375 25.390625 52.984375 
Q 33.796875 52.984375 39.59375 47.796875 
L 39.59375 71.578125 
L 48.78125 71.578125 
L 48.78125 0 
L 39.59375 0 
z
" id="MicrosoftSansSerif-64"/>
     <path d="M 26.90625 -0.09375 
Q 23.875 -0.6875 20.3125 -0.6875 
Q 14.65625 -0.6875 12.015625 1.34375 
Q 9.375 3.375 8.734375 6.546875 
Q 8.109375 9.71875 8.109375 15.1875 
L 8.109375 44.578125 
L 1.703125 44.578125 
L 1.703125 51.8125 
L 8.109375 51.8125 
L 8.109375 64.703125 
L 17.28125 64.703125 
L 17.28125 51.8125 
L 25.6875 51.8125 
L 25.6875 44.578125 
L 17.28125 44.578125 
L 17.28125 14.703125 
Q 17.28125 9.375 18.625 7.9375 
Q 19.96875 6.5 22.3125 6.5 
Q 24.703125 6.5 26.90625 6.890625 
z
" id="MicrosoftSansSerif-74"/>
     <path d="M 9.71875 -12.5 
Q 16.546875 -12.5 20.90625 0 
L 1.3125 51.8125 
L 11.28125 51.8125 
L 25 11.28125 
L 38.71875 51.8125 
L 48.6875 51.8125 
L 29.109375 0 
Q 26.265625 -7.421875 24.28125 -11.453125 
Q 22.3125 -15.484375 19.109375 -18.234375 
Q 15.921875 -21 11.28125 -21 
Q 7.8125 -21 5.328125 -20.3125 
L 5.328125 -11.8125 
Q 7.46875 -12.5 9.71875 -12.5 
z
" id="MicrosoftSansSerif-79"/>
    </defs>
    <g transform="translate(432 31.504495)scale(0.08328 -0.08328)">
     <use xlink:href="#MicrosoftSansSerif-41"/>
     <use x="66.699219" xlink:href="#MicrosoftSansSerif-63"/>
     <use x="116.699219" xlink:href="#MicrosoftSansSerif-69"/>
     <use x="139.501953" xlink:href="#MicrosoftSansSerif-64"/>
     <use x="195.117188" xlink:href="#MicrosoftSansSerif-69"/>
     <use x="217.919922" xlink:href="#MicrosoftSansSerif-74"/>
     <use x="245.703125" xlink:href="#MicrosoftSansSerif-79"/>
    </g>
    <!-- 5.00 -->
    <defs>
     <path d="M 16.109375 43.21875 
Q 21.4375 47.515625 29.390625 47.515625 
Q 38.328125 47.515625 44.96875 41.1875 
Q 51.609375 34.859375 51.609375 24.3125 
Q 51.609375 13.28125 44.9375 6.03125 
Q 38.28125 -1.21875 27.203125 -1.21875 
Q 18.109375 -1.21875 11.65625 3.8125 
Q 5.21875 8.84375 4.203125 18.796875 
L 13.71875 18.796875 
Q 14.5 12.3125 18.234375 9.15625 
Q 21.96875 6 27.203125 6 
Q 33.84375 6 37.96875 11.03125 
Q 42.09375 16.0625 42.09375 23.484375 
Q 42.09375 31 37.890625 35.34375 
Q 33.6875 39.703125 27 39.703125 
Q 19.34375 39.703125 14.015625 33.796875 
L 6.78125 33.796875 
L 9.8125 71.578125 
L 48.1875 71.578125 
L 48.1875 63.09375 
L 17.671875 63.09375 
z
" id="MicrosoftSansSerif-35"/>
     <path d="M 18.890625 0 
L 8.890625 0 
L 8.890625 10.015625 
L 18.890625 10.015625 
z
" id="MicrosoftSansSerif-2e"/>
    </defs>
    <g transform="translate(432 40.406606)scale(0.08328 -0.08328)">
     <use xlink:href="#MicrosoftSansSerif-35"/>
     <use x="55.615234" xlink:href="#MicrosoftSansSerif-2e"/>
     <use x="83.398438" xlink:href="#MicrosoftSansSerif-30"/>
     <use x="139.013672" xlink:href="#MicrosoftSansSerif-30"/>
    </g>
   </g>
   <g id="text_8">
    <!-- Aftertaste -->
    <defs>
     <path d="M 17.578125 44.578125 
L 17.578125 0 
L 8.40625 0 
L 8.40625 44.578125 
L 0.78125 44.578125 
L 0.78125 51.8125 
L 8.40625 51.8125 
L 8.40625 56.390625 
Q 8.40625 72.796875 22.90625 72.796875 
Q 27.34375 72.796875 29.78125 72.21875 
L 29.78125 64.203125 
Q 27.046875 64.703125 24.21875 64.703125 
Q 20.84375 64.703125 19.203125 62.8125 
Q 17.578125 60.9375 17.578125 56.296875 
L 17.578125 51.8125 
L 27.390625 51.8125 
L 27.390625 44.578125 
z
" id="MicrosoftSansSerif-66"/>
     <path d="M 28.8125 -1.21875 
Q 17.390625 -1.21875 10.453125 5.9375 
Q 3.515625 13.09375 3.515625 25.875 
Q 3.515625 38.578125 10.21875 45.78125 
Q 16.9375 52.984375 27.78125 52.984375 
Q 38.875 52.984375 45.484375 45.890625 
Q 52.09375 38.8125 52.09375 25.875 
L 52.09375 23.6875 
L 13.09375 23.6875 
Q 13.671875 14.703125 18.03125 10.34375 
Q 22.40625 6 28.8125 6 
Q 33.640625 6 37.515625 8.46875 
Q 41.40625 10.9375 41.609375 15.484375 
L 51.125 15.484375 
Q 50.046875 7.46875 43.875 3.125 
Q 37.703125 -1.21875 28.8125 -1.21875 
z
M 42.390625 30.90625 
Q 41.265625 38.375 37.359375 42.078125 
Q 33.453125 45.796875 27.78125 45.796875 
Q 22.265625 45.796875 18.3125 42.109375 
Q 14.359375 38.421875 13.28125 30.90625 
z
" id="MicrosoftSansSerif-65"/>
     <path d="M 33.6875 43.40625 
Q 31.734375 44 28.078125 44 
Q 21.046875 44 16.015625 36.625 
L 16.015625 0 
L 6.78125 0 
L 6.78125 51.8125 
L 16.015625 51.8125 
L 16.015625 44.578125 
Q 21.828125 52.984375 29.5 52.984375 
Q 31.453125 52.984375 33.6875 52.59375 
z
" id="MicrosoftSansSerif-72"/>
     <path d="M 39.59375 13.625 
L 39.59375 25.09375 
L 33.296875 25.09375 
Q 13.28125 25.09375 13.28125 14.203125 
Q 13.28125 10.25 16.203125 8.125 
Q 19.140625 6 24.125 6 
Q 28.65625 6 32.90625 8.046875 
Q 37.15625 10.109375 39.59375 13.625 
z
M 39.59375 5.328125 
Q 32.5625 -1.21875 21.484375 -1.21875 
Q 13.765625 -1.21875 8.78125 2.953125 
Q 3.8125 7.125 3.8125 13.71875 
Q 3.8125 31.890625 35.109375 31.890625 
L 39.59375 31.890625 
Q 39.59375 37.453125 39 39.96875 
Q 38.421875 42.484375 35.734375 44.140625 
Q 33.0625 45.796875 27.203125 45.796875 
Q 14.890625 45.796875 14.5 37.015625 
L 5.328125 37.015625 
Q 6.34375 52.984375 27.6875 52.984375 
Q 37.640625 52.984375 43.203125 49.015625 
Q 48.78125 45.0625 48.78125 33.5 
L 48.78125 0 
L 39.59375 0 
z
" id="MicrosoftSansSerif-61"/>
     <path d="M 25.296875 -1.21875 
Q 4.046875 -1.21875 3.078125 15.484375 
L 12.3125 15.484375 
Q 12.40625 6 25.203125 6 
Q 30.90625 6 33.90625 8.375 
Q 36.921875 10.75 36.921875 14.3125 
Q 36.921875 17.828125 33.984375 19.265625 
Q 31.0625 20.703125 21.90625 23 
Q 12.75 25.296875 8.515625 28.125 
Q 4.296875 30.953125 4.296875 38.09375 
Q 4.296875 44.53125 9.546875 48.75 
Q 14.796875 52.984375 23.578125 52.984375 
Q 43.953125 52.984375 44.390625 38.484375 
L 35.203125 38.484375 
Q 34.71875 45.796875 24.21875 45.796875 
Q 19.578125 45.796875 16.53125 44.03125 
Q 13.484375 42.28125 13.484375 38.921875 
Q 13.484375 35.890625 15.828125 34.546875 
Q 18.171875 33.203125 27.5625 30.921875 
Q 36.96875 28.65625 41.53125 25.625 
Q 46.09375 22.609375 46.09375 15.1875 
Q 46.09375 8.109375 40.453125 3.4375 
Q 34.8125 -1.21875 25.296875 -1.21875 
z
" id="MicrosoftSansSerif-73"/>
    </defs>
    <g transform="translate(266.137821 78.901515)scale(0.08328 -0.08328)">
     <use xlink:href="#MicrosoftSansSerif-41"/>
     <use x="66.699219" xlink:href="#MicrosoftSansSerif-66"/>
     <use x="94.482422" xlink:href="#MicrosoftSansSerif-74"/>
     <use x="122.265625" xlink:href="#MicrosoftSansSerif-65"/>
     <use x="177.880859" xlink:href="#MicrosoftSansSerif-72"/>
     <use x="211.181641" xlink:href="#MicrosoftSansSerif-74"/>
     <use x="238.964844" xlink:href="#MicrosoftSansSerif-61"/>
     <use x="294.580078" xlink:href="#MicrosoftSansSerif-73"/>
     <use x="344.580078" xlink:href="#MicrosoftSansSerif-74"/>
     <use x="372.363281" xlink:href="#MicrosoftSansSerif-65"/>
    </g>
    <!-- 5.00 -->
    <g transform="translate(285.570688 87.71384)scale(0.08328 -0.08328)">
     <use xlink:href="#MicrosoftSansSerif-35"/>
     <use x="55.615234" xlink:href="#MicrosoftSansSerif-2e"/>
     <use x="83.398438" xlink:href="#MicrosoftSansSerif-30"/>
     <use x="139.013672" xlink:href="#MicrosoftSansSerif-30"/>
    </g>
   </g>
   <g id="text_9">
    <!-- Clean Cup -->
    <defs>
     <path d="M 37.984375 -1.21875 
Q 22.796875 -1.21875 13.734375 8.765625 
Q 4.6875 18.75 4.6875 35.796875 
Q 4.6875 52.828125 13.734375 62.8125 
Q 22.796875 72.796875 37.984375 72.796875 
Q 49.65625 72.796875 57.859375 66.5 
Q 66.0625 60.203125 67.09375 49.90625 
L 57.328125 49.90625 
Q 56.734375 56.6875 51.4375 60.6875 
Q 46.140625 64.703125 38.09375 64.703125 
Q 27.203125 64.703125 20.84375 57.203125 
Q 14.5 49.703125 14.5 35.796875 
Q 14.5 21.921875 20.796875 14.40625 
Q 27.09375 6.890625 37.890625 6.890625 
Q 46.296875 6.890625 51.46875 10.984375 
Q 56.640625 15.09375 57.328125 22.703125 
L 67.09375 22.703125 
Q 66.0625 11.28125 58.09375 5.03125 
Q 50.140625 -1.21875 37.984375 -1.21875 
z
" id="MicrosoftSansSerif-43"/>
     <path d="M 16.015625 0 
L 6.78125 0 
L 6.78125 71.578125 
L 16.015625 71.578125 
z
" id="MicrosoftSansSerif-6c"/>
     <path d="M 16.015625 45.21875 
Q 22.90625 52.984375 31.5 52.984375 
Q 49.03125 52.984375 49.03125 33.890625 
L 49.03125 0 
L 39.796875 0 
L 39.796875 33.5 
Q 39.796875 39.84375 37.515625 42.625 
Q 35.25 45.40625 30.078125 45.40625 
Q 23.046875 45.40625 16.015625 37.109375 
L 16.015625 0 
L 6.78125 0 
L 6.78125 51.8125 
L 16.015625 51.8125 
z
" id="MicrosoftSansSerif-6e"/>
     <path d="M 39.59375 6.59375 
Q 32.71875 -1.21875 24.125 -1.21875 
Q 6.59375 -1.21875 6.59375 17.921875 
L 6.59375 51.8125 
L 15.828125 51.8125 
L 15.828125 18.3125 
Q 15.828125 11.96875 18.0625 9.171875 
Q 20.3125 6.390625 25.484375 6.390625 
Q 33.203125 6.390625 39.59375 14.703125 
L 39.59375 51.8125 
L 48.78125 51.8125 
L 48.78125 0 
L 39.59375 0 
z
" id="MicrosoftSansSerif-75"/>
     <path d="M 16.015625 45.609375 
Q 22.171875 52.984375 30.8125 52.984375 
Q 40.96875 52.984375 46.53125 45.78125 
Q 52.09375 38.578125 52.09375 26.3125 
Q 52.09375 13.578125 45.875 6.171875 
Q 39.65625 -1.21875 30.171875 -1.21875 
Q 21.78125 -1.21875 16.015625 4 
L 16.015625 -19.921875 
L 6.78125 -19.921875 
L 6.78125 51.8125 
L 16.015625 51.8125 
z
M 16.015625 12.3125 
Q 21.921875 6 29.59375 6 
Q 35.546875 6 39.0625 11.109375 
Q 42.578125 16.21875 42.578125 26.3125 
Q 42.578125 35.890625 39.25 40.84375 
Q 35.9375 45.796875 29.984375 45.796875 
Q 22.3125 45.796875 16.015625 36.921875 
z
" id="MicrosoftSansSerif-70"/>
    </defs>
    <g transform="translate(193.192801 198.965732)scale(0.08328 -0.08328)">
     <use xlink:href="#MicrosoftSansSerif-43"/>
     <use x="72.216797" xlink:href="#MicrosoftSansSerif-6c"/>
     <use x="95.019531" xlink:href="#MicrosoftSansSerif-65"/>
     <use x="150.634766" xlink:href="#MicrosoftSansSerif-61"/>
     <use x="206.25" xlink:href="#MicrosoftSansSerif-6e"/>
     <use x="261.865234" xlink:href="#MicrosoftSansSerif-20"/>
     <use x="288.427734" xlink:href="#MicrosoftSansSerif-43"/>
     <use x="360.644531" xlink:href="#MicrosoftSansSerif-75"/>
     <use x="416.259766" xlink:href="#MicrosoftSansSerif-70"/>
    </g>
    <!-- 5.00 -->
    <g transform="translate(216.28088 207.778058)scale(0.08328 -0.08328)">
     <use xlink:href="#MicrosoftSansSerif-35"/>
     <use x="55.615234" xlink:href="#MicrosoftSansSerif-2e"/>
     <use x="83.398438" xlink:href="#MicrosoftSansSerif-30"/>
     <use x="139.013672" xlink:href="#MicrosoftSansSerif-30"/>
    </g>
   </g>
   <g id="text_10">
    <!-- Head -->
    <defs>
     <path d="M 64.203125 0 
L 54.6875 0 
L 54.6875 33.6875 
L 17.484375 33.6875 
L 17.484375 0 
L 8.015625 0 
L 8.015625 71.578125 
L 17.484375 71.578125 
L 17.484375 42.1875 
L 54.6875 42.1875 
L 54.6875 71.578125 
L 64.203125 71.578125 
z
" id="MicrosoftSansSerif-48"/>
    </defs>
    <g transform="translate(236.644223 335.389264)scale(0.08328 -0.08328)">
     <use xlink:href="#MicrosoftSansSerif-48"/>
     <use x="72.216797" xlink:href="#MicrosoftSansSerif-65"/>
     <use x="127.832031" xlink:href="#MicrosoftSansSerif-61"/>
     <use x="183.447266" xlink:href="#MicrosoftSansSerif-64"/>
    </g>
    <!-- 5.00 -->
    <g transform="translate(240.344978 344.20159)scale(0.08328 -0.08328)">
     <use xlink:href="#MicrosoftSansSerif-35"/>
     <use x="55.615234" xlink:href="#MicrosoftSansSerif-2e"/>
     <use x="83.398438" xlink:href="#MicrosoftSansSerif-30"/>
     <use x="139.013672" xlink:href="#MicrosoftSansSerif-30"/>
    </g>
   </g>
   <g id="text_11">
    <!-- Fragrance -->
    <defs>
     <path d="M 56.296875 63.09375 
L 17.484375 63.09375 
L 17.484375 40.921875 
L 51.125 40.921875 
L 51.125 32.421875 
L 17.484375 32.421875 
L 17.484375 0 
L 8.015625 0 
L 8.015625 71.578125 
L 56.296875 71.578125 
z
" id="MicrosoftSansSerif-46"/>
     <path d="M 48.78125 4 
Q 48.78125 -21 26.21875 -21 
Q 16.453125 -21 10.8125 -16.75 
Q 5.171875 -12.5 5.171875 -5.328125 
L 14.703125 -5.328125 
Q 14.703125 -13.8125 26.125 -13.8125 
Q 32.5625 -13.8125 36.078125 -10.265625 
Q 39.59375 -6.734375 39.59375 3.609375 
L 39.59375 6.203125 
Q 33.453125 -1.21875 24.8125 -1.21875 
Q 14.65625 -1.21875 9.078125 6 
Q 3.515625 13.234375 3.515625 25.484375 
Q 3.515625 38.1875 9.734375 45.578125 
Q 15.96875 52.984375 25.390625 52.984375 
Q 33.796875 52.984375 39.59375 47.796875 
L 39.59375 51.8125 
L 48.78125 51.8125 
z
M 39.59375 14.890625 
L 39.59375 39.5 
Q 33.640625 45.796875 25.984375 45.796875 
Q 20.0625 45.796875 16.515625 40.6875 
Q 12.984375 35.59375 12.984375 25.484375 
Q 12.984375 15.921875 16.328125 10.953125 
Q 19.671875 6 25.59375 6 
Q 33.296875 6 39.59375 14.890625 
z
" id="MicrosoftSansSerif-67"/>
    </defs>
    <g transform="translate(324.757934 424.466525)scale(0.08328 -0.08328)">
     <use xlink:href="#MicrosoftSansSerif-46"/>
     <use x="61.083984" xlink:href="#MicrosoftSansSerif-72"/>
     <use x="94.384766" xlink:href="#MicrosoftSansSerif-61"/>
     <use x="150" xlink:href="#MicrosoftSansSerif-67"/>
     <use x="205.615234" xlink:href="#MicrosoftSansSerif-72"/>
     <use x="238.916016" xlink:href="#MicrosoftSansSerif-61"/>
     <use x="294.53125" xlink:href="#MicrosoftSansSerif-6e"/>
     <use x="350.146484" xlink:href="#MicrosoftSansSerif-63"/>
     <use x="400.146484" xlink:href="#MicrosoftSansSerif-65"/>
    </g>
    <!-- 5.00 -->
    <g transform="translate(346.503123 433.368636)scale(0.08328 -0.08328)">
     <use xlink:href="#MicrosoftSansSerif-35"/>
     <use x="55.615234" xlink:href="#MicrosoftSansSerif-2e"/>
     <use x="83.398438" xlink:href="#MicrosoftSansSerif-30"/>
     <use x="139.013672" xlink:href="#MicrosoftSansSerif-30"/>
    </g>
   </g>
   <g id="text_12">
    <!-- Sweetness -->
    <defs>
     <path d="M 35.015625 -1.21875 
Q 19.875 -1.21875 12.375 5.5625 
Q 4.890625 12.359375 4.5 23 
L 13.625 23 
Q 14.359375 14.984375 20.28125 11.15625 
Q 26.21875 7.328125 34.625 7.328125 
Q 42.578125 7.328125 47.4375 10.59375 
Q 52.296875 13.875 52.296875 19.484375 
Q 52.296875 25.390625 47.265625 28.078125 
Q 42.234375 30.765625 29.953125 33.375 
Q 17.671875 35.984375 12.328125 40.625 
Q 6.984375 45.265625 6.984375 52.984375 
Q 6.984375 61.671875 13.9375 67.234375 
Q 20.90625 72.796875 32.421875 72.796875 
Q 44.53125 72.796875 51.953125 67.1875 
Q 59.375 61.578125 59.8125 51.3125 
L 50.59375 51.3125 
Q 49.171875 64.3125 32.8125 64.3125 
Q 24.90625 64.3125 20.5625 61.328125 
Q 16.21875 58.34375 16.21875 53.421875 
Q 16.21875 48.921875 19.703125 46.671875 
Q 23.1875 44.4375 32.734375 42.328125 
Q 42.28125 40.234375 47.890625 38.1875 
Q 53.515625 36.140625 57.515625 31.8125 
Q 61.53125 27.484375 61.53125 20.21875 
Q 61.53125 10.984375 54.171875 4.875 
Q 46.828125 -1.21875 35.015625 -1.21875 
z
" id="MicrosoftSansSerif-53"/>
     <path d="M 71.6875 51.8125 
L 56.109375 0 
L 47.3125 0 
L 36.078125 38.09375 
L 24.90625 0 
L 16.109375 0 
L 0.484375 51.8125 
L 10.6875 51.8125 
L 20.21875 12.3125 
L 31.890625 51.8125 
L 40.28125 51.8125 
L 52 12.3125 
L 61.53125 51.8125 
z
" id="MicrosoftSansSerif-77"/>
    </defs>
    <g transform="translate(501.289808 424.466525)scale(0.08328 -0.08328)">
     <use xlink:href="#MicrosoftSansSerif-53"/>
     <use x="66.699219" xlink:href="#MicrosoftSansSerif-77"/>
     <use x="138.916016" xlink:href="#MicrosoftSansSerif-65"/>
     <use x="194.53125" xlink:href="#MicrosoftSansSerif-65"/>
     <use x="250.146484" xlink:href="#MicrosoftSansSerif-74"/>
     <use x="277.929688" xlink:href="#MicrosoftSansSerif-6e"/>
     <use x="333.544922" xlink:href="#MicrosoftSansSerif-65"/>
     <use x="389.160156" xlink:href="#MicrosoftSansSerif-73"/>
     <use x="439.160156" xlink:href="#MicrosoftSansSerif-73"/>
    </g>
    <!-- 5.00 -->
    <g transform="translate(501.289808 433.27885)scale(0.08328 -0.08328)">
     <use xlink:href="#MicrosoftSansSerif-35"/>
     <use x="55.615234" xlink:href="#MicrosoftSansSerif-2e"/>
     <use x="83.398438" xlink:href="#MicrosoftSansSerif-30"/>
     <use x="139.013672" xlink:href="#MicrosoftSansSerif-30"/>
    </g>
   </g>
   <g id="text_13">
    <!-- Aroma -->
    <defs>
     <path d="M 27.78125 52.984375 
Q 38.875 52.984375 45.484375 45.890625 
Q 52.09375 38.8125 52.09375 25.875 
Q 52.09375 12.984375 45.484375 5.875 
Q 38.875 -1.21875 27.78125 -1.21875 
Q 16.75 -1.21875 10.125 5.875 
Q 3.515625 12.984375 3.515625 25.875 
Q 3.515625 38.8125 10.125 45.890625 
Q 16.75 52.984375 27.78125 52.984375 
z
M 27.78125 6 
Q 34.375 6 38.46875 11 
Q 42.578125 16.015625 42.578125 25.875 
Q 42.578125 35.796875 38.46875 40.796875 
Q 34.375 45.796875 27.78125 45.796875 
Q 21.1875 45.796875 17.078125 40.796875 
Q 12.984375 35.796875 12.984375 25.875 
Q 12.984375 16.015625 17.078125 11 
Q 21.1875 6 27.78125 6 
z
" id="MicrosoftSansSerif-6f"/>
     <path d="M 76.8125 0 
L 67.578125 0 
L 67.578125 33.5 
Q 67.578125 39.9375 65.71875 42.671875 
Q 63.875 45.40625 59.515625 45.40625 
Q 52.828125 45.40625 46.390625 37.109375 
L 46.390625 0 
L 37.203125 0 
L 37.203125 33.5 
Q 37.203125 39.9375 35.34375 42.671875 
Q 33.5 45.40625 29.109375 45.40625 
Q 22.40625 45.40625 16.015625 37.109375 
L 16.015625 0 
L 6.78125 0 
L 6.78125 51.8125 
L 16.015625 51.8125 
L 16.015625 45.21875 
Q 22.5625 52.984375 30.515625 52.984375 
Q 41.890625 52.984375 45.015625 43.609375 
Q 50.203125 49.703125 53.8125 51.34375 
Q 57.421875 52.984375 60.890625 52.984375 
Q 76.8125 52.984375 76.8125 33.890625 
z
" id="MicrosoftSansSerif-6d"/>
    </defs>
    <g transform="translate(607.447953 335.389264)scale(0.08328 -0.08328)">
     <use xlink:href="#MicrosoftSansSerif-41"/>
     <use x="66.699219" xlink:href="#MicrosoftSansSerif-72"/>
     <use x="100" xlink:href="#MicrosoftSansSerif-6f"/>
     <use x="155.615234" xlink:href="#MicrosoftSansSerif-6d"/>
     <use x="238.916016" xlink:href="#MicrosoftSansSerif-61"/>
    </g>
    <!-- 5.00 -->
    <g transform="translate(607.447953 344.201589)scale(0.08328 -0.08328)">
     <use xlink:href="#MicrosoftSansSerif-35"/>
     <use x="55.615234" xlink:href="#MicrosoftSansSerif-2e"/>
     <use x="83.398438" xlink:href="#MicrosoftSansSerif-30"/>
     <use x="139.013672" xlink:href="#MicrosoftSansSerif-30"/>
    </g>
   </g>
   <g id="text_14">
    <!-- Balance -->
    <defs>
     <path d="M 61.53125 20.796875 
Q 61.53125 10.75 54.6875 5.375 
Q 47.859375 0 34.8125 0 
L 8.015625 0 
L 8.015625 71.578125 
L 33.5 71.578125 
Q 44.921875 71.578125 51.46875 66.6875 
Q 58.015625 61.8125 58.015625 53.328125 
Q 58.015625 42.96875 47.703125 37.984375 
Q 54.640625 36.234375 58.078125 31.515625 
Q 61.53125 26.8125 61.53125 20.796875 
z
M 17.484375 41.609375 
L 33.40625 41.609375 
Q 41.265625 41.609375 44.96875 44.109375 
Q 48.6875 46.625 48.6875 52.484375 
Q 48.6875 57.765625 45.0625 60.421875 
Q 41.453125 63.09375 32.515625 63.09375 
L 17.484375 63.09375 
z
M 17.484375 8.5 
L 34.71875 8.5 
Q 51.703125 8.5 51.703125 20.796875 
Q 51.703125 27.203125 47.765625 30.15625 
Q 43.84375 33.109375 33.5 33.109375 
L 17.484375 33.109375 
z
" id="MicrosoftSansSerif-42"/>
    </defs>
    <g transform="translate(631.512051 198.914984)scale(0.08328 -0.08328)">
     <use xlink:href="#MicrosoftSansSerif-42"/>
     <use x="66.699219" xlink:href="#MicrosoftSansSerif-61"/>
     <use x="122.314453" xlink:href="#MicrosoftSansSerif-6c"/>
     <use x="145.117188" xlink:href="#MicrosoftSansSerif-61"/>
     <use x="200.732422" xlink:href="#MicrosoftSansSerif-6e"/>
     <use x="256.347656" xlink:href="#MicrosoftSansSerif-63"/>
     <use x="306.347656" xlink:href="#MicrosoftSansSerif-65"/>
    </g>
    <!-- 5.00 -->
    <g transform="translate(631.512051 207.727309)scale(0.08328 -0.08328)">
     <use xlink:href="#MicrosoftSansSerif-35"/>
     <use x="55.615234" xlink:href="#MicrosoftSansSerif-2e"/>
     <use x="83.398438" xlink:href="#MicrosoftSansSerif-30"/>
     <use x="139.013672" xlink:href="#MicrosoftSansSerif-30"/>
    </g>
   </g>
   <g id="text_15">
    <!-- Body -->
    <g transform="translate(562.222243 78.901515)scale(0.08328 -0.08328)">
     <use xlink:href="#MicrosoftSansSerif-42"/>
     <use x="66.699219" xlink:href="#MicrosoftSansSerif-6f"/>
     <use x="122.314453" xlink:href="#MicrosoftSansSerif-64"/>
     <use x="177.929688" xlink:href="#MicrosoftSansSerif-79"/>
    </g>
    <!-- 5.00 -->
    <g transform="translate(562.222243 87.803627)scale(0.08328 -0.08328)">
     <use xlink:href="#MicrosoftSansSerif-35"/>
     <use x="55.615234" xlink:href="#MicrosoftSansSerif-2e"/>
     <use x="83.398438" xlink:href="#MicrosoftSansSerif-30"/>
     <use x="139.013672" xlink:href="#MicrosoftSansSerif-30"/>
    </g>
   </g>
   <g id="text_16">
    <g id="patch_6">
     <path d="M 407.026875 248.700163 
L 456.973125 248.700163 
L 456.973125 217.800163 
L 407.026875 217.800163 
z
" style="fill:#ffff00;opacity:0.3;stroke:#000000;stroke-linejoin:miter;"/>
    </g>
    <!-- 50.00 -->
    <g style="fill:#0000ff;" transform="translate(416.986875 236.349538)scale(0.12 -0.12)">
     <use xlink:href="#MicrosoftSansSerif-35"/>
     <use x="55.615234" xlink:href="#MicrosoftSansSerif-30"/>
     <use x="111.230469" xlink:href="#MicrosoftSansSerif-2e"/>
     <use x="139.013672" xlink:href="#MicrosoftSansSerif-30"/>
     <use x="194.628906" xlink:href="#MicrosoftSansSerif-30"/>
    </g>
   </g>
   <g id="text_17">
    <!--  - -->
    <g style="opacity:0;" transform="translate(427.690125 12.522241)scale(0.144 -0.144)">
     <use xlink:href="#MicrosoftSansSerif-20"/>
     <use x="26.5625" xlink:href="#MicrosoftSansSerif-2d"/>
    </g>
    <!--   -->
    <g style="opacity:0;" transform="translate(430.0875 27.759691)scale(0.144 -0.144)">
     <use xlink:href="#MicrosoftSansSerif-20"/>
    </g>
   </g>
  </g>
 </g>
 <defs>
  <clipPath id="p9e3bc3b95c">
   <path d="M 616.172587 236.349538 
C 616.172587 212.164215 611.408606 188.214064 602.153284 165.86974 
C 592.897962 143.525415 579.331291 123.221458 562.229686 106.119852 
C 545.12808 89.018246 524.824122 75.451576 502.479798 66.196253 
C 480.135473 56.940931 456.185323 52.17695 432 52.17695 
C 407.814677 52.17695 383.864527 56.940931 361.520202 66.196253 
C 339.175878 75.451576 318.87192 89.018246 301.770314 106.119852 
C 284.668709 123.221458 271.102038 143.525415 261.846716 165.86974 
C 252.591394 188.214064 247.827413 212.164215 247.827413 236.349538 
C 247.827413 260.53486 252.591394 284.485011 261.846716 306.829335 
C 271.102038 329.17366 284.668709 349.477617 301.770314 366.579223 
C 318.87192 383.680829 339.175878 397.247499 361.520202 406.502822 
C 383.864527 415.758144 407.814677 420.522125 432 420.522125 
C 456.185323 420.522125 480.135473 415.758144 502.479798 406.502822 
C 524.824122 397.247499 545.12808 383.680829 562.229686 366.579223 
C 579.331291 349.477617 592.897962 329.17366 602.153284 306.829335 
C 611.408606 284.485011 616.172587 260.53486 616.172587 236.349538 
M 432 236.349538 
C 432 236.349538 432 236.349538 432 236.349538 
C 432 236.349538 432 236.349538 432 236.349538 
C 432 236.349538 432 236.349538 432 236.349538 
C 432 236.349538 432 236.349538 432 236.349538 
C 432 236.349538 432 236.349538 432 236.349538 
C 432 236.349538 432 236.349538 432 236.349538 
C 432 236.349538 432 236.349538 432 236.349538 
C 432 236.349538 432 236.349538 432 236.349538 
C 432 236.349538 432 236.349538 432 236.349538 
C 432 236.349538 432 236.349538 432 236.349538 
C 432 236.349538 432 236.349538 432 236.349538 
C 432 236.349538 432 236.349538 432 236.349538 
C 432 236.349538 432 236.349538 432 236.349538 
C 432 236.349538 432 236.349538 432 236.349538 
C 432 236.349538 432 236.349538 432 236.349538 
C 432 236.349538 432 236.349538 432 236.349538 
M 616.172587 236.349538 
z
"/>
  </clipPath>
 </defs>
</svg>
