<?xml version="1.0" encoding="utf-8" standalone="no"?>
<!DOCTYPE svg PUBLIC "-//W3C//DTD SVG 1.1//EN"
  "http://www.w3.org/Graphics/SVG/1.1/DTD/svg11.dtd">
<!-- Created with matplotlib (http://matplotlib.org/) -->
<svg height="569.4pt" version="1.1" viewBox="0 0 934.2 569.4" width="934.2pt" xmlns="http://www.w3.org/2000/svg" xmlns:xlink="http://www.w3.org/1999/xlink">
 <defs>
  <style type="text/css">
*{stroke-linecap:butt;stroke-linejoin:round;}
  </style>
 </defs>
 <g id="figure_1">
  <g id="patch_1">
   <path d="M 0 569.4 
L 934.2 569.4 
L 934.2 0 
L 0 0 
z
" style="fill:#ffffff;"/>
  </g>
  <g id="axes_1">
   <g id="patch_2">
    <path d="M 707.851088 298.571037 
C 707.851088 266.955894 701.623594 235.648169 689.525002 206.439585 
C 677.426411 177.231001 659.692009 150.689593 637.336727 128.334311 
C 614.981444 105.979029 588.440036 88.244627 559.231453 76.146035 
C 530.022869 64.047444 498.715143 57.81995 467.1 57.81995 
C 435.484857 57.81995 404.177131 64.047444 374.968547 76.146035 
C 345.759964 88.244627 319.218556 105.979029 296.863273 128.334311 
C 274.507991 150.689593 256.773589 177.231001 244.674998 206.439585 
C 232.576406 235.648169 226.348912 266.955894 226.348912 298.571037 
C 226.348912 330.186181 232.576406 361.493906 244.674998 390.70249 
C 256.773589 419.911074 274.507991 446.452482 296.863273 468.807764 
C 319.218556 491.163046 345.759964 508.897448 374.968547 520.99604 
C 404.177131 533.094631 435.484857 539.322125 467.1 539.322125 
C 498.715143 539.322125 530.022869 533.094631 559.231453 520.99604 
C 588.440036 508.897448 614.981444 491.163046 637.336727 468.807764 
C 659.692009 446.452482 677.426411 419.911074 689.525002 390.70249 
C 701.623594 361.493906 707.851088 330.186181 707.851088 298.571038 
M 467.1 298.571037 
C 467.1 298.571037 467.1 298.571037 467.1 298.571037 
C 467.1 298.571037 467.1 298.571037 467.1 298.571037 
C 467.1 298.571037 467.1 298.571037 467.1 298.571037 
C 467.1 298.571037 467.1 298.571037 467.1 298.571037 
C 467.1 298.571037 467.1 298.571037 467.1 298.571037 
C 467.1 298.571037 467.1 298.571037 467.1 298.571037 
C 467.1 298.571037 467.1 298.571037 467.1 298.571037 
C 467.1 298.571037 467.1 298.571037 467.1 298.571037 
C 467.1 298.571037 467.1 298.571037 467.1 298.571037 
C 467.1 298.571037 467.1 298.571037 467.1 298.571037 
C 467.1 298.571037 467.1 298.571037 467.1 298.571037 
C 467.1 298.571037 467.1 298.571037 467.1 298.571037 
C 467.1 298.571037 467.1 298.571037 467.1 298.571037 
C 467.1 298.571037 467.1 298.571037 467.1 298.571037 
C 467.1 298.571037 467.1 298.571037 467.1 298.571037 
C 467.1 298.571037 467.1 298.571037 467.1 298.571037 
M 707.851088 298.571037 
z
" style="fill:none;"/>
   </g>
   <g id="PolyCollection_1">
    <path clip-path="url(#p1c5f2cf318)" d="M 467.1 298.571037 
L 467.1 298.571037 
L 467.1 298.571037 
L 467.1 298.571037 
L 467.1 298.571037 
L 467.1 298.571037 
L 467.1 298.571037 
L 467.1 298.571037 
L 467.1 298.571037 
L 467.1 298.571037 
L 467.1 298.571037 
L 467.1 298.571037 
L 467.1 178.195494 
L 544.475908 206.358021 
L 585.646769 277.668044 
L 571.348279 358.758809 
L 508.270861 411.687048 
L 425.929139 411.687048 
L 362.851721 358.758809 
L 348.553231 277.668044 
L 389.724092 206.358021 
L 467.1 178.195494 
z
" style="fill:#008000;fill-opacity:0.1;"/>
   </g>
   <g id="patch_3">
    <path clip-path="url(#p1c5f2cf318)" d="M 323.370999 312.99204 
L 324.560118 321.988402 
L 326.311776 330.892346 
L 328.619061 339.668733 
L 331.472867 348.282926 
L 334.861932 356.700929 
L 338.77288 364.88952 
L 343.190276 372.816383 
L 348.096687 380.450232 
L 353.47275 387.760942 
L 359.297248 394.71966 
L 365.547194 401.298924 
L 372.197923 407.472767 
L 379.223187 413.216825 
L 386.59526 418.508429 
L 394.285049 423.326694 
L 402.262205 427.652606 
L 410.495246 431.469092 
L 418.951681 434.76109 
L 427.598135 437.515608 
L 436.400484 439.721775 
L 445.323991 441.370885 
L 454.333437 442.456429 
L 463.393268 442.974123 
L 472.467727 442.921924 
L 481.521002 442.300038 
L 490.517364 441.11092 
L 499.421309 439.359261 
L 508.197696 437.051976 
L 516.811889 434.19817 
L 525.229892 430.809106 
L 533.418483 426.898158 
L 541.345345 422.480762 
L 548.979195 417.57435 
L 556.289905 412.198287 
L 563.248623 406.373789 
L 569.827886 400.123843 
L 576.00173 393.473115 
L 581.745788 386.447851 
L 587.037391 379.075778 
L 591.855657 371.385989 
L 596.181569 363.408833 
L 599.998054 355.175791 
L 603.290052 346.719357 
L 606.04457 338.072903 
L 608.250738 329.270553 
L 609.899847 320.347047 
L 610.985392 311.3376 
L 611.503086 302.27777 
L 611.450887 293.203311 
L 610.829001 284.150035 
L 609.639882 275.153673 
L 607.888224 266.249729 
L 605.580939 257.473342 
L 602.727133 248.859149 
L 599.338068 240.441146 
L 595.42712 232.252555 
L 591.009724 224.325692 
L 586.103313 216.691843 
L 580.72725 209.381133 
L 574.902752 202.422415 
L 568.652806 195.843151 
L 562.002077 189.669308 
L 554.976813 183.92525 
L 547.60474 178.633646 
L 539.914951 173.815381 
L 531.937795 169.489469 
L 523.704754 165.672983 
L 515.248319 162.380985 
L 506.601865 159.626467 
L 497.799516 157.4203 
L 488.876009 155.77119 
L 479.866563 154.685646 
L 470.806732 154.167952 
L 461.732273 154.220151 
L 452.678998 154.842037 
L 443.682636 156.031155 
L 434.778691 157.782814 
L 426.002304 160.090099 
L 417.388111 162.943905 
L 408.970108 166.332969 
L 400.781517 170.243917 
L 392.854655 174.661313 
L 385.220805 179.567725 
L 377.910095 184.943788 
L 370.951377 190.768286 
L 364.372114 197.018232 
L 358.19827 203.66896 
L 352.454212 210.694224 
L 347.162609 218.066297 
L 342.344343 225.756086 
L 338.018431 233.733242 
L 334.201946 241.966284 
L 330.909948 250.422718 
L 328.15543 259.069172 
L 325.949262 267.871522 
L 324.300153 276.795028 
L 323.214608 285.804475 
L 322.696914 294.864305 
L 322.749113 303.938764 
L 323.370999 312.99204 
L 323.131451 313.016075 
L 322.891902 313.04011 
L 322.652354 313.064145 
L 322.412806 313.08818 
L 322.173257 313.112215 
L 321.933709 313.13625 
L 321.694161 313.160285 
L 321.454612 313.18432 
L 321.215064 313.208355 
L 320.975516 313.23239 
L 320.735967 313.256425 
L 320.496419 313.28046 
L 320.256871 313.304495 
L 320.017322 313.32853 
L 319.777774 313.352565 
L 319.538226 313.3766 
L 319.298677 313.400635 
L 319.059129 313.42467 
L 318.819581 313.448705 
L 318.580032 313.47274 
L 318.340484 313.496775 
L 318.100936 313.52081 
L 317.861387 313.544845 
L 317.621839 313.56888 
L 317.382291 313.592915 
L 317.142742 313.61695 
L 316.903194 313.640985 
L 316.663646 313.66502 
L 316.424097 313.689055 
L 316.184549 313.71309 
L 315.945001 313.737125 
L 315.705452 313.76116 
L 315.465904 313.785195 
L 315.226356 313.80923 
L 314.986807 313.833265 
L 314.747259 313.8573 
L 314.507711 313.881335 
L 314.268162 313.90537 
L 314.028614 313.929405 
L 313.789066 313.95344 
L 313.549517 313.977475 
L 313.309969 314.00151 
L 313.070421 314.025545 
L 312.830872 314.04958 
L 312.591324 314.073615 
L 312.351776 314.09765 
L 312.112227 314.121685 
L 311.872679 314.14572 
L 311.633131 314.169755 
L 311.393582 314.19379 
L 311.154034 314.217825 
L 310.914486 314.24186 
L 310.674937 314.265895 
L 310.435389 314.28993 
L 310.195841 314.313965 
L 309.956292 314.338 
L 309.716744 314.362035 
L 309.477196 314.38607 
L 309.237647 314.410105 
L 308.998099 314.43414 
L 308.758551 314.458175 
L 308.519002 314.48221 
L 308.279454 314.506245 
L 308.039906 314.53028 
L 307.800357 314.554315 
L 307.560809 314.57835 
L 307.321261 314.602385 
L 307.081712 314.62642 
L 306.842164 314.650455 
L 306.602616 314.67449 
L 306.363067 314.698525 
L 306.123519 314.72256 
L 305.883971 314.746595 
L 305.644422 314.77063 
L 305.404874 314.794665 
L 305.165326 314.8187 
L 304.925777 314.842735 
L 304.686229 314.86677 
L 304.446681 314.890805 
L 304.207132 314.91484 
L 303.967584 314.938875 
L 303.728036 314.96291 
L 303.488487 314.986945 
L 303.248939 315.01098 
L 303.009391 315.035015 
L 302.769842 315.05905 
L 302.530294 315.083085 
L 302.290746 315.10712 
L 302.051197 315.131155 
L 301.811649 315.15519 
L 301.572101 315.179225 
L 301.332552 315.20326 
L 301.093004 315.227295 
L 300.853456 315.25133 
L 300.613907 315.275365 
L 300.374359 315.2994 
L 300.134811 315.323435 
L 299.895262 315.34747 
L 299.655714 315.371505 
L 299.416166 315.39554 
L 298.690632 304.833386 
L 298.629733 294.246517 
L 299.23371 283.676715 
L 300.500178 273.165693 
L 302.424139 262.754936 
L 304.998001 252.485528 
L 308.211606 242.397998 
L 312.05227 232.532158 
L 316.504837 222.926943 
L 321.551734 213.620261 
L 327.173043 204.648841 
L 333.346581 196.048088 
L 340.047982 187.851947 
L 347.250799 180.092764 
L 354.926607 172.80116 
L 363.045111 166.005913 
L 371.574273 159.733839 
L 380.480431 154.009693 
L 389.728437 148.856064 
L 399.281793 144.293291 
L 409.102796 140.339383 
L 419.152688 137.009942 
L 429.391807 134.31811 
L 439.779742 132.274508 
L 450.275497 130.887203 
L 460.837652 130.16167 
L 471.424521 130.100771 
L 481.994323 130.704747 
L 492.505344 131.971215 
L 502.916102 133.895177 
L 513.18551 136.469039 
L 523.273039 139.682643 
L 533.138879 143.523307 
L 542.744094 147.975874 
L 552.050776 153.022771 
L 561.022197 158.644081 
L 569.622949 164.817618 
L 577.81909 171.519019 
L 585.578273 178.721837 
L 592.869877 186.397644 
L 599.665125 194.516149 
L 605.937198 203.04531 
L 611.661345 211.951468 
L 616.814974 221.199474 
L 621.377746 230.75283 
L 625.331655 240.573834 
L 628.661095 250.623726 
L 631.352928 260.862844 
L 633.396529 271.250779 
L 634.783834 281.746535 
L 635.509368 292.308689 
L 635.570267 302.895558 
L 634.96629 313.46536 
L 633.699822 323.976382 
L 631.775861 334.387139 
L 629.201999 344.656547 
L 625.988394 354.744077 
L 622.14773 364.609917 
L 617.695163 374.215132 
L 612.648266 383.521814 
L 607.026957 392.493234 
L 600.853419 401.093987 
L 594.152018 409.290128 
L 586.949201 417.049311 
L 579.273393 424.340915 
L 571.154889 431.136162 
L 562.625727 437.408236 
L 553.719569 443.132382 
L 544.471563 448.286011 
L 534.918207 452.848784 
L 525.097204 456.802692 
L 515.047312 460.132133 
L 504.808193 462.823965 
L 494.420258 464.867567 
L 483.924503 466.254872 
L 473.362348 466.980405 
L 462.775479 467.041304 
L 452.205677 466.437328 
L 441.694656 465.17086 
L 431.283898 463.246898 
L 421.01449 460.673036 
L 410.926961 457.459432 
L 401.061121 453.618768 
L 391.455906 449.166201 
L 382.149224 444.119304 
L 373.177803 438.497994 
L 364.577051 432.324457 
L 356.38091 425.623056 
L 348.621727 418.420238 
L 341.330123 410.744431 
L 334.534875 402.625926 
L 328.262802 394.096765 
L 322.538655 385.190607 
L 317.385026 375.942601 
L 312.822254 366.389245 
L 308.868345 356.568241 
L 305.538905 346.518349 
L 302.847072 336.279231 
L 300.803471 325.891296 
L 299.416166 315.39554 
L 299.655714 315.371505 
L 299.895262 315.34747 
L 300.134811 315.323435 
L 300.374359 315.2994 
L 300.613907 315.275365 
L 300.853456 315.25133 
L 301.093004 315.227295 
L 301.332552 315.20326 
L 301.572101 315.179225 
L 301.811649 315.15519 
L 302.051197 315.131155 
L 302.290746 315.10712 
L 302.530294 315.083085 
L 302.769842 315.05905 
L 303.009391 315.035015 
L 303.248939 315.01098 
L 303.488487 314.986945 
L 303.728036 314.96291 
L 303.967584 314.938875 
L 304.207132 314.91484 
L 304.446681 314.890805 
L 304.686229 314.86677 
L 304.925777 314.842735 
L 305.165326 314.8187 
L 305.404874 314.794665 
L 305.644422 314.77063 
L 305.883971 314.746595 
L 306.123519 314.72256 
L 306.363067 314.698525 
L 306.602616 314.67449 
L 306.842164 314.650455 
L 307.081712 314.62642 
L 307.321261 314.602385 
L 307.560809 314.57835 
L 307.800357 314.554315 
L 308.039906 314.53028 
L 308.279454 314.506245 
L 308.519002 314.48221 
L 308.758551 314.458175 
L 308.998099 314.43414 
L 309.237647 314.410105 
L 309.477196 314.38607 
L 309.716744 314.362035 
L 309.956292 314.338 
L 310.195841 314.313965 
L 310.435389 314.28993 
L 310.674937 314.265895 
L 310.914486 314.24186 
L 311.154034 314.217825 
L 311.393582 314.19379 
L 311.633131 314.169755 
L 311.872679 314.14572 
L 312.112227 314.121685 
L 312.351776 314.09765 
L 312.591324 314.073615 
L 312.830872 314.04958 
L 313.070421 314.025545 
L 313.309969 314.00151 
L 313.549517 313.977475 
L 313.789066 313.95344 
L 314.028614 313.929405 
L 314.268162 313.90537 
L 314.507711 313.881335 
L 314.747259 313.8573 
L 314.986807 313.833265 
L 315.226356 313.80923 
L 315.465904 313.785195 
L 315.705452 313.76116 
L 315.945001 313.737125 
L 316.184549 313.71309 
L 316.424097 313.689055 
L 316.663646 313.66502 
L 316.903194 313.640985 
L 317.142742 313.61695 
L 317.382291 313.592915 
L 317.621839 313.56888 
L 317.861387 313.544845 
L 318.100936 313.52081 
L 318.340484 313.496775 
L 318.580032 313.47274 
L 318.819581 313.448705 
L 319.059129 313.42467 
L 319.298677 313.400635 
L 319.538226 313.3766 
L 319.777774 313.352565 
L 320.017322 313.32853 
L 320.256871 313.304495 
L 320.496419 313.28046 
L 320.735967 313.256425 
L 320.975516 313.23239 
L 321.215064 313.208355 
L 321.454612 313.18432 
L 321.694161 313.160285 
L 321.933709 313.13625 
L 322.173257 313.112215 
L 322.412806 313.08818 
L 322.652354 313.064145 
L 322.891902 313.04011 
L 323.131451 313.016075 
z
" style="fill:#008000;opacity:0.1;"/>
   </g>
   <g id="patch_4">
    <path clip-path="url(#p1c5f2cf318)" d="M 275.461332 317.79904 
L 277.046824 329.79419 
L 279.382368 341.666116 
L 282.458748 353.367965 
L 286.263823 364.853556 
L 290.782576 376.07756 
L 295.997173 386.995681 
L 301.887034 397.564831 
L 308.428916 407.743297 
L 315.597 417.490911 
L 323.362997 426.769201 
L 331.696259 435.541553 
L 340.563897 443.773344 
L 349.930915 451.432088 
L 359.760347 458.487559 
L 370.013398 464.911913 
L 380.649607 470.679796 
L 391.626995 475.768443 
L 402.902241 480.157774 
L 414.430846 483.830465 
L 426.167312 486.772021 
L 438.065321 488.970834 
L 450.077917 490.418226 
L 462.15769 491.108485 
L 474.256969 491.038887 
L 486.328003 490.209705 
L 498.323152 488.624214 
L 510.195078 486.288669 
L 521.896928 483.212289 
L 533.382519 479.407214 
L 544.606523 474.888462 
L 555.524644 469.673865 
L 566.093793 463.784003 
L 576.27226 457.242121 
L 586.019873 450.074037 
L 595.298164 442.30804 
L 604.070515 433.974779 
L 612.302306 425.10714 
L 619.96105 415.740122 
L 627.016522 405.910691 
L 633.440876 395.657639 
L 639.208758 385.021431 
L 644.297406 374.044042 
L 648.686736 362.768797 
L 652.359427 351.240191 
L 655.300984 339.503725 
L 657.499797 327.605716 
L 658.947189 315.593121 
L 659.637448 303.513347 
L 659.567849 291.414068 
L 658.738668 279.343035 
L 657.153176 267.347885 
L 654.817632 255.475959 
L 651.741252 243.77411 
L 647.936177 232.288519 
L 643.417424 221.064515 
L 638.202827 210.146394 
L 632.312966 199.577244 
L 625.771084 189.398778 
L 618.603 179.651164 
L 610.837003 170.372874 
L 602.503741 161.600522 
L 593.636103 153.368731 
L 584.269085 145.709987 
L 574.439653 138.654516 
L 564.186602 132.230162 
L 553.550393 126.462279 
L 542.573005 121.373632 
L 531.297759 116.984301 
L 519.769154 113.31161 
L 508.032688 110.370054 
L 496.134679 108.171241 
L 484.122083 106.723849 
L 472.04231 106.03359 
L 459.943031 106.103188 
L 447.871997 106.93237 
L 435.876848 108.517861 
L 424.004922 110.853406 
L 412.303072 113.929786 
L 400.817481 117.734861 
L 389.593477 122.253613 
L 378.675356 127.46821 
L 368.106207 133.358072 
L 357.92774 139.899954 
L 348.180127 147.068038 
L 338.901836 154.834035 
L 330.129485 163.167296 
L 321.897694 172.034935 
L 314.23895 181.401953 
L 307.183478 191.231384 
L 300.759124 201.484436 
L 294.991242 212.120644 
L 289.902594 223.098033 
L 285.513264 234.373278 
L 281.840573 245.901884 
L 278.899016 257.63835 
L 276.700203 269.536359 
L 275.252811 281.548954 
L 274.562552 293.628728 
L 274.632151 305.728007 
L 275.461332 317.79904 
L 275.221784 317.823075 
L 274.982235 317.84711 
L 274.742687 317.871145 
L 274.503139 317.89518 
L 274.26359 317.919215 
L 274.024042 317.94325 
L 273.784494 317.967285 
L 273.544945 317.99132 
L 273.305397 318.015355 
L 273.065849 318.03939 
L 272.8263 318.063425 
L 272.586752 318.08746 
L 272.347204 318.111495 
L 272.107655 318.13553 
L 271.868107 318.159565 
L 271.628559 318.1836 
L 271.38901 318.207635 
L 271.149462 318.23167 
L 270.909914 318.255705 
L 270.670365 318.27974 
L 270.430817 318.303775 
L 270.191269 318.32781 
L 269.95172 318.351845 
L 269.712172 318.37588 
L 269.472624 318.399915 
L 269.233075 318.42395 
L 268.993527 318.447985 
L 268.753979 318.472021 
L 268.51443 318.496056 
L 268.274882 318.520091 
L 268.035334 318.544126 
L 267.795785 318.568161 
L 267.556237 318.592196 
L 267.316689 318.616231 
L 267.07714 318.640266 
L 266.837592 318.664301 
L 266.598044 318.688336 
L 266.358495 318.712371 
L 266.118947 318.736406 
L 265.879399 318.760441 
L 265.63985 318.784476 
L 265.400302 318.808511 
L 265.160754 318.832546 
L 264.921205 318.856581 
L 264.681657 318.880616 
L 264.442109 318.904651 
L 264.20256 318.928686 
L 263.963012 318.952721 
L 263.723464 318.976756 
L 263.483915 319.000791 
L 263.244367 319.024826 
L 263.004819 319.048861 
L 262.76527 319.072896 
L 262.525722 319.096931 
L 262.286174 319.120966 
L 262.046625 319.145001 
L 261.807077 319.169036 
L 261.567529 319.193071 
L 261.32798 319.217106 
L 261.088432 319.241141 
L 260.848884 319.265176 
L 260.609335 319.289211 
L 260.369787 319.313246 
L 260.130239 319.337281 
L 259.89069 319.361316 
L 259.651142 319.385351 
L 259.411594 319.409386 
L 259.172045 319.433421 
L 258.932497 319.457456 
L 258.692949 319.481491 
L 258.4534 319.505526 
L 258.213852 319.529561 
L 257.974304 319.553596 
L 257.734755 319.577631 
L 257.495207 319.601666 
L 257.255659 319.625701 
L 257.01611 319.649736 
L 256.776562 319.673771 
L 256.537014 319.697806 
L 256.297465 319.721841 
L 256.057917 319.745876 
L 255.818369 319.769911 
L 255.57882 319.793946 
L 255.339272 319.817981 
L 255.099724 319.842016 
L 254.860175 319.866051 
L 254.620627 319.890086 
L 254.381079 319.914121 
L 254.14153 319.938156 
L 253.901982 319.962191 
L 253.662434 319.986226 
L 253.422885 320.010261 
L 253.183337 320.034296 
L 252.943789 320.058331 
L 252.70424 320.082366 
L 252.464692 320.106401 
L 252.225144 320.130436 
L 251.985595 320.154471 
L 251.746047 320.178506 
L 251.506499 320.202541 
L 250.57367 306.622628 
L 250.495372 293.010939 
L 251.271913 279.421194 
L 252.900229 265.907024 
L 255.373894 252.521764 
L 258.683144 239.318239 
L 262.814921 226.348559 
L 267.752918 213.663907 
L 273.477647 201.314345 
L 279.966515 189.348611 
L 287.193913 177.813927 
L 295.131318 166.755817 
L 303.747405 156.217922 
L 313.00817 146.241829 
L 322.877066 136.86691 
L 333.315143 128.130163 
L 344.281208 120.066068 
L 355.731982 112.706451 
L 367.622276 106.080357 
L 379.905162 100.213935 
L 392.532167 95.130339 
L 405.453456 90.849629 
L 418.618037 87.388702 
L 431.973954 84.761214 
L 445.468497 82.977536 
L 459.04841 82.044707 
L 472.660098 81.966409 
L 486.249844 82.74295 
L 499.764014 84.371266 
L 513.149274 86.844931 
L 526.352798 90.154182 
L 539.322479 94.285959 
L 552.007131 99.223956 
L 564.356693 104.948685 
L 576.322427 111.437552 
L 587.85711 118.664951 
L 598.91522 126.602356 
L 609.453116 135.218443 
L 619.429209 144.479208 
L 628.804128 154.348103 
L 637.540875 164.78618 
L 645.604969 175.752245 
L 652.964586 187.20302 
L 659.590681 199.093313 
L 665.457102 211.3762 
L 670.540699 224.003204 
L 674.821408 236.924494 
L 678.282336 250.089074 
L 680.909824 263.444991 
L 682.693501 276.939534 
L 683.62633 290.519447 
L 683.704628 304.131136 
L 682.928087 317.720881 
L 681.299771 331.235051 
L 678.826106 344.620311 
L 675.516856 357.823836 
L 671.385079 370.793516 
L 666.447082 383.478168 
L 660.722353 395.82773 
L 654.233485 407.793464 
L 647.006087 419.328148 
L 639.068682 430.386258 
L 630.452595 440.924153 
L 621.19183 450.900246 
L 611.322934 460.275165 
L 600.884857 469.011912 
L 589.918792 477.076007 
L 578.468018 484.435624 
L 566.577724 491.061718 
L 554.294838 496.92814 
L 541.667833 502.011736 
L 528.746544 506.292446 
L 515.581963 509.753373 
L 502.226046 512.380861 
L 488.731503 514.164539 
L 475.15159 515.097368 
L 461.539902 515.175666 
L 447.950156 514.399125 
L 434.435986 512.770809 
L 421.050726 510.297144 
L 407.847202 506.987893 
L 394.877521 502.856116 
L 382.192869 497.918119 
L 369.843307 492.19339 
L 357.877573 485.704523 
L 346.34289 478.477124 
L 335.28478 470.539719 
L 324.746884 461.923632 
L 314.770791 452.662867 
L 305.395872 442.793972 
L 296.659125 432.355895 
L 288.595031 421.38983 
L 281.235414 409.939055 
L 274.609319 398.048762 
L 268.742898 385.765875 
L 263.659301 373.138871 
L 259.378592 360.217581 
L 255.917664 347.053001 
L 253.290176 333.697084 
L 251.506499 320.202541 
L 251.746047 320.178506 
L 251.985595 320.154471 
L 252.225144 320.130436 
L 252.464692 320.106401 
L 252.70424 320.082366 
L 252.943789 320.058331 
L 253.183337 320.034296 
L 253.422885 320.010261 
L 253.662434 319.986226 
L 253.901982 319.962191 
L 254.14153 319.938156 
L 254.381079 319.914121 
L 254.620627 319.890086 
L 254.860175 319.866051 
L 255.099724 319.842016 
L 255.339272 319.817981 
L 255.57882 319.793946 
L 255.818369 319.769911 
L 256.057917 319.745876 
L 256.297465 319.721841 
L 256.537014 319.697806 
L 256.776562 319.673771 
L 257.01611 319.649736 
L 257.255659 319.625701 
L 257.495207 319.601666 
L 257.734755 319.577631 
L 257.974304 319.553596 
L 258.213852 319.529561 
L 258.4534 319.505526 
L 258.692949 319.481491 
L 258.932497 319.457456 
L 259.172045 319.433421 
L 259.411594 319.409386 
L 259.651142 319.385351 
L 259.89069 319.361316 
L 260.130239 319.337281 
L 260.369787 319.313246 
L 260.609335 319.289211 
L 260.848884 319.265176 
L 261.088432 319.241141 
L 261.32798 319.217106 
L 261.567529 319.193071 
L 261.807077 319.169036 
L 262.046625 319.145001 
L 262.286174 319.120966 
L 262.525722 319.096931 
L 262.76527 319.072896 
L 263.004819 319.048861 
L 263.244367 319.024826 
L 263.483915 319.000791 
L 263.723464 318.976756 
L 263.963012 318.952721 
L 264.20256 318.928686 
L 264.442109 318.904651 
L 264.681657 318.880616 
L 264.921205 318.856581 
L 265.160754 318.832546 
L 265.400302 318.808511 
L 265.63985 318.784476 
L 265.879399 318.760441 
L 266.118947 318.736406 
L 266.358495 318.712371 
L 266.598044 318.688336 
L 266.837592 318.664301 
L 267.07714 318.640266 
L 267.316689 318.616231 
L 267.556237 318.592196 
L 267.795785 318.568161 
L 268.035334 318.544126 
L 268.274882 318.520091 
L 268.51443 318.496056 
L 268.753979 318.472021 
L 268.993527 318.447985 
L 269.233075 318.42395 
L 269.472624 318.399915 
L 269.712172 318.37588 
L 269.95172 318.351845 
L 270.191269 318.32781 
L 270.430817 318.303775 
L 270.670365 318.27974 
L 270.909914 318.255705 
L 271.149462 318.23167 
L 271.38901 318.207635 
L 271.628559 318.1836 
L 271.868107 318.159565 
L 272.107655 318.13553 
L 272.347204 318.111495 
L 272.586752 318.08746 
L 272.8263 318.063425 
L 273.065849 318.03939 
L 273.305397 318.015355 
L 273.544945 317.99132 
L 273.784494 317.967285 
L 274.024042 317.94325 
L 274.26359 317.919215 
L 274.503139 317.89518 
L 274.742687 317.871145 
L 274.982235 317.84711 
L 275.221784 317.823075 
z
" style="fill:#008000;opacity:0.1;"/>
   </g>
   <g id="matplotlib.axis_1">
    <g id="xtick_1">
     <g id="line2d_1">
      <path clip-path="url(#p1c5f2cf318)" d="M 467.1 298.571037 
L 704.193538 256.76505 
" style="fill:none;stroke:#008000;stroke-linecap:square;stroke-opacity:0.3;"/>
     </g>
    </g>
    <g id="xtick_2">
     <g id="line2d_2">
      <path clip-path="url(#p1c5f2cf318)" d="M 467.1 298.571037 
L 621.851816 114.145005 
" style="fill:none;stroke:#008000;stroke-linecap:square;stroke-opacity:0.3;"/>
     </g>
    </g>
    <g id="xtick_3">
     <g id="line2d_3">
      <path clip-path="url(#p1c5f2cf318)" d="M 467.1 298.571037 
L 467.1 57.81995 
" style="fill:none;stroke:#008000;stroke-linecap:square;stroke-opacity:0.3;"/>
     </g>
    </g>
    <g id="xtick_4">
     <g id="line2d_4">
      <path clip-path="url(#p1c5f2cf318)" d="M 467.1 298.571037 
L 312.348184 114.145005 
" style="fill:none;stroke:#008000;stroke-linecap:square;stroke-opacity:0.3;"/>
     </g>
    </g>
    <g id="xtick_5">
     <g id="line2d_5">
      <path clip-path="url(#p1c5f2cf318)" d="M 467.1 298.571037 
L 230.006462 256.76505 
" style="fill:none;stroke:#008000;stroke-linecap:square;stroke-opacity:0.3;"/>
     </g>
    </g>
    <g id="xtick_6">
     <g id="line2d_6">
      <path clip-path="url(#p1c5f2cf318)" d="M 467.1 298.571037 
L 258.603442 418.946581 
" style="fill:none;stroke:#008000;stroke-linecap:square;stroke-opacity:0.3;"/>
     </g>
    </g>
    <g id="xtick_7">
     <g id="line2d_7">
      <path clip-path="url(#p1c5f2cf318)" d="M 467.1 298.571037 
L 384.758279 524.803058 
" style="fill:none;stroke:#008000;stroke-linecap:square;stroke-opacity:0.3;"/>
     </g>
    </g>
    <g id="xtick_8">
     <g id="line2d_8">
      <path clip-path="url(#p1c5f2cf318)" d="M 467.1 298.571037 
L 549.441721 524.803058 
" style="fill:none;stroke:#008000;stroke-linecap:square;stroke-opacity:0.3;"/>
     </g>
    </g>
    <g id="xtick_9">
     <g id="line2d_9">
      <path clip-path="url(#p1c5f2cf318)" d="M 467.1 298.571037 
L 675.596558 418.946581 
" style="fill:none;stroke:#008000;stroke-linecap:square;stroke-opacity:0.3;"/>
     </g>
    </g>
    <g id="text_1">
     <!--  - -->
     <defs>
      <path d="M 0 0 
z
" id="MicrosoftSansSerif-20"/>
      <path d="M 30.078125 21.484375 
L 3.21875 21.484375 
L 3.21875 30.328125 
L 30.078125 30.328125 
z
" id="MicrosoftSansSerif-2d"/>
     </defs>
     <g style="opacity:0;" transform="translate(463.508438 551.9115)scale(0.12 -0.12)">
      <use xlink:href="#MicrosoftSansSerif-20"/>
      <use x="26.5625" xlink:href="#MicrosoftSansSerif-2d"/>
     </g>
     <!--   -->
     <g style="opacity:0;" transform="translate(465.50625 564.609375)scale(0.12 -0.12)">
      <use xlink:href="#MicrosoftSansSerif-20"/>
     </g>
    </g>
   </g>
   <g id="matplotlib.axis_2">
    <g id="ytick_1">
     <g id="line2d_10">
      <path clip-path="url(#p1c5f2cf318)" d="M 515.250218 298.571037 
L 515.132926 295.212248 
L 514.781623 291.869822 
L 514.19802 288.560044 
L 513.38496 285.299039 
L 512.346404 282.102693 
L 511.087412 278.98658 
L 509.614119 275.96588 
L 507.9337 273.05531 
L 506.054344 270.26905 
L 503.985207 267.620674 
L 501.736368 265.123086 
L 499.318784 262.788453 
L 496.744234 260.628148 
L 494.02526 258.652698 
L 491.175109 256.871726 
L 488.207666 255.293909 
L 485.137389 253.926933 
L 481.979235 252.777459 
L 478.748592 251.851087 
L 475.461198 251.15233 
L 472.133068 250.684592 
L 468.780418 250.450152 
L 465.419582 250.450152 
L 462.066932 250.684592 
L 458.738802 251.15233 
L 455.451408 251.851087 
L 452.220765 252.777459 
L 449.062611 253.926933 
L 445.992334 255.293909 
L 443.024891 256.871726 
L 440.17474 258.652698 
L 437.455766 260.628148 
L 434.881216 262.788453 
L 432.463632 265.123086 
L 430.214793 267.620674 
L 428.145656 270.26905 
L 426.2663 273.05531 
L 424.585881 275.96588 
L 423.112588 278.98658 
L 421.853596 282.102693 
L 420.81504 285.299039 
L 420.00198 288.560044 
L 419.418377 291.869822 
L 419.067074 295.212248 
L 418.949783 298.571037 
L 419.067074 301.929827 
L 419.418377 305.272253 
L 420.00198 308.582031 
L 420.81504 311.843036 
L 421.853596 315.039382 
L 423.112588 318.155495 
L 424.585881 321.176195 
L 426.2663 324.086765 
L 428.145656 326.873025 
L 430.214793 329.521401 
L 432.463632 332.018989 
L 434.881216 334.353622 
L 437.455766 336.513927 
L 440.17474 338.489377 
L 443.024891 340.270349 
L 445.992334 341.848166 
L 449.062611 343.215142 
L 452.220765 344.364616 
L 455.451408 345.290988 
L 458.738802 345.989745 
L 462.066932 346.457483 
L 465.419582 346.691923 
L 468.780418 346.691923 
L 472.133068 346.457483 
L 475.461198 345.989745 
L 478.748592 345.290988 
L 481.979235 344.364616 
L 485.137389 343.215142 
L 488.207666 341.848166 
L 491.175109 340.270349 
L 494.02526 338.489377 
L 496.744234 336.513927 
L 499.318784 334.353622 
L 501.736368 332.018989 
L 503.985207 329.521401 
L 506.054344 326.873025 
L 507.9337 324.086765 
L 509.614119 321.176195 
L 511.087412 318.155495 
L 512.346404 315.039382 
L 513.38496 311.843036 
L 514.19802 308.582031 
L 514.781623 305.272253 
L 515.132926 301.929827 
L 515.250218 298.571037 
L 515.250218 298.571037 
" style="fill:none;stroke:#008000;stroke-linecap:square;stroke-opacity:0.3;"/>
     </g>
     <g id="text_2">
      <!-- 2 -->
      <defs>
       <path d="M 50.484375 0 
L 3.078125 0 
Q 3.078125 6.546875 7.125 12.5 
Q 11.1875 18.453125 22 27.171875 
Q 32.8125 35.890625 36.8125 41.09375 
Q 40.828125 46.296875 40.828125 52.875 
Q 40.828125 58.796875 37.40625 62.1875 
Q 33.984375 65.578125 27.78125 65.578125 
Q 22.40625 65.578125 18.59375 62.15625 
Q 14.796875 58.734375 14.3125 52.09375 
L 4.78125 52.09375 
Q 5.5625 61.53125 11.734375 67.15625 
Q 17.921875 72.796875 27.984375 72.796875 
Q 38.671875 72.796875 44.484375 67.0625 
Q 50.296875 61.328125 50.296875 52.6875 
Q 50.296875 44.875 46 38.890625 
Q 41.703125 32.90625 28.921875 22.265625 
Q 16.15625 11.625 15.921875 8.5 
L 50.484375 8.5 
z
" id="MicrosoftSansSerif-32"/>
      </defs>
      <g style="fill:#333333;" transform="translate(511.585 278.485653)scale(0.08328 -0.08328)">
       <use xlink:href="#MicrosoftSansSerif-32"/>
      </g>
     </g>
    </g>
    <g id="ytick_2">
     <g id="line2d_11">
      <path clip-path="url(#p1c5f2cf318)" d="M 563.400435 298.571037 
L 563.341771 295.210201 
L 563.165852 291.853459 
L 562.872891 288.504901 
L 562.463246 285.168607 
L 561.937415 281.848642 
L 561.296039 278.549051 
L 560.539901 275.273854 
L 559.669919 272.02704 
L 558.687156 268.812567 
L 557.592808 265.634349 
L 556.388209 262.49626 
L 555.074825 259.402122 
L 553.654258 256.355705 
L 552.128237 253.360722 
L 550.498623 250.42082 
L 548.767401 247.539582 
L 546.936679 244.720518 
L 545.008688 241.967062 
L 542.985778 239.28257 
L 540.870413 236.670311 
L 538.66517 234.133469 
L 536.372736 231.675134 
L 533.995903 229.298302 
L 531.537568 227.005868 
L 529.000726 224.800624 
L 526.388468 222.685259 
L 523.703975 220.662349 
L 520.95052 218.734359 
L 518.131456 216.903637 
L 515.250218 215.172414 
L 512.310316 213.5428 
L 509.315332 212.01678 
L 506.268916 210.596213 
L 503.174778 209.282829 
L 500.036689 208.078229 
L 496.858471 206.983881 
L 493.643997 206.001118 
L 490.397184 205.131137 
L 487.121986 204.374998 
L 483.822395 203.733622 
L 480.50243 203.207792 
L 477.166136 202.798146 
L 473.817579 202.505186 
L 470.460837 202.329266 
L 467.1 202.270602 
L 463.739163 202.329266 
L 460.382421 202.505186 
L 457.033864 202.798146 
L 453.69757 203.207792 
L 450.377605 203.733622 
L 447.078014 204.374998 
L 443.802816 205.131137 
L 440.556003 206.001118 
L 437.341529 206.983881 
L 434.163311 208.078229 
L 431.025222 209.282829 
L 427.931084 210.596213 
L 424.884668 212.01678 
L 421.889684 213.5428 
L 418.949783 215.172414 
L 416.068544 216.903637 
L 413.24948 218.734359 
L 410.496025 220.662349 
L 407.811532 222.685259 
L 405.199274 224.800624 
L 402.662432 227.005868 
L 400.204097 229.298302 
L 397.827264 231.675134 
L 395.53483 234.133469 
L 393.329587 236.670311 
L 391.214222 239.28257 
L 389.191312 241.967062 
L 387.263321 244.720518 
L 385.432599 247.539582 
L 383.701377 250.42082 
L 382.071763 253.360722 
L 380.545742 256.355705 
L 379.125175 259.402122 
L 377.811791 262.49626 
L 376.607192 265.634349 
L 375.512844 268.812567 
L 374.530081 272.02704 
L 373.660099 275.273854 
L 372.903961 278.549051 
L 372.262585 281.848642 
L 371.736754 285.168607 
L 371.327109 288.504901 
L 371.034148 291.853459 
L 370.858229 295.210201 
L 370.799565 298.571037 
L 370.858229 301.931874 
L 371.034148 305.288616 
L 371.327109 308.637174 
L 371.736754 311.973468 
L 372.262585 315.293433 
L 372.903961 318.593024 
L 373.660099 321.868221 
L 374.530081 325.115035 
L 375.512844 328.329508 
L 376.607192 331.507726 
L 377.811791 334.645815 
L 379.125175 337.739953 
L 380.545742 340.78637 
L 382.071763 343.781353 
L 383.701377 346.721255 
L 385.432599 349.602493 
L 387.263321 352.421557 
L 389.191312 355.175013 
L 391.214222 357.859505 
L 393.329587 360.471764 
L 395.53483 363.008606 
L 397.827264 365.466941 
L 400.204097 367.843773 
L 402.662432 370.136207 
L 405.199274 372.341451 
L 407.811532 374.456816 
L 410.496025 376.479726 
L 413.24948 378.407716 
L 416.068544 380.238438 
L 418.949782 381.969661 
L 421.889684 383.599275 
L 424.884668 385.125295 
L 427.931084 386.545862 
L 431.025222 387.859246 
L 434.163311 389.063846 
L 437.341529 390.158194 
L 440.556003 391.140957 
L 443.802816 392.010938 
L 447.078014 392.767077 
L 450.377605 393.408453 
L 453.69757 393.934283 
L 457.033864 394.343929 
L 460.382421 394.636889 
L 463.739163 394.812809 
L 467.1 394.871472 
L 470.460837 394.812809 
L 473.817579 394.636889 
L 477.166136 394.343929 
L 480.50243 393.934283 
L 483.822395 393.408453 
L 487.121986 392.767077 
L 490.397184 392.010938 
L 493.643997 391.140957 
L 496.858471 390.158194 
L 500.036689 389.063846 
L 503.174778 387.859246 
L 506.268916 386.545862 
L 509.315332 385.125295 
L 512.310316 383.599275 
L 515.250218 381.969661 
L 518.131456 380.238438 
L 520.95052 378.407716 
L 523.703975 376.479726 
L 526.388468 374.456816 
L 529.000726 372.341451 
L 531.537568 370.136207 
L 533.995903 367.843773 
L 536.372736 365.466941 
L 538.66517 363.008606 
L 540.870413 360.471764 
L 542.985778 357.859505 
L 545.008688 355.175013 
L 546.936679 352.421557 
L 548.767401 349.602493 
L 550.498623 346.721255 
L 552.128237 343.781353 
L 553.654258 340.78637 
L 555.074825 337.739953 
L 556.388209 334.645815 
L 557.592808 331.507726 
L 558.687156 328.329508 
L 559.669919 325.115035 
L 560.539901 321.868221 
L 561.296039 318.593024 
L 561.937415 315.293433 
L 562.463246 311.973468 
L 562.872891 308.637174 
L 563.165852 305.288616 
L 563.341771 301.931874 
L 563.400435 298.571037 
L 563.400435 298.571037 
" style="fill:none;stroke:#008000;stroke-linecap:square;stroke-opacity:0.3;"/>
     </g>
     <g id="text_3">
      <!-- 4 -->
      <defs>
       <path d="M 50.984375 17.09375 
L 41.3125 17.09375 
L 41.3125 0 
L 32.078125 0 
L 32.078125 17.09375 
L 1.515625 17.09375 
L 1.515625 25.203125 
L 34.078125 72.515625 
L 41.3125 72.515625 
L 41.3125 25.203125 
L 50.984375 25.203125 
z
M 32.078125 25.203125 
L 32.078125 58.015625 
L 10.109375 25.203125 
z
" id="MicrosoftSansSerif-34"/>
      </defs>
      <g style="fill:#333333;" transform="translate(556.070001 260.059363)scale(0.08328 -0.08328)">
       <use xlink:href="#MicrosoftSansSerif-34"/>
      </g>
     </g>
    </g>
    <g id="ytick_3">
     <g id="line2d_12">
      <path clip-path="url(#p1c5f2cf318)" d="M 611.550653 298.571037 
L 611.462657 293.529782 
L 611.198778 288.494669 
L 610.759337 283.471833 
L 610.144869 278.467392 
L 609.356123 273.487445 
L 608.394059 268.538058 
L 607.259851 263.625262 
L 605.954879 258.755042 
L 604.480734 253.933331 
L 602.839212 249.166005 
L 601.032313 244.458871 
L 599.062237 239.817664 
L 596.931386 235.248039 
L 594.642356 230.755564 
L 592.197935 226.345711 
L 589.601101 222.023854 
L 586.855018 217.795258 
L 583.963033 213.665074 
L 580.928668 209.638336 
L 577.75562 205.719948 
L 574.447755 201.914685 
L 571.009104 198.227183 
L 567.443855 194.661934 
L 563.756353 191.223283 
L 559.95109 187.915418 
L 556.032702 184.74237 
L 552.005963 181.708005 
L 547.87578 178.816019 
L 543.647183 176.069937 
L 539.325326 173.473103 
L 534.915474 171.028682 
L 530.422998 168.739651 
L 525.853373 166.6088 
L 521.212167 164.638725 
L 516.505033 162.831825 
L 511.737706 161.190303 
L 506.915996 159.716158 
L 502.045776 158.411187 
L 497.132979 157.276978 
L 492.183593 156.314915 
L 487.203645 155.526169 
L 482.199205 154.911701 
L 477.176368 154.47226 
L 472.141255 154.20838 
L 467.1 154.120385 
L 462.058745 154.20838 
L 457.023632 154.47226 
L 452.000795 154.911701 
L 446.996355 155.526169 
L 442.016407 156.314915 
L 437.067021 157.276978 
L 432.154224 158.411187 
L 427.284004 159.716158 
L 422.462294 161.190303 
L 417.694967 162.831825 
L 412.987833 164.638725 
L 408.346627 166.6088 
L 403.777002 168.739651 
L 399.284526 171.028682 
L 394.874674 173.473103 
L 390.552817 176.069937 
L 386.32422 178.816019 
L 382.194037 181.708005 
L 378.167298 184.74237 
L 374.24891 187.915418 
L 370.443647 191.223283 
L 366.756145 194.661934 
L 363.190896 198.227183 
L 359.752245 201.914685 
L 356.44438 205.719948 
L 353.271332 209.638336 
L 350.236967 213.665074 
L 347.344982 217.795258 
L 344.598899 222.023854 
L 342.002065 226.345711 
L 339.557644 230.755564 
L 337.268614 235.248039 
L 335.137763 239.817664 
L 333.167687 244.458871 
L 331.360788 249.166005 
L 329.719266 253.933331 
L 328.245121 258.755042 
L 326.940149 263.625262 
L 325.805941 268.538058 
L 324.843877 273.487445 
L 324.055131 278.467392 
L 323.440663 283.471833 
L 323.001222 288.494669 
L 322.737343 293.529782 
L 322.649347 298.571037 
L 322.737343 303.612293 
L 323.001222 308.647406 
L 323.440663 313.670242 
L 324.055131 318.674683 
L 324.843877 323.65463 
L 325.805941 328.604017 
L 326.940149 333.516813 
L 328.245121 338.387033 
L 329.719266 343.208744 
L 331.360788 347.97607 
L 333.167687 352.683204 
L 335.137763 357.324411 
L 337.268614 361.894036 
L 339.557644 366.386511 
L 342.002065 370.796364 
L 344.598899 375.118221 
L 347.344982 379.346817 
L 350.236967 383.477001 
L 353.271332 387.503739 
L 356.44438 391.422127 
L 359.752245 395.22739 
L 363.190896 398.914892 
L 366.756145 402.480141 
L 370.443647 405.918792 
L 374.24891 409.226657 
L 378.167298 412.399705 
L 382.194037 415.43407 
L 386.32422 418.326056 
L 390.552817 421.072138 
L 394.874674 423.668972 
L 399.284526 426.113393 
L 403.777002 428.402424 
L 408.346627 430.533275 
L 412.987833 432.50335 
L 417.694967 434.31025 
L 422.462294 435.951772 
L 427.284004 437.425917 
L 432.154224 438.730888 
L 437.067021 439.865097 
L 442.016407 440.82716 
L 446.996355 441.615906 
L 452.000795 442.230374 
L 457.023632 442.669815 
L 462.058745 442.933695 
L 467.1 443.02169 
L 472.141255 442.933695 
L 477.176368 442.669815 
L 482.199205 442.230374 
L 487.203645 441.615906 
L 492.183593 440.82716 
L 497.132979 439.865097 
L 502.045776 438.730888 
L 506.915996 437.425917 
L 511.737706 435.951772 
L 516.505033 434.31025 
L 521.212167 432.50335 
L 525.853373 430.533275 
L 530.422998 428.402424 
L 534.915474 426.113393 
L 539.325326 423.668972 
L 543.647183 421.072138 
L 547.87578 418.326056 
L 552.005963 415.43407 
L 556.032702 412.399705 
L 559.95109 409.226657 
L 563.756353 405.918792 
L 567.443855 402.480141 
L 571.009104 398.914892 
L 574.447755 395.22739 
L 577.75562 391.422127 
L 580.928668 387.503739 
L 583.963033 383.477001 
L 586.855018 379.346817 
L 589.601101 375.118221 
L 592.197935 370.796364 
L 594.642356 366.386511 
L 596.931386 361.894036 
L 599.062237 357.324411 
L 601.032313 352.683204 
L 602.839212 347.97607 
L 604.480734 343.208744 
L 605.954879 338.387033 
L 607.259851 333.516813 
L 608.394059 328.604017 
L 609.356123 323.65463 
L 610.144869 318.674683 
L 610.759337 313.670242 
L 611.198778 308.647406 
L 611.462657 303.612293 
L 611.550653 298.571038 
L 611.550653 298.571038 
" style="fill:none;stroke:#008000;stroke-linecap:square;stroke-opacity:0.3;"/>
     </g>
     <g id="text_4">
      <!-- 6 -->
      <defs>
       <path d="M 13.8125 38.625 
Q 20.90625 46.390625 30.078125 46.390625 
Q 39.0625 46.390625 45.234375 39.859375 
Q 51.421875 33.34375 51.421875 23.296875 
Q 51.421875 13.09375 45.28125 5.9375 
Q 39.15625 -1.21875 29 -1.21875 
Q 17.390625 -1.21875 10.9375 7.734375 
Q 4.5 16.703125 4.5 33.5 
Q 4.5 72.796875 29.78125 72.796875 
Q 37.84375 72.796875 43.40625 68.296875 
Q 48.96875 63.8125 50.203125 54.984375 
L 40.71875 54.984375 
Q 39.5 65.578125 29.296875 65.578125 
Q 22.703125 65.578125 18.625 58.609375 
Q 14.546875 51.65625 13.8125 38.625 
z
M 13.71875 31.5 
Q 13.921875 19.1875 17.96875 12.59375 
Q 22.015625 6 28.8125 6 
Q 34.765625 6 38.328125 10.78125 
Q 41.890625 15.578125 41.890625 22.703125 
Q 41.890625 29.9375 38.25 34.5625 
Q 34.625 39.203125 28.515625 39.203125 
Q 20.953125 39.203125 13.71875 31.5 
z
" id="MicrosoftSansSerif-36"/>
      </defs>
      <g style="fill:#333333;" transform="translate(600.555001 241.633072)scale(0.08328 -0.08328)">
       <use xlink:href="#MicrosoftSansSerif-36"/>
      </g>
     </g>
    </g>
    <g id="ytick_4">
     <g id="line2d_13">
      <path clip-path="url(#p1c5f2cf318)" d="M 659.70087 298.571037 
L 659.583543 291.849364 
L 659.231704 285.13588 
L 658.645782 278.438765 
L 657.826492 271.766177 
L 656.77483 265.126247 
L 655.492079 258.527065 
L 653.979801 251.97667 
L 652.239839 245.483043 
L 650.274312 239.054096 
L 648.085616 232.69766 
L 645.676417 226.421482 
L 643.04965 220.233206 
L 640.208515 214.140373 
L 637.156475 208.150406 
L 633.897246 202.270602 
L 630.434801 196.508126 
L 626.773358 190.869998 
L 622.917377 185.363087 
L 618.871557 179.994102 
L 614.640826 174.769585 
L 610.23034 169.695901 
L 605.645471 164.779231 
L 600.891807 160.025566 
L 595.975137 155.440698 
L 590.901453 151.030211 
L 585.676936 146.799481 
L 580.307951 142.753661 
L 574.80104 138.89768 
L 569.162911 135.236236 
L 563.400435 131.773791 
L 557.520631 128.514563 
L 551.530664 125.462522 
L 545.437831 122.621388 
L 539.249556 119.99462 
L 532.973377 117.585421 
L 526.616942 115.396725 
L 520.187995 113.431199 
L 513.694368 111.691236 
L 507.143973 110.178959 
L 500.54479 108.896207 
L 493.90486 107.844546 
L 487.232273 107.025255 
L 480.535158 106.439334 
L 473.821673 106.087495 
L 467.1 105.970167 
L 460.378327 106.087495 
L 453.664842 106.439334 
L 446.967727 107.025255 
L 440.29514 107.844546 
L 433.65521 108.896207 
L 427.056027 110.178959 
L 420.505632 111.691236 
L 414.012005 113.431199 
L 407.583058 115.396725 
L 401.226623 117.585421 
L 394.950444 119.99462 
L 388.762169 122.621388 
L 382.669336 125.462522 
L 376.679369 128.514563 
L 370.799565 131.773791 
L 365.037089 135.236236 
L 359.39896 138.89768 
L 353.892049 142.753661 
L 348.523064 146.799481 
L 343.298547 151.030211 
L 338.224863 155.440698 
L 333.308193 160.025566 
L 328.554529 164.779231 
L 323.96966 169.695901 
L 319.559174 174.769585 
L 315.328443 179.994102 
L 311.282623 185.363087 
L 307.426642 190.869998 
L 303.765199 196.508126 
L 300.302754 202.270602 
L 297.043525 208.150406 
L 293.991485 214.140373 
L 291.15035 220.233206 
L 288.523583 226.421482 
L 286.114384 232.69766 
L 283.925688 239.054096 
L 281.960161 245.483043 
L 280.220199 251.97667 
L 278.707921 258.527065 
L 277.42517 265.126247 
L 276.373508 271.766177 
L 275.554218 278.438765 
L 274.968296 285.13588 
L 274.616457 291.849364 
L 274.49913 298.571037 
L 274.616457 305.292711 
L 274.968296 312.006195 
L 275.554218 318.70331 
L 276.373508 325.375898 
L 277.42517 332.015828 
L 278.707921 338.61501 
L 280.220199 345.165405 
L 281.960161 351.659032 
L 283.925688 358.087979 
L 286.114384 364.444415 
L 288.523583 370.720593 
L 291.15035 376.908869 
L 293.991485 383.001702 
L 297.043525 388.991669 
L 300.302754 394.871473 
L 303.765199 400.633949 
L 307.426642 406.272077 
L 311.282623 411.778988 
L 315.328443 417.147973 
L 319.559174 422.37249 
L 323.96966 427.446174 
L 328.554529 432.362844 
L 333.308193 437.116509 
L 338.224863 441.701377 
L 343.298547 446.111864 
L 348.523064 450.342594 
L 353.892049 454.388414 
L 359.39896 458.244395 
L 365.037089 461.905839 
L 370.799565 465.368284 
L 376.679369 468.627512 
L 382.669336 471.679553 
L 388.762169 474.520687 
L 394.950444 477.147455 
L 401.226623 479.556654 
L 407.583058 481.74535 
L 414.012005 483.710876 
L 420.505632 485.450839 
L 427.056027 486.963116 
L 433.65521 488.245868 
L 440.29514 489.297529 
L 446.967727 490.11682 
L 453.664842 490.702741 
L 460.378327 491.05458 
L 467.1 491.171907 
L 473.821673 491.05458 
L 480.535158 490.702741 
L 487.232273 490.11682 
L 493.90486 489.297529 
L 500.54479 488.245868 
L 507.143973 486.963116 
L 513.694368 485.450839 
L 520.187995 483.710876 
L 526.616942 481.74535 
L 532.973377 479.556654 
L 539.249556 477.147455 
L 545.437831 474.520687 
L 551.530664 471.679553 
L 557.520631 468.627512 
L 563.400435 465.368284 
L 569.162911 461.905839 
L 574.80104 458.244395 
L 580.307951 454.388414 
L 585.676936 450.342594 
L 590.901453 446.111864 
L 595.975137 441.701377 
L 600.891807 437.116509 
L 605.645471 432.362844 
L 610.23034 427.446174 
L 614.640826 422.37249 
L 618.871557 417.147973 
L 622.917377 411.778988 
L 626.773358 406.272077 
L 630.434801 400.633949 
L 633.897246 394.871473 
L 637.156475 388.991669 
L 640.208515 383.001702 
L 643.04965 376.908869 
L 645.676417 370.720593 
L 648.085616 364.444415 
L 650.274312 358.087979 
L 652.239839 351.659032 
L 653.979801 345.165405 
L 655.492079 338.61501 
L 656.77483 332.015828 
L 657.826492 325.375898 
L 658.645782 318.70331 
L 659.231704 312.006195 
L 659.583543 305.292711 
L 659.70087 298.571038 
L 659.70087 298.571038 
" style="fill:none;stroke:#008000;stroke-linecap:square;stroke-opacity:0.3;"/>
     </g>
     <g id="text_5">
      <!-- 8 -->
      <defs>
       <path d="M 36.53125 37.59375 
Q 51.421875 30.71875 51.421875 19 
Q 51.421875 9.96875 44.890625 4.375 
Q 38.375 -1.21875 27.78125 -1.21875 
Q 17.234375 -1.21875 10.71875 4.375 
Q 4.203125 9.96875 4.203125 19 
Q 4.203125 30.71875 19.09375 37.59375 
Q 6.984375 44.578125 6.984375 55.078125 
Q 6.984375 62.84375 12.71875 67.8125 
Q 18.453125 72.796875 27.78125 72.796875 
Q 37.15625 72.796875 42.859375 67.8125 
Q 48.578125 62.84375 48.578125 55.078125 
Q 48.578125 44.578125 36.53125 37.59375 
z
M 27.78125 41.40625 
Q 39.109375 46.484375 39.109375 55.078125 
Q 39.109375 60.015625 36.109375 62.796875 
Q 33.109375 65.578125 27.78125 65.578125 
Q 22.515625 65.578125 19.5 62.796875 
Q 16.5 60.015625 16.5 55.078125 
Q 16.5 46.484375 27.78125 41.40625 
z
M 41.890625 19 
Q 41.890625 23.640625 38.515625 26.984375 
Q 35.15625 30.328125 27.78125 33.59375 
Q 20.453125 30.328125 17.078125 26.984375 
Q 13.71875 23.640625 13.71875 19 
Q 13.71875 12.9375 17.578125 9.46875 
Q 21.4375 6 27.78125 6 
Q 34.125 6 38 9.46875 
Q 41.890625 12.9375 41.890625 19 
z
" id="MicrosoftSansSerif-38"/>
      </defs>
      <g style="fill:#333333;" transform="translate(645.040002 223.206782)scale(0.08328 -0.08328)">
       <use xlink:href="#MicrosoftSansSerif-38"/>
      </g>
     </g>
    </g>
    <g id="ytick_5">
     <g id="line2d_14">
      <path clip-path="url(#p1c5f2cf318)" d="M 707.851088 298.571037 
L 707.704428 290.168946 
L 707.26463 281.777091 
L 706.532228 273.405696 
L 705.508114 265.064962 
L 704.193538 256.76505 
L 702.590099 248.516072 
L 700.699751 240.328078 
L 698.524799 232.211044 
L 696.067891 224.17486 
L 693.33202 216.229316 
L 690.320521 208.384093 
L 687.037062 200.648748 
L 683.485644 193.032707 
L 679.670593 185.545248 
L 675.596558 178.195494 
L 671.268501 170.992398 
L 666.691697 163.944738 
L 661.871721 157.061099 
L 656.814446 150.349868 
L 651.526033 143.819221 
L 646.012925 137.477116 
L 640.281839 131.331279 
L 634.339758 125.389198 
L 628.193921 119.658113 
L 621.851816 114.145005 
L 615.32117 108.856592 
L 608.609939 103.799316 
L 601.7263 98.97934 
L 594.678639 94.402536 
L 587.475544 90.07448 
L 580.125789 86.000444 
L 572.63833 82.185393 
L 565.022289 78.633975 
L 557.286945 75.350516 
L 549.441721 72.339017 
L 541.496177 69.603147 
L 533.459993 67.146239 
L 525.342959 64.971286 
L 517.154966 63.080939 
L 508.905988 61.4775 
L 500.606075 60.162923 
L 492.265341 59.13881 
L 483.893947 58.406408 
L 475.502092 57.966609 
L 467.1 57.81995 
L 458.697908 57.966609 
L 450.306053 58.406408 
L 441.934659 59.13881 
L 433.593925 60.162923 
L 425.294012 61.4775 
L 417.045034 63.080939 
L 408.857041 64.971286 
L 400.740007 67.146239 
L 392.703823 69.603147 
L 384.758279 72.339017 
L 376.913055 75.350516 
L 369.177711 78.633975 
L 361.56167 82.185393 
L 354.074211 86.000444 
L 346.724456 90.07448 
L 339.521361 94.402536 
L 332.4737 98.97934 
L 325.590061 103.799316 
L 318.87883 108.856592 
L 312.348184 114.145005 
L 306.006079 119.658113 
L 299.860242 125.389198 
L 293.918161 131.331279 
L 288.187075 137.477116 
L 282.673967 143.819221 
L 277.385554 150.349868 
L 272.328279 157.061099 
L 267.508303 163.944738 
L 262.931499 170.992398 
L 258.603442 178.195494 
L 254.529407 185.545248 
L 250.714356 193.032707 
L 247.162938 200.648748 
L 243.879479 208.384093 
L 240.86798 216.229316 
L 238.132109 224.17486 
L 235.675201 232.211044 
L 233.500249 240.328078 
L 231.609901 248.516072 
L 230.006462 256.76505 
L 228.691886 265.064962 
L 227.667772 273.405696 
L 226.93537 281.777091 
L 226.495572 290.168946 
L 226.348912 298.571037 
L 226.495572 306.973129 
L 226.93537 315.364984 
L 227.667772 323.736379 
L 228.691886 332.077113 
L 230.006462 340.377025 
L 231.609901 348.626003 
L 233.500249 356.813997 
L 235.675201 364.931031 
L 238.132109 372.967215 
L 240.86798 380.912759 
L 243.879479 388.757982 
L 247.162938 396.493327 
L 250.714356 404.109368 
L 254.529407 411.596827 
L 258.603442 418.946581 
L 262.931499 426.149677 
L 267.508303 433.197337 
L 272.328279 440.080976 
L 277.385554 446.792207 
L 282.673967 453.322854 
L 288.187075 459.664959 
L 293.918161 465.810796 
L 299.860242 471.752877 
L 306.006079 477.483962 
L 312.348184 482.99707 
L 318.87883 488.285483 
L 325.590061 493.342759 
L 332.4737 498.162735 
L 339.521361 502.739539 
L 346.724456 507.067595 
L 354.074211 511.141631 
L 361.56167 514.956682 
L 369.177711 518.5081 
L 376.913055 521.791559 
L 384.758279 524.803058 
L 392.703823 527.538928 
L 400.740007 529.995836 
L 408.857041 532.170789 
L 417.045034 534.061136 
L 425.294012 535.664575 
L 433.593925 536.979152 
L 441.934659 538.003265 
L 450.306053 538.735667 
L 458.697908 539.175466 
L 467.1 539.322125 
L 475.502092 539.175466 
L 483.893947 538.735667 
L 492.265341 538.003265 
L 500.606075 536.979152 
L 508.905988 535.664575 
L 517.154966 534.061136 
L 525.342959 532.170789 
L 533.459993 529.995836 
L 541.496177 527.538928 
L 549.441721 524.803058 
L 557.286945 521.791559 
L 565.022289 518.5081 
L 572.63833 514.956682 
L 580.125789 511.141631 
L 587.475544 507.067595 
L 594.678639 502.739539 
L 601.7263 498.162735 
L 608.609939 493.342759 
L 615.32117 488.285483 
L 621.851816 482.99707 
L 628.193921 477.483962 
L 634.339758 471.752877 
L 640.281839 465.810796 
L 646.012925 459.664959 
L 651.526033 453.322854 
L 656.814446 446.792207 
L 661.871721 440.080976 
L 666.691697 433.197337 
L 671.268501 426.149677 
L 675.596558 418.946581 
L 679.670593 411.596827 
L 683.485644 404.109368 
L 687.037062 396.493327 
L 690.320521 388.757982 
L 693.33202 380.912759 
L 696.067891 372.967215 
L 698.524799 364.931031 
L 700.699751 356.813997 
L 702.590099 348.626003 
L 704.193538 340.377025 
L 705.508114 332.077113 
L 706.532228 323.736379 
L 707.26463 315.364984 
L 707.704428 306.973129 
L 707.851088 298.571038 
L 707.851088 298.571038 
" style="fill:none;stroke:#008000;stroke-linecap:square;stroke-opacity:0.3;"/>
     </g>
     <g id="text_6">
      <!-- 10 -->
      <defs>
       <path d="M 37.5 0 
L 28.328125 0 
L 28.328125 56.296875 
Q 22.75 52.59375 11.078125 52.59375 
L 11.078125 59.8125 
Q 27.9375 59.8125 30.421875 72.796875 
L 37.5 72.796875 
z
" id="MicrosoftSansSerif-31"/>
       <path d="M 27.78125 72.796875 
Q 51.125 72.796875 51.125 35.6875 
Q 51.125 -1.21875 27.78125 -1.21875 
Q 4.5 -1.21875 4.5 35.6875 
Q 4.5 72.796875 27.78125 72.796875 
z
M 27.78125 6 
Q 34.578125 6 38.09375 12.546875 
Q 41.609375 19.09375 41.609375 35.6875 
Q 41.609375 52.34375 38.09375 58.953125 
Q 34.578125 65.578125 27.78125 65.578125 
Q 21.046875 65.578125 17.53125 58.953125 
Q 14.015625 52.34375 14.015625 35.6875 
Q 14.015625 19.09375 17.53125 12.546875 
Q 21.046875 6 27.78125 6 
z
" id="MicrosoftSansSerif-30"/>
      </defs>
      <g style="fill:#333333;" transform="translate(689.525002 204.780491)scale(0.08328 -0.08328)">
       <use xlink:href="#MicrosoftSansSerif-31"/>
       <use x="55.615234" xlink:href="#MicrosoftSansSerif-30"/>
      </g>
     </g>
    </g>
   </g>
   <g id="line2d_15">
    <path clip-path="url(#p1c5f2cf318)" d="M 467.1 178.195494 
L 389.724092 206.358021 
L 348.553231 277.668044 
L 362.851721 358.758809 
L 425.929139 411.687048 
L 508.270861 411.687048 
L 571.348279 358.758809 
L 585.646769 277.668044 
L 544.475908 206.358021 
L 467.1 178.195494 
" style="fill:none;stroke:#0000ff;stroke-linecap:square;stroke-width:1.5;"/>
    <defs>
     <path d="M 0 3 
C 0.795609 3 1.55874 2.683901 2.12132 2.12132 
C 2.683901 1.55874 3 0.795609 3 0 
C 3 -0.795609 2.683901 -1.55874 2.12132 -2.12132 
C 1.55874 -2.683901 0.795609 -3 0 -3 
C -0.795609 -3 -1.55874 -2.683901 -2.12132 -2.12132 
C -2.683901 -1.55874 -3 -0.795609 -3 0 
C -3 0.795609 -2.683901 1.55874 -2.12132 2.12132 
C -1.55874 2.683901 -0.795609 3 0 3 
z
" id="mfadea33080" style="stroke:#0000ff;"/>
    </defs>
    <g clip-path="url(#p1c5f2cf318)">
     <use style="fill:#0000ff;stroke:#0000ff;" x="467.1" xlink:href="#mfadea33080" y="178.195494"/>
     <use style="fill:#0000ff;stroke:#0000ff;" x="389.724092" xlink:href="#mfadea33080" y="206.358021"/>
     <use style="fill:#0000ff;stroke:#0000ff;" x="348.553231" xlink:href="#mfadea33080" y="277.668044"/>
     <use style="fill:#0000ff;stroke:#0000ff;" x="362.851721" xlink:href="#mfadea33080" y="358.758809"/>
     <use style="fill:#0000ff;stroke:#0000ff;" x="425.929139" xlink:href="#mfadea33080" y="411.687048"/>
     <use style="fill:#0000ff;stroke:#0000ff;" x="508.270861" xlink:href="#mfadea33080" y="411.687048"/>
     <use style="fill:#0000ff;stroke:#0000ff;" x="571.348279" xlink:href="#mfadea33080" y="358.758809"/>
     <use style="fill:#0000ff;stroke:#0000ff;" x="585.646769" xlink:href="#mfadea33080" y="277.668044"/>
     <use style="fill:#0000ff;stroke:#0000ff;" x="544.475908" xlink:href="#mfadea33080" y="206.358021"/>
     <use style="fill:#0000ff;stroke:#0000ff;" x="467.1" xlink:href="#mfadea33080" y="178.195494"/>
    </g>
   </g>
   <g id="patch_5">
    <path d="M 707.851088 298.571037 
C 707.851088 266.955894 701.623594 235.648169 689.525002 206.439585 
C 677.426411 177.231001 659.692009 150.689593 637.336727 128.334311 
C 614.981444 105.979029 588.440036 88.244627 559.231453 76.146035 
C 530.022869 64.047444 498.715143 57.81995 467.1 57.81995 
C 435.484857 57.81995 404.177131 64.047444 374.968547 76.146035 
C 345.759964 88.244627 319.218556 105.979029 296.863273 128.334311 
C 274.507991 150.689593 256.773589 177.231001 244.674998 206.439585 
C 232.576406 235.648169 226.348912 266.955894 226.348912 298.571037 
C 226.348912 330.186181 232.576406 361.493906 244.674998 390.70249 
C 256.773589 419.911074 274.507991 446.452482 296.863273 468.807764 
C 319.218556 491.163046 345.759964 508.897448 374.968547 520.99604 
C 404.177131 533.094631 435.484857 539.322125 467.1 539.322125 
C 498.715143 539.322125 530.022869 533.094631 559.231453 520.99604 
C 588.440036 508.897448 614.981444 491.163046 637.336727 468.807764 
C 659.692009 446.452482 677.426411 419.911074 689.525002 390.70249 
C 701.623594 361.493906 707.851088 330.186181 707.851088 298.571038 
" style="fill:none;stroke:#000000;stroke-linecap:square;stroke-linejoin:miter;stroke-width:1.5;"/>
   </g>
   <g id="text_7">
    <!-- Acidity -->
    <defs>
     <path d="M 45.015625 29.296875 
L 32.421875 62.5 
L 20.40625 29.296875 
z
M 66.796875 0 
L 56.109375 0 
L 47.796875 21.78125 
L 17.828125 21.78125 
L 9.90625 0 
L -0.09375 0 
L 27.390625 71.578125 
L 37.59375 71.578125 
z
" id="MicrosoftSansSerif-41"/>
     <path d="M 27.78125 -1.21875 
Q 16.75 -1.21875 10.125 5.875 
Q 3.515625 12.984375 3.515625 25.875 
Q 3.515625 38.8125 10.125 45.890625 
Q 16.75 52.984375 27.78125 52.984375 
Q 36.28125 52.984375 41.96875 48.6875 
Q 47.65625 44.390625 48.6875 36.28125 
L 39.203125 36.28125 
Q 39.015625 40.921875 35.71875 43.359375 
Q 32.421875 45.796875 27.78125 45.796875 
Q 21.1875 45.796875 17.078125 40.796875 
Q 12.984375 35.796875 12.984375 25.875 
Q 12.984375 16.015625 17.078125 11 
Q 21.1875 6 27.78125 6 
Q 32.421875 6 35.71875 8.4375 
Q 39.015625 10.890625 39.203125 15.484375 
L 48.6875 15.484375 
Q 47.65625 7.375 41.96875 3.078125 
Q 36.28125 -1.21875 27.78125 -1.21875 
z
" id="MicrosoftSansSerif-63"/>
     <path d="M 16.015625 0 
L 6.78125 0 
L 6.78125 51.8125 
L 16.015625 51.8125 
z
M 16.015625 61.625 
L 6.78125 61.625 
L 6.78125 71.578125 
L 16.015625 71.578125 
z
" id="MicrosoftSansSerif-69"/>
     <path d="M 39.59375 14.890625 
L 39.59375 39.5 
Q 33.640625 45.796875 25.984375 45.796875 
Q 20.0625 45.796875 16.515625 40.6875 
Q 12.984375 35.59375 12.984375 25.484375 
Q 12.984375 15.921875 16.328125 10.953125 
Q 19.671875 6 25.59375 6 
Q 33.296875 6 39.59375 14.890625 
z
M 39.59375 6.203125 
Q 33.453125 -1.21875 24.8125 -1.21875 
Q 14.65625 -1.21875 9.078125 6 
Q 3.515625 13.234375 3.515625 25.484375 
Q 3.515625 38.1875 9.734375 45.578125 
Q 15.96875 52.984375 25.390625 52.984375 
Q 33.796875 52.984375 39.59375 47.796875 
L 39.59375 71.578125 
L 48.78125 71.578125 
L 48.78125 0 
L 39.59375 0 
z
" id="MicrosoftSansSerif-64"/>
     <path d="M 26.90625 -0.09375 
Q 23.875 -0.6875 20.3125 -0.6875 
Q 14.65625 -0.6875 12.015625 1.34375 
Q 9.375 3.375 8.734375 6.546875 
Q 8.109375 9.71875 8.109375 15.1875 
L 8.109375 44.578125 
L 1.703125 44.578125 
L 1.703125 51.8125 
L 8.109375 51.8125 
L 8.109375 64.703125 
L 17.28125 64.703125 
L 17.28125 51.8125 
L 25.6875 51.8125 
L 25.6875 44.578125 
L 17.28125 44.578125 
L 17.28125 14.703125 
Q 17.28125 9.375 18.625 7.9375 
Q 19.96875 6.5 22.3125 6.5 
Q 24.703125 6.5 26.90625 6.890625 
z
" id="MicrosoftSansSerif-74"/>
     <path d="M 9.71875 -12.5 
Q 16.546875 -12.5 20.90625 0 
L 1.3125 51.8125 
L 11.28125 51.8125 
L 25 11.28125 
L 38.71875 51.8125 
L 48.6875 51.8125 
L 29.109375 0 
Q 26.265625 -7.421875 24.28125 -11.453125 
Q 22.3125 -15.484375 19.109375 -18.234375 
Q 15.921875 -21 11.28125 -21 
Q 7.8125 -21 5.328125 -20.3125 
L 5.328125 -11.8125 
Q 7.46875 -12.5 9.71875 -12.5 
z
" id="MicrosoftSansSerif-79"/>
    </defs>
    <g transform="translate(467.1 31.489645)scale(0.08328 -0.08328)">
     <use xlink:href="#MicrosoftSansSerif-41"/>
     <use x="66.699219" xlink:href="#MicrosoftSansSerif-63"/>
     <use x="116.699219" xlink:href="#MicrosoftSansSerif-69"/>
     <use x="139.501953" xlink:href="#MicrosoftSansSerif-64"/>
     <use x="195.117188" xlink:href="#MicrosoftSansSerif-69"/>
     <use x="217.919922" xlink:href="#MicrosoftSansSerif-74"/>
     <use x="245.703125" xlink:href="#MicrosoftSansSerif-79"/>
    </g>
    <!-- 5.00 -->
    <defs>
     <path d="M 16.109375 43.21875 
Q 21.4375 47.515625 29.390625 47.515625 
Q 38.328125 47.515625 44.96875 41.1875 
Q 51.609375 34.859375 51.609375 24.3125 
Q 51.609375 13.28125 44.9375 6.03125 
Q 38.28125 -1.21875 27.203125 -1.21875 
Q 18.109375 -1.21875 11.65625 3.8125 
Q 5.21875 8.84375 4.203125 18.796875 
L 13.71875 18.796875 
Q 14.5 12.3125 18.234375 9.15625 
Q 21.96875 6 27.203125 6 
Q 33.84375 6 37.96875 11.03125 
Q 42.09375 16.0625 42.09375 23.484375 
Q 42.09375 31 37.890625 35.34375 
Q 33.6875 39.703125 27 39.703125 
Q 19.34375 39.703125 14.015625 33.796875 
L 6.78125 33.796875 
L 9.8125 71.578125 
L 48.1875 71.578125 
L 48.1875 63.09375 
L 17.671875 63.09375 
z
" id="MicrosoftSansSerif-35"/>
     <path d="M 18.890625 0 
L 8.890625 0 
L 8.890625 10.015625 
L 18.890625 10.015625 
z
" id="MicrosoftSansSerif-2e"/>
    </defs>
    <g transform="translate(467.1 40.391756)scale(0.08328 -0.08328)">
     <use xlink:href="#MicrosoftSansSerif-35"/>
     <use x="55.615234" xlink:href="#MicrosoftSansSerif-2e"/>
     <use x="83.398438" xlink:href="#MicrosoftSansSerif-30"/>
     <use x="139.013672" xlink:href="#MicrosoftSansSerif-30"/>
    </g>
   </g>
   <g id="text_8">
    <!-- Aftertaste -->
    <defs>
     <path d="M 17.578125 44.578125 
L 17.578125 0 
L 8.40625 0 
L 8.40625 44.578125 
L 0.78125 44.578125 
L 0.78125 51.8125 
L 8.40625 51.8125 
L 8.40625 56.390625 
Q 8.40625 72.796875 22.90625 72.796875 
Q 27.34375 72.796875 29.78125 72.21875 
L 29.78125 64.203125 
Q 27.046875 64.703125 24.21875 64.703125 
Q 20.84375 64.703125 19.203125 62.8125 
Q 17.578125 60.9375 17.578125 56.296875 
L 17.578125 51.8125 
L 27.390625 51.8125 
L 27.390625 44.578125 
z
" id="MicrosoftSansSerif-66"/>
     <path d="M 28.8125 -1.21875 
Q 17.390625 -1.21875 10.453125 5.9375 
Q 3.515625 13.09375 3.515625 25.875 
Q 3.515625 38.578125 10.21875 45.78125 
Q 16.9375 52.984375 27.78125 52.984375 
Q 38.875 52.984375 45.484375 45.890625 
Q 52.09375 38.8125 52.09375 25.875 
L 52.09375 23.6875 
L 13.09375 23.6875 
Q 13.671875 14.703125 18.03125 10.34375 
Q 22.40625 6 28.8125 6 
Q 33.640625 6 37.515625 8.46875 
Q 41.40625 10.9375 41.609375 15.484375 
L 51.125 15.484375 
Q 50.046875 7.46875 43.875 3.125 
Q 37.703125 -1.21875 28.8125 -1.21875 
z
M 42.390625 30.90625 
Q 41.265625 38.375 37.359375 42.078125 
Q 33.453125 45.796875 27.78125 45.796875 
Q 22.265625 45.796875 18.3125 42.109375 
Q 14.359375 38.421875 13.28125 30.90625 
z
" id="MicrosoftSansSerif-65"/>
     <path d="M 33.6875 43.40625 
Q 31.734375 44 28.078125 44 
Q 21.046875 44 16.015625 36.625 
L 16.015625 0 
L 6.78125 0 
L 6.78125 51.8125 
L 16.015625 51.8125 
L 16.015625 44.578125 
Q 21.828125 52.984375 29.5 52.984375 
Q 31.453125 52.984375 33.6875 52.59375 
z
" id="MicrosoftSansSerif-72"/>
     <path d="M 39.59375 13.625 
L 39.59375 25.09375 
L 33.296875 25.09375 
Q 13.28125 25.09375 13.28125 14.203125 
Q 13.28125 10.25 16.203125 8.125 
Q 19.140625 6 24.125 6 
Q 28.65625 6 32.90625 8.046875 
Q 37.15625 10.109375 39.59375 13.625 
z
M 39.59375 5.328125 
Q 32.5625 -1.21875 21.484375 -1.21875 
Q 13.765625 -1.21875 8.78125 2.953125 
Q 3.8125 7.125 3.8125 13.71875 
Q 3.8125 31.890625 35.109375 31.890625 
L 39.59375 31.890625 
Q 39.59375 37.453125 39 39.96875 
Q 38.421875 42.484375 35.734375 44.140625 
Q 33.0625 45.796875 27.203125 45.796875 
Q 14.890625 45.796875 14.5 37.015625 
L 5.328125 37.015625 
Q 6.34375 52.984375 27.6875 52.984375 
Q 37.640625 52.984375 43.203125 49.015625 
Q 48.78125 45.0625 48.78125 33.5 
L 48.78125 0 
L 39.59375 0 
z
" id="MicrosoftSansSerif-61"/>
     <path d="M 25.296875 -1.21875 
Q 4.046875 -1.21875 3.078125 15.484375 
L 12.3125 15.484375 
Q 12.40625 6 25.203125 6 
Q 30.90625 6 33.90625 8.375 
Q 36.921875 10.75 36.921875 14.3125 
Q 36.921875 17.828125 33.984375 19.265625 
Q 31.0625 20.703125 21.90625 23 
Q 12.75 25.296875 8.515625 28.125 
Q 4.296875 30.953125 4.296875 38.09375 
Q 4.296875 44.53125 9.546875 48.75 
Q 14.796875 52.984375 23.578125 52.984375 
Q 43.953125 52.984375 44.390625 38.484375 
L 35.203125 38.484375 
Q 34.71875 45.796875 24.21875 45.796875 
Q 19.578125 45.796875 16.53125 44.03125 
Q 13.484375 42.28125 13.484375 38.921875 
Q 13.484375 35.890625 15.828125 34.546875 
Q 18.171875 33.203125 27.5625 30.921875 
Q 36.96875 28.65625 41.53125 25.625 
Q 46.09375 22.609375 46.09375 15.1875 
Q 46.09375 8.109375 40.453125 3.4375 
Q 34.8125 -1.21875 25.296875 -1.21875 
z
" id="MicrosoftSansSerif-73"/>
    </defs>
    <g transform="translate(261.233066 93.447205)scale(0.08328 -0.08328)">
     <use xlink:href="#MicrosoftSansSerif-41"/>
     <use x="66.699219" xlink:href="#MicrosoftSansSerif-66"/>
     <use x="94.482422" xlink:href="#MicrosoftSansSerif-74"/>
     <use x="122.265625" xlink:href="#MicrosoftSansSerif-65"/>
     <use x="177.880859" xlink:href="#MicrosoftSansSerif-72"/>
     <use x="211.181641" xlink:href="#MicrosoftSansSerif-74"/>
     <use x="238.964844" xlink:href="#MicrosoftSansSerif-61"/>
     <use x="294.580078" xlink:href="#MicrosoftSansSerif-73"/>
     <use x="344.580078" xlink:href="#MicrosoftSansSerif-74"/>
     <use x="372.363281" xlink:href="#MicrosoftSansSerif-65"/>
    </g>
    <!-- 5.00 -->
    <g transform="translate(280.665934 102.25953)scale(0.08328 -0.08328)">
     <use xlink:href="#MicrosoftSansSerif-35"/>
     <use x="55.615234" xlink:href="#MicrosoftSansSerif-2e"/>
     <use x="83.398438" xlink:href="#MicrosoftSansSerif-30"/>
     <use x="139.013672" xlink:href="#MicrosoftSansSerif-30"/>
    </g>
   </g>
   <g id="text_9">
    <!-- Clean Cup -->
    <defs>
     <path d="M 37.984375 -1.21875 
Q 22.796875 -1.21875 13.734375 8.765625 
Q 4.6875 18.75 4.6875 35.796875 
Q 4.6875 52.828125 13.734375 62.8125 
Q 22.796875 72.796875 37.984375 72.796875 
Q 49.65625 72.796875 57.859375 66.5 
Q 66.0625 60.203125 67.09375 49.90625 
L 57.328125 49.90625 
Q 56.734375 56.6875 51.4375 60.6875 
Q 46.140625 64.703125 38.09375 64.703125 
Q 27.203125 64.703125 20.84375 57.203125 
Q 14.5 49.703125 14.5 35.796875 
Q 14.5 21.921875 20.796875 14.40625 
Q 27.09375 6.890625 37.890625 6.890625 
Q 46.296875 6.890625 51.46875 10.984375 
Q 56.640625 15.09375 57.328125 22.703125 
L 67.09375 22.703125 
Q 66.0625 11.28125 58.09375 5.03125 
Q 50.140625 -1.21875 37.984375 -1.21875 
z
" id="MicrosoftSansSerif-43"/>
     <path d="M 16.015625 0 
L 6.78125 0 
L 6.78125 71.578125 
L 16.015625 71.578125 
z
" id="MicrosoftSansSerif-6c"/>
     <path d="M 16.015625 45.21875 
Q 22.90625 52.984375 31.5 52.984375 
Q 49.03125 52.984375 49.03125 33.890625 
L 49.03125 0 
L 39.796875 0 
L 39.796875 33.5 
Q 39.796875 39.84375 37.515625 42.625 
Q 35.25 45.40625 30.078125 45.40625 
Q 23.046875 45.40625 16.015625 37.109375 
L 16.015625 0 
L 6.78125 0 
L 6.78125 51.8125 
L 16.015625 51.8125 
z
" id="MicrosoftSansSerif-6e"/>
     <path d="M 39.59375 6.59375 
Q 32.71875 -1.21875 24.125 -1.21875 
Q 6.59375 -1.21875 6.59375 17.921875 
L 6.59375 51.8125 
L 15.828125 51.8125 
L 15.828125 18.3125 
Q 15.828125 11.96875 18.0625 9.171875 
Q 20.3125 6.390625 25.484375 6.390625 
Q 33.203125 6.390625 39.59375 14.703125 
L 39.59375 51.8125 
L 48.78125 51.8125 
L 48.78125 0 
L 39.59375 0 
z
" id="MicrosoftSansSerif-75"/>
     <path d="M 16.015625 45.609375 
Q 22.171875 52.984375 30.8125 52.984375 
Q 40.96875 52.984375 46.53125 45.78125 
Q 52.09375 38.578125 52.09375 26.3125 
Q 52.09375 13.578125 45.875 6.171875 
Q 39.65625 -1.21875 30.171875 -1.21875 
Q 21.78125 -1.21875 16.015625 4 
L 16.015625 -19.921875 
L 6.78125 -19.921875 
L 6.78125 51.8125 
L 16.015625 51.8125 
z
M 16.015625 12.3125 
Q 21.921875 6 29.59375 6 
Q 35.546875 6 39.0625 11.109375 
Q 42.578125 16.21875 42.578125 26.3125 
Q 42.578125 35.890625 39.25 40.84375 
Q 35.9375 45.796875 29.984375 45.796875 
Q 22.3125 45.796875 16.015625 36.921875 
z
" id="MicrosoftSansSerif-70"/>
    </defs>
    <g transform="translate(167.001961 250.380003)scale(0.08328 -0.08328)">
     <use xlink:href="#MicrosoftSansSerif-43"/>
     <use x="72.216797" xlink:href="#MicrosoftSansSerif-6c"/>
     <use x="95.019531" xlink:href="#MicrosoftSansSerif-65"/>
     <use x="150.634766" xlink:href="#MicrosoftSansSerif-61"/>
     <use x="206.25" xlink:href="#MicrosoftSansSerif-6e"/>
     <use x="261.865234" xlink:href="#MicrosoftSansSerif-20"/>
     <use x="288.427734" xlink:href="#MicrosoftSansSerif-43"/>
     <use x="360.644531" xlink:href="#MicrosoftSansSerif-75"/>
     <use x="416.259766" xlink:href="#MicrosoftSansSerif-70"/>
    </g>
    <!-- 5.00 -->
    <g transform="translate(190.09004 259.192329)scale(0.08328 -0.08328)">
     <use xlink:href="#MicrosoftSansSerif-35"/>
     <use x="55.615234" xlink:href="#MicrosoftSansSerif-2e"/>
     <use x="83.398438" xlink:href="#MicrosoftSansSerif-30"/>
     <use x="139.013672" xlink:href="#MicrosoftSansSerif-30"/>
    </g>
   </g>
   <g id="text_10">
    <!-- Head -->
    <defs>
     <path d="M 64.203125 0 
L 54.6875 0 
L 54.6875 33.6875 
L 17.484375 33.6875 
L 17.484375 0 
L 8.015625 0 
L 8.015625 71.578125 
L 17.484375 71.578125 
L 17.484375 42.1875 
L 54.6875 42.1875 
L 54.6875 71.578125 
L 64.203125 71.578125 
z
" id="MicrosoftSansSerif-48"/>
    </defs>
    <g transform="translate(217.845963 428.728939)scale(0.08328 -0.08328)">
     <use xlink:href="#MicrosoftSansSerif-48"/>
     <use x="72.216797" xlink:href="#MicrosoftSansSerif-65"/>
     <use x="127.832031" xlink:href="#MicrosoftSansSerif-61"/>
     <use x="183.447266" xlink:href="#MicrosoftSansSerif-64"/>
    </g>
    <!-- 5.00 -->
    <g transform="translate(221.546718 437.541265)scale(0.08328 -0.08328)">
     <use xlink:href="#MicrosoftSansSerif-35"/>
     <use x="55.615234" xlink:href="#MicrosoftSansSerif-2e"/>
     <use x="83.398438" xlink:href="#MicrosoftSansSerif-30"/>
     <use x="139.013672" xlink:href="#MicrosoftSansSerif-30"/>
    </g>
   </g>
   <g id="text_11">
    <!-- Fragrance -->
    <defs>
     <path d="M 56.296875 63.09375 
L 17.484375 63.09375 
L 17.484375 40.921875 
L 51.125 40.921875 
L 51.125 32.421875 
L 17.484375 32.421875 
L 17.484375 0 
L 8.015625 0 
L 8.015625 71.578125 
L 56.296875 71.578125 
z
" id="MicrosoftSansSerif-46"/>
     <path d="M 48.78125 4 
Q 48.78125 -21 26.21875 -21 
Q 16.453125 -21 10.8125 -16.75 
Q 5.171875 -12.5 5.171875 -5.328125 
L 14.703125 -5.328125 
Q 14.703125 -13.8125 26.125 -13.8125 
Q 32.5625 -13.8125 36.078125 -10.265625 
Q 39.59375 -6.734375 39.59375 3.609375 
L 39.59375 6.203125 
Q 33.453125 -1.21875 24.8125 -1.21875 
Q 14.65625 -1.21875 9.078125 6 
Q 3.515625 13.234375 3.515625 25.484375 
Q 3.515625 38.1875 9.734375 45.578125 
Q 15.96875 52.984375 25.390625 52.984375 
Q 33.796875 52.984375 39.59375 47.796875 
L 39.59375 51.8125 
L 48.78125 51.8125 
z
M 39.59375 14.890625 
L 39.59375 39.5 
Q 33.640625 45.796875 25.984375 45.796875 
Q 20.0625 45.796875 16.515625 40.6875 
Q 12.984375 35.59375 12.984375 25.484375 
Q 12.984375 15.921875 16.328125 10.953125 
Q 19.671875 6 25.59375 6 
Q 33.296875 6 39.59375 14.890625 
z
" id="MicrosoftSansSerif-67"/>
    </defs>
    <g transform="translate(338.571849 545.171064)scale(0.08328 -0.08328)">
     <use xlink:href="#MicrosoftSansSerif-46"/>
     <use x="61.083984" xlink:href="#MicrosoftSansSerif-72"/>
     <use x="94.384766" xlink:href="#MicrosoftSansSerif-61"/>
     <use x="150" xlink:href="#MicrosoftSansSerif-67"/>
     <use x="205.615234" xlink:href="#MicrosoftSansSerif-72"/>
     <use x="238.916016" xlink:href="#MicrosoftSansSerif-61"/>
     <use x="294.53125" xlink:href="#MicrosoftSansSerif-6e"/>
     <use x="350.146484" xlink:href="#MicrosoftSansSerif-63"/>
     <use x="400.146484" xlink:href="#MicrosoftSansSerif-65"/>
    </g>
    <!-- 5.00 -->
    <g transform="translate(360.317038 554.073175)scale(0.08328 -0.08328)">
     <use xlink:href="#MicrosoftSansSerif-35"/>
     <use x="55.615234" xlink:href="#MicrosoftSansSerif-2e"/>
     <use x="83.398438" xlink:href="#MicrosoftSansSerif-30"/>
     <use x="139.013672" xlink:href="#MicrosoftSansSerif-30"/>
    </g>
   </g>
   <g id="text_12">
    <!-- Sweetness -->
    <defs>
     <path d="M 35.015625 -1.21875 
Q 19.875 -1.21875 12.375 5.5625 
Q 4.890625 12.359375 4.5 23 
L 13.625 23 
Q 14.359375 14.984375 20.28125 11.15625 
Q 26.21875 7.328125 34.625 7.328125 
Q 42.578125 7.328125 47.4375 10.59375 
Q 52.296875 13.875 52.296875 19.484375 
Q 52.296875 25.390625 47.265625 28.078125 
Q 42.234375 30.765625 29.953125 33.375 
Q 17.671875 35.984375 12.328125 40.625 
Q 6.984375 45.265625 6.984375 52.984375 
Q 6.984375 61.671875 13.9375 67.234375 
Q 20.90625 72.796875 32.421875 72.796875 
Q 44.53125 72.796875 51.953125 67.1875 
Q 59.375 61.578125 59.8125 51.3125 
L 50.59375 51.3125 
Q 49.171875 64.3125 32.8125 64.3125 
Q 24.90625 64.3125 20.5625 61.328125 
Q 16.21875 58.34375 16.21875 53.421875 
Q 16.21875 48.921875 19.703125 46.671875 
Q 23.1875 44.4375 32.734375 42.328125 
Q 42.28125 40.234375 47.890625 38.1875 
Q 53.515625 36.140625 57.515625 31.8125 
Q 61.53125 27.484375 61.53125 20.21875 
Q 61.53125 10.984375 54.171875 4.875 
Q 46.828125 -1.21875 35.015625 -1.21875 
z
" id="MicrosoftSansSerif-53"/>
     <path d="M 71.6875 51.8125 
L 56.109375 0 
L 47.3125 0 
L 36.078125 38.09375 
L 24.90625 0 
L 16.109375 0 
L 0.484375 51.8125 
L 10.6875 51.8125 
L 20.21875 12.3125 
L 31.890625 51.8125 
L 40.28125 51.8125 
L 52 12.3125 
L 61.53125 51.8125 
z
" id="MicrosoftSansSerif-77"/>
    </defs>
    <g transform="translate(557.675894 545.171064)scale(0.08328 -0.08328)">
     <use xlink:href="#MicrosoftSansSerif-53"/>
     <use x="66.699219" xlink:href="#MicrosoftSansSerif-77"/>
     <use x="138.916016" xlink:href="#MicrosoftSansSerif-65"/>
     <use x="194.53125" xlink:href="#MicrosoftSansSerif-65"/>
     <use x="250.146484" xlink:href="#MicrosoftSansSerif-74"/>
     <use x="277.929688" xlink:href="#MicrosoftSansSerif-6e"/>
     <use x="333.544922" xlink:href="#MicrosoftSansSerif-65"/>
     <use x="389.160156" xlink:href="#MicrosoftSansSerif-73"/>
     <use x="439.160156" xlink:href="#MicrosoftSansSerif-73"/>
    </g>
    <!-- 5.00 -->
    <g transform="translate(557.675894 553.983389)scale(0.08328 -0.08328)">
     <use xlink:href="#MicrosoftSansSerif-35"/>
     <use x="55.615234" xlink:href="#MicrosoftSansSerif-2e"/>
     <use x="83.398438" xlink:href="#MicrosoftSansSerif-30"/>
     <use x="139.013672" xlink:href="#MicrosoftSansSerif-30"/>
    </g>
   </g>
   <g id="text_13">
    <!-- Aroma -->
    <defs>
     <path d="M 27.78125 52.984375 
Q 38.875 52.984375 45.484375 45.890625 
Q 52.09375 38.8125 52.09375 25.875 
Q 52.09375 12.984375 45.484375 5.875 
Q 38.875 -1.21875 27.78125 -1.21875 
Q 16.75 -1.21875 10.125 5.875 
Q 3.515625 12.984375 3.515625 25.875 
Q 3.515625 38.8125 10.125 45.890625 
Q 16.75 52.984375 27.78125 52.984375 
z
M 27.78125 6 
Q 34.375 6 38.46875 11 
Q 42.578125 16.015625 42.578125 25.875 
Q 42.578125 35.796875 38.46875 40.796875 
Q 34.375 45.796875 27.78125 45.796875 
Q 21.1875 45.796875 17.078125 40.796875 
Q 12.984375 35.796875 12.984375 25.875 
Q 12.984375 16.015625 17.078125 11 
Q 21.1875 6 27.78125 6 
z
" id="MicrosoftSansSerif-6f"/>
     <path d="M 76.8125 0 
L 67.578125 0 
L 67.578125 33.5 
Q 67.578125 39.9375 65.71875 42.671875 
Q 63.875 45.40625 59.515625 45.40625 
Q 52.828125 45.40625 46.390625 37.109375 
L 46.390625 0 
L 37.203125 0 
L 37.203125 33.5 
Q 37.203125 39.9375 35.34375 42.671875 
Q 33.5 45.40625 29.109375 45.40625 
Q 22.40625 45.40625 16.015625 37.109375 
L 16.015625 0 
L 6.78125 0 
L 6.78125 51.8125 
L 16.015625 51.8125 
L 16.015625 45.21875 
Q 22.5625 52.984375 30.515625 52.984375 
Q 41.890625 52.984375 45.015625 43.609375 
Q 50.203125 49.703125 53.8125 51.34375 
Q 57.421875 52.984375 60.890625 52.984375 
Q 76.8125 52.984375 76.8125 33.890625 
z
" id="MicrosoftSansSerif-6d"/>
    </defs>
    <g transform="translate(696.446214 428.728939)scale(0.08328 -0.08328)">
     <use xlink:href="#MicrosoftSansSerif-41"/>
     <use x="66.699219" xlink:href="#MicrosoftSansSerif-72"/>
     <use x="100" xlink:href="#MicrosoftSansSerif-6f"/>
     <use x="155.615234" xlink:href="#MicrosoftSansSerif-6d"/>
     <use x="238.916016" xlink:href="#MicrosoftSansSerif-61"/>
    </g>
    <!-- 5.00 -->
    <g transform="translate(696.446214 437.541264)scale(0.08328 -0.08328)">
     <use xlink:href="#MicrosoftSansSerif-35"/>
     <use x="55.615234" xlink:href="#MicrosoftSansSerif-2e"/>
     <use x="83.398438" xlink:href="#MicrosoftSansSerif-30"/>
     <use x="139.013672" xlink:href="#MicrosoftSansSerif-30"/>
    </g>
   </g>
   <g id="text_14">
    <!-- Balance -->
    <defs>
     <path d="M 61.53125 20.796875 
Q 61.53125 10.75 54.6875 5.375 
Q 47.859375 0 34.8125 0 
L 8.015625 0 
L 8.015625 71.578125 
L 33.5 71.578125 
Q 44.921875 71.578125 51.46875 66.6875 
Q 58.015625 61.8125 58.015625 53.328125 
Q 58.015625 42.96875 47.703125 37.984375 
Q 54.640625 36.234375 58.078125 31.515625 
Q 61.53125 26.8125 61.53125 20.796875 
z
M 17.484375 41.609375 
L 33.40625 41.609375 
Q 41.265625 41.609375 44.96875 44.109375 
Q 48.6875 46.625 48.6875 52.484375 
Q 48.6875 57.765625 45.0625 60.421875 
Q 41.453125 63.09375 32.515625 63.09375 
L 17.484375 63.09375 
z
M 17.484375 8.5 
L 34.71875 8.5 
Q 51.703125 8.5 51.703125 20.796875 
Q 51.703125 27.203125 47.765625 30.15625 
Q 43.84375 33.109375 33.5 33.109375 
L 17.484375 33.109375 
z
" id="MicrosoftSansSerif-42"/>
    </defs>
    <g transform="translate(727.902891 250.329255)scale(0.08328 -0.08328)">
     <use xlink:href="#MicrosoftSansSerif-42"/>
     <use x="66.699219" xlink:href="#MicrosoftSansSerif-61"/>
     <use x="122.314453" xlink:href="#MicrosoftSansSerif-6c"/>
     <use x="145.117188" xlink:href="#MicrosoftSansSerif-61"/>
     <use x="200.732422" xlink:href="#MicrosoftSansSerif-6e"/>
     <use x="256.347656" xlink:href="#MicrosoftSansSerif-63"/>
     <use x="306.347656" xlink:href="#MicrosoftSansSerif-65"/>
    </g>
    <!-- 5.00 -->
    <g transform="translate(727.902891 259.14158)scale(0.08328 -0.08328)">
     <use xlink:href="#MicrosoftSansSerif-35"/>
     <use x="55.615234" xlink:href="#MicrosoftSansSerif-2e"/>
     <use x="83.398438" xlink:href="#MicrosoftSansSerif-30"/>
     <use x="139.013672" xlink:href="#MicrosoftSansSerif-30"/>
    </g>
   </g>
   <g id="text_15">
    <!-- Body -->
    <g transform="translate(637.326998 93.447205)scale(0.08328 -0.08328)">
     <use xlink:href="#MicrosoftSansSerif-42"/>
     <use x="66.699219" xlink:href="#MicrosoftSansSerif-6f"/>
     <use x="122.314453" xlink:href="#MicrosoftSansSerif-64"/>
     <use x="177.929688" xlink:href="#MicrosoftSansSerif-79"/>
    </g>
    <!-- 5.00 -->
    <g transform="translate(637.326998 102.349317)scale(0.08328 -0.08328)">
     <use xlink:href="#MicrosoftSansSerif-35"/>
     <use x="55.615234" xlink:href="#MicrosoftSansSerif-2e"/>
     <use x="83.398438" xlink:href="#MicrosoftSansSerif-30"/>
     <use x="139.013672" xlink:href="#MicrosoftSansSerif-30"/>
    </g>
   </g>
   <g id="text_16">
    <g id="patch_6">
     <path d="M 442.126875 310.921662 
L 492.073125 310.921662 
L 492.073125 280.021662 
L 442.126875 280.021662 
z
" style="fill:#ffff00;opacity:0.3;stroke:#000000;stroke-linejoin:miter;"/>
    </g>
    <!-- 50.00 -->
    <g style="fill:#0000ff;" transform="translate(452.086875 298.571037)scale(0.12 -0.12)">
     <use xlink:href="#MicrosoftSansSerif-35"/>
     <use x="55.615234" xlink:href="#MicrosoftSansSerif-30"/>
     <use x="111.230469" xlink:href="#MicrosoftSansSerif-2e"/>
     <use x="139.013672" xlink:href="#MicrosoftSansSerif-30"/>
     <use x="194.628906" xlink:href="#MicrosoftSansSerif-30"/>
    </g>
   </g>
   <g id="text_17">
    <!--  - -->
    <g style="opacity:0;" transform="translate(462.790125 12.507391)scale(0.144 -0.144)">
     <use xlink:href="#MicrosoftSansSerif-20"/>
     <use x="26.5625" xlink:href="#MicrosoftSansSerif-2d"/>
    </g>
    <!--   -->
    <g style="opacity:0;" transform="translate(465.1875 27.744841)scale(0.144 -0.144)">
     <use xlink:href="#MicrosoftSansSerif-20"/>
    </g>
   </g>
  </g>
 </g>
 <defs>
  <clipPath id="p1c5f2cf318">
   <path d="M 707.851088 298.571037 
C 707.851088 266.955894 701.623594 235.648169 689.525002 206.439585 
C 677.426411 177.231001 659.692009 150.689593 637.336727 128.334311 
C 614.981444 105.979029 588.440036 88.244627 559.231453 76.146035 
C 530.022869 64.047444 498.715143 57.81995 467.1 57.81995 
C 435.484857 57.81995 404.177131 64.047444 374.968547 76.146035 
C 345.759964 88.244627 319.218556 105.979029 296.863273 128.334311 
C 274.507991 150.689593 256.773589 177.231001 244.674998 206.439585 
C 232.576406 235.648169 226.348912 266.955894 226.348912 298.571037 
C 226.348912 330.186181 232.576406 361.493906 244.674998 390.70249 
C 256.773589 419.911074 274.507991 446.452482 296.863273 468.807764 
C 319.218556 491.163046 345.759964 508.897448 374.968547 520.99604 
C 404.177131 533.094631 435.484857 539.322125 467.1 539.322125 
C 498.715143 539.322125 530.022869 533.094631 559.231453 520.99604 
C 588.440036 508.897448 614.981444 491.163046 637.336727 468.807764 
C 659.692009 446.452482 677.426411 419.911074 689.525002 390.70249 
C 701.623594 361.493906 707.851088 330.186181 707.851088 298.571038 
M 467.1 298.571037 
C 467.1 298.571037 467.1 298.571037 467.1 298.571037 
C 467.1 298.571037 467.1 298.571037 467.1 298.571037 
C 467.1 298.571037 467.1 298.571037 467.1 298.571037 
C 467.1 298.571037 467.1 298.571037 467.1 298.571037 
C 467.1 298.571037 467.1 298.571037 467.1 298.571037 
C 467.1 298.571037 467.1 298.571037 467.1 298.571037 
C 467.1 298.571037 467.1 298.571037 467.1 298.571037 
C 467.1 298.571037 467.1 298.571037 467.1 298.571037 
C 467.1 298.571037 467.1 298.571037 467.1 298.571037 
C 467.1 298.571037 467.1 298.571037 467.1 298.571037 
C 467.1 298.571037 467.1 298.571037 467.1 298.571037 
C 467.1 298.571037 467.1 298.571037 467.1 298.571037 
C 467.1 298.571037 467.1 298.571037 467.1 298.571037 
C 467.1 298.571037 467.1 298.571037 467.1 298.571037 
C 467.1 298.571037 467.1 298.571037 467.1 298.571037 
C 467.1 298.571037 467.1 298.571037 467.1 298.571037 
M 707.851088 298.571037 
z
"/>
  </clipPath>
 </defs>
</svg>
