<?xml version="1.0" encoding="utf-8" standalone="no"?>
<!DOCTYPE svg PUBLIC "-//W3C//DTD SVG 1.1//EN"
  "http://www.w3.org/Graphics/SVG/1.1/DTD/svg11.dtd">
<!-- Created with matplotlib (http://matplotlib.org/) -->
<svg height="793.2pt" version="1.1" viewBox="0 0 1030.8 793.2" width="1030.8pt" xmlns="http://www.w3.org/2000/svg" xmlns:xlink="http://www.w3.org/1999/xlink">
 <defs>
  <style type="text/css">
*{stroke-linecap:butt;stroke-linejoin:round;}
  </style>
 </defs>
 <g id="figure_1">
  <g id="patch_1">
   <path d="M 0 793.2 
L 1030.8 793.2 
L 1030.8 0 
L 0 0 
z
" style="fill:#ffffff;"/>
  </g>
  <g id="axes_1">
   <g id="patch_2">
    <path d="M 862.735181 415.786944 
C 862.735181 370.175306 853.750683 325.007183 836.295865 282.867524 
C 818.841047 240.727866 793.255361 202.43618 761.003062 170.183882 
C 728.750763 137.931583 690.459078 112.345897 648.319419 94.891079 
C 606.17976 77.436261 561.011638 68.451763 515.4 68.451763 
C 469.788362 68.451763 424.62024 77.436261 382.480581 94.891079 
C 340.340922 112.345897 302.049237 137.931583 269.796938 170.183882 
C 237.544639 202.43618 211.958953 240.727866 194.504135 282.867524 
C 177.049317 325.007183 168.064819 370.175306 168.064819 415.786944 
C 168.064819 461.398582 177.049317 506.566704 194.504135 548.706363 
C 211.958953 590.846022 237.544639 629.137707 269.796938 661.390006 
C 302.049237 693.642304 340.340922 719.22799 382.480581 736.682809 
C 424.62024 754.137627 469.788362 763.122125 515.4 763.122125 
C 561.011638 763.122125 606.17976 754.137627 648.319419 736.682809 
C 690.459078 719.22799 728.750763 693.642304 761.003062 661.390006 
C 793.255361 629.137707 818.841047 590.846022 836.295865 548.706363 
C 853.750683 506.566704 862.735181 461.398582 862.735181 415.786944 
M 515.4 415.786944 
C 515.4 415.786944 515.4 415.786944 515.4 415.786944 
C 515.4 415.786944 515.4 415.786944 515.4 415.786944 
C 515.4 415.786944 515.4 415.786944 515.4 415.786944 
C 515.4 415.786944 515.4 415.786944 515.4 415.786944 
C 515.4 415.786944 515.4 415.786944 515.4 415.786944 
C 515.4 415.786944 515.4 415.786944 515.4 415.786944 
C 515.4 415.786944 515.4 415.786944 515.4 415.786944 
C 515.4 415.786944 515.4 415.786944 515.4 415.786944 
C 515.4 415.786944 515.4 415.786944 515.4 415.786944 
C 515.4 415.786944 515.4 415.786944 515.4 415.786944 
C 515.4 415.786944 515.4 415.786944 515.4 415.786944 
C 515.4 415.786944 515.4 415.786944 515.4 415.786944 
C 515.4 415.786944 515.4 415.786944 515.4 415.786944 
C 515.4 415.786944 515.4 415.786944 515.4 415.786944 
C 515.4 415.786944 515.4 415.786944 515.4 415.786944 
C 515.4 415.786944 515.4 415.786944 515.4 415.786944 
M 862.735181 415.786944 
z
" style="fill:none;"/>
   </g>
   <g id="PolyCollection_1">
    <path clip-path="url(#pe126ff5f5a)" d="M 515.4 415.786944 
L 515.4 415.786944 
L 515.4 415.786944 
L 515.4 415.786944 
L 515.4 415.786944 
L 515.4 415.786944 
L 515.4 415.786944 
L 515.4 415.786944 
L 515.4 415.786944 
L 515.4 415.786944 
L 515.4 415.786944 
L 515.4 415.786944 
L 515.4 242.119353 
L 627.031375 282.749851 
L 686.42919 385.629883 
L 665.800545 502.620739 
L 574.797814 578.981097 
L 456.002186 578.981097 
L 364.999455 502.620739 
L 344.37081 385.629883 
L 403.768625 282.749851 
L 515.4 242.119353 
z
" style="fill:#008000;fill-opacity:0.1;"/>
   </g>
   <g id="patch_3">
    <path clip-path="url(#pe126ff5f5a)" d="M 308.040029 436.592338 
L 309.755588 449.571524 
L 312.282731 462.417377 
L 315.611486 475.079202 
L 319.728715 487.507027 
L 324.618169 499.651805 
L 330.260551 511.465607 
L 336.633595 522.901809 
L 343.712147 533.915278 
L 351.468274 544.462548 
L 359.871363 554.501995 
L 368.888254 563.993996 
L 378.483359 572.901092 
L 388.618812 581.18813 
L 399.254612 588.822405 
L 410.348785 595.773789 
L 421.857547 602.014846 
L 433.735478 607.520947 
L 445.935702 612.270362 
L 458.41007 616.244346 
L 471.109351 619.427216 
L 483.983427 621.806411 
L 496.98149 623.372542 
L 510.052242 624.119427 
L 523.1441 624.044119 
L 536.205395 623.146915 
L 549.18458 621.431356 
L 562.030434 618.904212 
L 574.692258 615.575458 
L 587.120083 611.458229 
L 599.264861 606.568775 
L 611.078663 600.926393 
L 622.514866 594.553349 
L 633.528334 587.474796 
L 644.075605 579.71867 
L 654.115051 571.31558 
L 663.607052 562.29869 
L 672.514148 552.703585 
L 680.801186 542.568132 
L 688.435462 531.932332 
L 695.386845 520.838159 
L 701.627902 509.329397 
L 707.134003 497.451465 
L 711.883418 485.251241 
L 715.857402 472.776874 
L 719.040272 460.077593 
L 721.419468 447.203517 
L 722.985598 434.205454 
L 723.732483 421.134701 
L 723.657175 408.042844 
L 722.759971 394.981549 
L 721.044412 382.002363 
L 718.517269 369.15651 
L 715.188514 356.494686 
L 711.071285 344.066861 
L 706.181831 331.922082 
L 700.539449 320.10828 
L 694.166405 308.672078 
L 687.087853 297.658609 
L 679.331726 287.111339 
L 670.928637 277.071893 
L 661.911746 267.579891 
L 652.316641 258.672796 
L 642.181188 250.385757 
L 631.545388 242.751482 
L 620.451215 235.800099 
L 608.942453 229.559041 
L 597.064522 224.05294 
L 584.864298 219.303526 
L 572.38993 215.329542 
L 559.690649 212.146671 
L 546.816573 209.767476 
L 533.81851 208.201345 
L 520.747758 207.45446 
L 507.6559 207.529768 
L 494.594605 208.426972 
L 481.61542 210.142532 
L 468.769566 212.669675 
L 456.107742 215.99843 
L 443.679917 220.115659 
L 431.535139 225.005112 
L 419.721337 230.647495 
L 408.285134 237.020538 
L 397.271666 244.099091 
L 386.724395 251.855217 
L 376.684949 260.258307 
L 367.192948 269.275198 
L 358.285852 278.870303 
L 349.998814 289.005756 
L 342.364538 299.641556 
L 335.413155 310.735729 
L 329.172098 322.244491 
L 323.665997 334.122422 
L 318.916582 346.322646 
L 314.942598 358.797014 
L 311.759728 371.496295 
L 309.380532 384.370371 
L 307.814402 397.368434 
L 307.067517 410.439186 
L 307.142825 423.531043 
L 308.040029 436.592338 
L 307.694429 436.627014 
L 307.348829 436.66169 
L 307.003229 436.696365 
L 306.657629 436.731041 
L 306.312029 436.765717 
L 305.966429 436.800392 
L 305.620829 436.835068 
L 305.275229 436.869744 
L 304.929629 436.904419 
L 304.584029 436.939095 
L 304.238429 436.973771 
L 303.892829 437.008446 
L 303.547229 437.043122 
L 303.201629 437.077798 
L 302.856029 437.112473 
L 302.51043 437.147149 
L 302.16483 437.181825 
L 301.81923 437.2165 
L 301.47363 437.251176 
L 301.12803 437.285852 
L 300.78243 437.320527 
L 300.43683 437.355203 
L 300.09123 437.389879 
L 299.74563 437.424554 
L 299.40003 437.45923 
L 299.05443 437.493906 
L 298.70883 437.528581 
L 298.36323 437.563257 
L 298.01763 437.597933 
L 297.67203 437.632608 
L 297.32643 437.667284 
L 296.98083 437.70196 
L 296.63523 437.736635 
L 296.28963 437.771311 
L 295.94403 437.805986 
L 295.59843 437.840662 
L 295.252831 437.875338 
L 294.907231 437.910013 
L 294.561631 437.944689 
L 294.216031 437.979365 
L 293.870431 438.01404 
L 293.524831 438.048716 
L 293.179231 438.083392 
L 292.833631 438.118067 
L 292.488031 438.152743 
L 292.142431 438.187419 
L 291.796831 438.222094 
L 291.451231 438.25677 
L 291.105631 438.291446 
L 290.760031 438.326121 
L 290.414431 438.360797 
L 290.068831 438.395473 
L 289.723231 438.430148 
L 289.377631 438.464824 
L 289.032031 438.4995 
L 288.686431 438.534175 
L 288.340831 438.568851 
L 287.995232 438.603527 
L 287.649632 438.638202 
L 287.304032 438.672878 
L 286.958432 438.707554 
L 286.612832 438.742229 
L 286.267232 438.776905 
L 285.921632 438.811581 
L 285.576032 438.846256 
L 285.230432 438.880932 
L 284.884832 438.915608 
L 284.539232 438.950283 
L 284.193632 438.984959 
L 283.848032 439.019635 
L 283.502432 439.05431 
L 283.156832 439.088986 
L 282.811232 439.123661 
L 282.465632 439.158337 
L 282.120032 439.193013 
L 281.774432 439.227688 
L 281.428832 439.262364 
L 281.083232 439.29704 
L 280.737633 439.331715 
L 280.392033 439.366391 
L 280.046433 439.401067 
L 279.700833 439.435742 
L 279.355233 439.470418 
L 279.009633 439.505094 
L 278.664033 439.539769 
L 278.318433 439.574445 
L 277.972833 439.609121 
L 277.627233 439.643796 
L 277.281633 439.678472 
L 276.936033 439.713148 
L 276.590433 439.747823 
L 276.244833 439.782499 
L 275.899233 439.817175 
L 275.553633 439.85185 
L 275.208033 439.886526 
L 274.862433 439.921202 
L 274.516833 439.955877 
L 274.171233 439.990553 
L 273.825633 440.025229 
L 273.480034 440.059904 
L 272.433296 424.821727 
L 272.345436 409.547893 
L 273.216802 394.298682 
L 275.043954 379.134275 
L 277.819682 364.11452 
L 281.533031 349.298692 
L 286.169346 334.745263 
L 291.710329 320.511669 
L 298.134114 306.654082 
L 305.415348 293.227193 
L 313.525295 280.283991 
L 322.431949 267.875558 
L 332.10016 256.050863 
L 342.491772 244.856573 
L 353.565774 234.336868 
L 365.278461 224.533263 
L 377.58361 215.484449 
L 390.432657 207.226137 
L 403.774893 199.79092 
L 417.557662 193.208141 
L 431.72657 187.503778 
L 446.225699 182.700344 
L 460.997827 178.816797 
L 475.984656 175.868463 
L 491.127039 173.866977 
L 506.365217 172.820239 
L 521.639051 172.73238 
L 536.888262 173.603746 
L 552.052668 175.430898 
L 567.072424 178.206626 
L 581.888252 181.919975 
L 596.441681 186.55629 
L 610.675275 192.097273 
L 624.532862 198.521058 
L 637.959751 205.802291 
L 650.902953 213.912239 
L 663.311386 222.818893 
L 675.136081 232.487104 
L 686.330371 242.878716 
L 696.850076 253.952718 
L 706.653681 265.665405 
L 715.702495 277.970554 
L 723.960806 290.819601 
L 731.396024 304.161836 
L 737.978803 317.944606 
L 743.683166 332.113514 
L 748.4866 346.612643 
L 752.370147 361.384771 
L 755.318481 376.3716 
L 757.319966 391.513983 
L 758.366704 406.752161 
L 758.454564 422.025994 
L 757.583198 437.275205 
L 755.756046 452.439612 
L 752.980318 467.459367 
L 749.266969 482.275195 
L 744.630654 496.828624 
L 739.089671 511.062219 
L 732.665886 524.919806 
L 725.384652 538.346695 
L 717.274705 551.289896 
L 708.368051 563.69833 
L 698.69984 575.523025 
L 688.308228 586.717314 
L 677.234226 597.23702 
L 665.521539 607.040625 
L 653.21639 616.089438 
L 640.367343 624.34775 
L 627.025107 631.782967 
L 613.242338 638.365747 
L 599.07343 644.07011 
L 584.574301 648.873543 
L 569.802173 652.75709 
L 554.815344 655.705425 
L 539.672961 657.70691 
L 524.434783 658.753648 
L 509.160949 658.841508 
L 493.911738 657.970142 
L 478.747332 656.142989 
L 463.727576 653.367262 
L 448.911748 649.653913 
L 434.358319 645.017598 
L 420.124725 639.476614 
L 406.267138 633.05283 
L 392.840249 625.771596 
L 379.897047 617.661649 
L 367.488614 608.754995 
L 355.663919 599.086783 
L 344.469629 588.695171 
L 333.949924 577.62117 
L 324.146319 565.908482 
L 315.097505 553.603334 
L 306.839194 540.754287 
L 299.403976 527.412051 
L 292.821197 513.629282 
L 287.116834 499.460374 
L 282.3134 484.961245 
L 278.429853 470.189116 
L 275.481519 455.202287 
L 273.480034 440.059904 
L 273.825633 440.025229 
L 274.171233 439.990553 
L 274.516833 439.955877 
L 274.862433 439.921202 
L 275.208033 439.886526 
L 275.553633 439.85185 
L 275.899233 439.817175 
L 276.244833 439.782499 
L 276.590433 439.747823 
L 276.936033 439.713148 
L 277.281633 439.678472 
L 277.627233 439.643796 
L 277.972833 439.609121 
L 278.318433 439.574445 
L 278.664033 439.539769 
L 279.009633 439.505094 
L 279.355233 439.470418 
L 279.700833 439.435742 
L 280.046433 439.401067 
L 280.392033 439.366391 
L 280.737633 439.331715 
L 281.083232 439.29704 
L 281.428832 439.262364 
L 281.774432 439.227688 
L 282.120032 439.193013 
L 282.465632 439.158337 
L 282.811232 439.123661 
L 283.156832 439.088986 
L 283.502432 439.05431 
L 283.848032 439.019635 
L 284.193632 438.984959 
L 284.539232 438.950283 
L 284.884832 438.915608 
L 285.230432 438.880932 
L 285.576032 438.846256 
L 285.921632 438.811581 
L 286.267232 438.776905 
L 286.612832 438.742229 
L 286.958432 438.707554 
L 287.304032 438.672878 
L 287.649632 438.638202 
L 287.995232 438.603527 
L 288.340831 438.568851 
L 288.686431 438.534175 
L 289.032031 438.4995 
L 289.377631 438.464824 
L 289.723231 438.430148 
L 290.068831 438.395473 
L 290.414431 438.360797 
L 290.760031 438.326121 
L 291.105631 438.291446 
L 291.451231 438.25677 
L 291.796831 438.222094 
L 292.142431 438.187419 
L 292.488031 438.152743 
L 292.833631 438.118067 
L 293.179231 438.083392 
L 293.524831 438.048716 
L 293.870431 438.01404 
L 294.216031 437.979365 
L 294.561631 437.944689 
L 294.907231 437.910013 
L 295.252831 437.875338 
L 295.59843 437.840662 
L 295.94403 437.805986 
L 296.28963 437.771311 
L 296.63523 437.736635 
L 296.98083 437.70196 
L 297.32643 437.667284 
L 297.67203 437.632608 
L 298.01763 437.597933 
L 298.36323 437.563257 
L 298.70883 437.528581 
L 299.05443 437.493906 
L 299.40003 437.45923 
L 299.74563 437.424554 
L 300.09123 437.389879 
L 300.43683 437.355203 
L 300.78243 437.320527 
L 301.12803 437.285852 
L 301.47363 437.251176 
L 301.81923 437.2165 
L 302.16483 437.181825 
L 302.51043 437.147149 
L 302.856029 437.112473 
L 303.201629 437.077798 
L 303.547229 437.043122 
L 303.892829 437.008446 
L 304.238429 436.973771 
L 304.584029 436.939095 
L 304.929629 436.904419 
L 305.275229 436.869744 
L 305.620829 436.835068 
L 305.966429 436.800392 
L 306.312029 436.765717 
L 306.657629 436.731041 
L 307.003229 436.696365 
L 307.348829 436.66169 
L 307.694429 436.627014 
z
" style="fill:#008000;opacity:0.1;"/>
   </g>
   <g id="patch_4">
    <path clip-path="url(#pe126ff5f5a)" d="M 238.920038 443.52747 
L 241.20745 460.833051 
L 244.576975 477.960855 
L 249.015315 494.843288 
L 254.504953 511.413721 
L 261.024225 527.606759 
L 268.547402 543.358495 
L 277.044793 558.606765 
L 286.482863 573.29139 
L 296.824365 587.354417 
L 308.028485 600.740345 
L 320.051005 613.396347 
L 332.844479 625.272475 
L 346.358416 636.321859 
L 360.539483 646.500893 
L 375.331713 655.769404 
L 390.676729 664.090814 
L 406.513971 671.432282 
L 422.780936 677.764834 
L 439.413427 683.06348 
L 456.345802 687.307307 
L 473.511236 690.479567 
L 490.841987 692.567741 
L 508.269656 693.563588 
L 525.725466 693.463177 
L 543.140526 692.266905 
L 560.446107 689.979493 
L 577.573912 686.609968 
L 594.456344 682.171629 
L 611.026777 676.681991 
L 627.219815 670.162719 
L 642.971551 662.639542 
L 658.219821 654.142151 
L 672.904446 644.704081 
L 686.967473 634.362579 
L 700.353401 623.158459 
L 713.009403 611.135939 
L 724.885531 598.342465 
L 735.934915 584.828528 
L 746.113949 570.647461 
L 755.38246 555.855231 
L 763.70387 540.510214 
L 771.045338 524.672973 
L 777.37789 508.406007 
L 782.676536 491.773517 
L 786.920363 474.841142 
L 790.092624 457.675708 
L 792.180798 440.344957 
L 793.176644 422.917287 
L 793.076234 405.461477 
L 791.879962 388.046417 
L 789.59255 370.740837 
L 786.223025 353.613032 
L 781.784685 336.7306 
L 776.295047 320.160167 
L 769.775775 303.967129 
L 762.252598 288.215392 
L 753.755207 272.967123 
L 744.317137 258.282498 
L 733.975635 244.219471 
L 722.771515 230.833543 
L 710.748995 218.177541 
L 697.955521 206.301413 
L 684.441584 195.252029 
L 670.260517 185.072995 
L 655.468287 175.804484 
L 640.123271 167.483074 
L 624.286029 160.141606 
L 608.019064 153.809053 
L 591.386573 148.510408 
L 574.454198 144.266581 
L 557.288764 141.09432 
L 539.958013 139.006146 
L 522.530344 138.010299 
L 505.074534 138.11071 
L 487.659474 139.306982 
L 470.353893 141.594394 
L 453.226088 144.963919 
L 436.343656 149.402259 
L 419.773223 154.891897 
L 403.580185 161.411169 
L 387.828449 168.934345 
L 372.580179 177.431737 
L 357.895554 186.869807 
L 343.832527 197.211309 
L 330.446599 208.415428 
L 317.790597 220.437949 
L 305.914469 233.231423 
L 294.865085 246.74536 
L 284.686051 260.926426 
L 275.41754 275.718657 
L 267.09613 291.063673 
L 259.754662 306.900915 
L 253.42211 323.16788 
L 248.123464 339.800371 
L 243.879637 356.732745 
L 240.707376 373.89818 
L 238.619202 391.22893 
L 237.623356 408.6566 
L 237.723766 426.11241 
L 238.920038 443.52747 
L 238.574438 443.562146 
L 238.228838 443.596821 
L 237.883238 443.631497 
L 237.537639 443.666173 
L 237.192039 443.700848 
L 236.846439 443.735524 
L 236.500839 443.7702 
L 236.155239 443.804875 
L 235.809639 443.839551 
L 235.464039 443.874227 
L 235.118439 443.908902 
L 234.772839 443.943578 
L 234.427239 443.978254 
L 234.081639 444.012929 
L 233.736039 444.047605 
L 233.390439 444.082281 
L 233.044839 444.116956 
L 232.699239 444.151632 
L 232.353639 444.186308 
L 232.008039 444.220983 
L 231.662439 444.255659 
L 231.316839 444.290335 
L 230.971239 444.32501 
L 230.625639 444.359686 
L 230.28004 444.394361 
L 229.93444 444.429037 
L 229.58884 444.463713 
L 229.24324 444.498388 
L 228.89764 444.533064 
L 228.55204 444.56774 
L 228.20644 444.602415 
L 227.86084 444.637091 
L 227.51524 444.671767 
L 227.16964 444.706442 
L 226.82404 444.741118 
L 226.47844 444.775794 
L 226.13284 444.810469 
L 225.78724 444.845145 
L 225.44164 444.879821 
L 225.09604 444.914496 
L 224.75044 444.949172 
L 224.40484 444.983848 
L 224.05924 445.018523 
L 223.71364 445.053199 
L 223.36804 445.087875 
L 223.022441 445.12255 
L 222.676841 445.157226 
L 222.331241 445.191902 
L 221.985641 445.226577 
L 221.640041 445.261253 
L 221.294441 445.295929 
L 220.948841 445.330604 
L 220.603241 445.36528 
L 220.257641 445.399956 
L 219.912041 445.434631 
L 219.566441 445.469307 
L 219.220841 445.503983 
L 218.875241 445.538658 
L 218.529641 445.573334 
L 218.184041 445.60801 
L 217.838441 445.642685 
L 217.492841 445.677361 
L 217.147241 445.712036 
L 216.801641 445.746712 
L 216.456041 445.781388 
L 216.110441 445.816063 
L 215.764842 445.850739 
L 215.419242 445.885415 
L 215.073642 445.92009 
L 214.728042 445.954766 
L 214.382442 445.989442 
L 214.036842 446.024117 
L 213.691242 446.058793 
L 213.345642 446.093469 
L 213.000042 446.128144 
L 212.654442 446.16282 
L 212.308842 446.197496 
L 211.963242 446.232171 
L 211.617642 446.266847 
L 211.272042 446.301523 
L 210.926442 446.336198 
L 210.580842 446.370874 
L 210.235242 446.40555 
L 209.889642 446.440225 
L 209.544042 446.474901 
L 209.198442 446.509577 
L 208.852842 446.544252 
L 208.507243 446.578928 
L 208.161643 446.613604 
L 207.816043 446.648279 
L 207.470443 446.682955 
L 207.124843 446.717631 
L 206.779243 446.752306 
L 206.433643 446.786982 
L 206.088043 446.821658 
L 205.742443 446.856333 
L 205.396843 446.891009 
L 205.051243 446.925685 
L 204.705643 446.96036 
L 204.360043 446.995036 
L 203.014237 427.403093 
L 202.901275 407.765307 
L 204.021603 388.159179 
L 206.370798 368.662084 
L 209.939591 349.35097 
L 214.713897 330.302049 
L 220.674873 311.590497 
L 227.798995 293.290161 
L 236.058147 275.473264 
L 245.419733 258.210121 
L 255.846808 241.568862 
L 267.29822 225.615161 
L 279.728778 210.411982 
L 293.089421 196.019325 
L 307.327424 182.493989 
L 322.386593 169.889354 
L 338.207498 158.255165 
L 354.727702 147.637336 
L 371.882005 138.077771 
L 389.602708 129.614197 
L 407.819876 122.280016 
L 426.461613 116.104173 
L 445.454349 111.111041 
L 464.723129 107.320325 
L 484.191908 104.746987 
L 503.78385 103.401181 
L 523.421637 103.288219 
L 543.027765 104.408546 
L 562.524859 106.757742 
L 581.835973 110.326535 
L 600.884895 115.100841 
L 619.596447 121.061817 
L 637.896782 128.185939 
L 655.71368 136.44509 
L 672.976823 145.806676 
L 689.618082 156.233751 
L 705.571782 167.685164 
L 720.774961 180.115721 
L 735.167619 193.476365 
L 748.692955 207.714367 
L 761.29759 222.773537 
L 772.931779 238.594442 
L 783.549608 255.114645 
L 793.109173 272.268949 
L 801.572747 289.989652 
L 808.906928 308.206819 
L 815.082771 326.848557 
L 820.075903 345.841293 
L 823.866618 365.110073 
L 826.439957 384.578852 
L 827.785763 404.170794 
L 827.898725 423.80858 
L 826.778397 443.414709 
L 824.429202 462.911803 
L 820.860409 482.222917 
L 816.086103 501.271839 
L 810.125127 519.98339 
L 803.001005 538.283726 
L 794.741853 556.100623 
L 785.380267 573.363766 
L 774.953192 590.005026 
L 763.50178 605.958726 
L 751.071222 621.161905 
L 737.710579 635.554563 
L 723.472576 649.079899 
L 708.413407 661.684533 
L 692.592502 673.318723 
L 676.072298 683.936552 
L 658.917995 693.496117 
L 641.197292 701.959691 
L 622.980124 709.293872 
L 604.338387 715.469715 
L 585.345651 720.462847 
L 566.076871 724.253562 
L 546.608092 726.826901 
L 527.01615 728.172707 
L 507.378363 728.285669 
L 487.772235 727.165341 
L 468.275141 724.816145 
L 448.964027 721.247352 
L 429.915105 716.473047 
L 411.203553 710.51207 
L 392.903218 703.387949 
L 375.08632 695.128797 
L 357.823177 685.767211 
L 341.181918 675.340136 
L 325.228218 663.888723 
L 310.025039 651.458166 
L 295.632381 638.097522 
L 282.107045 623.85952 
L 269.50241 608.800351 
L 257.868221 592.979445 
L 247.250392 576.459242 
L 237.690827 559.304939 
L 229.227253 541.584236 
L 221.893072 523.367068 
L 215.717229 504.725331 
L 210.724097 485.732594 
L 206.933382 466.463814 
L 204.360043 446.995036 
L 204.705643 446.96036 
L 205.051243 446.925685 
L 205.396843 446.891009 
L 205.742443 446.856333 
L 206.088043 446.821658 
L 206.433643 446.786982 
L 206.779243 446.752306 
L 207.124843 446.717631 
L 207.470443 446.682955 
L 207.816043 446.648279 
L 208.161643 446.613604 
L 208.507243 446.578928 
L 208.852842 446.544252 
L 209.198442 446.509577 
L 209.544042 446.474901 
L 209.889642 446.440225 
L 210.235242 446.40555 
L 210.580842 446.370874 
L 210.926442 446.336198 
L 211.272042 446.301523 
L 211.617642 446.266847 
L 211.963242 446.232171 
L 212.308842 446.197496 
L 212.654442 446.16282 
L 213.000042 446.128144 
L 213.345642 446.093469 
L 213.691242 446.058793 
L 214.036842 446.024117 
L 214.382442 445.989442 
L 214.728042 445.954766 
L 215.073642 445.92009 
L 215.419242 445.885415 
L 215.764842 445.850739 
L 216.110441 445.816063 
L 216.456041 445.781388 
L 216.801641 445.746712 
L 217.147241 445.712036 
L 217.492841 445.677361 
L 217.838441 445.642685 
L 218.184041 445.60801 
L 218.529641 445.573334 
L 218.875241 445.538658 
L 219.220841 445.503983 
L 219.566441 445.469307 
L 219.912041 445.434631 
L 220.257641 445.399956 
L 220.603241 445.36528 
L 220.948841 445.330604 
L 221.294441 445.295929 
L 221.640041 445.261253 
L 221.985641 445.226577 
L 222.331241 445.191902 
L 222.676841 445.157226 
L 223.022441 445.12255 
L 223.36804 445.087875 
L 223.71364 445.053199 
L 224.05924 445.018523 
L 224.40484 444.983848 
L 224.75044 444.949172 
L 225.09604 444.914496 
L 225.44164 444.879821 
L 225.78724 444.845145 
L 226.13284 444.810469 
L 226.47844 444.775794 
L 226.82404 444.741118 
L 227.16964 444.706442 
L 227.51524 444.671767 
L 227.86084 444.637091 
L 228.20644 444.602415 
L 228.55204 444.56774 
L 228.89764 444.533064 
L 229.24324 444.498388 
L 229.58884 444.463713 
L 229.93444 444.429037 
L 230.28004 444.394361 
L 230.625639 444.359686 
L 230.971239 444.32501 
L 231.316839 444.290335 
L 231.662439 444.255659 
L 232.008039 444.220983 
L 232.353639 444.186308 
L 232.699239 444.151632 
L 233.044839 444.116956 
L 233.390439 444.082281 
L 233.736039 444.047605 
L 234.081639 444.012929 
L 234.427239 443.978254 
L 234.772839 443.943578 
L 235.118439 443.908902 
L 235.464039 443.874227 
L 235.809639 443.839551 
L 236.155239 443.804875 
L 236.500839 443.7702 
L 236.846439 443.735524 
L 237.192039 443.700848 
L 237.537639 443.666173 
L 237.883238 443.631497 
L 238.228838 443.596821 
L 238.574438 443.562146 
z
" style="fill:#008000;opacity:0.1;"/>
   </g>
   <g id="matplotlib.axis_1">
    <g id="xtick_1">
     <g id="line2d_1">
      <path clip-path="url(#pe126ff5f5a)" d="M 515.4 415.786944 
L 857.458379 355.472822 
" style="fill:none;stroke:#008000;stroke-linecap:square;stroke-opacity:0.3;"/>
     </g>
    </g>
    <g id="xtick_2">
     <g id="line2d_2">
      <path clip-path="url(#pe126ff5f5a)" d="M 515.4 415.786944 
L 738.662751 149.712758 
" style="fill:none;stroke:#008000;stroke-linecap:square;stroke-opacity:0.3;"/>
     </g>
    </g>
    <g id="xtick_3">
     <g id="line2d_3">
      <path clip-path="url(#pe126ff5f5a)" d="M 515.4 415.786944 
L 515.4 68.451763 
" style="fill:none;stroke:#008000;stroke-linecap:square;stroke-opacity:0.3;"/>
     </g>
    </g>
    <g id="xtick_4">
     <g id="line2d_4">
      <path clip-path="url(#pe126ff5f5a)" d="M 515.4 415.786944 
L 292.137249 149.712758 
" style="fill:none;stroke:#008000;stroke-linecap:square;stroke-opacity:0.3;"/>
     </g>
    </g>
    <g id="xtick_5">
     <g id="line2d_5">
      <path clip-path="url(#pe126ff5f5a)" d="M 515.4 415.786944 
L 173.341621 355.472822 
" style="fill:none;stroke:#008000;stroke-linecap:square;stroke-opacity:0.3;"/>
     </g>
    </g>
    <g id="xtick_6">
     <g id="line2d_6">
      <path clip-path="url(#pe126ff5f5a)" d="M 515.4 415.786944 
L 214.598909 589.454534 
" style="fill:none;stroke:#008000;stroke-linecap:square;stroke-opacity:0.3;"/>
     </g>
    </g>
    <g id="xtick_7">
     <g id="line2d_7">
      <path clip-path="url(#pe126ff5f5a)" d="M 515.4 415.786944 
L 396.604372 742.175251 
" style="fill:none;stroke:#008000;stroke-linecap:square;stroke-opacity:0.3;"/>
     </g>
    </g>
    <g id="xtick_8">
     <g id="line2d_8">
      <path clip-path="url(#pe126ff5f5a)" d="M 515.4 415.786944 
L 634.195628 742.175251 
" style="fill:none;stroke:#008000;stroke-linecap:square;stroke-opacity:0.3;"/>
     </g>
    </g>
    <g id="xtick_9">
     <g id="line2d_9">
      <path clip-path="url(#pe126ff5f5a)" d="M 515.4 415.786944 
L 816.201091 589.454534 
" style="fill:none;stroke:#008000;stroke-linecap:square;stroke-opacity:0.3;"/>
     </g>
    </g>
    <g id="text_1">
     <!--  - -->
     <defs>
      <path d="M 0 0 
z
" id="MicrosoftSansSerif-20"/>
      <path d="M 30.078125 21.484375 
L 3.21875 21.484375 
L 3.21875 30.328125 
L 30.078125 30.328125 
z
" id="MicrosoftSansSerif-2d"/>
     </defs>
     <g style="opacity:0;" transform="translate(511.808437 775.7115)scale(0.12 -0.12)">
      <use xlink:href="#MicrosoftSansSerif-20"/>
      <use x="26.5625" xlink:href="#MicrosoftSansSerif-2d"/>
     </g>
     <!--   -->
     <g style="opacity:0;" transform="translate(513.80625 788.409375)scale(0.12 -0.12)">
      <use xlink:href="#MicrosoftSansSerif-20"/>
     </g>
    </g>
   </g>
   <g id="matplotlib.axis_2">
    <g id="ytick_1">
     <g id="line2d_10">
      <path clip-path="url(#pe126ff5f5a)" d="M 584.867036 415.786944 
L 584.697818 410.941168 
L 584.190988 406.119001 
L 583.349015 401.343935 
L 582.176001 396.639234 
L 580.677661 392.027818 
L 578.861295 387.532155 
L 576.735752 383.174146 
L 574.311388 378.975023 
L 571.600013 374.955244 
L 568.614837 371.134394 
L 565.370404 367.531086 
L 561.88252 364.162875 
L 558.168178 361.046172 
L 554.245474 358.196161 
L 550.133518 355.626726 
L 545.852344 353.350385 
L 541.42281 351.378229 
L 536.866495 349.719866 
L 532.205597 348.383375 
L 527.462824 347.375268 
L 522.661283 346.700455 
L 517.824365 346.362225 
L 512.975635 346.362225 
L 508.138717 346.700455 
L 503.337176 347.375268 
L 498.594403 348.383375 
L 493.933505 349.719866 
L 489.37719 351.378229 
L 484.947656 353.350385 
L 480.666482 355.626726 
L 476.554526 358.196161 
L 472.631822 361.046172 
L 468.91748 364.162875 
L 465.429596 367.531086 
L 462.185163 371.134394 
L 459.199987 374.955244 
L 456.488612 378.975023 
L 454.064248 383.174146 
L 451.938705 387.532155 
L 450.122339 392.027818 
L 448.623999 396.639234 
L 447.450985 401.343935 
L 446.609012 406.119001 
L 446.102182 410.941168 
L 445.932964 415.786944 
L 446.102182 420.632719 
L 446.609012 425.454887 
L 447.450985 430.229953 
L 448.623999 434.934654 
L 450.122339 439.546069 
L 451.938705 444.041733 
L 454.064248 448.399742 
L 456.488612 452.598864 
L 459.199987 456.618643 
L 462.185163 460.439494 
L 465.429596 464.042802 
L 468.91748 467.411012 
L 472.631822 470.527715 
L 476.554526 473.377727 
L 480.666482 475.947162 
L 484.947656 478.223502 
L 489.37719 480.195658 
L 493.933505 481.854021 
L 498.594403 483.190512 
L 503.337176 484.19862 
L 508.138717 484.873432 
L 512.975635 485.211663 
L 517.824365 485.211663 
L 522.661283 484.873432 
L 527.462824 484.19862 
L 532.205597 483.190512 
L 536.866495 481.854021 
L 541.42281 480.195658 
L 545.852344 478.223502 
L 550.133518 475.947162 
L 554.245474 473.377727 
L 558.168178 470.527715 
L 561.88252 467.411012 
L 565.370404 464.042802 
L 568.614837 460.439494 
L 571.600013 456.618643 
L 574.311388 452.598864 
L 576.735752 448.399742 
L 578.861295 444.041733 
L 580.677661 439.546069 
L 582.176001 434.934654 
L 583.349015 430.229953 
L 584.190988 425.454887 
L 584.697818 420.632719 
L 584.867036 415.786944 
L 584.867036 415.786944 
" style="fill:none;stroke:#008000;stroke-linecap:square;stroke-opacity:0.3;"/>
     </g>
     <g id="text_2">
      <!-- 2 -->
      <defs>
       <path d="M 50.484375 0 
L 3.078125 0 
Q 3.078125 6.546875 7.125 12.5 
Q 11.1875 18.453125 22 27.171875 
Q 32.8125 35.890625 36.8125 41.09375 
Q 40.828125 46.296875 40.828125 52.875 
Q 40.828125 58.796875 37.40625 62.1875 
Q 33.984375 65.578125 27.78125 65.578125 
Q 22.40625 65.578125 18.59375 62.15625 
Q 14.796875 58.734375 14.3125 52.09375 
L 4.78125 52.09375 
Q 5.5625 61.53125 11.734375 67.15625 
Q 17.921875 72.796875 27.984375 72.796875 
Q 38.671875 72.796875 44.484375 67.0625 
Q 50.296875 61.328125 50.296875 52.6875 
Q 50.296875 44.875 46 38.890625 
Q 41.703125 32.90625 28.921875 22.265625 
Q 16.15625 11.625 15.921875 8.5 
L 50.484375 8.5 
z
" id="MicrosoftSansSerif-32"/>
      </defs>
      <g style="fill:#333333;" transform="translate(579.579173 387.543966)scale(0.08328 -0.08328)">
       <use xlink:href="#MicrosoftSansSerif-32"/>
      </g>
     </g>
    </g>
    <g id="ytick_2">
     <g id="line2d_11">
      <path clip-path="url(#pe126ff5f5a)" d="M 654.334073 415.786944 
L 654.249438 410.938215 
L 653.995636 406.095393 
L 653.572977 401.264379 
L 652.981976 396.451058 
L 652.223352 391.661295 
L 651.29803 386.900926 
L 650.207137 382.17575 
L 648.952002 377.491523 
L 647.534155 372.853954 
L 645.955323 368.268692 
L 644.217429 363.741324 
L 642.322591 359.277365 
L 640.273117 354.882255 
L 638.071505 350.561348 
L 635.720436 346.319908 
L 633.222776 342.163102 
L 630.581566 338.095996 
L 627.800026 334.123545 
L 624.881543 330.250588 
L 621.829674 326.481843 
L 618.648137 322.821904 
L 615.340808 319.275227 
L 611.911716 315.846136 
L 608.36504 312.538807 
L 604.7051 309.35727 
L 600.936356 306.305401 
L 597.063399 303.386918 
L 593.090947 300.605378 
L 589.023841 297.964168 
L 584.867036 295.466508 
L 580.625596 293.115439 
L 576.304689 290.913827 
L 571.909578 288.864353 
L 567.44562 286.969515 
L 562.918251 285.231621 
L 558.33299 283.652789 
L 553.69542 282.234942 
L 549.011194 280.979807 
L 544.286018 279.888914 
L 539.525649 278.963592 
L 534.735886 278.204968 
L 529.922565 277.613967 
L 525.091551 277.191308 
L 520.248729 276.937506 
L 515.4 276.852871 
L 510.551271 276.937506 
L 505.708449 277.191308 
L 500.877435 277.613967 
L 496.064114 278.204968 
L 491.274351 278.963592 
L 486.513982 279.888914 
L 481.788806 280.979807 
L 477.10458 282.234942 
L 472.46701 283.652789 
L 467.881749 285.231621 
L 463.35438 286.969515 
L 458.890422 288.864353 
L 454.495311 290.913827 
L 450.174404 293.115439 
L 445.932964 295.466508 
L 441.776159 297.964168 
L 437.709053 300.605378 
L 433.736601 303.386918 
L 429.863644 306.305401 
L 426.0949 309.35727 
L 422.43496 312.538807 
L 418.888284 315.846136 
L 415.459192 319.275227 
L 412.151863 322.821904 
L 408.970326 326.481843 
L 405.918457 330.250588 
L 402.999974 334.123545 
L 400.218434 338.095996 
L 397.577224 342.163102 
L 395.079564 346.319908 
L 392.728495 350.561348 
L 390.526883 354.882255 
L 388.477409 359.277365 
L 386.582571 363.741324 
L 384.844677 368.268692 
L 383.265845 372.853954 
L 381.847998 377.491523 
L 380.592863 382.17575 
L 379.50197 386.900926 
L 378.576648 391.661295 
L 377.818024 396.451058 
L 377.227023 401.264379 
L 376.804364 406.095393 
L 376.550562 410.938215 
L 376.465927 415.786944 
L 376.550562 420.635673 
L 376.804364 425.478495 
L 377.227023 430.309509 
L 377.818024 435.122829 
L 378.576648 439.912592 
L 379.50197 444.672962 
L 380.592863 449.398138 
L 381.847998 454.082364 
L 383.265845 458.719933 
L 384.844677 463.305195 
L 386.582571 467.832563 
L 388.477409 472.296522 
L 390.526883 476.691632 
L 392.728495 481.01254 
L 395.079564 485.25398 
L 397.577224 489.410785 
L 400.218434 493.477891 
L 402.999974 497.450343 
L 405.918457 501.3233 
L 408.970326 505.092044 
L 412.151863 508.751984 
L 415.459192 512.29866 
L 418.888284 515.727752 
L 422.43496 519.035081 
L 426.0949 522.216618 
L 429.863644 525.268487 
L 433.736601 528.18697 
L 437.709053 530.96851 
L 441.776159 533.609719 
L 445.932964 536.10738 
L 450.174404 538.458449 
L 454.495311 540.660061 
L 458.890422 542.709535 
L 463.35438 544.604373 
L 467.881749 546.342266 
L 472.46701 547.921099 
L 477.10458 549.338946 
L 481.788806 550.594081 
L 486.513982 551.684973 
L 491.274351 552.610296 
L 496.064114 553.368919 
L 500.877435 553.959921 
L 505.708449 554.38258 
L 510.551271 554.636381 
L 515.4 554.721016 
L 520.248729 554.636381 
L 525.091551 554.38258 
L 529.922565 553.959921 
L 534.735886 553.368919 
L 539.525649 552.610296 
L 544.286018 551.684973 
L 549.011194 550.594081 
L 553.69542 549.338946 
L 558.33299 547.921099 
L 562.918251 546.342266 
L 567.44562 544.604373 
L 571.909578 542.709535 
L 576.304689 540.660061 
L 580.625596 538.458449 
L 584.867036 536.10738 
L 589.023841 533.609719 
L 593.090947 530.96851 
L 597.063399 528.18697 
L 600.936356 525.268487 
L 604.7051 522.216618 
L 608.36504 519.035081 
L 611.911716 515.727752 
L 615.340808 512.29866 
L 618.648137 508.751984 
L 621.829674 505.092044 
L 624.881543 501.3233 
L 627.800026 497.450343 
L 630.581566 493.477891 
L 633.222776 489.410785 
L 635.720436 485.25398 
L 638.071505 481.01254 
L 640.273117 476.691632 
L 642.322591 472.296522 
L 644.217429 467.832563 
L 645.955323 463.305195 
L 647.534155 458.719933 
L 648.952002 454.082364 
L 650.207137 449.398138 
L 651.29803 444.672962 
L 652.223352 439.912592 
L 652.981976 435.122829 
L 653.572977 430.309509 
L 653.995636 425.478495 
L 654.249438 420.635673 
L 654.334073 415.786944 
L 654.334073 415.786944 
" style="fill:none;stroke:#008000;stroke-linecap:square;stroke-opacity:0.3;"/>
     </g>
     <g id="text_3">
      <!-- 4 -->
      <defs>
       <path d="M 50.984375 17.09375 
L 41.3125 17.09375 
L 41.3125 0 
L 32.078125 0 
L 32.078125 17.09375 
L 1.515625 17.09375 
L 1.515625 25.203125 
L 34.078125 72.515625 
L 41.3125 72.515625 
L 41.3125 25.203125 
L 50.984375 25.203125 
z
M 32.078125 25.203125 
L 32.078125 58.015625 
L 10.109375 25.203125 
z
" id="MicrosoftSansSerif-34"/>
      </defs>
      <g style="fill:#333333;" transform="translate(643.758346 360.960082)scale(0.08328 -0.08328)">
       <use xlink:href="#MicrosoftSansSerif-34"/>
      </g>
     </g>
    </g>
    <g id="ytick_3">
     <g id="line2d_12">
      <path clip-path="url(#pe126ff5f5a)" d="M 723.801109 415.786944 
L 723.674156 408.51385 
L 723.293454 401.249617 
L 722.659466 394.003096 
L 721.772963 386.783115 
L 720.635028 379.598471 
L 719.247045 372.457917 
L 717.610705 365.370152 
L 715.728003 358.343813 
L 713.601232 351.387459 
L 711.232984 344.509567 
L 708.626143 337.718514 
L 705.783886 331.022576 
L 702.709676 324.429911 
L 699.407257 317.94855 
L 695.880654 311.586389 
L 692.134164 305.351182 
L 688.172349 299.250523 
L 684.000039 293.291845 
L 679.622315 287.48241 
L 675.044511 281.829293 
L 670.272206 276.339383 
L 665.311212 271.019369 
L 660.167575 265.875732 
L 654.84756 260.914738 
L 649.357651 256.142432 
L 643.704534 251.564629 
L 637.895098 247.186905 
L 631.936421 243.014594 
L 625.835762 239.05278 
L 619.600554 235.306289 
L 613.238394 231.779686 
L 606.757033 228.477268 
L 600.164367 225.403057 
L 593.468429 222.5608 
L 586.677377 219.95396 
L 579.799484 217.585711 
L 572.843131 215.458941 
L 565.816791 213.576239 
L 558.729027 211.939899 
L 551.588473 210.551916 
L 544.403829 209.41398 
L 537.183848 208.527478 
L 529.937326 207.89349 
L 522.673094 207.512787 
L 515.4 207.385835 
L 508.126906 207.512787 
L 500.862674 207.89349 
L 493.616152 208.527478 
L 486.396171 209.41398 
L 479.211527 210.551916 
L 472.070973 211.939899 
L 464.983209 213.576239 
L 457.956869 215.458941 
L 451.000516 217.585711 
L 444.122623 219.95396 
L 437.331571 222.5608 
L 430.635633 225.403057 
L 424.042967 228.477268 
L 417.561606 231.779686 
L 411.199446 235.306289 
L 404.964238 239.05278 
L 398.863579 243.014594 
L 392.904902 247.186905 
L 387.095466 251.564629 
L 381.442349 256.142432 
L 375.95244 260.914738 
L 370.632425 265.875732 
L 365.488788 271.019369 
L 360.527794 276.339383 
L 355.755489 281.829293 
L 351.177685 287.48241 
L 346.799961 293.291845 
L 342.627651 299.250523 
L 338.665836 305.351182 
L 334.919346 311.586389 
L 331.392743 317.94855 
L 328.090324 324.429911 
L 325.016114 331.022576 
L 322.173857 337.718514 
L 319.567016 344.509567 
L 317.198768 351.387459 
L 315.071997 358.343813 
L 313.189295 365.370152 
L 311.552955 372.457917 
L 310.164972 379.598471 
L 309.027037 386.783115 
L 308.140534 394.003096 
L 307.506546 401.249617 
L 307.125844 408.51385 
L 306.998891 415.786944 
L 307.125844 423.060038 
L 307.506546 430.32427 
L 308.140534 437.570791 
L 309.027037 444.790772 
L 310.164972 451.975417 
L 311.552955 459.115971 
L 313.189295 466.203735 
L 315.071997 473.230074 
L 317.198768 480.186428 
L 319.567016 487.064321 
L 322.173857 493.855373 
L 325.016114 500.551311 
L 328.090324 507.143977 
L 331.392743 513.625338 
L 334.919346 519.987498 
L 338.665836 526.222706 
L 342.627651 532.323365 
L 346.799961 538.282042 
L 351.177685 544.091478 
L 355.755489 549.744594 
L 360.527794 555.234504 
L 365.488788 560.554518 
L 370.632425 565.698156 
L 375.95244 570.659149 
L 381.442349 575.431455 
L 387.095466 580.009259 
L 392.904902 584.386982 
L 398.863579 588.559293 
L 404.964238 592.521107 
L 411.199446 596.267598 
L 417.561606 599.794201 
L 424.042967 603.09662 
L 430.635633 606.17083 
L 437.331571 609.013087 
L 444.122623 611.619928 
L 451.000516 613.988176 
L 457.956869 616.114947 
L 464.983209 617.997649 
L 472.070973 619.633988 
L 479.211527 621.021971 
L 486.396171 622.159907 
L 493.616152 623.046409 
L 500.862674 623.680398 
L 508.126906 624.0611 
L 515.4 624.188053 
L 522.673094 624.0611 
L 529.937326 623.680398 
L 537.183848 623.046409 
L 544.403829 622.159907 
L 551.588473 621.021971 
L 558.729027 619.633988 
L 565.816791 617.997649 
L 572.843131 616.114947 
L 579.799484 613.988176 
L 586.677377 611.619928 
L 593.468429 609.013087 
L 600.164367 606.17083 
L 606.757033 603.09662 
L 613.238394 599.794201 
L 619.600554 596.267598 
L 625.835762 592.521107 
L 631.936421 588.559293 
L 637.895098 584.386982 
L 643.704534 580.009259 
L 649.357651 575.431455 
L 654.84756 570.659149 
L 660.167575 565.698156 
L 665.311212 560.554518 
L 670.272206 555.234504 
L 675.044511 549.744594 
L 679.622315 544.091478 
L 684.000039 538.282042 
L 688.172349 532.323365 
L 692.134164 526.222706 
L 695.880654 519.987498 
L 699.407257 513.625338 
L 702.709676 507.143977 
L 705.783886 500.551311 
L 708.626143 493.855373 
L 711.232984 487.064321 
L 713.601232 480.186428 
L 715.728003 473.230074 
L 717.610705 466.203735 
L 719.247045 459.115971 
L 720.635028 451.975417 
L 721.772963 444.790772 
L 722.659466 437.570791 
L 723.293454 430.32427 
L 723.674156 423.060038 
L 723.801109 415.786944 
L 723.801109 415.786944 
" style="fill:none;stroke:#008000;stroke-linecap:square;stroke-opacity:0.3;"/>
     </g>
     <g id="text_4">
      <!-- 6 -->
      <defs>
       <path d="M 13.8125 38.625 
Q 20.90625 46.390625 30.078125 46.390625 
Q 39.0625 46.390625 45.234375 39.859375 
Q 51.421875 33.34375 51.421875 23.296875 
Q 51.421875 13.09375 45.28125 5.9375 
Q 39.15625 -1.21875 29 -1.21875 
Q 17.390625 -1.21875 10.9375 7.734375 
Q 4.5 16.703125 4.5 33.5 
Q 4.5 72.796875 29.78125 72.796875 
Q 37.84375 72.796875 43.40625 68.296875 
Q 48.96875 63.8125 50.203125 54.984375 
L 40.71875 54.984375 
Q 39.5 65.578125 29.296875 65.578125 
Q 22.703125 65.578125 18.625 58.609375 
Q 14.546875 51.65625 13.8125 38.625 
z
M 13.71875 31.5 
Q 13.921875 19.1875 17.96875 12.59375 
Q 22.015625 6 28.8125 6 
Q 34.765625 6 38.328125 10.78125 
Q 41.890625 15.578125 41.890625 22.703125 
Q 41.890625 29.9375 38.25 34.5625 
Q 34.625 39.203125 28.515625 39.203125 
Q 20.953125 39.203125 13.71875 31.5 
z
" id="MicrosoftSansSerif-36"/>
      </defs>
      <g style="fill:#333333;" transform="translate(707.937519 334.376198)scale(0.08328 -0.08328)">
       <use xlink:href="#MicrosoftSansSerif-36"/>
      </g>
     </g>
    </g>
    <g id="ytick_4">
     <g id="line2d_13">
      <path clip-path="url(#pe126ff5f5a)" d="M 793.268145 415.786944 
L 793.098875 406.089485 
L 792.591272 396.403842 
L 791.745954 386.741814 
L 790.563951 377.115172 
L 789.046704 367.535647 
L 787.196059 358.014908 
L 785.014274 348.564555 
L 782.504004 339.196103 
L 779.66831 329.920965 
L 776.510645 320.750441 
L 773.034858 311.695705 
L 769.245182 302.767787 
L 765.146234 293.977566 
L 760.74301 285.335751 
L 756.040872 276.852871 
L 751.045551 268.539261 
L 745.763132 260.405049 
L 740.200052 252.460146 
L 734.363086 244.714232 
L 728.259348 237.176743 
L 721.896274 229.856863 
L 715.281616 222.763511 
L 708.423433 215.905328 
L 701.33008 209.29067 
L 694.010201 202.927595 
L 686.472712 196.823857 
L 678.726798 190.986892 
L 670.781895 185.423811 
L 662.647683 180.141392 
L 654.334073 175.146071 
L 645.851192 170.443934 
L 637.209377 166.040709 
L 628.419157 161.941762 
L 619.491239 158.152086 
L 610.436503 154.676298 
L 601.265979 151.518634 
L 591.990841 148.682939 
L 582.622388 146.17267 
L 573.172036 143.990884 
L 563.651297 142.14024 
L 554.071771 140.622992 
L 544.44513 139.44099 
L 534.783102 138.595672 
L 525.097458 138.088069 
L 515.4 137.918799 
L 505.702542 138.088069 
L 496.016898 138.595672 
L 486.35487 139.44099 
L 476.728229 140.622992 
L 467.148703 142.14024 
L 457.627964 143.990884 
L 448.177612 146.17267 
L 438.809159 148.682939 
L 429.534021 151.518634 
L 420.363497 154.676298 
L 411.308761 158.152086 
L 402.380843 161.941762 
L 393.590623 166.040709 
L 384.948808 170.443934 
L 376.465928 175.146071 
L 368.152317 180.141392 
L 360.018105 185.423811 
L 352.073202 190.986892 
L 344.327288 196.823857 
L 336.789799 202.927595 
L 329.46992 209.29067 
L 322.376567 215.905328 
L 315.518384 222.763511 
L 308.903726 229.856863 
L 302.540652 237.176743 
L 296.436914 244.714232 
L 290.599948 252.460146 
L 285.036868 260.405049 
L 279.754449 268.539261 
L 274.759128 276.852871 
L 270.05699 285.335751 
L 265.653766 293.977566 
L 261.554818 302.767787 
L 257.765142 311.695705 
L 254.289355 320.750441 
L 251.13169 329.920965 
L 248.295996 339.196103 
L 245.785726 348.564555 
L 243.603941 358.014908 
L 241.753296 367.535647 
L 240.236049 377.115172 
L 239.054046 386.741814 
L 238.208728 396.403842 
L 237.701125 406.089485 
L 237.531855 415.786944 
L 237.701125 425.484402 
L 238.208728 435.170046 
L 239.054046 444.832074 
L 240.236049 454.458715 
L 241.753296 464.038241 
L 243.603941 473.55898 
L 245.785726 483.009332 
L 248.295996 492.377785 
L 251.13169 501.652923 
L 254.289355 510.823447 
L 257.765142 519.878183 
L 261.554818 528.8061 
L 265.653766 537.596321 
L 270.05699 546.238136 
L 274.759128 554.721016 
L 279.754449 563.034627 
L 285.036868 571.168839 
L 290.599948 579.113741 
L 296.436914 586.859656 
L 302.540652 594.397144 
L 308.903726 601.717024 
L 315.518384 608.810377 
L 322.376567 615.66856 
L 329.46992 622.283218 
L 336.789799 628.646292 
L 344.327288 634.75003 
L 352.073202 640.586995 
L 360.018105 646.150076 
L 368.152317 651.432495 
L 376.465927 656.427816 
L 384.948808 661.129954 
L 393.590623 665.533178 
L 402.380843 669.632125 
L 411.308761 673.421801 
L 420.363497 676.897589 
L 429.534021 680.055254 
L 438.809159 682.890948 
L 448.177612 685.401217 
L 457.627964 687.583003 
L 467.148703 689.433647 
L 476.728229 690.950895 
L 486.35487 692.132898 
L 496.016898 692.978216 
L 505.702542 693.485819 
L 515.4 693.655089 
L 525.097458 693.485819 
L 534.783102 692.978216 
L 544.44513 692.132898 
L 554.071771 690.950895 
L 563.651297 689.433647 
L 573.172036 687.583003 
L 582.622388 685.401217 
L 591.990841 682.890948 
L 601.265979 680.055254 
L 610.436503 676.897589 
L 619.491239 673.421801 
L 628.419157 669.632125 
L 637.209377 665.533178 
L 645.851192 661.129954 
L 654.334073 656.427816 
L 662.647683 651.432495 
L 670.781895 646.150076 
L 678.726798 640.586995 
L 686.472712 634.75003 
L 694.010201 628.646292 
L 701.33008 622.283218 
L 708.423433 615.66856 
L 715.281616 608.810377 
L 721.896274 601.717024 
L 728.259348 594.397144 
L 734.363086 586.859656 
L 740.200052 579.113741 
L 745.763132 571.168839 
L 751.045551 563.034627 
L 756.040872 554.721016 
L 760.74301 546.238136 
L 765.146234 537.596321 
L 769.245182 528.8061 
L 773.034858 519.878183 
L 776.510645 510.823447 
L 779.66831 501.652923 
L 782.504004 492.377785 
L 785.014274 483.009332 
L 787.196059 473.55898 
L 789.046704 464.038241 
L 790.563951 454.458715 
L 791.745954 444.832074 
L 792.591272 435.170046 
L 793.098875 425.484402 
L 793.268145 415.786944 
L 793.268145 415.786944 
" style="fill:none;stroke:#008000;stroke-linecap:square;stroke-opacity:0.3;"/>
     </g>
     <g id="text_5">
      <!-- 8 -->
      <defs>
       <path d="M 36.53125 37.59375 
Q 51.421875 30.71875 51.421875 19 
Q 51.421875 9.96875 44.890625 4.375 
Q 38.375 -1.21875 27.78125 -1.21875 
Q 17.234375 -1.21875 10.71875 4.375 
Q 4.203125 9.96875 4.203125 19 
Q 4.203125 30.71875 19.09375 37.59375 
Q 6.984375 44.578125 6.984375 55.078125 
Q 6.984375 62.84375 12.71875 67.8125 
Q 18.453125 72.796875 27.78125 72.796875 
Q 37.15625 72.796875 42.859375 67.8125 
Q 48.578125 62.84375 48.578125 55.078125 
Q 48.578125 44.578125 36.53125 37.59375 
z
M 27.78125 41.40625 
Q 39.109375 46.484375 39.109375 55.078125 
Q 39.109375 60.015625 36.109375 62.796875 
Q 33.109375 65.578125 27.78125 65.578125 
Q 22.515625 65.578125 19.5 62.796875 
Q 16.5 60.015625 16.5 55.078125 
Q 16.5 46.484375 27.78125 41.40625 
z
M 41.890625 19 
Q 41.890625 23.640625 38.515625 26.984375 
Q 35.15625 30.328125 27.78125 33.59375 
Q 20.453125 30.328125 17.078125 26.984375 
Q 13.71875 23.640625 13.71875 19 
Q 13.71875 12.9375 17.578125 9.46875 
Q 21.4375 6 27.78125 6 
Q 34.125 6 38 9.46875 
Q 41.890625 12.9375 41.890625 19 
z
" id="MicrosoftSansSerif-38"/>
      </defs>
      <g style="fill:#333333;" transform="translate(772.116692 307.792315)scale(0.08328 -0.08328)">
       <use xlink:href="#MicrosoftSansSerif-38"/>
      </g>
     </g>
    </g>
    <g id="ytick_5">
     <g id="line2d_14">
      <path clip-path="url(#pe126ff5f5a)" d="M 862.735181 415.786944 
L 862.523594 403.665121 
L 861.88909 391.558066 
L 860.832443 379.480531 
L 859.354939 367.44723 
L 857.458379 355.472822 
L 855.145074 343.571899 
L 852.417842 331.758958 
L 849.280005 320.048393 
L 845.735387 308.45447 
L 841.788307 296.991315 
L 837.443572 285.672895 
L 832.706477 274.512998 
L 827.582793 263.525222 
L 822.078762 252.722953 
L 816.201091 242.119353 
L 809.956939 231.72734 
L 803.353916 221.559575 
L 796.400064 211.628447 
L 789.103858 201.946054 
L 781.474185 192.524193 
L 773.520343 183.374343 
L 765.25202 174.507653 
L 756.679291 165.934924 
L 747.8126 157.666601 
L 738.662751 149.712758 
L 729.24089 142.083086 
L 719.558497 134.786879 
L 709.627368 127.833028 
L 699.459604 121.230005 
L 689.067591 114.985853 
L 678.46399 109.108182 
L 667.661722 103.604151 
L 656.673946 98.480467 
L 645.514049 93.743372 
L 634.195628 89.398637 
L 622.732474 85.451556 
L 611.138551 81.906938 
L 599.427985 78.769102 
L 587.615045 76.04187 
L 575.714121 73.728564 
L 563.739714 71.832005 
L 551.706413 70.354501 
L 539.628877 69.297854 
L 527.521823 68.66335 
L 515.4 68.451763 
L 503.278177 68.66335 
L 491.171123 69.297854 
L 479.093587 70.354501 
L 467.060286 71.832005 
L 455.085879 73.728564 
L 443.184955 76.04187 
L 431.372015 78.769102 
L 419.661449 81.906938 
L 408.067526 85.451556 
L 396.604372 89.398637 
L 385.285951 93.743372 
L 374.126054 98.480467 
L 363.138278 103.604151 
L 352.33601 109.108182 
L 341.732409 114.985853 
L 331.340396 121.230005 
L 321.172632 127.833028 
L 311.241503 134.786879 
L 301.55911 142.083086 
L 292.137249 149.712758 
L 282.9874 157.666601 
L 274.120709 165.934924 
L 265.54798 174.507653 
L 257.279657 183.374343 
L 249.325815 192.524193 
L 241.696142 201.946054 
L 234.399936 211.628447 
L 227.446084 221.559575 
L 220.843061 231.72734 
L 214.598909 242.119353 
L 208.721238 252.722953 
L 203.217207 263.525222 
L 198.093523 274.512998 
L 193.356428 285.672895 
L 189.011693 296.991315 
L 185.064613 308.45447 
L 181.519995 320.048393 
L 178.382158 331.758958 
L 175.654926 343.571899 
L 173.341621 355.472822 
L 171.445061 367.44723 
L 169.967557 379.480531 
L 168.91091 391.558066 
L 168.276406 403.665121 
L 168.064819 415.786944 
L 168.276406 427.908767 
L 168.91091 440.015821 
L 169.967557 452.093356 
L 171.445061 464.126658 
L 173.341621 476.101065 
L 175.654926 488.001989 
L 178.382158 499.814929 
L 181.519995 511.525495 
L 185.064613 523.119418 
L 189.011693 534.582572 
L 193.356428 545.900993 
L 198.093523 557.060889 
L 203.217207 568.048665 
L 208.721238 578.850934 
L 214.598909 589.454534 
L 220.843061 599.846547 
L 227.446084 610.014312 
L 234.399936 619.945441 
L 241.696142 629.627834 
L 249.325815 639.049695 
L 257.279657 648.199544 
L 265.54798 657.066235 
L 274.120709 665.638964 
L 282.9874 673.907286 
L 292.137249 681.861129 
L 301.55911 689.490802 
L 311.241503 696.787008 
L 321.172632 703.740859 
L 331.340396 710.343883 
L 341.732409 716.588034 
L 352.33601 722.465706 
L 363.138278 727.969737 
L 374.126054 733.093421 
L 385.285951 737.830516 
L 396.604372 742.175251 
L 408.067526 746.122331 
L 419.661449 749.666949 
L 431.372015 752.804786 
L 443.184955 755.532018 
L 455.085879 757.845323 
L 467.060286 759.741883 
L 479.093587 761.219387 
L 491.171123 762.276034 
L 503.278177 762.910538 
L 515.4 763.122125 
L 527.521823 762.910538 
L 539.628877 762.276034 
L 551.706413 761.219387 
L 563.739714 759.741883 
L 575.714121 757.845323 
L 587.615045 755.532018 
L 599.427985 752.804786 
L 611.138551 749.666949 
L 622.732474 746.122331 
L 634.195628 742.175251 
L 645.514049 737.830516 
L 656.673946 733.093421 
L 667.661722 727.969737 
L 678.46399 722.465706 
L 689.067591 716.588034 
L 699.459604 710.343883 
L 709.627368 703.740859 
L 719.558497 696.787008 
L 729.24089 689.490802 
L 738.662751 681.861129 
L 747.8126 673.907286 
L 756.679291 665.638964 
L 765.25202 657.066235 
L 773.520343 648.199544 
L 781.474185 639.049695 
L 789.103858 629.627834 
L 796.400064 619.945441 
L 803.353916 610.014312 
L 809.956939 599.846547 
L 816.201091 589.454534 
L 822.078762 578.850934 
L 827.582793 568.048665 
L 832.706477 557.060889 
L 837.443572 545.900993 
L 841.788307 534.582572 
L 845.735387 523.119418 
L 849.280005 511.525495 
L 852.417842 499.814929 
L 855.145074 488.001989 
L 857.458379 476.101065 
L 859.354939 464.126658 
L 860.832443 452.093356 
L 861.88909 440.015821 
L 862.523594 427.908767 
L 862.735181 415.786944 
L 862.735181 415.786944 
" style="fill:none;stroke:#008000;stroke-linecap:square;stroke-opacity:0.3;"/>
     </g>
     <g id="text_6">
      <!-- 10 -->
      <defs>
       <path d="M 37.5 0 
L 28.328125 0 
L 28.328125 56.296875 
Q 22.75 52.59375 11.078125 52.59375 
L 11.078125 59.8125 
Q 27.9375 59.8125 30.421875 72.796875 
L 37.5 72.796875 
z
" id="MicrosoftSansSerif-31"/>
       <path d="M 27.78125 72.796875 
Q 51.125 72.796875 51.125 35.6875 
Q 51.125 -1.21875 27.78125 -1.21875 
Q 4.5 -1.21875 4.5 35.6875 
Q 4.5 72.796875 27.78125 72.796875 
z
M 27.78125 6 
Q 34.578125 6 38.09375 12.546875 
Q 41.609375 19.09375 41.609375 35.6875 
Q 41.609375 52.34375 38.09375 58.953125 
Q 34.578125 65.578125 27.78125 65.578125 
Q 21.046875 65.578125 17.53125 58.953125 
Q 14.015625 52.34375 14.015625 35.6875 
Q 14.015625 19.09375 17.53125 12.546875 
Q 21.046875 6 27.78125 6 
z
" id="MicrosoftSansSerif-30"/>
      </defs>
      <g style="fill:#333333;" transform="translate(836.295865 281.208431)scale(0.08328 -0.08328)">
       <use xlink:href="#MicrosoftSansSerif-31"/>
       <use x="55.615234" xlink:href="#MicrosoftSansSerif-30"/>
      </g>
     </g>
    </g>
   </g>
   <g id="line2d_15">
    <path clip-path="url(#pe126ff5f5a)" d="M 515.4 242.119353 
L 403.768625 282.749851 
L 344.37081 385.629883 
L 364.999455 502.620739 
L 456.002186 578.981097 
L 574.797814 578.981097 
L 665.800545 502.620739 
L 686.42919 385.629883 
L 627.031375 282.749851 
L 515.4 242.119353 
" style="fill:none;stroke:#0000ff;stroke-linecap:square;stroke-width:1.5;"/>
    <defs>
     <path d="M 0 3 
C 0.795609 3 1.55874 2.683901 2.12132 2.12132 
C 2.683901 1.55874 3 0.795609 3 0 
C 3 -0.795609 2.683901 -1.55874 2.12132 -2.12132 
C 1.55874 -2.683901 0.795609 -3 0 -3 
C -0.795609 -3 -1.55874 -2.683901 -2.12132 -2.12132 
C -2.683901 -1.55874 -3 -0.795609 -3 0 
C -3 0.795609 -2.683901 1.55874 -2.12132 2.12132 
C -1.55874 2.683901 -0.795609 3 0 3 
z
" id="m42ccefc2c1" style="stroke:#0000ff;"/>
    </defs>
    <g clip-path="url(#pe126ff5f5a)">
     <use style="fill:#0000ff;stroke:#0000ff;" x="515.4" xlink:href="#m42ccefc2c1" y="242.119353"/>
     <use style="fill:#0000ff;stroke:#0000ff;" x="403.768625" xlink:href="#m42ccefc2c1" y="282.749851"/>
     <use style="fill:#0000ff;stroke:#0000ff;" x="344.37081" xlink:href="#m42ccefc2c1" y="385.629883"/>
     <use style="fill:#0000ff;stroke:#0000ff;" x="364.999455" xlink:href="#m42ccefc2c1" y="502.620739"/>
     <use style="fill:#0000ff;stroke:#0000ff;" x="456.002186" xlink:href="#m42ccefc2c1" y="578.981097"/>
     <use style="fill:#0000ff;stroke:#0000ff;" x="574.797814" xlink:href="#m42ccefc2c1" y="578.981097"/>
     <use style="fill:#0000ff;stroke:#0000ff;" x="665.800545" xlink:href="#m42ccefc2c1" y="502.620739"/>
     <use style="fill:#0000ff;stroke:#0000ff;" x="686.42919" xlink:href="#m42ccefc2c1" y="385.629883"/>
     <use style="fill:#0000ff;stroke:#0000ff;" x="627.031375" xlink:href="#m42ccefc2c1" y="282.749851"/>
     <use style="fill:#0000ff;stroke:#0000ff;" x="515.4" xlink:href="#m42ccefc2c1" y="242.119353"/>
    </g>
   </g>
   <g id="patch_5">
    <path d="M 862.735181 415.786944 
C 862.735181 370.175306 853.750683 325.007183 836.295865 282.867524 
C 818.841047 240.727866 793.255361 202.43618 761.003062 170.183882 
C 728.750763 137.931583 690.459078 112.345897 648.319419 94.891079 
C 606.17976 77.436261 561.011638 68.451763 515.4 68.451763 
C 469.788362 68.451763 424.62024 77.436261 382.480581 94.891079 
C 340.340922 112.345897 302.049237 137.931583 269.796938 170.183882 
C 237.544639 202.43618 211.958953 240.727866 194.504135 282.867524 
C 177.049317 325.007183 168.064819 370.175306 168.064819 415.786944 
C 168.064819 461.398582 177.049317 506.566704 194.504135 548.706363 
C 211.958953 590.846022 237.544639 629.137707 269.796938 661.390006 
C 302.049237 693.642304 340.340922 719.22799 382.480581 736.682809 
C 424.62024 754.137627 469.788362 763.122125 515.4 763.122125 
C 561.011638 763.122125 606.17976 754.137627 648.319419 736.682809 
C 690.459078 719.22799 728.750763 693.642304 761.003062 661.390006 
C 793.255361 629.137707 818.841047 590.846022 836.295865 548.706363 
C 853.750683 506.566704 862.735181 461.398582 862.735181 415.786944 
" style="fill:none;stroke:#000000;stroke-linecap:square;stroke-linejoin:miter;stroke-width:1.5;"/>
   </g>
   <g id="text_7">
    <!-- Acidity -->
    <defs>
     <path d="M 45.015625 29.296875 
L 32.421875 62.5 
L 20.40625 29.296875 
z
M 66.796875 0 
L 56.109375 0 
L 47.796875 21.78125 
L 17.828125 21.78125 
L 9.90625 0 
L -0.09375 0 
L 27.390625 71.578125 
L 37.59375 71.578125 
z
" id="MicrosoftSansSerif-41"/>
     <path d="M 27.78125 -1.21875 
Q 16.75 -1.21875 10.125 5.875 
Q 3.515625 12.984375 3.515625 25.875 
Q 3.515625 38.8125 10.125 45.890625 
Q 16.75 52.984375 27.78125 52.984375 
Q 36.28125 52.984375 41.96875 48.6875 
Q 47.65625 44.390625 48.6875 36.28125 
L 39.203125 36.28125 
Q 39.015625 40.921875 35.71875 43.359375 
Q 32.421875 45.796875 27.78125 45.796875 
Q 21.1875 45.796875 17.078125 40.796875 
Q 12.984375 35.796875 12.984375 25.875 
Q 12.984375 16.015625 17.078125 11 
Q 21.1875 6 27.78125 6 
Q 32.421875 6 35.71875 8.4375 
Q 39.015625 10.890625 39.203125 15.484375 
L 48.6875 15.484375 
Q 47.65625 7.375 41.96875 3.078125 
Q 36.28125 -1.21875 27.78125 -1.21875 
z
" id="MicrosoftSansSerif-63"/>
     <path d="M 16.015625 0 
L 6.78125 0 
L 6.78125 51.8125 
L 16.015625 51.8125 
z
M 16.015625 61.625 
L 6.78125 61.625 
L 6.78125 71.578125 
L 16.015625 71.578125 
z
" id="MicrosoftSansSerif-69"/>
     <path d="M 39.59375 14.890625 
L 39.59375 39.5 
Q 33.640625 45.796875 25.984375 45.796875 
Q 20.0625 45.796875 16.515625 40.6875 
Q 12.984375 35.59375 12.984375 25.484375 
Q 12.984375 15.921875 16.328125 10.953125 
Q 19.671875 6 25.59375 6 
Q 33.296875 6 39.59375 14.890625 
z
M 39.59375 6.203125 
Q 33.453125 -1.21875 24.8125 -1.21875 
Q 14.65625 -1.21875 9.078125 6 
Q 3.515625 13.234375 3.515625 25.484375 
Q 3.515625 38.1875 9.734375 45.578125 
Q 15.96875 52.984375 25.390625 52.984375 
Q 33.796875 52.984375 39.59375 47.796875 
L 39.59375 71.578125 
L 48.78125 71.578125 
L 48.78125 0 
L 39.59375 0 
z
" id="MicrosoftSansSerif-64"/>
     <path d="M 26.90625 -0.09375 
Q 23.875 -0.6875 20.3125 -0.6875 
Q 14.65625 -0.6875 12.015625 1.34375 
Q 9.375 3.375 8.734375 6.546875 
Q 8.109375 9.71875 8.109375 15.1875 
L 8.109375 44.578125 
L 1.703125 44.578125 
L 1.703125 51.8125 
L 8.109375 51.8125 
L 8.109375 64.703125 
L 17.28125 64.703125 
L 17.28125 51.8125 
L 25.6875 51.8125 
L 25.6875 44.578125 
L 17.28125 44.578125 
L 17.28125 14.703125 
Q 17.28125 9.375 18.625 7.9375 
Q 19.96875 6.5 22.3125 6.5 
Q 24.703125 6.5 26.90625 6.890625 
z
" id="MicrosoftSansSerif-74"/>
     <path d="M 9.71875 -12.5 
Q 16.546875 -12.5 20.90625 0 
L 1.3125 51.8125 
L 11.28125 51.8125 
L 25 11.28125 
L 38.71875 51.8125 
L 48.6875 51.8125 
L 29.109375 0 
Q 26.265625 -7.421875 24.28125 -11.453125 
Q 22.3125 -15.484375 19.109375 -18.234375 
Q 15.921875 -21 11.28125 -21 
Q 7.8125 -21 5.328125 -20.3125 
L 5.328125 -11.8125 
Q 7.46875 -12.5 9.71875 -12.5 
z
" id="MicrosoftSansSerif-79"/>
    </defs>
    <g transform="translate(515.4 31.463048)scale(0.08328 -0.08328)">
     <use xlink:href="#MicrosoftSansSerif-41"/>
     <use x="66.699219" xlink:href="#MicrosoftSansSerif-63"/>
     <use x="116.699219" xlink:href="#MicrosoftSansSerif-69"/>
     <use x="139.501953" xlink:href="#MicrosoftSansSerif-64"/>
     <use x="195.117188" xlink:href="#MicrosoftSansSerif-69"/>
     <use x="217.919922" xlink:href="#MicrosoftSansSerif-74"/>
     <use x="245.703125" xlink:href="#MicrosoftSansSerif-79"/>
    </g>
    <!-- 5.00 -->
    <defs>
     <path d="M 16.109375 43.21875 
Q 21.4375 47.515625 29.390625 47.515625 
Q 38.328125 47.515625 44.96875 41.1875 
Q 51.609375 34.859375 51.609375 24.3125 
Q 51.609375 13.28125 44.9375 6.03125 
Q 38.28125 -1.21875 27.203125 -1.21875 
Q 18.109375 -1.21875 11.65625 3.8125 
Q 5.21875 8.84375 4.203125 18.796875 
L 13.71875 18.796875 
Q 14.5 12.3125 18.234375 9.15625 
Q 21.96875 6 27.203125 6 
Q 33.84375 6 37.96875 11.03125 
Q 42.09375 16.0625 42.09375 23.484375 
Q 42.09375 31 37.890625 35.34375 
Q 33.6875 39.703125 27 39.703125 
Q 19.34375 39.703125 14.015625 33.796875 
L 6.78125 33.796875 
L 9.8125 71.578125 
L 48.1875 71.578125 
L 48.1875 63.09375 
L 17.671875 63.09375 
z
" id="MicrosoftSansSerif-35"/>
     <path d="M 18.890625 0 
L 8.890625 0 
L 8.890625 10.015625 
L 18.890625 10.015625 
z
" id="MicrosoftSansSerif-2e"/>
    </defs>
    <g transform="translate(515.4 40.36516)scale(0.08328 -0.08328)">
     <use xlink:href="#MicrosoftSansSerif-35"/>
     <use x="55.615234" xlink:href="#MicrosoftSansSerif-2e"/>
     <use x="83.398438" xlink:href="#MicrosoftSansSerif-30"/>
     <use x="139.013672" xlink:href="#MicrosoftSansSerif-30"/>
    </g>
   </g>
   <g id="text_8">
    <!-- Aftertaste -->
    <defs>
     <path d="M 17.578125 44.578125 
L 17.578125 0 
L 8.40625 0 
L 8.40625 44.578125 
L 0.78125 44.578125 
L 0.78125 51.8125 
L 8.40625 51.8125 
L 8.40625 56.390625 
Q 8.40625 72.796875 22.90625 72.796875 
Q 27.34375 72.796875 29.78125 72.21875 
L 29.78125 64.203125 
Q 27.046875 64.703125 24.21875 64.703125 
Q 20.84375 64.703125 19.203125 62.8125 
Q 17.578125 60.9375 17.578125 56.296875 
L 17.578125 51.8125 
L 27.390625 51.8125 
L 27.390625 44.578125 
z
" id="MicrosoftSansSerif-66"/>
     <path d="M 28.8125 -1.21875 
Q 17.390625 -1.21875 10.453125 5.9375 
Q 3.515625 13.09375 3.515625 25.875 
Q 3.515625 38.578125 10.21875 45.78125 
Q 16.9375 52.984375 27.78125 52.984375 
Q 38.875 52.984375 45.484375 45.890625 
Q 52.09375 38.8125 52.09375 25.875 
L 52.09375 23.6875 
L 13.09375 23.6875 
Q 13.671875 14.703125 18.03125 10.34375 
Q 22.40625 6 28.8125 6 
Q 33.640625 6 37.515625 8.46875 
Q 41.40625 10.9375 41.609375 15.484375 
L 51.125 15.484375 
Q 50.046875 7.46875 43.875 3.125 
Q 37.703125 -1.21875 28.8125 -1.21875 
z
M 42.390625 30.90625 
Q 41.265625 38.375 37.359375 42.078125 
Q 33.453125 45.796875 27.78125 45.796875 
Q 22.265625 45.796875 18.3125 42.109375 
Q 14.359375 38.421875 13.28125 30.90625 
z
" id="MicrosoftSansSerif-65"/>
     <path d="M 33.6875 43.40625 
Q 31.734375 44 28.078125 44 
Q 21.046875 44 16.015625 36.625 
L 16.015625 0 
L 6.78125 0 
L 6.78125 51.8125 
L 16.015625 51.8125 
L 16.015625 44.578125 
Q 21.828125 52.984375 29.5 52.984375 
Q 31.453125 52.984375 33.6875 52.59375 
z
" id="MicrosoftSansSerif-72"/>
     <path d="M 39.59375 13.625 
L 39.59375 25.09375 
L 33.296875 25.09375 
Q 13.28125 25.09375 13.28125 14.203125 
Q 13.28125 10.25 16.203125 8.125 
Q 19.140625 6 24.125 6 
Q 28.65625 6 32.90625 8.046875 
Q 37.15625 10.109375 39.59375 13.625 
z
M 39.59375 5.328125 
Q 32.5625 -1.21875 21.484375 -1.21875 
Q 13.765625 -1.21875 8.78125 2.953125 
Q 3.8125 7.125 3.8125 13.71875 
Q 3.8125 31.890625 35.109375 31.890625 
L 39.59375 31.890625 
Q 39.59375 37.453125 39 39.96875 
Q 38.421875 42.484375 35.734375 44.140625 
Q 33.0625 45.796875 27.203125 45.796875 
Q 14.890625 45.796875 14.5 37.015625 
L 5.328125 37.015625 
Q 6.34375 52.984375 27.6875 52.984375 
Q 37.640625 52.984375 43.203125 49.015625 
Q 48.78125 45.0625 48.78125 33.5 
L 48.78125 0 
L 39.59375 0 
z
" id="MicrosoftSansSerif-61"/>
     <path d="M 25.296875 -1.21875 
Q 4.046875 -1.21875 3.078125 15.484375 
L 12.3125 15.484375 
Q 12.40625 6 25.203125 6 
Q 30.90625 6 33.90625 8.375 
Q 36.921875 10.75 36.921875 14.3125 
Q 36.921875 17.828125 33.984375 19.265625 
Q 31.0625 20.703125 21.90625 23 
Q 12.75 25.296875 8.515625 28.125 
Q 4.296875 30.953125 4.296875 38.09375 
Q 4.296875 44.53125 9.546875 48.75 
Q 14.796875 52.984375 23.578125 52.984375 
Q 43.953125 52.984375 44.390625 38.484375 
L 35.203125 38.484375 
Q 34.71875 45.796875 24.21875 45.796875 
Q 19.578125 45.796875 16.53125 44.03125 
Q 13.484375 42.28125 13.484375 38.921875 
Q 13.484375 35.890625 15.828125 34.546875 
Q 18.171875 33.203125 27.5625 30.921875 
Q 36.96875 28.65625 41.53125 25.625 
Q 46.09375 22.609375 46.09375 15.1875 
Q 46.09375 8.109375 40.453125 3.4375 
Q 34.8125 -1.21875 25.296875 -1.21875 
z
" id="MicrosoftSansSerif-73"/>
    </defs>
    <g transform="translate(234.171038 120.850143)scale(0.08328 -0.08328)">
     <use xlink:href="#MicrosoftSansSerif-41"/>
     <use x="66.699219" xlink:href="#MicrosoftSansSerif-66"/>
     <use x="94.482422" xlink:href="#MicrosoftSansSerif-74"/>
     <use x="122.265625" xlink:href="#MicrosoftSansSerif-65"/>
     <use x="177.880859" xlink:href="#MicrosoftSansSerif-72"/>
     <use x="211.181641" xlink:href="#MicrosoftSansSerif-74"/>
     <use x="238.964844" xlink:href="#MicrosoftSansSerif-61"/>
     <use x="294.580078" xlink:href="#MicrosoftSansSerif-73"/>
     <use x="344.580078" xlink:href="#MicrosoftSansSerif-74"/>
     <use x="372.363281" xlink:href="#MicrosoftSansSerif-65"/>
    </g>
    <!-- 5.00 -->
    <g transform="translate(253.603905 129.662469)scale(0.08328 -0.08328)">
     <use xlink:href="#MicrosoftSansSerif-35"/>
     <use x="55.615234" xlink:href="#MicrosoftSansSerif-2e"/>
     <use x="83.398438" xlink:href="#MicrosoftSansSerif-30"/>
     <use x="139.013672" xlink:href="#MicrosoftSansSerif-30"/>
    </g>
   </g>
   <g id="text_9">
    <!-- Clean Cup -->
    <defs>
     <path d="M 37.984375 -1.21875 
Q 22.796875 -1.21875 13.734375 8.765625 
Q 4.6875 18.75 4.6875 35.796875 
Q 4.6875 52.828125 13.734375 62.8125 
Q 22.796875 72.796875 37.984375 72.796875 
Q 49.65625 72.796875 57.859375 66.5 
Q 66.0625 60.203125 67.09375 49.90625 
L 57.328125 49.90625 
Q 56.734375 56.6875 51.4375 60.6875 
Q 46.140625 64.703125 38.09375 64.703125 
Q 27.203125 64.703125 20.84375 57.203125 
Q 14.5 49.703125 14.5 35.796875 
Q 14.5 21.921875 20.796875 14.40625 
Q 27.09375 6.890625 37.890625 6.890625 
Q 46.296875 6.890625 51.46875 10.984375 
Q 56.640625 15.09375 57.328125 22.703125 
L 67.09375 22.703125 
Q 66.0625 11.28125 58.09375 5.03125 
Q 50.140625 -1.21875 37.984375 -1.21875 
z
" id="MicrosoftSansSerif-43"/>
     <path d="M 16.015625 0 
L 6.78125 0 
L 6.78125 71.578125 
L 16.015625 71.578125 
z
" id="MicrosoftSansSerif-6c"/>
     <path d="M 16.015625 45.21875 
Q 22.90625 52.984375 31.5 52.984375 
Q 49.03125 52.984375 49.03125 33.890625 
L 49.03125 0 
L 39.796875 0 
L 39.796875 33.5 
Q 39.796875 39.84375 37.515625 42.625 
Q 35.25 45.40625 30.078125 45.40625 
Q 23.046875 45.40625 16.015625 37.109375 
L 16.015625 0 
L 6.78125 0 
L 6.78125 51.8125 
L 16.015625 51.8125 
z
" id="MicrosoftSansSerif-6e"/>
     <path d="M 39.59375 6.59375 
Q 32.71875 -1.21875 24.125 -1.21875 
Q 6.59375 -1.21875 6.59375 17.921875 
L 6.59375 51.8125 
L 15.828125 51.8125 
L 15.828125 18.3125 
Q 15.828125 11.96875 18.0625 9.171875 
Q 20.3125 6.390625 25.484375 6.390625 
Q 33.203125 6.390625 39.59375 14.703125 
L 39.59375 51.8125 
L 48.78125 51.8125 
L 48.78125 0 
L 39.59375 0 
z
" id="MicrosoftSansSerif-75"/>
     <path d="M 16.015625 45.609375 
Q 22.171875 52.984375 30.8125 52.984375 
Q 40.96875 52.984375 46.53125 45.78125 
Q 52.09375 38.578125 52.09375 26.3125 
Q 52.09375 13.578125 45.875 6.171875 
Q 39.65625 -1.21875 30.171875 -1.21875 
Q 21.78125 -1.21875 16.015625 4 
L 16.015625 -19.921875 
L 6.78125 -19.921875 
L 6.78125 51.8125 
L 16.015625 51.8125 
z
M 16.015625 12.3125 
Q 21.921875 6 29.59375 6 
Q 35.546875 6 39.0625 11.109375 
Q 42.578125 16.21875 42.578125 26.3125 
Q 42.578125 35.890625 39.25 40.84375 
Q 35.9375 45.796875 29.984375 45.796875 
Q 22.3125 45.796875 16.015625 36.921875 
z
" id="MicrosoftSansSerif-70"/>
    </defs>
    <g transform="translate(99.840635 347.236963)scale(0.08328 -0.08328)">
     <use xlink:href="#MicrosoftSansSerif-43"/>
     <use x="72.216797" xlink:href="#MicrosoftSansSerif-6c"/>
     <use x="95.019531" xlink:href="#MicrosoftSansSerif-65"/>
     <use x="150.634766" xlink:href="#MicrosoftSansSerif-61"/>
     <use x="206.25" xlink:href="#MicrosoftSansSerif-6e"/>
     <use x="261.865234" xlink:href="#MicrosoftSansSerif-20"/>
     <use x="288.427734" xlink:href="#MicrosoftSansSerif-43"/>
     <use x="360.644531" xlink:href="#MicrosoftSansSerif-75"/>
     <use x="416.259766" xlink:href="#MicrosoftSansSerif-70"/>
    </g>
    <!-- 5.00 -->
    <g transform="translate(122.928714 356.049288)scale(0.08328 -0.08328)">
     <use xlink:href="#MicrosoftSansSerif-35"/>
     <use x="55.615234" xlink:href="#MicrosoftSansSerif-2e"/>
     <use x="83.398438" xlink:href="#MicrosoftSansSerif-30"/>
     <use x="139.013672" xlink:href="#MicrosoftSansSerif-30"/>
    </g>
   </g>
   <g id="text_10">
    <!-- Head -->
    <defs>
     <path d="M 64.203125 0 
L 54.6875 0 
L 54.6875 33.6875 
L 17.484375 33.6875 
L 17.484375 0 
L 8.015625 0 
L 8.015625 71.578125 
L 17.484375 71.578125 
L 17.484375 42.1875 
L 54.6875 42.1875 
L 54.6875 71.578125 
L 64.203125 71.578125 
z
" id="MicrosoftSansSerif-48"/>
    </defs>
    <g transform="translate(164.610977 604.566097)scale(0.08328 -0.08328)">
     <use xlink:href="#MicrosoftSansSerif-48"/>
     <use x="72.216797" xlink:href="#MicrosoftSansSerif-65"/>
     <use x="127.832031" xlink:href="#MicrosoftSansSerif-61"/>
     <use x="183.447266" xlink:href="#MicrosoftSansSerif-64"/>
    </g>
    <!-- 5.00 -->
    <g transform="translate(168.311732 613.378422)scale(0.08328 -0.08328)">
     <use xlink:href="#MicrosoftSansSerif-35"/>
     <use x="55.615234" xlink:href="#MicrosoftSansSerif-2e"/>
     <use x="83.398438" xlink:href="#MicrosoftSansSerif-30"/>
     <use x="139.013672" xlink:href="#MicrosoftSansSerif-30"/>
    </g>
   </g>
   <g id="text_11">
    <!-- Fragrance -->
    <defs>
     <path d="M 56.296875 63.09375 
L 17.484375 63.09375 
L 17.484375 40.921875 
L 51.125 40.921875 
L 51.125 32.421875 
L 17.484375 32.421875 
L 17.484375 0 
L 8.015625 0 
L 8.015625 71.578125 
L 56.296875 71.578125 
z
" id="MicrosoftSansSerif-46"/>
     <path d="M 48.78125 4 
Q 48.78125 -21 26.21875 -21 
Q 16.453125 -21 10.8125 -16.75 
Q 5.171875 -12.5 5.171875 -5.328125 
L 14.703125 -5.328125 
Q 14.703125 -13.8125 26.125 -13.8125 
Q 32.5625 -13.8125 36.078125 -10.265625 
Q 39.59375 -6.734375 39.59375 3.609375 
L 39.59375 6.203125 
Q 33.453125 -1.21875 24.8125 -1.21875 
Q 14.65625 -1.21875 9.078125 6 
Q 3.515625 13.234375 3.515625 25.484375 
Q 3.515625 38.1875 9.734375 45.578125 
Q 15.96875 52.984375 25.390625 52.984375 
Q 33.796875 52.984375 39.59375 47.796875 
L 39.59375 51.8125 
L 48.78125 51.8125 
z
M 39.59375 14.890625 
L 39.59375 39.5 
Q 33.640625 45.796875 25.984375 45.796875 
Q 20.0625 45.796875 16.515625 40.6875 
Q 12.984375 35.59375 12.984375 25.484375 
Q 12.984375 15.921875 16.328125 10.953125 
Q 19.671875 6 25.59375 6 
Q 33.296875 6 39.59375 14.890625 
z
" id="MicrosoftSansSerif-67"/>
    </defs>
    <g transform="translate(346.772551 772.558885)scale(0.08328 -0.08328)">
     <use xlink:href="#MicrosoftSansSerif-46"/>
     <use x="61.083984" xlink:href="#MicrosoftSansSerif-72"/>
     <use x="94.384766" xlink:href="#MicrosoftSansSerif-61"/>
     <use x="150" xlink:href="#MicrosoftSansSerif-67"/>
     <use x="205.615234" xlink:href="#MicrosoftSansSerif-72"/>
     <use x="238.916016" xlink:href="#MicrosoftSansSerif-61"/>
     <use x="294.53125" xlink:href="#MicrosoftSansSerif-6e"/>
     <use x="350.146484" xlink:href="#MicrosoftSansSerif-63"/>
     <use x="400.146484" xlink:href="#MicrosoftSansSerif-65"/>
    </g>
    <!-- 5.00 -->
    <g transform="translate(368.51774 781.460996)scale(0.08328 -0.08328)">
     <use xlink:href="#MicrosoftSansSerif-35"/>
     <use x="55.615234" xlink:href="#MicrosoftSansSerif-2e"/>
     <use x="83.398438" xlink:href="#MicrosoftSansSerif-30"/>
     <use x="139.013672" xlink:href="#MicrosoftSansSerif-30"/>
    </g>
   </g>
   <g id="text_12">
    <!-- Sweetness -->
    <defs>
     <path d="M 35.015625 -1.21875 
Q 19.875 -1.21875 12.375 5.5625 
Q 4.890625 12.359375 4.5 23 
L 13.625 23 
Q 14.359375 14.984375 20.28125 11.15625 
Q 26.21875 7.328125 34.625 7.328125 
Q 42.578125 7.328125 47.4375 10.59375 
Q 52.296875 13.875 52.296875 19.484375 
Q 52.296875 25.390625 47.265625 28.078125 
Q 42.234375 30.765625 29.953125 33.375 
Q 17.671875 35.984375 12.328125 40.625 
Q 6.984375 45.265625 6.984375 52.984375 
Q 6.984375 61.671875 13.9375 67.234375 
Q 20.90625 72.796875 32.421875 72.796875 
Q 44.53125 72.796875 51.953125 67.1875 
Q 59.375 61.578125 59.8125 51.3125 
L 50.59375 51.3125 
Q 49.171875 64.3125 32.8125 64.3125 
Q 24.90625 64.3125 20.5625 61.328125 
Q 16.21875 58.34375 16.21875 53.421875 
Q 16.21875 48.921875 19.703125 46.671875 
Q 23.1875 44.4375 32.734375 42.328125 
Q 42.28125 40.234375 47.890625 38.1875 
Q 53.515625 36.140625 57.515625 31.8125 
Q 61.53125 27.484375 61.53125 20.21875 
Q 61.53125 10.984375 54.171875 4.875 
Q 46.828125 -1.21875 35.015625 -1.21875 
z
" id="MicrosoftSansSerif-53"/>
     <path d="M 71.6875 51.8125 
L 56.109375 0 
L 47.3125 0 
L 36.078125 38.09375 
L 24.90625 0 
L 16.109375 0 
L 0.484375 51.8125 
L 10.6875 51.8125 
L 20.21875 12.3125 
L 31.890625 51.8125 
L 40.28125 51.8125 
L 52 12.3125 
L 61.53125 51.8125 
z
" id="MicrosoftSansSerif-77"/>
    </defs>
    <g transform="translate(646.075191 772.558885)scale(0.08328 -0.08328)">
     <use xlink:href="#MicrosoftSansSerif-53"/>
     <use x="66.699219" xlink:href="#MicrosoftSansSerif-77"/>
     <use x="138.916016" xlink:href="#MicrosoftSansSerif-65"/>
     <use x="194.53125" xlink:href="#MicrosoftSansSerif-65"/>
     <use x="250.146484" xlink:href="#MicrosoftSansSerif-74"/>
     <use x="277.929688" xlink:href="#MicrosoftSansSerif-6e"/>
     <use x="333.544922" xlink:href="#MicrosoftSansSerif-65"/>
     <use x="389.160156" xlink:href="#MicrosoftSansSerif-73"/>
     <use x="439.160156" xlink:href="#MicrosoftSansSerif-73"/>
    </g>
    <!-- 5.00 -->
    <g transform="translate(646.075191 781.37121)scale(0.08328 -0.08328)">
     <use xlink:href="#MicrosoftSansSerif-35"/>
     <use x="55.615234" xlink:href="#MicrosoftSansSerif-2e"/>
     <use x="83.398438" xlink:href="#MicrosoftSansSerif-30"/>
     <use x="139.013672" xlink:href="#MicrosoftSansSerif-30"/>
    </g>
   </g>
   <g id="text_13">
    <!-- Aroma -->
    <defs>
     <path d="M 27.78125 52.984375 
Q 38.875 52.984375 45.484375 45.890625 
Q 52.09375 38.8125 52.09375 25.875 
Q 52.09375 12.984375 45.484375 5.875 
Q 38.875 -1.21875 27.78125 -1.21875 
Q 16.75 -1.21875 10.125 5.875 
Q 3.515625 12.984375 3.515625 25.875 
Q 3.515625 38.8125 10.125 45.890625 
Q 16.75 52.984375 27.78125 52.984375 
z
M 27.78125 6 
Q 34.375 6 38.46875 11 
Q 42.578125 16.015625 42.578125 25.875 
Q 42.578125 35.796875 38.46875 40.796875 
Q 34.375 45.796875 27.78125 45.796875 
Q 21.1875 45.796875 17.078125 40.796875 
Q 12.984375 35.796875 12.984375 25.875 
Q 12.984375 16.015625 17.078125 11 
Q 21.1875 6 27.78125 6 
z
" id="MicrosoftSansSerif-6f"/>
     <path d="M 76.8125 0 
L 67.578125 0 
L 67.578125 33.5 
Q 67.578125 39.9375 65.71875 42.671875 
Q 63.875 45.40625 59.515625 45.40625 
Q 52.828125 45.40625 46.390625 37.109375 
L 46.390625 0 
L 37.203125 0 
L 37.203125 33.5 
Q 37.203125 39.9375 35.34375 42.671875 
Q 33.5 45.40625 29.109375 45.40625 
Q 22.40625 45.40625 16.015625 37.109375 
L 16.015625 0 
L 6.78125 0 
L 6.78125 51.8125 
L 16.015625 51.8125 
L 16.015625 45.21875 
Q 22.5625 52.984375 30.515625 52.984375 
Q 41.890625 52.984375 45.015625 43.609375 
Q 50.203125 49.703125 53.8125 51.34375 
Q 57.421875 52.984375 60.890625 52.984375 
Q 76.8125 52.984375 76.8125 33.890625 
z
" id="MicrosoftSansSerif-6d"/>
    </defs>
    <g transform="translate(846.2812 604.566097)scale(0.08328 -0.08328)">
     <use xlink:href="#MicrosoftSansSerif-41"/>
     <use x="66.699219" xlink:href="#MicrosoftSansSerif-72"/>
     <use x="100" xlink:href="#MicrosoftSansSerif-6f"/>
     <use x="155.615234" xlink:href="#MicrosoftSansSerif-6d"/>
     <use x="238.916016" xlink:href="#MicrosoftSansSerif-61"/>
    </g>
    <!-- 5.00 -->
    <g transform="translate(846.2812 613.378422)scale(0.08328 -0.08328)">
     <use xlink:href="#MicrosoftSansSerif-35"/>
     <use x="55.615234" xlink:href="#MicrosoftSansSerif-2e"/>
     <use x="83.398438" xlink:href="#MicrosoftSansSerif-30"/>
     <use x="139.013672" xlink:href="#MicrosoftSansSerif-30"/>
    </g>
   </g>
   <g id="text_14">
    <!-- Balance -->
    <defs>
     <path d="M 61.53125 20.796875 
Q 61.53125 10.75 54.6875 5.375 
Q 47.859375 0 34.8125 0 
L 8.015625 0 
L 8.015625 71.578125 
L 33.5 71.578125 
Q 44.921875 71.578125 51.46875 66.6875 
Q 58.015625 61.8125 58.015625 53.328125 
Q 58.015625 42.96875 47.703125 37.984375 
Q 54.640625 36.234375 58.078125 31.515625 
Q 61.53125 26.8125 61.53125 20.796875 
z
M 17.484375 41.609375 
L 33.40625 41.609375 
Q 41.265625 41.609375 44.96875 44.109375 
Q 48.6875 46.625 48.6875 52.484375 
Q 48.6875 57.765625 45.0625 60.421875 
Q 41.453125 63.09375 32.515625 63.09375 
L 17.484375 63.09375 
z
M 17.484375 8.5 
L 34.71875 8.5 
Q 51.703125 8.5 51.703125 20.796875 
Q 51.703125 27.203125 47.765625 30.15625 
Q 43.84375 33.109375 33.5 33.109375 
L 17.484375 33.109375 
z
" id="MicrosoftSansSerif-42"/>
    </defs>
    <g transform="translate(891.664217 347.186214)scale(0.08328 -0.08328)">
     <use xlink:href="#MicrosoftSansSerif-42"/>
     <use x="66.699219" xlink:href="#MicrosoftSansSerif-61"/>
     <use x="122.314453" xlink:href="#MicrosoftSansSerif-6c"/>
     <use x="145.117188" xlink:href="#MicrosoftSansSerif-61"/>
     <use x="200.732422" xlink:href="#MicrosoftSansSerif-6e"/>
     <use x="256.347656" xlink:href="#MicrosoftSansSerif-63"/>
     <use x="306.347656" xlink:href="#MicrosoftSansSerif-65"/>
    </g>
    <!-- 5.00 -->
    <g transform="translate(891.664217 355.998539)scale(0.08328 -0.08328)">
     <use xlink:href="#MicrosoftSansSerif-35"/>
     <use x="55.615234" xlink:href="#MicrosoftSansSerif-2e"/>
     <use x="83.398438" xlink:href="#MicrosoftSansSerif-30"/>
     <use x="139.013672" xlink:href="#MicrosoftSansSerif-30"/>
    </g>
   </g>
   <g id="text_15">
    <!-- Body -->
    <g transform="translate(760.989026 120.850143)scale(0.08328 -0.08328)">
     <use xlink:href="#MicrosoftSansSerif-42"/>
     <use x="66.699219" xlink:href="#MicrosoftSansSerif-6f"/>
     <use x="122.314453" xlink:href="#MicrosoftSansSerif-64"/>
     <use x="177.929688" xlink:href="#MicrosoftSansSerif-79"/>
    </g>
    <!-- 5.00 -->
    <g transform="translate(760.989026 129.752255)scale(0.08328 -0.08328)">
     <use xlink:href="#MicrosoftSansSerif-35"/>
     <use x="55.615234" xlink:href="#MicrosoftSansSerif-2e"/>
     <use x="83.398438" xlink:href="#MicrosoftSansSerif-30"/>
     <use x="139.013672" xlink:href="#MicrosoftSansSerif-30"/>
    </g>
   </g>
   <g id="text_16">
    <g id="patch_6">
     <path d="M 490.426875 428.137569 
L 540.373125 428.137569 
L 540.373125 397.237569 
L 490.426875 397.237569 
z
" style="fill:#ffff00;opacity:0.3;stroke:#000000;stroke-linejoin:miter;"/>
    </g>
    <!-- 50.00 -->
    <g style="fill:#0000ff;" transform="translate(500.386875 415.786944)scale(0.12 -0.12)">
     <use xlink:href="#MicrosoftSansSerif-35"/>
     <use x="55.615234" xlink:href="#MicrosoftSansSerif-30"/>
     <use x="111.230469" xlink:href="#MicrosoftSansSerif-2e"/>
     <use x="139.013672" xlink:href="#MicrosoftSansSerif-30"/>
     <use x="194.628906" xlink:href="#MicrosoftSansSerif-30"/>
    </g>
   </g>
   <g id="text_17">
    <!--  - -->
    <g style="opacity:0;" transform="translate(511.090125 12.480794)scale(0.144 -0.144)">
     <use xlink:href="#MicrosoftSansSerif-20"/>
     <use x="26.5625" xlink:href="#MicrosoftSansSerif-2d"/>
    </g>
    <!--   -->
    <g style="opacity:0;" transform="translate(513.4875 27.718244)scale(0.144 -0.144)">
     <use xlink:href="#MicrosoftSansSerif-20"/>
    </g>
   </g>
  </g>
 </g>
 <defs>
  <clipPath id="pe126ff5f5a">
   <path d="M 862.735181 415.786944 
C 862.735181 370.175306 853.750683 325.007183 836.295865 282.867524 
C 818.841047 240.727866 793.255361 202.43618 761.003062 170.183882 
C 728.750763 137.931583 690.459078 112.345897 648.319419 94.891079 
C 606.17976 77.436261 561.011638 68.451763 515.4 68.451763 
C 469.788362 68.451763 424.62024 77.436261 382.480581 94.891079 
C 340.340922 112.345897 302.049237 137.931583 269.796938 170.183882 
C 237.544639 202.43618 211.958953 240.727866 194.504135 282.867524 
C 177.049317 325.007183 168.064819 370.175306 168.064819 415.786944 
C 168.064819 461.398582 177.049317 506.566704 194.504135 548.706363 
C 211.958953 590.846022 237.544639 629.137707 269.796938 661.390006 
C 302.049237 693.642304 340.340922 719.22799 382.480581 736.682809 
C 424.62024 754.137627 469.788362 763.122125 515.4 763.122125 
C 561.011638 763.122125 606.17976 754.137627 648.319419 736.682809 
C 690.459078 719.22799 728.750763 693.642304 761.003062 661.390006 
C 793.255361 629.137707 818.841047 590.846022 836.295865 548.706363 
C 853.750683 506.566704 862.735181 461.398582 862.735181 415.786944 
M 515.4 415.786944 
C 515.4 415.786944 515.4 415.786944 515.4 415.786944 
C 515.4 415.786944 515.4 415.786944 515.4 415.786944 
C 515.4 415.786944 515.4 415.786944 515.4 415.786944 
C 515.4 415.786944 515.4 415.786944 515.4 415.786944 
C 515.4 415.786944 515.4 415.786944 515.4 415.786944 
C 515.4 415.786944 515.4 415.786944 515.4 415.786944 
C 515.4 415.786944 515.4 415.786944 515.4 415.786944 
C 515.4 415.786944 515.4 415.786944 515.4 415.786944 
C 515.4 415.786944 515.4 415.786944 515.4 415.786944 
C 515.4 415.786944 515.4 415.786944 515.4 415.786944 
C 515.4 415.786944 515.4 415.786944 515.4 415.786944 
C 515.4 415.786944 515.4 415.786944 515.4 415.786944 
C 515.4 415.786944 515.4 415.786944 515.4 415.786944 
C 515.4 415.786944 515.4 415.786944 515.4 415.786944 
C 515.4 415.786944 515.4 415.786944 515.4 415.786944 
C 515.4 415.786944 515.4 415.786944 515.4 415.786944 
M 862.735181 415.786944 
z
"/>
  </clipPath>
 </defs>
</svg>
