<?xml version="1.0" encoding="utf-8" standalone="no"?>
<!DOCTYPE svg PUBLIC "-//W3C//DTD SVG 1.1//EN"
  "http://www.w3.org/Graphics/SVG/1.1/DTD/svg11.dtd">
<!-- Created with matplotlib (http://matplotlib.org/) -->
<svg height="793.2pt" version="1.1" viewBox="0 0 1030.8 793.2" width="1030.8pt" xmlns="http://www.w3.org/2000/svg" xmlns:xlink="http://www.w3.org/1999/xlink">
 <defs>
  <style type="text/css">
*{stroke-linecap:butt;stroke-linejoin:round;}
  </style>
 </defs>
 <g id="figure_1">
  <g id="patch_1">
   <path d="M 0 793.2 
L 1030.8 793.2 
L 1030.8 0 
L 0 0 
z
" style="fill:#ffffff;"/>
  </g>
  <g id="axes_1">
   <g id="patch_2">
    <path d="M 862.735838 415.786288 
C 862.735838 370.174563 853.751322 325.006356 836.296471 282.866617 
C 818.84162 240.726879 793.255886 202.435121 761.003526 170.182761 
C 728.751167 137.930402 690.459409 112.344668 648.31967 94.889816 
C 606.179932 77.434965 561.011724 68.45045 515.4 68.45045 
C 469.788276 68.45045 424.620068 77.434965 382.48033 94.889816 
C 340.340591 112.344668 302.048833 137.930402 269.796474 170.182761 
C 237.544114 202.435121 211.95838 240.726879 194.503529 282.866617 
C 177.048678 325.006356 168.064163 370.174563 168.064163 415.786288 
C 168.064163 461.398012 177.048678 506.566219 194.503529 548.705958 
C 211.95838 590.845696 237.544114 629.137454 269.796474 661.389814 
C 302.048833 693.642173 340.340591 719.227907 382.48033 736.682759 
C 424.620068 754.13761 469.788276 763.122125 515.4 763.122125 
C 561.011724 763.122125 606.179932 754.13761 648.31967 736.682759 
C 690.459409 719.227907 728.751167 693.642173 761.003526 661.389814 
C 793.255886 629.137454 818.84162 590.845696 836.296471 548.705958 
C 853.751322 506.566219 862.735838 461.398012 862.735838 415.786288 
M 515.4 415.786288 
C 515.4 415.786288 515.4 415.786288 515.4 415.786288 
C 515.4 415.786288 515.4 415.786288 515.4 415.786288 
C 515.4 415.786288 515.4 415.786288 515.4 415.786288 
C 515.4 415.786288 515.4 415.786288 515.4 415.786288 
C 515.4 415.786288 515.4 415.786288 515.4 415.786288 
C 515.4 415.786288 515.4 415.786288 515.4 415.786288 
C 515.4 415.786288 515.4 415.786288 515.4 415.786288 
C 515.4 415.786288 515.4 415.786288 515.4 415.786288 
C 515.4 415.786288 515.4 415.786288 515.4 415.786288 
C 515.4 415.786288 515.4 415.786288 515.4 415.786288 
C 515.4 415.786288 515.4 415.786288 515.4 415.786288 
C 515.4 415.786288 515.4 415.786288 515.4 415.786288 
C 515.4 415.786288 515.4 415.786288 515.4 415.786288 
C 515.4 415.786288 515.4 415.786288 515.4 415.786288 
C 515.4 415.786288 515.4 415.786288 515.4 415.786288 
C 515.4 415.786288 515.4 415.786288 515.4 415.786288 
M 862.735838 415.786288 
z
" style="fill:none;"/>
   </g>
   <g id="PolyCollection_1">
    <path clip-path="url(#p0258a3c816)" d="M 515.4 415.786288 
L 515.4 415.786288 
L 515.4 415.786288 
L 515.4 415.786288 
L 515.4 415.786288 
L 515.4 415.786288 
L 515.4 415.786288 
L 515.4 415.786288 
L 515.4 415.786288 
L 515.4 415.786288 
L 515.4 415.786288 
L 515.4 415.786288 
L 515.4 242.118369 
L 627.031586 282.748943 
L 686.429513 385.62917 
L 665.800829 502.620247 
L 574.797926 578.980749 
L 456.002074 578.980749 
L 364.999171 502.620247 
L 344.370487 385.62917 
L 403.768414 282.748943 
L 515.4 242.118369 
z
" style="fill:#008000;fill-opacity:0.1;"/>
   </g>
   <g id="patch_3">
    <path clip-path="url(#p0258a3c816)" d="M 308.039637 436.591722 
L 309.755199 449.570932 
L 312.282348 462.416809 
L 315.611109 475.078658 
L 319.728345 487.506506 
L 324.617808 499.651307 
L 330.260201 511.465132 
L 336.633257 522.901356 
L 343.711823 533.914845 
L 351.467964 544.462135 
L 359.87107 554.501601 
L 368.887977 563.99362 
L 378.4831 572.900733 
L 388.618572 581.187786 
L 399.254393 588.822076 
L 410.348586 595.773472 
L 421.85737 602.014542 
L 433.735324 607.520653 
L 445.935571 612.270077 
L 458.409962 616.244068 
L 471.109267 619.426945 
L 483.983368 621.806144 
L 496.981455 623.372278 
L 510.052232 624.119164 
L 523.144114 624.043856 
L 536.205434 623.146651 
L 549.184644 621.431088 
L 562.030522 618.90394 
L 574.69237 615.575179 
L 587.120218 611.457942 
L 599.26502 606.568479 
L 611.078844 600.926086 
L 622.515068 594.553031 
L 633.528558 587.474465 
L 644.075848 579.718324 
L 654.115313 571.315218 
L 663.607332 562.29831 
L 672.514445 552.703187 
L 680.801499 542.567715 
L 688.435789 531.931895 
L 695.387185 520.837701 
L 701.628254 509.328917 
L 707.134366 497.450963 
L 711.883789 485.250716 
L 715.857781 472.776325 
L 719.040657 460.07702 
L 721.419857 447.20292 
L 722.98599 434.204832 
L 723.732877 421.134055 
L 723.657569 408.042173 
L 722.760363 394.980853 
L 721.044801 382.001643 
L 718.517652 369.155766 
L 715.188891 356.493917 
L 711.071655 344.066069 
L 706.182192 331.921268 
L 700.539799 320.107443 
L 694.166743 308.671219 
L 687.088177 297.65773 
L 679.332036 287.11044 
L 670.92893 277.070974 
L 661.912023 267.578955 
L 652.3169 258.671842 
L 642.181428 250.384789 
L 631.545607 242.750499 
L 620.451414 235.799103 
L 608.94263 229.558033 
L 597.064676 224.051922 
L 584.864429 219.302498 
L 572.390038 215.328507 
L 559.690733 212.14563 
L 546.816632 209.766431 
L 533.818545 208.200297 
L 520.747768 207.453411 
L 507.655886 207.528719 
L 494.594566 208.425924 
L 481.615356 210.141487 
L 468.769478 212.668635 
L 456.10763 215.997396 
L 443.679782 220.114633 
L 431.53498 225.004096 
L 419.721156 230.646489 
L 408.284932 237.019544 
L 397.271442 244.09811 
L 386.724152 251.854251 
L 376.684687 260.257357 
L 367.192668 269.274265 
L 358.285555 278.869388 
L 349.998501 289.00486 
L 342.364211 299.64068 
L 335.412815 310.734874 
L 329.171746 322.243658 
L 323.665634 334.121612 
L 318.916211 346.321859 
L 314.942219 358.79625 
L 311.759343 371.495555 
L 309.380143 384.369655 
L 307.81401 397.367743 
L 307.067123 410.43852 
L 307.142431 423.530402 
L 308.039637 436.591722 
L 307.694036 436.626397 
L 307.348436 436.661073 
L 307.002835 436.695749 
L 306.657235 436.730424 
L 306.311634 436.7651 
L 305.966033 436.799776 
L 305.620433 436.834452 
L 305.274832 436.869127 
L 304.929232 436.903803 
L 304.583631 436.938479 
L 304.23803 436.973154 
L 303.89243 437.00783 
L 303.546829 437.042506 
L 303.201228 437.077182 
L 302.855628 437.111857 
L 302.510027 437.146533 
L 302.164427 437.181209 
L 301.818826 437.215885 
L 301.473225 437.25056 
L 301.127625 437.285236 
L 300.782024 437.319912 
L 300.436424 437.354587 
L 300.090823 437.389263 
L 299.745222 437.423939 
L 299.399622 437.458615 
L 299.054021 437.49329 
L 298.708421 437.527966 
L 298.36282 437.562642 
L 298.017219 437.597318 
L 297.671619 437.631993 
L 297.326018 437.666669 
L 296.980418 437.701345 
L 296.634817 437.73602 
L 296.289216 437.770696 
L 295.943616 437.805372 
L 295.598015 437.840048 
L 295.252415 437.874723 
L 294.906814 437.909399 
L 294.561213 437.944075 
L 294.215613 437.97875 
L 293.870012 438.013426 
L 293.524412 438.048102 
L 293.178811 438.082778 
L 292.83321 438.117453 
L 292.48761 438.152129 
L 292.142009 438.186805 
L 291.796409 438.221481 
L 291.450808 438.256156 
L 291.105207 438.290832 
L 290.759607 438.325508 
L 290.414006 438.360183 
L 290.068405 438.394859 
L 289.722805 438.429535 
L 289.377204 438.464211 
L 289.031604 438.498886 
L 288.686003 438.533562 
L 288.340402 438.568238 
L 287.994802 438.602913 
L 287.649201 438.637589 
L 287.303601 438.672265 
L 286.958 438.706941 
L 286.612399 438.741616 
L 286.266799 438.776292 
L 285.921198 438.810968 
L 285.575598 438.845644 
L 285.229997 438.880319 
L 284.884396 438.914995 
L 284.538796 438.949671 
L 284.193195 438.984346 
L 283.847595 439.019022 
L 283.501994 439.053698 
L 283.156393 439.088374 
L 282.810793 439.123049 
L 282.465192 439.157725 
L 282.119592 439.192401 
L 281.773991 439.227077 
L 281.42839 439.261752 
L 281.08279 439.296428 
L 280.737189 439.331104 
L 280.391589 439.365779 
L 280.045988 439.400455 
L 279.700387 439.435131 
L 279.354787 439.469807 
L 279.009186 439.504482 
L 278.663586 439.539158 
L 278.317985 439.573834 
L 277.972384 439.608509 
L 277.626784 439.643185 
L 277.281183 439.677861 
L 276.935583 439.712537 
L 276.589982 439.747212 
L 276.244381 439.781888 
L 275.898781 439.816564 
L 275.55318 439.85124 
L 275.207579 439.885915 
L 274.861979 439.920591 
L 274.516378 439.955267 
L 274.170778 439.989942 
L 273.825177 440.024618 
L 273.479576 440.059294 
L 272.432836 424.821088 
L 272.344977 409.547225 
L 273.216344 394.297985 
L 275.0435 379.13355 
L 277.819233 364.113766 
L 281.532589 349.29791 
L 286.168913 334.744454 
L 291.709907 320.510832 
L 298.133703 306.653219 
L 305.414951 293.226305 
L 313.524913 280.283079 
L 322.431585 267.874622 
L 332.099814 256.049905 
L 342.491446 244.855594 
L 353.565468 234.335869 
L 365.278178 224.532245 
L 377.583349 215.483414 
L 390.432421 207.225087 
L 403.774682 199.789856 
L 417.557477 193.207064 
L 431.726412 187.50269 
L 446.225568 182.699248 
L 460.997725 178.815693 
L 475.984582 175.867353 
L 491.126994 173.865864 
L 506.3652 172.819124 
L 521.639062 172.731264 
L 536.888302 173.602632 
L 552.052738 175.429788 
L 567.072521 178.205521 
L 581.888377 181.918877 
L 596.441834 186.5552 
L 610.675455 192.096194 
L 624.533068 198.519991 
L 637.959983 205.801238 
L 650.903209 213.911201 
L 663.311666 222.817872 
L 675.136383 232.486102 
L 686.330693 242.877733 
L 696.850419 253.951756 
L 706.654042 265.664465 
L 715.702873 277.969637 
L 723.9612 290.818708 
L 731.396432 304.160969 
L 737.979224 317.943764 
L 743.683597 332.112699 
L 748.48704 346.611856 
L 752.370594 361.384012 
L 755.318934 376.370869 
L 757.320424 391.513281 
L 758.367164 406.751487 
L 758.455023 422.02535 
L 757.583656 437.27459 
L 755.7565 452.439025 
L 752.980767 467.458809 
L 749.267411 482.274665 
L 744.631087 496.828121 
L 739.090093 511.061743 
L 732.666297 524.919356 
L 725.385049 538.34627 
L 717.275087 551.289496 
L 708.368415 563.697953 
L 698.700186 575.52267 
L 688.308554 586.716981 
L 677.234532 597.236706 
L 665.521822 607.04033 
L 653.216651 616.089161 
L 640.367579 624.347488 
L 627.025318 631.782719 
L 613.242523 638.365511 
L 599.073588 644.069885 
L 584.574432 648.873327 
L 569.802275 652.756882 
L 554.815418 655.705222 
L 539.673006 657.706711 
L 524.4348 658.753451 
L 509.160938 658.841311 
L 493.911698 657.969943 
L 478.747262 656.142787 
L 463.727479 653.367054 
L 448.911623 649.653698 
L 434.358166 645.017375 
L 420.124545 639.476381 
L 406.266932 633.052584 
L 392.840017 625.771337 
L 379.896791 617.661374 
L 367.488334 608.754703 
L 355.663617 599.086473 
L 344.469307 588.694842 
L 333.949581 577.620819 
L 324.145958 565.90811 
L 315.097127 553.602938 
L 306.8388 540.753867 
L 299.403568 527.411606 
L 292.820776 513.628811 
L 287.116403 499.459876 
L 282.31296 484.960719 
L 278.429406 470.188563 
L 275.481066 455.201706 
L 273.479576 440.059294 
L 273.825177 440.024618 
L 274.170778 439.989942 
L 274.516378 439.955267 
L 274.861979 439.920591 
L 275.207579 439.885915 
L 275.55318 439.85124 
L 275.898781 439.816564 
L 276.244381 439.781888 
L 276.589982 439.747212 
L 276.935583 439.712537 
L 277.281183 439.677861 
L 277.626784 439.643185 
L 277.972384 439.608509 
L 278.317985 439.573834 
L 278.663586 439.539158 
L 279.009186 439.504482 
L 279.354787 439.469807 
L 279.700387 439.435131 
L 280.045988 439.400455 
L 280.391589 439.365779 
L 280.737189 439.331104 
L 281.08279 439.296428 
L 281.42839 439.261752 
L 281.773991 439.227077 
L 282.119592 439.192401 
L 282.465192 439.157725 
L 282.810793 439.123049 
L 283.156393 439.088374 
L 283.501994 439.053698 
L 283.847595 439.019022 
L 284.193195 438.984346 
L 284.538796 438.949671 
L 284.884396 438.914995 
L 285.229997 438.880319 
L 285.575598 438.845644 
L 285.921198 438.810968 
L 286.266799 438.776292 
L 286.612399 438.741616 
L 286.958 438.706941 
L 287.303601 438.672265 
L 287.649201 438.637589 
L 287.994802 438.602913 
L 288.340402 438.568238 
L 288.686003 438.533562 
L 289.031604 438.498886 
L 289.377204 438.464211 
L 289.722805 438.429535 
L 290.068405 438.394859 
L 290.414006 438.360183 
L 290.759607 438.325508 
L 291.105207 438.290832 
L 291.450808 438.256156 
L 291.796409 438.221481 
L 292.142009 438.186805 
L 292.48761 438.152129 
L 292.83321 438.117453 
L 293.178811 438.082778 
L 293.524412 438.048102 
L 293.870012 438.013426 
L 294.215613 437.97875 
L 294.561213 437.944075 
L 294.906814 437.909399 
L 295.252415 437.874723 
L 295.598015 437.840048 
L 295.943616 437.805372 
L 296.289216 437.770696 
L 296.634817 437.73602 
L 296.980418 437.701345 
L 297.326018 437.666669 
L 297.671619 437.631993 
L 298.017219 437.597318 
L 298.36282 437.562642 
L 298.708421 437.527966 
L 299.054021 437.49329 
L 299.399622 437.458615 
L 299.745222 437.423939 
L 300.090823 437.389263 
L 300.436424 437.354587 
L 300.782024 437.319912 
L 301.127625 437.285236 
L 301.473225 437.25056 
L 301.818826 437.215885 
L 302.164427 437.181209 
L 302.510027 437.146533 
L 302.855628 437.111857 
L 303.201228 437.077182 
L 303.546829 437.042506 
L 303.89243 437.00783 
L 304.23803 436.973154 
L 304.583631 436.938479 
L 304.929232 436.903803 
L 305.274832 436.869127 
L 305.620433 436.834452 
L 305.966033 436.799776 
L 306.311634 436.7651 
L 306.657235 436.730424 
L 307.002835 436.695749 
L 307.348436 436.661073 
L 307.694036 436.626397 
z
" style="fill:#008000;opacity:0.1;"/>
   </g>
   <g id="patch_4">
    <path clip-path="url(#p0258a3c816)" d="M 238.919516 443.526866 
L 241.206932 460.83248 
L 244.576464 477.960317 
L 249.014812 494.842781 
L 254.50446 511.413245 
L 261.023744 527.606314 
L 268.546935 543.35808 
L 277.044343 558.606378 
L 286.482431 573.291031 
L 296.823952 587.354084 
L 308.028093 600.740038 
L 320.050636 613.396064 
L 332.844134 625.272214 
L 346.358096 636.321619 
L 360.53919 646.500672 
L 375.331449 655.769201 
L 390.676494 664.090626 
L 406.513765 671.432108 
L 422.780761 677.764673 
L 439.413283 683.063329 
L 456.34569 687.307164 
L 473.511157 690.47943 
L 490.84194 692.567608 
L 508.269643 693.563457 
L 525.725486 693.463046 
L 543.140579 692.266772 
L 560.446192 689.979355 
L 577.574029 686.609824 
L 594.456493 682.171476 
L 611.026958 676.681827 
L 627.220026 670.162543 
L 642.971792 662.639352 
L 658.220091 654.141945 
L 672.904743 644.703857 
L 686.967797 634.362336 
L 700.353751 623.158195 
L 713.009776 611.135651 
L 724.885927 598.342154 
L 735.935332 584.828191 
L 746.114385 570.647097 
L 755.382913 555.854839 
L 763.704339 540.509794 
L 771.045821 524.672522 
L 777.378385 508.405526 
L 782.677041 491.773004 
L 786.920876 474.840598 
L 790.093143 457.67513 
L 792.181321 440.344347 
L 793.177169 422.916645 
L 793.076758 405.460802 
L 791.880484 388.045709 
L 789.593068 370.740095 
L 786.223536 353.612258 
L 781.785188 336.729794 
L 776.29554 320.15933 
L 769.776256 303.966261 
L 762.253065 288.214495 
L 753.755657 272.966197 
L 744.317569 258.281544 
L 733.976048 244.218491 
L 722.771907 230.832537 
L 710.749364 218.176511 
L 697.955866 206.300361 
L 684.441904 195.250956 
L 670.26081 185.071903 
L 655.468551 175.803374 
L 640.123506 167.481949 
L 624.286235 160.140467 
L 608.019239 153.807902 
L 591.386717 148.509246 
L 574.45431 144.265411 
L 557.288843 141.093145 
L 539.95806 139.004967 
L 522.530357 138.009118 
L 505.074514 138.109529 
L 487.659421 139.305803 
L 470.353808 141.59322 
L 453.225971 144.962751 
L 436.343507 149.401099 
L 419.773042 154.890748 
L 403.579974 161.410032 
L 387.828208 168.933223 
L 372.579909 177.43063 
L 357.895257 186.868718 
L 343.832203 197.210239 
L 330.446249 208.41438 
L 317.790224 220.436924 
L 305.914073 233.230421 
L 294.864668 246.744384 
L 284.685615 260.925478 
L 275.417087 275.717736 
L 267.095661 291.062781 
L 259.754179 306.900053 
L 253.421615 323.167049 
L 248.122959 339.799571 
L 243.879124 356.731977 
L 240.706857 373.897445 
L 238.618679 391.228228 
L 237.622831 408.65593 
L 237.723242 426.111773 
L 238.919516 443.526866 
L 238.573915 443.561542 
L 238.228315 443.596218 
L 237.882714 443.630893 
L 237.537114 443.665569 
L 237.191513 443.700245 
L 236.845912 443.734921 
L 236.500312 443.769596 
L 236.154711 443.804272 
L 235.809111 443.838948 
L 235.46351 443.873623 
L 235.117909 443.908299 
L 234.772309 443.942975 
L 234.426708 443.977651 
L 234.081107 444.012326 
L 233.735507 444.047002 
L 233.389906 444.081678 
L 233.044306 444.116354 
L 232.698705 444.151029 
L 232.353104 444.185705 
L 232.007504 444.220381 
L 231.661903 444.255056 
L 231.316303 444.289732 
L 230.970702 444.324408 
L 230.625101 444.359084 
L 230.279501 444.393759 
L 229.9339 444.428435 
L 229.5883 444.463111 
L 229.242699 444.497786 
L 228.897098 444.532462 
L 228.551498 444.567138 
L 228.205897 444.601814 
L 227.860297 444.636489 
L 227.514696 444.671165 
L 227.169095 444.705841 
L 226.823495 444.740517 
L 226.477894 444.775192 
L 226.132294 444.809868 
L 225.786693 444.844544 
L 225.441092 444.879219 
L 225.095492 444.913895 
L 224.749891 444.948571 
L 224.404291 444.983247 
L 224.05869 445.017922 
L 223.713089 445.052598 
L 223.367489 445.087274 
L 223.021888 445.121949 
L 222.676288 445.156625 
L 222.330687 445.191301 
L 221.985086 445.225977 
L 221.639486 445.260652 
L 221.293885 445.295328 
L 220.948284 445.330004 
L 220.602684 445.36468 
L 220.257083 445.399355 
L 219.911483 445.434031 
L 219.565882 445.468707 
L 219.220281 445.503382 
L 218.874681 445.538058 
L 218.52908 445.572734 
L 218.18348 445.60741 
L 217.837879 445.642085 
L 217.492278 445.676761 
L 217.146678 445.711437 
L 216.801077 445.746113 
L 216.455477 445.780788 
L 216.109876 445.815464 
L 215.764275 445.85014 
L 215.418675 445.884815 
L 215.073074 445.919491 
L 214.727474 445.954167 
L 214.381873 445.988843 
L 214.036272 446.023518 
L 213.690672 446.058194 
L 213.345071 446.09287 
L 212.999471 446.127545 
L 212.65387 446.162221 
L 212.308269 446.196897 
L 211.962669 446.231573 
L 211.617068 446.266248 
L 211.271468 446.300924 
L 210.925867 446.3356 
L 210.580266 446.370276 
L 210.234666 446.404951 
L 209.889065 446.439627 
L 209.543465 446.474303 
L 209.197864 446.508978 
L 208.852263 446.543654 
L 208.506663 446.57833 
L 208.161062 446.613006 
L 207.815461 446.647681 
L 207.469861 446.682357 
L 207.12426 446.717033 
L 206.77866 446.751708 
L 206.433059 446.786384 
L 206.087458 446.82106 
L 205.741858 446.855736 
L 205.396257 446.890411 
L 205.050657 446.925087 
L 204.705056 446.959763 
L 204.359455 446.994439 
L 203.013647 427.402459 
L 202.900685 407.764636 
L 204.021014 388.15847 
L 206.370215 368.661339 
L 209.939014 349.350189 
L 214.713329 330.301231 
L 220.674316 311.589644 
L 227.798452 293.289274 
L 236.057619 275.472343 
L 245.419223 258.209167 
L 255.846317 241.567876 
L 267.297752 225.614146 
L 279.728332 210.410938 
L 293.089001 196.018253 
L 307.32703 182.492892 
L 322.386228 169.888233 
L 338.207164 158.254022 
L 354.727398 147.636173 
L 371.881734 138.07659 
L 389.60247 129.613 
L 407.819672 122.278805 
L 426.461445 116.10295 
L 445.454217 111.109809 
L 464.723034 107.319086 
L 484.191849 104.745743 
L 503.783829 103.399934 
L 523.421652 103.286972 
L 543.027817 104.407302 
L 562.524948 106.756502 
L 581.836099 110.325302 
L 600.885056 115.099616 
L 619.596643 121.060604 
L 637.897014 128.184739 
L 655.713945 136.443906 
L 672.97712 145.80551 
L 689.618411 156.232605 
L 705.572142 167.684039 
L 720.775349 180.11462 
L 735.168034 193.475289 
L 748.693396 207.713318 
L 761.298054 222.772516 
L 772.932266 238.593451 
L 783.550115 255.113685 
L 793.109698 272.268021 
L 801.573288 289.988758 
L 808.907482 308.20596 
L 815.083337 326.847732 
L 820.076478 345.840505 
L 823.867201 365.109321 
L 826.440545 384.578136 
L 827.786353 404.170116 
L 827.899315 423.807939 
L 826.778986 443.414105 
L 824.429785 462.911236 
L 820.860986 482.222386 
L 816.086671 501.271344 
L 810.125684 519.982931 
L 803.001548 538.283301 
L 794.742381 556.100232 
L 785.380777 573.363408 
L 774.953683 590.004699 
L 763.502248 605.958429 
L 751.071668 621.161637 
L 737.710999 635.554322 
L 723.47297 649.079683 
L 708.413772 661.684342 
L 692.592836 673.318553 
L 676.072602 683.936402 
L 658.918266 693.495985 
L 641.19753 701.959575 
L 622.980328 709.29377 
L 604.338555 715.469625 
L 585.345783 720.462766 
L 566.076966 724.253489 
L 546.608151 726.826832 
L 527.016171 728.172641 
L 507.378348 728.285603 
L 487.772183 727.165273 
L 468.275052 724.816073 
L 448.963901 721.247273 
L 429.914944 716.472959 
L 411.203357 710.511971 
L 392.902986 703.387836 
L 375.086055 695.128669 
L 357.82288 685.767065 
L 341.181589 675.33997 
L 325.227858 663.888536 
L 310.024651 651.457955 
L 295.631966 638.097286 
L 282.106604 623.859257 
L 269.501946 608.800059 
L 257.867734 592.979124 
L 247.249885 576.45889 
L 237.690302 559.304554 
L 229.226712 541.583817 
L 221.892518 523.366615 
L 215.716663 504.724843 
L 210.723522 485.73207 
L 206.932799 466.463254 
L 204.359455 446.994439 
L 204.705056 446.959763 
L 205.050657 446.925087 
L 205.396257 446.890411 
L 205.741858 446.855736 
L 206.087458 446.82106 
L 206.433059 446.786384 
L 206.77866 446.751708 
L 207.12426 446.717033 
L 207.469861 446.682357 
L 207.815461 446.647681 
L 208.161062 446.613006 
L 208.506663 446.57833 
L 208.852263 446.543654 
L 209.197864 446.508978 
L 209.543465 446.474303 
L 209.889065 446.439627 
L 210.234666 446.404951 
L 210.580266 446.370276 
L 210.925867 446.3356 
L 211.271468 446.300924 
L 211.617068 446.266248 
L 211.962669 446.231573 
L 212.308269 446.196897 
L 212.65387 446.162221 
L 212.999471 446.127545 
L 213.345071 446.09287 
L 213.690672 446.058194 
L 214.036272 446.023518 
L 214.381873 445.988843 
L 214.727474 445.954167 
L 215.073074 445.919491 
L 215.418675 445.884815 
L 215.764275 445.85014 
L 216.109876 445.815464 
L 216.455477 445.780788 
L 216.801077 445.746113 
L 217.146678 445.711437 
L 217.492278 445.676761 
L 217.837879 445.642085 
L 218.18348 445.60741 
L 218.52908 445.572734 
L 218.874681 445.538058 
L 219.220281 445.503382 
L 219.565882 445.468707 
L 219.911483 445.434031 
L 220.257083 445.399355 
L 220.602684 445.36468 
L 220.948284 445.330004 
L 221.293885 445.295328 
L 221.639486 445.260652 
L 221.985086 445.225977 
L 222.330687 445.191301 
L 222.676288 445.156625 
L 223.021888 445.121949 
L 223.367489 445.087274 
L 223.713089 445.052598 
L 224.05869 445.017922 
L 224.404291 444.983247 
L 224.749891 444.948571 
L 225.095492 444.913895 
L 225.441092 444.879219 
L 225.786693 444.844544 
L 226.132294 444.809868 
L 226.477894 444.775192 
L 226.823495 444.740517 
L 227.169095 444.705841 
L 227.514696 444.671165 
L 227.860297 444.636489 
L 228.205897 444.601814 
L 228.551498 444.567138 
L 228.897098 444.532462 
L 229.242699 444.497786 
L 229.5883 444.463111 
L 229.9339 444.428435 
L 230.279501 444.393759 
L 230.625101 444.359084 
L 230.970702 444.324408 
L 231.316303 444.289732 
L 231.661903 444.255056 
L 232.007504 444.220381 
L 232.353104 444.185705 
L 232.698705 444.151029 
L 233.044306 444.116354 
L 233.389906 444.081678 
L 233.735507 444.047002 
L 234.081107 444.012326 
L 234.426708 443.977651 
L 234.772309 443.942975 
L 235.117909 443.908299 
L 235.46351 443.873623 
L 235.809111 443.838948 
L 236.154711 443.804272 
L 236.500312 443.769596 
L 236.845912 443.734921 
L 237.191513 443.700245 
L 237.537114 443.665569 
L 237.882714 443.630893 
L 238.228315 443.596218 
L 238.573915 443.561542 
z
" style="fill:#008000;opacity:0.1;"/>
   </g>
   <g id="matplotlib.axis_1">
    <g id="xtick_1">
     <g id="line2d_1">
      <path clip-path="url(#p0258a3c816)" d="M 515.4 415.786288 
L 857.459026 355.472052 
" style="fill:none;stroke:#008000;stroke-linecap:square;stroke-opacity:0.3;"/>
     </g>
    </g>
    <g id="xtick_2">
     <g id="line2d_2">
      <path clip-path="url(#p0258a3c816)" d="M 515.4 415.786288 
L 738.663173 149.711599 
" style="fill:none;stroke:#008000;stroke-linecap:square;stroke-opacity:0.3;"/>
     </g>
    </g>
    <g id="xtick_3">
     <g id="line2d_3">
      <path clip-path="url(#p0258a3c816)" d="M 515.4 415.786288 
L 515.4 68.45045 
" style="fill:none;stroke:#008000;stroke-linecap:square;stroke-opacity:0.3;"/>
     </g>
    </g>
    <g id="xtick_4">
     <g id="line2d_4">
      <path clip-path="url(#p0258a3c816)" d="M 515.4 415.786288 
L 292.136827 149.711599 
" style="fill:none;stroke:#008000;stroke-linecap:square;stroke-opacity:0.3;"/>
     </g>
    </g>
    <g id="xtick_5">
     <g id="line2d_5">
      <path clip-path="url(#p0258a3c816)" d="M 515.4 415.786288 
L 173.340974 355.472052 
" style="fill:none;stroke:#008000;stroke-linecap:square;stroke-opacity:0.3;"/>
     </g>
    </g>
    <g id="xtick_6">
     <g id="line2d_6">
      <path clip-path="url(#p0258a3c816)" d="M 515.4 415.786288 
L 214.598341 589.454206 
" style="fill:none;stroke:#008000;stroke-linecap:square;stroke-opacity:0.3;"/>
     </g>
    </g>
    <g id="xtick_7">
     <g id="line2d_7">
      <path clip-path="url(#p0258a3c816)" d="M 515.4 415.786288 
L 396.604147 742.175211 
" style="fill:none;stroke:#008000;stroke-linecap:square;stroke-opacity:0.3;"/>
     </g>
    </g>
    <g id="xtick_8">
     <g id="line2d_8">
      <path clip-path="url(#p0258a3c816)" d="M 515.4 415.786288 
L 634.195853 742.175211 
" style="fill:none;stroke:#008000;stroke-linecap:square;stroke-opacity:0.3;"/>
     </g>
    </g>
    <g id="xtick_9">
     <g id="line2d_9">
      <path clip-path="url(#p0258a3c816)" d="M 515.4 415.786288 
L 816.201659 589.454206 
" style="fill:none;stroke:#008000;stroke-linecap:square;stroke-opacity:0.3;"/>
     </g>
    </g>
    <g id="text_1">
     <!--  - -->
     <defs>
      <path d="M 0 0 
z
" id="MicrosoftSansSerif-20"/>
      <path d="M 30.078125 21.484375 
L 3.21875 21.484375 
L 3.21875 30.328125 
L 30.078125 30.328125 
z
" id="MicrosoftSansSerif-2d"/>
     </defs>
     <g style="opacity:0;" transform="translate(511.808437 775.7115)scale(0.12 -0.12)">
      <use xlink:href="#MicrosoftSansSerif-20"/>
      <use x="26.5625" xlink:href="#MicrosoftSansSerif-2d"/>
     </g>
     <!--   -->
     <g style="opacity:0;" transform="translate(513.80625 788.409375)scale(0.12 -0.12)">
      <use xlink:href="#MicrosoftSansSerif-20"/>
     </g>
    </g>
   </g>
   <g id="matplotlib.axis_2">
    <g id="ytick_1">
     <g id="line2d_10">
      <path clip-path="url(#p0258a3c816)" d="M 584.867167 415.786288 
L 584.697949 410.940503 
L 584.191118 406.118326 
L 583.349143 401.343251 
L 582.176127 396.638541 
L 580.677785 392.027117 
L 578.861415 387.531445 
L 576.735868 383.173428 
L 574.311499 378.974297 
L 571.600119 374.954511 
L 568.614938 371.133653 
L 565.370498 367.530338 
L 561.882608 364.162121 
L 558.168259 361.045412 
L 554.245547 358.195396 
L 550.133584 355.625956 
L 545.852402 353.349611 
L 541.422859 351.377451 
L 536.866535 349.719085 
L 532.205629 348.382592 
L 527.462847 347.374482 
L 522.661296 346.699668 
L 517.824369 346.361438 
L 512.975631 346.361438 
L 508.138704 346.699668 
L 503.337153 347.374482 
L 498.594371 348.382592 
L 493.933465 349.719085 
L 489.377141 351.377451 
L 484.947598 353.349611 
L 480.666416 355.625956 
L 476.554453 358.195396 
L 472.631741 361.045412 
L 468.917392 364.162121 
L 465.429502 367.530338 
L 462.185062 371.133653 
L 459.199881 374.954511 
L 456.488501 378.974297 
L 454.064132 383.173428 
L 451.938585 387.531445 
L 450.122215 392.027117 
L 448.623873 396.638541 
L 447.450857 401.343251 
L 446.608882 406.118326 
L 446.102051 410.940503 
L 445.932832 415.786288 
L 446.102051 420.632072 
L 446.608882 425.454249 
L 447.450857 430.229324 
L 448.623873 434.934034 
L 450.122215 439.545458 
L 451.938585 444.04113 
L 454.064132 448.399147 
L 456.488501 452.598278 
L 459.199881 456.618064 
L 462.185062 460.438922 
L 465.429502 464.042237 
L 468.917392 467.410454 
L 472.631741 470.527163 
L 476.554453 473.377179 
L 480.666416 475.946619 
L 484.947598 478.222964 
L 489.377141 480.195124 
L 493.933465 481.85349 
L 498.594371 483.189983 
L 503.337153 484.198093 
L 508.138704 484.872907 
L 512.975631 485.211137 
L 517.824369 485.211137 
L 522.661296 484.872907 
L 527.462847 484.198093 
L 532.205629 483.189983 
L 536.866535 481.85349 
L 541.422859 480.195124 
L 545.852402 478.222964 
L 550.133584 475.946619 
L 554.245547 473.377179 
L 558.168259 470.527163 
L 561.882608 467.410454 
L 565.370498 464.042237 
L 568.614938 460.438922 
L 571.600119 456.618064 
L 574.311499 452.598278 
L 576.735868 448.399147 
L 578.861415 444.04113 
L 580.677785 439.545458 
L 582.176127 434.934034 
L 583.349143 430.229324 
L 584.191118 425.454249 
L 584.697949 420.632072 
L 584.867167 415.786288 
L 584.867167 415.786288 
" style="fill:none;stroke:#008000;stroke-linecap:square;stroke-opacity:0.3;"/>
     </g>
     <g id="text_2">
      <!-- 2 -->
      <defs>
       <path d="M 50.484375 0 
L 3.078125 0 
Q 3.078125 6.546875 7.125 12.5 
Q 11.1875 18.453125 22 27.171875 
Q 32.8125 35.890625 36.8125 41.09375 
Q 40.828125 46.296875 40.828125 52.875 
Q 40.828125 58.796875 37.40625 62.1875 
Q 33.984375 65.578125 27.78125 65.578125 
Q 22.40625 65.578125 18.59375 62.15625 
Q 14.796875 58.734375 14.3125 52.09375 
L 4.78125 52.09375 
Q 5.5625 61.53125 11.734375 67.15625 
Q 17.921875 72.796875 27.984375 72.796875 
Q 38.671875 72.796875 44.484375 67.0625 
Q 50.296875 61.328125 50.296875 52.6875 
Q 50.296875 44.875 46 38.890625 
Q 41.703125 32.90625 28.921875 22.265625 
Q 16.15625 11.625 15.921875 8.5 
L 50.484375 8.5 
z
" id="MicrosoftSansSerif-32"/>
      </defs>
      <g style="fill:#333333;" transform="translate(579.579294 387.54326)scale(0.08328 -0.08328)">
       <use xlink:href="#MicrosoftSansSerif-32"/>
      </g>
     </g>
    </g>
    <g id="ytick_2">
     <g id="line2d_11">
      <path clip-path="url(#p0258a3c816)" d="M 654.334335 415.786288 
L 654.2497 410.937549 
L 653.995898 406.094718 
L 653.573238 401.263695 
L 652.982236 396.450365 
L 652.22361 391.660593 
L 651.298286 386.900215 
L 650.207391 382.17503 
L 648.952254 377.490795 
L 647.534405 372.853217 
L 645.955569 368.267946 
L 644.217672 363.74057 
L 642.322831 359.276602 
L 640.273353 354.881484 
L 638.071737 350.560568 
L 635.720664 346.31912 
L 633.222998 342.162307 
L 630.581784 338.095193 
L 627.800238 334.122734 
L 624.88175 330.24977 
L 621.829875 326.481018 
L 618.648332 322.821072 
L 615.340997 319.274389 
L 611.911899 315.845291 
L 608.365216 312.537955 
L 604.705269 309.356412 
L 600.936518 306.304537 
L 597.063553 303.386049 
L 593.091094 300.604504 
L 589.023981 297.963289 
L 584.867168 295.465624 
L 580.625719 293.114551 
L 576.304804 290.912934 
L 571.909685 288.863457 
L 567.445718 286.968615 
L 562.918341 285.230718 
L 558.333071 283.651883 
L 553.695493 282.234033 
L 549.011258 280.978896 
L 544.286073 279.888001 
L 539.525694 278.962677 
L 534.735922 278.204052 
L 529.922593 277.613049 
L 525.091569 277.19039 
L 520.248738 276.936588 
L 515.4 276.851953 
L 510.551262 276.936588 
L 505.708431 277.19039 
L 500.877407 277.613049 
L 496.064078 278.204052 
L 491.274306 278.962677 
L 486.513927 279.888001 
L 481.788742 280.978896 
L 477.104507 282.234033 
L 472.466929 283.651883 
L 467.881659 285.230718 
L 463.354282 286.968615 
L 458.890315 288.863457 
L 454.495196 290.912934 
L 450.174281 293.114551 
L 445.932833 295.465624 
L 441.776019 297.963289 
L 437.708906 300.604504 
L 433.736447 303.386049 
L 429.863482 306.304537 
L 426.094731 309.356412 
L 422.434784 312.537955 
L 418.888101 315.845291 
L 415.459003 319.274389 
L 412.151668 322.821072 
L 408.970125 326.481018 
L 405.91825 330.24977 
L 402.999762 334.122734 
L 400.218216 338.095193 
L 397.577002 342.162307 
L 395.079336 346.31912 
L 392.728263 350.560568 
L 390.526647 354.881484 
L 388.477169 359.276602 
L 386.582328 363.74057 
L 384.844431 368.267946 
L 383.265595 372.853217 
L 381.847746 377.490795 
L 380.592609 382.17503 
L 379.501714 386.900215 
L 378.57639 391.660593 
L 377.817764 396.450365 
L 377.226762 401.263695 
L 376.804102 406.094718 
L 376.5503 410.937549 
L 376.465665 415.786288 
L 376.5503 420.635026 
L 376.804102 425.477857 
L 377.226762 430.30888 
L 377.817764 435.12221 
L 378.57639 439.911982 
L 379.501714 444.67236 
L 380.592609 449.397545 
L 381.847746 454.08178 
L 383.265595 458.719358 
L 384.844431 463.304629 
L 386.582328 467.832005 
L 388.477169 472.295973 
L 390.526647 476.691091 
L 392.728263 481.012007 
L 395.079336 485.253455 
L 397.577002 489.410268 
L 400.218216 493.477382 
L 402.999762 497.449841 
L 405.91825 501.322805 
L 408.970125 505.091557 
L 412.151668 508.751503 
L 415.459003 512.298186 
L 418.888101 515.727284 
L 422.434784 519.03462 
L 426.094731 522.216163 
L 429.863482 525.268038 
L 433.736447 528.186526 
L 437.708906 530.968071 
L 441.776019 533.609286 
L 445.932832 536.106951 
L 450.174281 538.458024 
L 454.495196 540.659641 
L 458.890315 542.709118 
L 463.354282 544.60396 
L 467.881659 546.341857 
L 472.466929 547.920692 
L 477.104507 549.338542 
L 481.788742 550.593679 
L 486.513927 551.684574 
L 491.274306 552.609898 
L 496.064078 553.368523 
L 500.877407 553.959526 
L 505.708431 554.382185 
L 510.551262 554.635987 
L 515.4 554.720623 
L 520.248738 554.635987 
L 525.091569 554.382185 
L 529.922593 553.959526 
L 534.735922 553.368523 
L 539.525694 552.609898 
L 544.286073 551.684574 
L 549.011258 550.593679 
L 553.695493 549.338542 
L 558.333071 547.920692 
L 562.918341 546.341857 
L 567.445718 544.60396 
L 571.909685 542.709118 
L 576.304804 540.659641 
L 580.625719 538.458024 
L 584.867168 536.106951 
L 589.023981 533.609286 
L 593.091094 530.968071 
L 597.063553 528.186526 
L 600.936518 525.268038 
L 604.705269 522.216163 
L 608.365216 519.03462 
L 611.911899 515.727284 
L 615.340997 512.298186 
L 618.648332 508.751503 
L 621.829875 505.091557 
L 624.88175 501.322805 
L 627.800238 497.449841 
L 630.581784 493.477382 
L 633.222998 489.410268 
L 635.720664 485.253455 
L 638.071737 481.012007 
L 640.273353 476.691091 
L 642.322831 472.295973 
L 644.217672 467.832005 
L 645.955569 463.304629 
L 647.534405 458.719358 
L 648.952254 454.08178 
L 650.207391 449.397545 
L 651.298286 444.67236 
L 652.22361 439.911982 
L 652.982236 435.12221 
L 653.573238 430.30888 
L 653.995898 425.477857 
L 654.2497 420.635026 
L 654.334335 415.786288 
L 654.334335 415.786288 
" style="fill:none;stroke:#008000;stroke-linecap:square;stroke-opacity:0.3;"/>
     </g>
     <g id="text_3">
      <!-- 4 -->
      <defs>
       <path d="M 50.984375 17.09375 
L 41.3125 17.09375 
L 41.3125 0 
L 32.078125 0 
L 32.078125 17.09375 
L 1.515625 17.09375 
L 1.515625 25.203125 
L 34.078125 72.515625 
L 41.3125 72.515625 
L 41.3125 25.203125 
L 50.984375 25.203125 
z
M 32.078125 25.203125 
L 32.078125 58.015625 
L 10.109375 25.203125 
z
" id="MicrosoftSansSerif-34"/>
      </defs>
      <g style="fill:#333333;" transform="translate(643.758588 360.959326)scale(0.08328 -0.08328)">
       <use xlink:href="#MicrosoftSansSerif-34"/>
      </g>
     </g>
    </g>
    <g id="ytick_3">
     <g id="line2d_12">
      <path clip-path="url(#p0258a3c816)" d="M 723.801502 415.786288 
L 723.67455 408.51318 
L 723.293847 401.248934 
L 722.659857 394.002399 
L 721.773353 386.782404 
L 720.635415 379.597746 
L 719.24743 372.457179 
L 717.611087 365.369401 
L 715.728382 358.343048 
L 713.601607 351.386682 
L 711.233354 344.508776 
L 708.626508 337.717711 
L 705.784246 331.02176 
L 702.71003 324.429082 
L 699.407605 317.947708 
L 695.880995 311.585536 
L 692.134497 305.350317 
L 688.172676 299.249646 
L 684.000357 293.290958 
L 679.622625 287.481511 
L 675.044813 281.828384 
L 670.272498 276.338464 
L 665.311495 271.018439 
L 660.167848 265.874792 
L 654.847824 260.913789 
L 649.357904 256.141475 
L 643.704776 251.563662 
L 637.89533 247.18593 
L 631.936641 243.013612 
L 625.835971 239.05179 
L 619.600751 235.305292 
L 613.238579 231.778683 
L 606.757206 228.476258 
L 600.164528 225.402042 
L 593.468577 222.559779 
L 586.677512 219.952933 
L 579.799606 217.584681 
L 572.843239 215.457906 
L 565.816887 213.5752 
L 558.729109 211.938858 
L 551.588541 210.550872 
L 544.403883 209.412934 
L 537.183889 208.52643 
L 529.937354 207.892441 
L 522.673108 207.511738 
L 515.4 207.384785 
L 508.126892 207.511738 
L 500.862646 207.892441 
L 493.616111 208.52643 
L 486.396117 209.412934 
L 479.211459 210.550872 
L 472.070891 211.938858 
L 464.983113 213.5752 
L 457.956761 215.457906 
L 451.000394 217.584681 
L 444.122488 219.952933 
L 437.331423 222.559779 
L 430.635472 225.402042 
L 424.042794 228.476258 
L 417.561421 231.778683 
L 411.199249 235.305292 
L 404.964029 239.05179 
L 398.863359 243.013612 
L 392.90467 247.18593 
L 387.095224 251.563662 
L 381.442096 256.141475 
L 375.952176 260.913789 
L 370.632152 265.874792 
L 365.488505 271.018439 
L 360.527502 276.338464 
L 355.755187 281.828384 
L 351.177375 287.481511 
L 346.799643 293.290958 
L 342.627324 299.249646 
L 338.665503 305.350317 
L 334.919005 311.585536 
L 331.392395 317.947708 
L 328.08997 324.429082 
L 325.015754 331.02176 
L 322.173492 337.717711 
L 319.566646 344.508776 
L 317.198393 351.386682 
L 315.071618 358.343048 
L 313.188913 365.369401 
L 311.55257 372.457179 
L 310.164585 379.597746 
L 309.026647 386.782404 
L 308.140143 394.002399 
L 307.506153 401.248934 
L 307.12545 408.51318 
L 306.998497 415.786288 
L 307.12545 423.059395 
L 307.506153 430.323641 
L 308.140143 437.570176 
L 309.026647 444.790171 
L 310.164585 451.974829 
L 311.55257 459.115396 
L 313.188913 466.203174 
L 315.071618 473.229527 
L 317.198393 480.185893 
L 319.566646 487.063799 
L 322.173492 493.854864 
L 325.015754 500.550815 
L 328.08997 507.143493 
L 331.392395 513.624867 
L 334.919005 519.987039 
L 338.665503 526.222258 
L 342.627324 532.322929 
L 346.799643 538.281617 
L 351.177375 544.091064 
L 355.755187 549.744191 
L 360.527502 555.234111 
L 365.488505 560.554136 
L 370.632152 565.697783 
L 375.952176 570.658786 
L 381.442096 575.4311 
L 387.095224 580.008913 
L 392.90467 584.386645 
L 398.863359 588.558963 
L 404.964029 592.520785 
L 411.199249 596.267283 
L 417.561421 599.793892 
L 424.042794 603.096317 
L 430.635472 606.170533 
L 437.331423 609.012796 
L 444.122488 611.619642 
L 451.000394 613.987894 
L 457.956761 616.114669 
L 464.983113 617.997375 
L 472.070891 619.633717 
L 479.211459 621.021703 
L 486.396117 622.159641 
L 493.616111 623.046145 
L 500.862646 623.680134 
L 508.126892 624.060837 
L 515.4 624.18779 
L 522.673108 624.060837 
L 529.937354 623.680134 
L 537.183889 623.046145 
L 544.403883 622.159641 
L 551.588541 621.021703 
L 558.729109 619.633717 
L 565.816887 617.997375 
L 572.843239 616.114669 
L 579.799606 613.987894 
L 586.677512 611.619642 
L 593.468577 609.012796 
L 600.164528 606.170533 
L 606.757206 603.096317 
L 613.238579 599.793892 
L 619.600751 596.267283 
L 625.835971 592.520785 
L 631.936641 588.558963 
L 637.89533 584.386645 
L 643.704776 580.008913 
L 649.357904 575.4311 
L 654.847824 570.658786 
L 660.167848 565.697783 
L 665.311495 560.554136 
L 670.272498 555.234111 
L 675.044813 549.744191 
L 679.622625 544.091064 
L 684.000357 538.281617 
L 688.172676 532.322929 
L 692.134497 526.222258 
L 695.880995 519.987039 
L 699.407605 513.624867 
L 702.71003 507.143493 
L 705.784246 500.550815 
L 708.626508 493.854864 
L 711.233354 487.063799 
L 713.601607 480.185893 
L 715.728382 473.229527 
L 717.611087 466.203174 
L 719.24743 459.115396 
L 720.635415 451.974829 
L 721.773353 444.790171 
L 722.659857 437.570176 
L 723.293847 430.323641 
L 723.67455 423.059395 
L 723.801502 415.786288 
L 723.801502 415.786288 
" style="fill:none;stroke:#008000;stroke-linecap:square;stroke-opacity:0.3;"/>
     </g>
     <g id="text_4">
      <!-- 6 -->
      <defs>
       <path d="M 13.8125 38.625 
Q 20.90625 46.390625 30.078125 46.390625 
Q 39.0625 46.390625 45.234375 39.859375 
Q 51.421875 33.34375 51.421875 23.296875 
Q 51.421875 13.09375 45.28125 5.9375 
Q 39.15625 -1.21875 29 -1.21875 
Q 17.390625 -1.21875 10.9375 7.734375 
Q 4.5 16.703125 4.5 33.5 
Q 4.5 72.796875 29.78125 72.796875 
Q 37.84375 72.796875 43.40625 68.296875 
Q 48.96875 63.8125 50.203125 54.984375 
L 40.71875 54.984375 
Q 39.5 65.578125 29.296875 65.578125 
Q 22.703125 65.578125 18.625 58.609375 
Q 14.546875 51.65625 13.8125 38.625 
z
M 13.71875 31.5 
Q 13.921875 19.1875 17.96875 12.59375 
Q 22.015625 6 28.8125 6 
Q 34.765625 6 38.328125 10.78125 
Q 41.890625 15.578125 41.890625 22.703125 
Q 41.890625 29.9375 38.25 34.5625 
Q 34.625 39.203125 28.515625 39.203125 
Q 20.953125 39.203125 13.71875 31.5 
z
" id="MicrosoftSansSerif-36"/>
      </defs>
      <g style="fill:#333333;" transform="translate(707.937883 334.375391)scale(0.08328 -0.08328)">
       <use xlink:href="#MicrosoftSansSerif-36"/>
      </g>
     </g>
    </g>
    <g id="ytick_4">
     <g id="line2d_13">
      <path clip-path="url(#p0258a3c816)" d="M 793.26867 415.786288 
L 793.0994 406.088811 
L 792.591796 396.403149 
L 791.746476 386.741102 
L 790.564471 377.114443 
L 789.047221 367.534899 
L 787.196573 358.014142 
L 785.014783 348.563772 
L 782.504509 339.195302 
L 779.668809 329.920146 
L 776.511139 320.749605 
L 773.035345 311.694852 
L 769.245661 302.766917 
L 765.146706 293.97668 
L 760.743473 285.334849 
L 756.041327 276.851953 
L 751.045997 268.538326 
L 745.763568 260.404099 
L 740.200476 252.459181 
L 734.3635 244.713252 
L 728.259751 237.175749 
L 721.896664 229.855856 
L 715.281994 222.76249 
L 708.423798 215.904294 
L 701.330432 209.289623 
L 694.010538 202.926537 
L 686.473035 196.822787 
L 678.727106 190.985811 
L 670.782188 185.42272 
L 662.647961 180.140291 
L 654.334335 175.14496 
L 645.851439 170.442814 
L 637.209608 166.039581 
L 628.41937 161.940626 
L 619.491436 158.150943 
L 610.436682 154.675149 
L 601.266141 151.517478 
L 591.990985 148.681779 
L 582.622515 146.171505 
L 573.172145 143.989715 
L 563.651388 142.139067 
L 554.071844 140.621816 
L 544.445185 139.439811 
L 534.783139 138.594492 
L 525.097477 138.086888 
L 515.4 137.917618 
L 505.702523 138.086888 
L 496.016861 138.594492 
L 486.354815 139.439811 
L 476.728156 140.621816 
L 467.148612 142.139067 
L 457.627855 143.989715 
L 448.177485 146.171505 
L 438.809015 148.681779 
L 429.533859 151.517478 
L 420.363318 154.675149 
L 411.308564 158.150943 
L 402.38063 161.940626 
L 393.590392 166.039581 
L 384.948561 170.442814 
L 376.465665 175.14496 
L 368.152039 180.140291 
L 360.017812 185.42272 
L 352.072894 190.985811 
L 344.326965 196.822787 
L 336.789462 202.926537 
L 329.469568 209.289623 
L 322.376202 215.904294 
L 315.518006 222.76249 
L 308.903336 229.855856 
L 302.540249 237.175749 
L 296.4365 244.713252 
L 290.599524 252.459181 
L 285.036432 260.404099 
L 279.754003 268.538326 
L 274.758673 276.851953 
L 270.056527 285.334849 
L 265.653294 293.97668 
L 261.554339 302.766917 
L 257.764655 311.694852 
L 254.288861 320.749605 
L 251.131191 329.920146 
L 248.295491 339.195302 
L 245.785217 348.563772 
L 243.603427 358.014142 
L 241.752779 367.534899 
L 240.235529 377.114443 
L 239.053524 386.741102 
L 238.208204 396.403149 
L 237.7006 406.088811 
L 237.53133 415.786288 
L 237.7006 425.483764 
L 238.208204 435.169426 
L 239.053524 444.831473 
L 240.235529 454.458132 
L 241.752779 464.037676 
L 243.603427 473.558433 
L 245.785217 483.008803 
L 248.295491 492.377273 
L 251.131191 501.652429 
L 254.288861 510.82297 
L 257.764655 519.877723 
L 261.554339 528.805658 
L 265.653294 537.595895 
L 270.056527 546.237726 
L 274.758673 554.720623 
L 279.754003 563.034249 
L 285.036432 571.168476 
L 290.599524 579.113394 
L 296.4365 586.859323 
L 302.540249 594.396826 
L 308.903336 601.716719 
L 315.518006 608.810085 
L 322.376202 615.668281 
L 329.469568 622.282952 
L 336.789462 628.646038 
L 344.326965 634.749788 
L 352.072894 640.586764 
L 360.017812 646.149855 
L 368.152039 651.432284 
L 376.465665 656.427615 
L 384.948561 661.129761 
L 393.590392 665.532994 
L 402.38063 669.631949 
L 411.308564 673.421632 
L 420.363318 676.897426 
L 429.533859 680.055097 
L 438.809015 682.890796 
L 448.177485 685.40107 
L 457.627855 687.58286 
L 467.148612 689.433508 
L 476.728156 690.950759 
L 486.354815 692.132764 
L 496.016861 692.978083 
L 505.702523 693.485687 
L 515.4 693.654958 
L 525.097477 693.485687 
L 534.783139 692.978083 
L 544.445185 692.132764 
L 554.071844 690.950759 
L 563.651388 689.433508 
L 573.172145 687.58286 
L 582.622515 685.40107 
L 591.990985 682.890796 
L 601.266141 680.055097 
L 610.436682 676.897426 
L 619.491436 673.421632 
L 628.41937 669.631949 
L 637.209608 665.532994 
L 645.851439 661.129761 
L 654.334335 656.427615 
L 662.647961 651.432284 
L 670.782188 646.149855 
L 678.727106 640.586764 
L 686.473035 634.749788 
L 694.010538 628.646038 
L 701.330432 622.282952 
L 708.423798 615.668281 
L 715.281994 608.810085 
L 721.896664 601.716719 
L 728.259751 594.396826 
L 734.3635 586.859323 
L 740.200476 579.113394 
L 745.763568 571.168476 
L 751.045997 563.034249 
L 756.041327 554.720623 
L 760.743473 546.237726 
L 765.146706 537.595895 
L 769.245661 528.805658 
L 773.035345 519.877723 
L 776.511139 510.82297 
L 779.668809 501.652429 
L 782.504509 492.377273 
L 785.014783 483.008803 
L 787.196573 473.558433 
L 789.047221 464.037676 
L 790.564471 454.458132 
L 791.746476 444.831473 
L 792.591796 435.169426 
L 793.0994 425.483764 
L 793.26867 415.786288 
L 793.26867 415.786288 
" style="fill:none;stroke:#008000;stroke-linecap:square;stroke-opacity:0.3;"/>
     </g>
     <g id="text_5">
      <!-- 8 -->
      <defs>
       <path d="M 36.53125 37.59375 
Q 51.421875 30.71875 51.421875 19 
Q 51.421875 9.96875 44.890625 4.375 
Q 38.375 -1.21875 27.78125 -1.21875 
Q 17.234375 -1.21875 10.71875 4.375 
Q 4.203125 9.96875 4.203125 19 
Q 4.203125 30.71875 19.09375 37.59375 
Q 6.984375 44.578125 6.984375 55.078125 
Q 6.984375 62.84375 12.71875 67.8125 
Q 18.453125 72.796875 27.78125 72.796875 
Q 37.15625 72.796875 42.859375 67.8125 
Q 48.578125 62.84375 48.578125 55.078125 
Q 48.578125 44.578125 36.53125 37.59375 
z
M 27.78125 41.40625 
Q 39.109375 46.484375 39.109375 55.078125 
Q 39.109375 60.015625 36.109375 62.796875 
Q 33.109375 65.578125 27.78125 65.578125 
Q 22.515625 65.578125 19.5 62.796875 
Q 16.5 60.015625 16.5 55.078125 
Q 16.5 46.484375 27.78125 41.40625 
z
M 41.890625 19 
Q 41.890625 23.640625 38.515625 26.984375 
Q 35.15625 30.328125 27.78125 33.59375 
Q 20.453125 30.328125 17.078125 26.984375 
Q 13.71875 23.640625 13.71875 19 
Q 13.71875 12.9375 17.578125 9.46875 
Q 21.4375 6 27.78125 6 
Q 34.125 6 38 9.46875 
Q 41.890625 12.9375 41.890625 19 
z
" id="MicrosoftSansSerif-38"/>
      </defs>
      <g style="fill:#333333;" transform="translate(772.117177 307.791457)scale(0.08328 -0.08328)">
       <use xlink:href="#MicrosoftSansSerif-38"/>
      </g>
     </g>
    </g>
    <g id="ytick_5">
     <g id="line2d_14">
      <path clip-path="url(#p0258a3c816)" d="M 862.735837 415.786288 
L 862.52425 403.664442 
L 861.889745 391.557364 
L 860.833095 379.479806 
L 859.355589 367.446482 
L 857.459026 355.472052 
L 855.145716 343.571106 
L 852.418479 331.758143 
L 849.280636 320.047556 
L 845.736012 308.453611 
L 841.788923 296.990435 
L 837.444181 285.671993 
L 832.707077 274.512075 
L 827.583383 263.524278 
L 822.079342 252.721989 
L 816.201659 242.118369 
L 809.957496 231.726336 
L 803.35446 221.558552 
L 796.400595 211.627405 
L 789.104375 201.944993 
L 781.474688 192.523115 
L 773.52083 183.373248 
L 765.252492 174.506541 
L 756.679747 165.933796 
L 747.81304 157.665457 
L 738.663173 149.711599 
L 729.241294 142.081912 
L 719.558883 134.785692 
L 709.627735 127.831828 
L 699.459951 121.228792 
L 689.067919 114.984629 
L 678.464298 109.106946 
L 667.662009 103.602905 
L 656.674213 98.479211 
L 645.514295 93.742107 
L 634.195853 89.397364 
L 622.732677 85.450276 
L 611.138732 81.905651 
L 599.428144 78.767809 
L 587.615181 76.040571 
L 575.714235 73.727262 
L 563.739806 71.830698 
L 551.706481 70.353192 
L 539.628923 69.296543 
L 527.521846 68.662038 
L 515.4 68.45045 
L 503.278154 68.662038 
L 491.171077 69.296543 
L 479.093519 70.353192 
L 467.060194 71.830698 
L 455.085765 73.727262 
L 443.184819 76.040571 
L 431.371856 78.767809 
L 419.661268 81.905651 
L 408.067323 85.450276 
L 396.604147 89.397364 
L 385.285705 93.742107 
L 374.125787 98.479211 
L 363.137991 103.602905 
L 352.335702 109.106946 
L 341.732081 114.984629 
L 331.340049 121.228792 
L 321.172265 127.831828 
L 311.241117 134.785692 
L 301.558706 142.081912 
L 292.136827 149.711599 
L 282.98696 157.665457 
L 274.120253 165.933796 
L 265.547508 174.506541 
L 257.27917 183.373248 
L 249.325312 192.523115 
L 241.695625 201.944993 
L 234.399405 211.627405 
L 227.44554 221.558552 
L 220.842504 231.726336 
L 214.598341 242.118369 
L 208.720658 252.721989 
L 203.216617 263.524278 
L 198.092923 274.512075 
L 193.355819 285.671993 
L 189.011077 296.990435 
L 185.063988 308.453611 
L 181.519364 320.047556 
L 178.381521 331.758143 
L 175.654284 343.571106 
L 173.340974 355.472052 
L 171.444411 367.446482 
L 169.966905 379.479806 
L 168.910255 391.557364 
L 168.27575 403.664442 
L 168.064163 415.786288 
L 168.27575 427.908133 
L 168.910255 440.015211 
L 169.966905 452.092769 
L 171.444411 464.126093 
L 173.340974 476.100523 
L 175.654284 488.001469 
L 178.381521 499.814432 
L 181.519364 511.525019 
L 185.063988 523.118964 
L 189.011077 534.58214 
L 193.355819 545.900582 
L 198.092923 557.0605 
L 203.216617 568.048297 
L 208.720658 578.850586 
L 214.598341 589.454206 
L 220.842504 599.846239 
L 227.44554 610.014023 
L 234.399405 619.94517 
L 241.695625 629.627582 
L 249.325312 639.04946 
L 257.27917 648.199327 
L 265.547508 657.066034 
L 274.120253 665.638779 
L 282.98696 673.907118 
L 292.136827 681.860976 
L 301.558706 689.490663 
L 311.241117 696.786883 
L 321.172265 703.740747 
L 331.340049 710.343783 
L 341.732081 716.587946 
L 352.335702 722.465629 
L 363.137991 727.96967 
L 374.125787 733.093364 
L 385.285705 737.830468 
L 396.604147 742.175211 
L 408.067323 746.122299 
L 419.661268 749.666924 
L 431.371856 752.804766 
L 443.184819 755.532004 
L 455.085765 757.845313 
L 467.060194 759.741877 
L 479.093519 761.219383 
L 491.171077 762.276032 
L 503.278154 762.910537 
L 515.4 763.122125 
L 527.521846 762.910537 
L 539.628923 762.276032 
L 551.706481 761.219383 
L 563.739806 759.741877 
L 575.714235 757.845313 
L 587.615181 755.532004 
L 599.428144 752.804766 
L 611.138732 749.666924 
L 622.732677 746.122299 
L 634.195853 742.175211 
L 645.514295 737.830468 
L 656.674213 733.093364 
L 667.662009 727.96967 
L 678.464298 722.465629 
L 689.067919 716.587946 
L 699.459951 710.343783 
L 709.627735 703.740747 
L 719.558883 696.786883 
L 729.241294 689.490663 
L 738.663173 681.860976 
L 747.81304 673.907118 
L 756.679747 665.638779 
L 765.252492 657.066034 
L 773.52083 648.199327 
L 781.474688 639.04946 
L 789.104375 629.627582 
L 796.400595 619.94517 
L 803.35446 610.014023 
L 809.957496 599.846239 
L 816.201659 589.454206 
L 822.079342 578.850586 
L 827.583383 568.048297 
L 832.707077 557.0605 
L 837.444181 545.900582 
L 841.788923 534.58214 
L 845.736012 523.118964 
L 849.280636 511.525019 
L 852.418479 499.814432 
L 855.145716 488.001469 
L 857.459026 476.100523 
L 859.355589 464.126093 
L 860.833095 452.092769 
L 861.889745 440.015211 
L 862.52425 427.908133 
L 862.735837 415.786288 
L 862.735837 415.786288 
" style="fill:none;stroke:#008000;stroke-linecap:square;stroke-opacity:0.3;"/>
     </g>
     <g id="text_6">
      <!-- 10 -->
      <defs>
       <path d="M 37.5 0 
L 28.328125 0 
L 28.328125 56.296875 
Q 22.75 52.59375 11.078125 52.59375 
L 11.078125 59.8125 
Q 27.9375 59.8125 30.421875 72.796875 
L 37.5 72.796875 
z
" id="MicrosoftSansSerif-31"/>
       <path d="M 27.78125 72.796875 
Q 51.125 72.796875 51.125 35.6875 
Q 51.125 -1.21875 27.78125 -1.21875 
Q 4.5 -1.21875 4.5 35.6875 
Q 4.5 72.796875 27.78125 72.796875 
z
M 27.78125 6 
Q 34.578125 6 38.09375 12.546875 
Q 41.609375 19.09375 41.609375 35.6875 
Q 41.609375 52.34375 38.09375 58.953125 
Q 34.578125 65.578125 27.78125 65.578125 
Q 21.046875 65.578125 17.53125 58.953125 
Q 14.015625 52.34375 14.015625 35.6875 
Q 14.015625 19.09375 17.53125 12.546875 
Q 21.046875 6 27.78125 6 
z
" id="MicrosoftSansSerif-30"/>
      </defs>
      <g style="fill:#333333;" transform="translate(836.296471 281.207523)scale(0.08328 -0.08328)">
       <use xlink:href="#MicrosoftSansSerif-31"/>
       <use x="55.615234" xlink:href="#MicrosoftSansSerif-30"/>
      </g>
     </g>
    </g>
   </g>
   <g id="line2d_15">
    <path clip-path="url(#p0258a3c816)" d="M 515.4 242.118369 
L 403.768414 282.748943 
L 344.370487 385.62917 
L 364.999171 502.620247 
L 456.002074 578.980749 
L 574.797926 578.980749 
L 665.800829 502.620247 
L 686.429513 385.62917 
L 627.031586 282.748943 
L 515.4 242.118369 
" style="fill:none;stroke:#0000ff;stroke-linecap:square;stroke-width:1.5;"/>
    <defs>
     <path d="M 0 3 
C 0.795609 3 1.55874 2.683901 2.12132 2.12132 
C 2.683901 1.55874 3 0.795609 3 0 
C 3 -0.795609 2.683901 -1.55874 2.12132 -2.12132 
C 1.55874 -2.683901 0.795609 -3 0 -3 
C -0.795609 -3 -1.55874 -2.683901 -2.12132 -2.12132 
C -2.683901 -1.55874 -3 -0.795609 -3 0 
C -3 0.795609 -2.683901 1.55874 -2.12132 2.12132 
C -1.55874 2.683901 -0.795609 3 0 3 
z
" id="m19070292f0" style="stroke:#0000ff;"/>
    </defs>
    <g clip-path="url(#p0258a3c816)">
     <use style="fill:#0000ff;stroke:#0000ff;" x="515.4" xlink:href="#m19070292f0" y="242.118369"/>
     <use style="fill:#0000ff;stroke:#0000ff;" x="403.768414" xlink:href="#m19070292f0" y="282.748943"/>
     <use style="fill:#0000ff;stroke:#0000ff;" x="344.370487" xlink:href="#m19070292f0" y="385.62917"/>
     <use style="fill:#0000ff;stroke:#0000ff;" x="364.999171" xlink:href="#m19070292f0" y="502.620247"/>
     <use style="fill:#0000ff;stroke:#0000ff;" x="456.002074" xlink:href="#m19070292f0" y="578.980749"/>
     <use style="fill:#0000ff;stroke:#0000ff;" x="574.797926" xlink:href="#m19070292f0" y="578.980749"/>
     <use style="fill:#0000ff;stroke:#0000ff;" x="665.800829" xlink:href="#m19070292f0" y="502.620247"/>
     <use style="fill:#0000ff;stroke:#0000ff;" x="686.429513" xlink:href="#m19070292f0" y="385.62917"/>
     <use style="fill:#0000ff;stroke:#0000ff;" x="627.031586" xlink:href="#m19070292f0" y="282.748943"/>
     <use style="fill:#0000ff;stroke:#0000ff;" x="515.4" xlink:href="#m19070292f0" y="242.118369"/>
    </g>
   </g>
   <g id="patch_5">
    <path d="M 862.735837 415.786288 
C 862.735837 370.174563 853.751322 325.006356 836.296471 282.866617 
C 818.84162 240.726879 793.255886 202.435121 761.003526 170.182761 
C 728.751167 137.930402 690.459409 112.344668 648.31967 94.889816 
C 606.179932 77.434965 561.011724 68.45045 515.4 68.45045 
C 469.788276 68.45045 424.620068 77.434965 382.48033 94.889816 
C 340.340591 112.344668 302.048833 137.930402 269.796474 170.182761 
C 237.544114 202.435121 211.95838 240.726879 194.503529 282.866617 
C 177.048678 325.006356 168.064163 370.174563 168.064163 415.786288 
C 168.064163 461.398012 177.048678 506.566219 194.503529 548.705958 
C 211.95838 590.845696 237.544114 629.137454 269.796474 661.389814 
C 302.048833 693.642173 340.340591 719.227907 382.48033 736.682759 
C 424.620068 754.13761 469.788276 763.122125 515.4 763.122125 
C 561.011724 763.122125 606.179932 754.13761 648.31967 736.682759 
C 690.459409 719.227907 728.751167 693.642173 761.003526 661.389814 
C 793.255886 629.137454 818.84162 590.845696 836.296471 548.705958 
C 853.751322 506.566219 862.735837 461.398012 862.735837 415.786288 
" style="fill:none;stroke:#000000;stroke-linecap:square;stroke-linejoin:miter;stroke-width:1.5;"/>
   </g>
   <g id="text_7">
    <!-- Acidity -->
    <defs>
     <path d="M 45.015625 29.296875 
L 32.421875 62.5 
L 20.40625 29.296875 
z
M 66.796875 0 
L 56.109375 0 
L 47.796875 21.78125 
L 17.828125 21.78125 
L 9.90625 0 
L -0.09375 0 
L 27.390625 71.578125 
L 37.59375 71.578125 
z
" id="MicrosoftSansSerif-41"/>
     <path d="M 27.78125 -1.21875 
Q 16.75 -1.21875 10.125 5.875 
Q 3.515625 12.984375 3.515625 25.875 
Q 3.515625 38.8125 10.125 45.890625 
Q 16.75 52.984375 27.78125 52.984375 
Q 36.28125 52.984375 41.96875 48.6875 
Q 47.65625 44.390625 48.6875 36.28125 
L 39.203125 36.28125 
Q 39.015625 40.921875 35.71875 43.359375 
Q 32.421875 45.796875 27.78125 45.796875 
Q 21.1875 45.796875 17.078125 40.796875 
Q 12.984375 35.796875 12.984375 25.875 
Q 12.984375 16.015625 17.078125 11 
Q 21.1875 6 27.78125 6 
Q 32.421875 6 35.71875 8.4375 
Q 39.015625 10.890625 39.203125 15.484375 
L 48.6875 15.484375 
Q 47.65625 7.375 41.96875 3.078125 
Q 36.28125 -1.21875 27.78125 -1.21875 
z
" id="MicrosoftSansSerif-63"/>
     <path d="M 16.015625 0 
L 6.78125 0 
L 6.78125 51.8125 
L 16.015625 51.8125 
z
M 16.015625 61.625 
L 6.78125 61.625 
L 6.78125 71.578125 
L 16.015625 71.578125 
z
" id="MicrosoftSansSerif-69"/>
     <path d="M 39.59375 14.890625 
L 39.59375 39.5 
Q 33.640625 45.796875 25.984375 45.796875 
Q 20.0625 45.796875 16.515625 40.6875 
Q 12.984375 35.59375 12.984375 25.484375 
Q 12.984375 15.921875 16.328125 10.953125 
Q 19.671875 6 25.59375 6 
Q 33.296875 6 39.59375 14.890625 
z
M 39.59375 6.203125 
Q 33.453125 -1.21875 24.8125 -1.21875 
Q 14.65625 -1.21875 9.078125 6 
Q 3.515625 13.234375 3.515625 25.484375 
Q 3.515625 38.1875 9.734375 45.578125 
Q 15.96875 52.984375 25.390625 52.984375 
Q 33.796875 52.984375 39.59375 47.796875 
L 39.59375 71.578125 
L 48.78125 71.578125 
L 48.78125 0 
L 39.59375 0 
z
" id="MicrosoftSansSerif-64"/>
     <path d="M 26.90625 -0.09375 
Q 23.875 -0.6875 20.3125 -0.6875 
Q 14.65625 -0.6875 12.015625 1.34375 
Q 9.375 3.375 8.734375 6.546875 
Q 8.109375 9.71875 8.109375 15.1875 
L 8.109375 44.578125 
L 1.703125 44.578125 
L 1.703125 51.8125 
L 8.109375 51.8125 
L 8.109375 64.703125 
L 17.28125 64.703125 
L 17.28125 51.8125 
L 25.6875 51.8125 
L 25.6875 44.578125 
L 17.28125 44.578125 
L 17.28125 14.703125 
Q 17.28125 9.375 18.625 7.9375 
Q 19.96875 6.5 22.3125 6.5 
Q 24.703125 6.5 26.90625 6.890625 
z
" id="MicrosoftSansSerif-74"/>
     <path d="M 9.71875 -12.5 
Q 16.546875 -12.5 20.90625 0 
L 1.3125 51.8125 
L 11.28125 51.8125 
L 25 11.28125 
L 38.71875 51.8125 
L 48.6875 51.8125 
L 29.109375 0 
Q 26.265625 -7.421875 24.28125 -11.453125 
Q 22.3125 -15.484375 19.109375 -18.234375 
Q 15.921875 -21 11.28125 -21 
Q 7.8125 -21 5.328125 -20.3125 
L 5.328125 -11.8125 
Q 7.46875 -12.5 9.71875 -12.5 
z
" id="MicrosoftSansSerif-79"/>
    </defs>
    <g transform="translate(515.4 31.46167)scale(0.08328 -0.08328)">
     <use xlink:href="#MicrosoftSansSerif-41"/>
     <use x="66.699219" xlink:href="#MicrosoftSansSerif-63"/>
     <use x="116.699219" xlink:href="#MicrosoftSansSerif-69"/>
     <use x="139.501953" xlink:href="#MicrosoftSansSerif-64"/>
     <use x="195.117188" xlink:href="#MicrosoftSansSerif-69"/>
     <use x="217.919922" xlink:href="#MicrosoftSansSerif-74"/>
     <use x="245.703125" xlink:href="#MicrosoftSansSerif-79"/>
    </g>
    <!-- 5.00 -->
    <defs>
     <path d="M 16.109375 43.21875 
Q 21.4375 47.515625 29.390625 47.515625 
Q 38.328125 47.515625 44.96875 41.1875 
Q 51.609375 34.859375 51.609375 24.3125 
Q 51.609375 13.28125 44.9375 6.03125 
Q 38.28125 -1.21875 27.203125 -1.21875 
Q 18.109375 -1.21875 11.65625 3.8125 
Q 5.21875 8.84375 4.203125 18.796875 
L 13.71875 18.796875 
Q 14.5 12.3125 18.234375 9.15625 
Q 21.96875 6 27.203125 6 
Q 33.84375 6 37.96875 11.03125 
Q 42.09375 16.0625 42.09375 23.484375 
Q 42.09375 31 37.890625 35.34375 
Q 33.6875 39.703125 27 39.703125 
Q 19.34375 39.703125 14.015625 33.796875 
L 6.78125 33.796875 
L 9.8125 71.578125 
L 48.1875 71.578125 
L 48.1875 63.09375 
L 17.671875 63.09375 
z
" id="MicrosoftSansSerif-35"/>
     <path d="M 18.890625 0 
L 8.890625 0 
L 8.890625 10.015625 
L 18.890625 10.015625 
z
" id="MicrosoftSansSerif-2e"/>
    </defs>
    <g transform="translate(515.4 40.363781)scale(0.08328 -0.08328)">
     <use xlink:href="#MicrosoftSansSerif-35"/>
     <use x="55.615234" xlink:href="#MicrosoftSansSerif-2e"/>
     <use x="83.398438" xlink:href="#MicrosoftSansSerif-30"/>
     <use x="139.013672" xlink:href="#MicrosoftSansSerif-30"/>
    </g>
   </g>
   <g id="text_8">
    <!-- Aftertaste -->
    <defs>
     <path d="M 17.578125 44.578125 
L 17.578125 0 
L 8.40625 0 
L 8.40625 44.578125 
L 0.78125 44.578125 
L 0.78125 51.8125 
L 8.40625 51.8125 
L 8.40625 56.390625 
Q 8.40625 72.796875 22.90625 72.796875 
Q 27.34375 72.796875 29.78125 72.21875 
L 29.78125 64.203125 
Q 27.046875 64.703125 24.21875 64.703125 
Q 20.84375 64.703125 19.203125 62.8125 
Q 17.578125 60.9375 17.578125 56.296875 
L 17.578125 51.8125 
L 27.390625 51.8125 
L 27.390625 44.578125 
z
" id="MicrosoftSansSerif-66"/>
     <path d="M 28.8125 -1.21875 
Q 17.390625 -1.21875 10.453125 5.9375 
Q 3.515625 13.09375 3.515625 25.875 
Q 3.515625 38.578125 10.21875 45.78125 
Q 16.9375 52.984375 27.78125 52.984375 
Q 38.875 52.984375 45.484375 45.890625 
Q 52.09375 38.8125 52.09375 25.875 
L 52.09375 23.6875 
L 13.09375 23.6875 
Q 13.671875 14.703125 18.03125 10.34375 
Q 22.40625 6 28.8125 6 
Q 33.640625 6 37.515625 8.46875 
Q 41.40625 10.9375 41.609375 15.484375 
L 51.125 15.484375 
Q 50.046875 7.46875 43.875 3.125 
Q 37.703125 -1.21875 28.8125 -1.21875 
z
M 42.390625 30.90625 
Q 41.265625 38.375 37.359375 42.078125 
Q 33.453125 45.796875 27.78125 45.796875 
Q 22.265625 45.796875 18.3125 42.109375 
Q 14.359375 38.421875 13.28125 30.90625 
z
" id="MicrosoftSansSerif-65"/>
     <path d="M 33.6875 43.40625 
Q 31.734375 44 28.078125 44 
Q 21.046875 44 16.015625 36.625 
L 16.015625 0 
L 6.78125 0 
L 6.78125 51.8125 
L 16.015625 51.8125 
L 16.015625 44.578125 
Q 21.828125 52.984375 29.5 52.984375 
Q 31.453125 52.984375 33.6875 52.59375 
z
" id="MicrosoftSansSerif-72"/>
     <path d="M 39.59375 13.625 
L 39.59375 25.09375 
L 33.296875 25.09375 
Q 13.28125 25.09375 13.28125 14.203125 
Q 13.28125 10.25 16.203125 8.125 
Q 19.140625 6 24.125 6 
Q 28.65625 6 32.90625 8.046875 
Q 37.15625 10.109375 39.59375 13.625 
z
M 39.59375 5.328125 
Q 32.5625 -1.21875 21.484375 -1.21875 
Q 13.765625 -1.21875 8.78125 2.953125 
Q 3.8125 7.125 3.8125 13.71875 
Q 3.8125 31.890625 35.109375 31.890625 
L 39.59375 31.890625 
Q 39.59375 37.453125 39 39.96875 
Q 38.421875 42.484375 35.734375 44.140625 
Q 33.0625 45.796875 27.203125 45.796875 
Q 14.890625 45.796875 14.5 37.015625 
L 5.328125 37.015625 
Q 6.34375 52.984375 27.6875 52.984375 
Q 37.640625 52.984375 43.203125 49.015625 
Q 48.78125 45.0625 48.78125 33.5 
L 48.78125 0 
L 39.59375 0 
z
" id="MicrosoftSansSerif-61"/>
     <path d="M 25.296875 -1.21875 
Q 4.046875 -1.21875 3.078125 15.484375 
L 12.3125 15.484375 
Q 12.40625 6 25.203125 6 
Q 30.90625 6 33.90625 8.375 
Q 36.921875 10.75 36.921875 14.3125 
Q 36.921875 17.828125 33.984375 19.265625 
Q 31.0625 20.703125 21.90625 23 
Q 12.75 25.296875 8.515625 28.125 
Q 4.296875 30.953125 4.296875 38.09375 
Q 4.296875 44.53125 9.546875 48.75 
Q 14.796875 52.984375 23.578125 52.984375 
Q 43.953125 52.984375 44.390625 38.484375 
L 35.203125 38.484375 
Q 34.71875 45.796875 24.21875 45.796875 
Q 19.578125 45.796875 16.53125 44.03125 
Q 13.484375 42.28125 13.484375 38.921875 
Q 13.484375 35.890625 15.828125 34.546875 
Q 18.171875 33.203125 27.5625 30.921875 
Q 36.96875 28.65625 41.53125 25.625 
Q 46.09375 22.609375 46.09375 15.1875 
Q 46.09375 8.109375 40.453125 3.4375 
Q 34.8125 -1.21875 25.296875 -1.21875 
z
" id="MicrosoftSansSerif-73"/>
    </defs>
    <g transform="translate(234.170574 120.848934)scale(0.08328 -0.08328)">
     <use xlink:href="#MicrosoftSansSerif-41"/>
     <use x="66.699219" xlink:href="#MicrosoftSansSerif-66"/>
     <use x="94.482422" xlink:href="#MicrosoftSansSerif-74"/>
     <use x="122.265625" xlink:href="#MicrosoftSansSerif-65"/>
     <use x="177.880859" xlink:href="#MicrosoftSansSerif-72"/>
     <use x="211.181641" xlink:href="#MicrosoftSansSerif-74"/>
     <use x="238.964844" xlink:href="#MicrosoftSansSerif-61"/>
     <use x="294.580078" xlink:href="#MicrosoftSansSerif-73"/>
     <use x="344.580078" xlink:href="#MicrosoftSansSerif-74"/>
     <use x="372.363281" xlink:href="#MicrosoftSansSerif-65"/>
    </g>
    <!-- 5.00 -->
    <g transform="translate(253.603441 129.661259)scale(0.08328 -0.08328)">
     <use xlink:href="#MicrosoftSansSerif-35"/>
     <use x="55.615234" xlink:href="#MicrosoftSansSerif-2e"/>
     <use x="83.398438" xlink:href="#MicrosoftSansSerif-30"/>
     <use x="139.013672" xlink:href="#MicrosoftSansSerif-30"/>
    </g>
   </g>
   <g id="text_9">
    <!-- Clean Cup -->
    <defs>
     <path d="M 37.984375 -1.21875 
Q 22.796875 -1.21875 13.734375 8.765625 
Q 4.6875 18.75 4.6875 35.796875 
Q 4.6875 52.828125 13.734375 62.8125 
Q 22.796875 72.796875 37.984375 72.796875 
Q 49.65625 72.796875 57.859375 66.5 
Q 66.0625 60.203125 67.09375 49.90625 
L 57.328125 49.90625 
Q 56.734375 56.6875 51.4375 60.6875 
Q 46.140625 64.703125 38.09375 64.703125 
Q 27.203125 64.703125 20.84375 57.203125 
Q 14.5 49.703125 14.5 35.796875 
Q 14.5 21.921875 20.796875 14.40625 
Q 27.09375 6.890625 37.890625 6.890625 
Q 46.296875 6.890625 51.46875 10.984375 
Q 56.640625 15.09375 57.328125 22.703125 
L 67.09375 22.703125 
Q 66.0625 11.28125 58.09375 5.03125 
Q 50.140625 -1.21875 37.984375 -1.21875 
z
" id="MicrosoftSansSerif-43"/>
     <path d="M 16.015625 0 
L 6.78125 0 
L 6.78125 71.578125 
L 16.015625 71.578125 
z
" id="MicrosoftSansSerif-6c"/>
     <path d="M 16.015625 45.21875 
Q 22.90625 52.984375 31.5 52.984375 
Q 49.03125 52.984375 49.03125 33.890625 
L 49.03125 0 
L 39.796875 0 
L 39.796875 33.5 
Q 39.796875 39.84375 37.515625 42.625 
Q 35.25 45.40625 30.078125 45.40625 
Q 23.046875 45.40625 16.015625 37.109375 
L 16.015625 0 
L 6.78125 0 
L 6.78125 51.8125 
L 16.015625 51.8125 
z
" id="MicrosoftSansSerif-6e"/>
     <path d="M 39.59375 6.59375 
Q 32.71875 -1.21875 24.125 -1.21875 
Q 6.59375 -1.21875 6.59375 17.921875 
L 6.59375 51.8125 
L 15.828125 51.8125 
L 15.828125 18.3125 
Q 15.828125 11.96875 18.0625 9.171875 
Q 20.3125 6.390625 25.484375 6.390625 
Q 33.203125 6.390625 39.59375 14.703125 
L 39.59375 51.8125 
L 48.78125 51.8125 
L 48.78125 0 
L 39.59375 0 
z
" id="MicrosoftSansSerif-75"/>
     <path d="M 16.015625 45.609375 
Q 22.171875 52.984375 30.8125 52.984375 
Q 40.96875 52.984375 46.53125 45.78125 
Q 52.09375 38.578125 52.09375 26.3125 
Q 52.09375 13.578125 45.875 6.171875 
Q 39.65625 -1.21875 30.171875 -1.21875 
Q 21.78125 -1.21875 16.015625 4 
L 16.015625 -19.921875 
L 6.78125 -19.921875 
L 6.78125 51.8125 
L 16.015625 51.8125 
z
M 16.015625 12.3125 
Q 21.921875 6 29.59375 6 
Q 35.546875 6 39.0625 11.109375 
Q 42.578125 16.21875 42.578125 26.3125 
Q 42.578125 35.890625 39.25 40.84375 
Q 35.9375 45.796875 29.984375 45.796875 
Q 22.3125 45.796875 16.015625 36.921875 
z
" id="MicrosoftSansSerif-70"/>
    </defs>
    <g transform="translate(99.839924 347.236181)scale(0.08328 -0.08328)">
     <use xlink:href="#MicrosoftSansSerif-43"/>
     <use x="72.216797" xlink:href="#MicrosoftSansSerif-6c"/>
     <use x="95.019531" xlink:href="#MicrosoftSansSerif-65"/>
     <use x="150.634766" xlink:href="#MicrosoftSansSerif-61"/>
     <use x="206.25" xlink:href="#MicrosoftSansSerif-6e"/>
     <use x="261.865234" xlink:href="#MicrosoftSansSerif-20"/>
     <use x="288.427734" xlink:href="#MicrosoftSansSerif-43"/>
     <use x="360.644531" xlink:href="#MicrosoftSansSerif-75"/>
     <use x="416.259766" xlink:href="#MicrosoftSansSerif-70"/>
    </g>
    <!-- 5.00 -->
    <g transform="translate(122.928003 356.048506)scale(0.08328 -0.08328)">
     <use xlink:href="#MicrosoftSansSerif-35"/>
     <use x="55.615234" xlink:href="#MicrosoftSansSerif-2e"/>
     <use x="83.398438" xlink:href="#MicrosoftSansSerif-30"/>
     <use x="139.013672" xlink:href="#MicrosoftSansSerif-30"/>
    </g>
   </g>
   <g id="text_10">
    <!-- Head -->
    <defs>
     <path d="M 64.203125 0 
L 54.6875 0 
L 54.6875 33.6875 
L 17.484375 33.6875 
L 17.484375 0 
L 8.015625 0 
L 8.015625 71.578125 
L 17.484375 71.578125 
L 17.484375 42.1875 
L 54.6875 42.1875 
L 54.6875 71.578125 
L 64.203125 71.578125 
z
" id="MicrosoftSansSerif-48"/>
    </defs>
    <g transform="translate(164.610351 604.565802)scale(0.08328 -0.08328)">
     <use xlink:href="#MicrosoftSansSerif-48"/>
     <use x="72.216797" xlink:href="#MicrosoftSansSerif-65"/>
     <use x="127.832031" xlink:href="#MicrosoftSansSerif-61"/>
     <use x="183.447266" xlink:href="#MicrosoftSansSerif-64"/>
    </g>
    <!-- 5.00 -->
    <g transform="translate(168.311106 613.378127)scale(0.08328 -0.08328)">
     <use xlink:href="#MicrosoftSansSerif-35"/>
     <use x="55.615234" xlink:href="#MicrosoftSansSerif-2e"/>
     <use x="83.398438" xlink:href="#MicrosoftSansSerif-30"/>
     <use x="139.013672" xlink:href="#MicrosoftSansSerif-30"/>
    </g>
   </g>
   <g id="text_11">
    <!-- Fragrance -->
    <defs>
     <path d="M 56.296875 63.09375 
L 17.484375 63.09375 
L 17.484375 40.921875 
L 51.125 40.921875 
L 51.125 32.421875 
L 17.484375 32.421875 
L 17.484375 0 
L 8.015625 0 
L 8.015625 71.578125 
L 56.296875 71.578125 
z
" id="MicrosoftSansSerif-46"/>
     <path d="M 48.78125 4 
Q 48.78125 -21 26.21875 -21 
Q 16.453125 -21 10.8125 -16.75 
Q 5.171875 -12.5 5.171875 -5.328125 
L 14.703125 -5.328125 
Q 14.703125 -13.8125 26.125 -13.8125 
Q 32.5625 -13.8125 36.078125 -10.265625 
Q 39.59375 -6.734375 39.59375 3.609375 
L 39.59375 6.203125 
Q 33.453125 -1.21875 24.8125 -1.21875 
Q 14.65625 -1.21875 9.078125 6 
Q 3.515625 13.234375 3.515625 25.484375 
Q 3.515625 38.1875 9.734375 45.578125 
Q 15.96875 52.984375 25.390625 52.984375 
Q 33.796875 52.984375 39.59375 47.796875 
L 39.59375 51.8125 
L 48.78125 51.8125 
z
M 39.59375 14.890625 
L 39.59375 39.5 
Q 33.640625 45.796875 25.984375 45.796875 
Q 20.0625 45.796875 16.515625 40.6875 
Q 12.984375 35.59375 12.984375 25.484375 
Q 12.984375 15.921875 16.328125 10.953125 
Q 19.671875 6 25.59375 6 
Q 33.296875 6 39.59375 14.890625 
z
" id="MicrosoftSansSerif-67"/>
    </defs>
    <g transform="translate(346.772304 772.558907)scale(0.08328 -0.08328)">
     <use xlink:href="#MicrosoftSansSerif-46"/>
     <use x="61.083984" xlink:href="#MicrosoftSansSerif-72"/>
     <use x="94.384766" xlink:href="#MicrosoftSansSerif-61"/>
     <use x="150" xlink:href="#MicrosoftSansSerif-67"/>
     <use x="205.615234" xlink:href="#MicrosoftSansSerif-72"/>
     <use x="238.916016" xlink:href="#MicrosoftSansSerif-61"/>
     <use x="294.53125" xlink:href="#MicrosoftSansSerif-6e"/>
     <use x="350.146484" xlink:href="#MicrosoftSansSerif-63"/>
     <use x="400.146484" xlink:href="#MicrosoftSansSerif-65"/>
    </g>
    <!-- 5.00 -->
    <g transform="translate(368.517493 781.461018)scale(0.08328 -0.08328)">
     <use xlink:href="#MicrosoftSansSerif-35"/>
     <use x="55.615234" xlink:href="#MicrosoftSansSerif-2e"/>
     <use x="83.398438" xlink:href="#MicrosoftSansSerif-30"/>
     <use x="139.013672" xlink:href="#MicrosoftSansSerif-30"/>
    </g>
   </g>
   <g id="text_12">
    <!-- Sweetness -->
    <defs>
     <path d="M 35.015625 -1.21875 
Q 19.875 -1.21875 12.375 5.5625 
Q 4.890625 12.359375 4.5 23 
L 13.625 23 
Q 14.359375 14.984375 20.28125 11.15625 
Q 26.21875 7.328125 34.625 7.328125 
Q 42.578125 7.328125 47.4375 10.59375 
Q 52.296875 13.875 52.296875 19.484375 
Q 52.296875 25.390625 47.265625 28.078125 
Q 42.234375 30.765625 29.953125 33.375 
Q 17.671875 35.984375 12.328125 40.625 
Q 6.984375 45.265625 6.984375 52.984375 
Q 6.984375 61.671875 13.9375 67.234375 
Q 20.90625 72.796875 32.421875 72.796875 
Q 44.53125 72.796875 51.953125 67.1875 
Q 59.375 61.578125 59.8125 51.3125 
L 50.59375 51.3125 
Q 49.171875 64.3125 32.8125 64.3125 
Q 24.90625 64.3125 20.5625 61.328125 
Q 16.21875 58.34375 16.21875 53.421875 
Q 16.21875 48.921875 19.703125 46.671875 
Q 23.1875 44.4375 32.734375 42.328125 
Q 42.28125 40.234375 47.890625 38.1875 
Q 53.515625 36.140625 57.515625 31.8125 
Q 61.53125 27.484375 61.53125 20.21875 
Q 61.53125 10.984375 54.171875 4.875 
Q 46.828125 -1.21875 35.015625 -1.21875 
z
" id="MicrosoftSansSerif-53"/>
     <path d="M 71.6875 51.8125 
L 56.109375 0 
L 47.3125 0 
L 36.078125 38.09375 
L 24.90625 0 
L 16.109375 0 
L 0.484375 51.8125 
L 10.6875 51.8125 
L 20.21875 12.3125 
L 31.890625 51.8125 
L 40.28125 51.8125 
L 52 12.3125 
L 61.53125 51.8125 
z
" id="MicrosoftSansSerif-77"/>
    </defs>
    <g transform="translate(646.075438 772.558907)scale(0.08328 -0.08328)">
     <use xlink:href="#MicrosoftSansSerif-53"/>
     <use x="66.699219" xlink:href="#MicrosoftSansSerif-77"/>
     <use x="138.916016" xlink:href="#MicrosoftSansSerif-65"/>
     <use x="194.53125" xlink:href="#MicrosoftSansSerif-65"/>
     <use x="250.146484" xlink:href="#MicrosoftSansSerif-74"/>
     <use x="277.929688" xlink:href="#MicrosoftSansSerif-6e"/>
     <use x="333.544922" xlink:href="#MicrosoftSansSerif-65"/>
     <use x="389.160156" xlink:href="#MicrosoftSansSerif-73"/>
     <use x="439.160156" xlink:href="#MicrosoftSansSerif-73"/>
    </g>
    <!-- 5.00 -->
    <g transform="translate(646.075438 781.371232)scale(0.08328 -0.08328)">
     <use xlink:href="#MicrosoftSansSerif-35"/>
     <use x="55.615234" xlink:href="#MicrosoftSansSerif-2e"/>
     <use x="83.398438" xlink:href="#MicrosoftSansSerif-30"/>
     <use x="139.013672" xlink:href="#MicrosoftSansSerif-30"/>
    </g>
   </g>
   <g id="text_13">
    <!-- Aroma -->
    <defs>
     <path d="M 27.78125 52.984375 
Q 38.875 52.984375 45.484375 45.890625 
Q 52.09375 38.8125 52.09375 25.875 
Q 52.09375 12.984375 45.484375 5.875 
Q 38.875 -1.21875 27.78125 -1.21875 
Q 16.75 -1.21875 10.125 5.875 
Q 3.515625 12.984375 3.515625 25.875 
Q 3.515625 38.8125 10.125 45.890625 
Q 16.75 52.984375 27.78125 52.984375 
z
M 27.78125 6 
Q 34.375 6 38.46875 11 
Q 42.578125 16.015625 42.578125 25.875 
Q 42.578125 35.796875 38.46875 40.796875 
Q 34.375 45.796875 27.78125 45.796875 
Q 21.1875 45.796875 17.078125 40.796875 
Q 12.984375 35.796875 12.984375 25.875 
Q 12.984375 16.015625 17.078125 11 
Q 21.1875 6 27.78125 6 
z
" id="MicrosoftSansSerif-6f"/>
     <path d="M 76.8125 0 
L 67.578125 0 
L 67.578125 33.5 
Q 67.578125 39.9375 65.71875 42.671875 
Q 63.875 45.40625 59.515625 45.40625 
Q 52.828125 45.40625 46.390625 37.109375 
L 46.390625 0 
L 37.203125 0 
L 37.203125 33.5 
Q 37.203125 39.9375 35.34375 42.671875 
Q 33.5 45.40625 29.109375 45.40625 
Q 22.40625 45.40625 16.015625 37.109375 
L 16.015625 0 
L 6.78125 0 
L 6.78125 51.8125 
L 16.015625 51.8125 
L 16.015625 45.21875 
Q 22.5625 52.984375 30.515625 52.984375 
Q 41.890625 52.984375 45.015625 43.609375 
Q 50.203125 49.703125 53.8125 51.34375 
Q 57.421875 52.984375 60.890625 52.984375 
Q 76.8125 52.984375 76.8125 33.890625 
z
" id="MicrosoftSansSerif-6d"/>
    </defs>
    <g transform="translate(846.281825 604.565802)scale(0.08328 -0.08328)">
     <use xlink:href="#MicrosoftSansSerif-41"/>
     <use x="66.699219" xlink:href="#MicrosoftSansSerif-72"/>
     <use x="100" xlink:href="#MicrosoftSansSerif-6f"/>
     <use x="155.615234" xlink:href="#MicrosoftSansSerif-6d"/>
     <use x="238.916016" xlink:href="#MicrosoftSansSerif-61"/>
    </g>
    <!-- 5.00 -->
    <g transform="translate(846.281825 613.378127)scale(0.08328 -0.08328)">
     <use xlink:href="#MicrosoftSansSerif-35"/>
     <use x="55.615234" xlink:href="#MicrosoftSansSerif-2e"/>
     <use x="83.398438" xlink:href="#MicrosoftSansSerif-30"/>
     <use x="139.013672" xlink:href="#MicrosoftSansSerif-30"/>
    </g>
   </g>
   <g id="text_14">
    <!-- Balance -->
    <defs>
     <path d="M 61.53125 20.796875 
Q 61.53125 10.75 54.6875 5.375 
Q 47.859375 0 34.8125 0 
L 8.015625 0 
L 8.015625 71.578125 
L 33.5 71.578125 
Q 44.921875 71.578125 51.46875 66.6875 
Q 58.015625 61.8125 58.015625 53.328125 
Q 58.015625 42.96875 47.703125 37.984375 
Q 54.640625 36.234375 58.078125 31.515625 
Q 61.53125 26.8125 61.53125 20.796875 
z
M 17.484375 41.609375 
L 33.40625 41.609375 
Q 41.265625 41.609375 44.96875 44.109375 
Q 48.6875 46.625 48.6875 52.484375 
Q 48.6875 57.765625 45.0625 60.421875 
Q 41.453125 63.09375 32.515625 63.09375 
L 17.484375 63.09375 
z
M 17.484375 8.5 
L 34.71875 8.5 
Q 51.703125 8.5 51.703125 20.796875 
Q 51.703125 27.203125 47.765625 30.15625 
Q 43.84375 33.109375 33.5 33.109375 
L 17.484375 33.109375 
z
" id="MicrosoftSansSerif-42"/>
    </defs>
    <g transform="translate(891.664928 347.185432)scale(0.08328 -0.08328)">
     <use xlink:href="#MicrosoftSansSerif-42"/>
     <use x="66.699219" xlink:href="#MicrosoftSansSerif-61"/>
     <use x="122.314453" xlink:href="#MicrosoftSansSerif-6c"/>
     <use x="145.117188" xlink:href="#MicrosoftSansSerif-61"/>
     <use x="200.732422" xlink:href="#MicrosoftSansSerif-6e"/>
     <use x="256.347656" xlink:href="#MicrosoftSansSerif-63"/>
     <use x="306.347656" xlink:href="#MicrosoftSansSerif-65"/>
    </g>
    <!-- 5.00 -->
    <g transform="translate(891.664928 355.997758)scale(0.08328 -0.08328)">
     <use xlink:href="#MicrosoftSansSerif-35"/>
     <use x="55.615234" xlink:href="#MicrosoftSansSerif-2e"/>
     <use x="83.398438" xlink:href="#MicrosoftSansSerif-30"/>
     <use x="139.013672" xlink:href="#MicrosoftSansSerif-30"/>
    </g>
   </g>
   <g id="text_15">
    <!-- Body -->
    <g transform="translate(760.98949 120.848934)scale(0.08328 -0.08328)">
     <use xlink:href="#MicrosoftSansSerif-42"/>
     <use x="66.699219" xlink:href="#MicrosoftSansSerif-6f"/>
     <use x="122.314453" xlink:href="#MicrosoftSansSerif-64"/>
     <use x="177.929688" xlink:href="#MicrosoftSansSerif-79"/>
    </g>
    <!-- 5.00 -->
    <g transform="translate(760.98949 129.751046)scale(0.08328 -0.08328)">
     <use xlink:href="#MicrosoftSansSerif-35"/>
     <use x="55.615234" xlink:href="#MicrosoftSansSerif-2e"/>
     <use x="83.398438" xlink:href="#MicrosoftSansSerif-30"/>
     <use x="139.013672" xlink:href="#MicrosoftSansSerif-30"/>
    </g>
   </g>
   <g id="text_16">
    <g id="patch_6">
     <path d="M 490.426875 428.136913 
L 540.373125 428.136913 
L 540.373125 397.236913 
L 490.426875 397.236913 
z
" style="fill:#ffff00;opacity:0.3;stroke:#000000;stroke-linejoin:miter;"/>
    </g>
    <!-- 50.00 -->
    <g style="fill:#0000ff;" transform="translate(500.386875 415.786288)scale(0.12 -0.12)">
     <use xlink:href="#MicrosoftSansSerif-35"/>
     <use x="55.615234" xlink:href="#MicrosoftSansSerif-30"/>
     <use x="111.230469" xlink:href="#MicrosoftSansSerif-2e"/>
     <use x="139.013672" xlink:href="#MicrosoftSansSerif-30"/>
     <use x="194.628906" xlink:href="#MicrosoftSansSerif-30"/>
    </g>
   </g>
   <g id="text_17">
    <!--  - -->
    <g style="opacity:0;" transform="translate(511.090125 12.479416)scale(0.144 -0.144)">
     <use xlink:href="#MicrosoftSansSerif-20"/>
     <use x="26.5625" xlink:href="#MicrosoftSansSerif-2d"/>
    </g>
    <!--   -->
    <g style="opacity:0;" transform="translate(513.4875 27.716866)scale(0.144 -0.144)">
     <use xlink:href="#MicrosoftSansSerif-20"/>
    </g>
   </g>
  </g>
 </g>
 <defs>
  <clipPath id="p0258a3c816">
   <path d="M 862.735838 415.786288 
C 862.735838 370.174563 853.751322 325.006356 836.296471 282.866617 
C 818.84162 240.726879 793.255886 202.435121 761.003526 170.182761 
C 728.751167 137.930402 690.459409 112.344668 648.31967 94.889816 
C 606.179932 77.434965 561.011724 68.45045 515.4 68.45045 
C 469.788276 68.45045 424.620068 77.434965 382.48033 94.889816 
C 340.340591 112.344668 302.048833 137.930402 269.796474 170.182761 
C 237.544114 202.435121 211.95838 240.726879 194.503529 282.866617 
C 177.048678 325.006356 168.064163 370.174563 168.064163 415.786288 
C 168.064163 461.398012 177.048678 506.566219 194.503529 548.705958 
C 211.95838 590.845696 237.544114 629.137454 269.796474 661.389814 
C 302.048833 693.642173 340.340591 719.227907 382.48033 736.682759 
C 424.620068 754.13761 469.788276 763.122125 515.4 763.122125 
C 561.011724 763.122125 606.179932 754.13761 648.31967 736.682759 
C 690.459409 719.227907 728.751167 693.642173 761.003526 661.389814 
C 793.255886 629.137454 818.84162 590.845696 836.296471 548.705958 
C 853.751322 506.566219 862.735838 461.398012 862.735838 415.786288 
M 515.4 415.786288 
C 515.4 415.786288 515.4 415.786288 515.4 415.786288 
C 515.4 415.786288 515.4 415.786288 515.4 415.786288 
C 515.4 415.786288 515.4 415.786288 515.4 415.786288 
C 515.4 415.786288 515.4 415.786288 515.4 415.786288 
C 515.4 415.786288 515.4 415.786288 515.4 415.786288 
C 515.4 415.786288 515.4 415.786288 515.4 415.786288 
C 515.4 415.786288 515.4 415.786288 515.4 415.786288 
C 515.4 415.786288 515.4 415.786288 515.4 415.786288 
C 515.4 415.786288 515.4 415.786288 515.4 415.786288 
C 515.4 415.786288 515.4 415.786288 515.4 415.786288 
C 515.4 415.786288 515.4 415.786288 515.4 415.786288 
C 515.4 415.786288 515.4 415.786288 515.4 415.786288 
C 515.4 415.786288 515.4 415.786288 515.4 415.786288 
C 515.4 415.786288 515.4 415.786288 515.4 415.786288 
C 515.4 415.786288 515.4 415.786288 515.4 415.786288 
C 515.4 415.786288 515.4 415.786288 515.4 415.786288 
M 862.735838 415.786288 
z
"/>
  </clipPath>
 </defs>
</svg>
